solid OpenSCAD_Model
  facet normal 0 -0.998876 0.0474043
    outer loop
      vertex -10.1 -5.8 31
      vertex 0 -6.03017 26.15
      vertex 10.1 -5.8 31
    endloop
  endfacet
  facet normal 1.62344e-08 -0.998876 0.0474044
    outer loop
      vertex -10.1 -5.8 31
      vertex -0.669696 -6.03649 26.0168
      vertex 0 -6.03017 26.15
    endloop
  endfacet
  facet normal -1.61346e-07 -0.998876 0.047404
    outer loop
      vertex -10.1 -5.8 31
      vertex -1.23744 -6.05449 25.6374
      vertex -0.669696 -6.03649 26.0168
    endloop
  endfacet
  facet normal 1.03371e-08 -0.998876 0.0474043
    outer loop
      vertex -10.1 -5.8 31
      vertex -1.61679 -6.08144 25.0697
      vertex -1.23744 -6.05449 25.6374
    endloop
  endfacet
  facet normal 4.88958e-09 -0.998876 0.0474043
    outer loop
      vertex -10.1 -5.8 31
      vertex -1.75 -6.11322 24.4
      vertex -1.61679 -6.08144 25.0697
    endloop
  endfacet
  facet normal 6.71394e-09 -0.998876 0.0474043
    outer loop
      vertex -10.1 -5.8 31
      vertex -1.61679 -6.145 23.7303
      vertex -1.75 -6.11322 24.4
    endloop
  endfacet
  facet normal -2.73064e-09 -0.998876 0.0474043
    outer loop
      vertex -8.7 -7.2 1.5
      vertex -1.61679 -6.145 23.7303
      vertex -10.1 -5.8 31
    endloop
  endfacet
  facet normal -2.64416e-08 -0.998876 0.0474043
    outer loop
      vertex -0.669696 -6.18995 22.7832
      vertex -8.7 -7.2 1.5
      vertex 0 -6.19627 22.65
    endloop
  endfacet
  facet normal 2.75486e-07 -0.998876 0.0474042
    outer loop
      vertex -1.23744 -6.17195 23.1626
      vertex -8.7 -7.2 1.5
      vertex -0.669696 -6.18995 22.7832
    endloop
  endfacet
  facet normal -2.46073e-08 -0.998876 0.0474043
    outer loop
      vertex -1.61679 -6.145 23.7303
      vertex -8.7 -7.2 1.5
      vertex -1.23744 -6.17195 23.1626
    endloop
  endfacet
  facet normal -1.62344e-08 -0.998876 0.0474044
    outer loop
      vertex 0.669696 -6.03649 26.0168
      vertex 10.1 -5.8 31
      vertex 0 -6.03017 26.15
    endloop
  endfacet
  facet normal 1.61346e-07 -0.998876 0.047404
    outer loop
      vertex 1.23744 -6.05449 25.6374
      vertex 10.1 -5.8 31
      vertex 0.669696 -6.03649 26.0168
    endloop
  endfacet
  facet normal -1.03371e-08 -0.998876 0.0474043
    outer loop
      vertex 1.61679 -6.08144 25.0697
      vertex 10.1 -5.8 31
      vertex 1.23744 -6.05449 25.6374
    endloop
  endfacet
  facet normal -4.88958e-09 -0.998876 0.0474043
    outer loop
      vertex 1.75 -6.11322 24.4
      vertex 10.1 -5.8 31
      vertex 1.61679 -6.08144 25.0697
    endloop
  endfacet
  facet normal -6.71394e-09 -0.998876 0.0474043
    outer loop
      vertex 1.61679 -6.145 23.7303
      vertex 10.1 -5.8 31
      vertex 1.75 -6.11322 24.4
    endloop
  endfacet
  facet normal 2.46073e-08 -0.998876 0.0474043
    outer loop
      vertex 8.7 -7.2 1.5
      vertex 1.61679 -6.145 23.7303
      vertex 1.23744 -6.17195 23.1626
    endloop
  endfacet
  facet normal 0 -0.998876 0.0474043
    outer loop
      vertex 8.7 -7.2 1.5
      vertex 0 -6.19627 22.65
      vertex -8.7 -7.2 1.5
    endloop
  endfacet
  facet normal 2.64416e-08 -0.998876 0.0474043
    outer loop
      vertex 0 -6.19627 22.65
      vertex 8.7 -7.2 1.5
      vertex 0.669696 -6.18995 22.7832
    endloop
  endfacet
  facet normal -2.75486e-07 -0.998876 0.0474042
    outer loop
      vertex 0.669696 -6.18995 22.7832
      vertex 8.7 -7.2 1.5
      vertex 1.23744 -6.17195 23.1626
    endloop
  endfacet
  facet normal 2.73064e-09 -0.998876 0.0474043
    outer loop
      vertex 1.61679 -6.145 23.7303
      vertex 8.7 -7.2 1.5
      vertex 10.1 -5.8 31
    endloop
  endfacet
  facet normal -1 0 0
    outer loop
      vertex -12 -3.9 -1.5
      vertex -12 12 3.18571
      vertex -12 12 -1.5
    endloop
  endfacet
  facet normal -1 -0 0
    outer loop
      vertex -12 12 3.18571
      vertex -12 -3.9 -1.5
      vertex -12 -1.2 31
    endloop
  endfacet
  facet normal -1 -0 0
    outer loop
      vertex -12 -1.2 31
      vertex -12 -3.9 -1.5
      vertex -12 -3.9 31
    endloop
  endfacet
  facet normal 0 0 -1
    outer loop
      vertex 12 -3.9 -1.5
      vertex 6.38582 3.42597 -1.5
      vertex 6.5 4 -1.5
    endloop
  endfacet
  facet normal 0 0 -1
    outer loop
      vertex 12 -3.9 -1.5
      vertex 6.06066 2.93934 -1.5
      vertex 6.38582 3.42597 -1.5
    endloop
  endfacet
  facet normal 0 0 -1
    outer loop
      vertex 12 -3.9 -1.5
      vertex 5.57402 2.61418 -1.5
      vertex 6.06066 2.93934 -1.5
    endloop
  endfacet
  facet normal 0 0 -1
    outer loop
      vertex 8.7 -7.2 -1.5
      vertex 5 2.5 -1.5
      vertex 5.57402 2.61418 -1.5
    endloop
  endfacet
  facet normal 0 0 -1
    outer loop
      vertex 8.7 -7.2 -1.5
      vertex 4.42597 2.61418 -1.5
      vertex 5 2.5 -1.5
    endloop
  endfacet
  facet normal 0 0 -1
    outer loop
      vertex -4.42597 2.61418 -1.5
      vertex 4.42597 2.61418 -1.5
      vertex 8.7 -7.2 -1.5
    endloop
  endfacet
  facet normal 0 0 -1
    outer loop
      vertex 4.42597 2.61418 -1.5
      vertex -4.42597 2.61418 -1.5
      vertex 3.93934 2.93934 -1.5
    endloop
  endfacet
  facet normal 0 0 -1
    outer loop
      vertex 3.61418 3.42597 -1.5
      vertex -3.5 4 -1.5
      vertex 3.5 4 -1.5
    endloop
  endfacet
  facet normal 0 -0 -1
    outer loop
      vertex -3.93934 2.93934 -1.5
      vertex 3.93934 2.93934 -1.5
      vertex -4.42597 2.61418 -1.5
    endloop
  endfacet
  facet normal 0 0 -1
    outer loop
      vertex 3.61418 3.42597 -1.5
      vertex -3.61418 3.42597 -1.5
      vertex -3.5 4 -1.5
    endloop
  endfacet
  facet normal -0 0 -1
    outer loop
      vertex 3.61418 3.42597 -1.5
      vertex -3.93934 2.93934 -1.5
      vertex -3.61418 3.42597 -1.5
    endloop
  endfacet
  facet normal 0 0 -1
    outer loop
      vertex 3.93934 2.93934 -1.5
      vertex -3.93934 2.93934 -1.5
      vertex 3.61418 3.42597 -1.5
    endloop
  endfacet
  facet normal 0 0 -1
    outer loop
      vertex -8.7 -7.2 -1.5
      vertex -4.42597 2.61418 -1.5
      vertex 8.7 -7.2 -1.5
    endloop
  endfacet
  facet normal 0 0 -1
    outer loop
      vertex -4.42597 2.61418 -1.5
      vertex -8.7 -7.2 -1.5
      vertex -5 2.5 -1.5
    endloop
  endfacet
  facet normal -0 0 -1
    outer loop
      vertex -5 2.5 -1.5
      vertex -8.7 -7.2 -1.5
      vertex -5.57402 2.61418 -1.5
    endloop
  endfacet
  facet normal -0 0 -1
    outer loop
      vertex -6.06066 2.93934 -1.5
      vertex -12 -3.9 -1.5
      vertex -6.38582 3.42597 -1.5
    endloop
  endfacet
  facet normal -0 0 -1
    outer loop
      vertex -5.57402 2.61418 -1.5
      vertex -12 -3.9 -1.5
      vertex -6.06066 2.93934 -1.5
    endloop
  endfacet
  facet normal 0 0 -1
    outer loop
      vertex -12 -3.9 -1.5
      vertex -5.57402 2.61418 -1.5
      vertex -8.7 -7.2 -1.5
    endloop
  endfacet
  facet normal 0 0 -1
    outer loop
      vertex 5.57402 2.61418 -1.5
      vertex 12 -3.9 -1.5
      vertex 8.7 -7.2 -1.5
    endloop
  endfacet
  facet normal 0 0 -1
    outer loop
      vertex 12 -3.9 -1.5
      vertex 6.5 4 -1.5
      vertex 12 12 -1.5
    endloop
  endfacet
  facet normal 0 0 -1
    outer loop
      vertex 6.38582 4.57402 -1.5
      vertex 12 12 -1.5
      vertex 6.5 4 -1.5
    endloop
  endfacet
  facet normal 0 0 -1
    outer loop
      vertex 6.06066 5.06066 -1.5
      vertex 12 12 -1.5
      vertex 6.38582 4.57402 -1.5
    endloop
  endfacet
  facet normal 0 0 -1
    outer loop
      vertex 5.57402 5.38582 -1.5
      vertex 12 12 -1.5
      vertex 6.06066 5.06066 -1.5
    endloop
  endfacet
  facet normal 0 0 -1
    outer loop
      vertex 5 5.5 -1.5
      vertex 12 12 -1.5
      vertex 5.57402 5.38582 -1.5
    endloop
  endfacet
  facet normal 0 0 -1
    outer loop
      vertex 4.42597 5.38582 -1.5
      vertex 12 12 -1.5
      vertex 5 5.5 -1.5
    endloop
  endfacet
  facet normal 0 0 -1
    outer loop
      vertex -4.42597 5.38582 -1.5
      vertex 4.42597 5.38582 -1.5
      vertex 3.93934 5.06066 -1.5
    endloop
  endfacet
  facet normal 0 0 -1
    outer loop
      vertex -3.5 4 -1.5
      vertex 3.61418 4.57402 -1.5
      vertex 3.5 4 -1.5
    endloop
  endfacet
  facet normal 0 0 -1
    outer loop
      vertex -3.61418 4.57402 -1.5
      vertex 3.61418 4.57402 -1.5
      vertex -3.5 4 -1.5
    endloop
  endfacet
  facet normal 0 0 -1
    outer loop
      vertex 3.61418 4.57402 -1.5
      vertex -3.61418 4.57402 -1.5
      vertex 3.93934 5.06066 -1.5
    endloop
  endfacet
  facet normal 0 0 -1
    outer loop
      vertex -3.93934 5.06066 -1.5
      vertex 3.93934 5.06066 -1.5
      vertex -3.61418 4.57402 -1.5
    endloop
  endfacet
  facet normal 0 0 -1
    outer loop
      vertex -4.42597 5.38582 -1.5
      vertex 3.93934 5.06066 -1.5
      vertex -3.93934 5.06066 -1.5
    endloop
  endfacet
  facet normal 0 0 -1
    outer loop
      vertex 4.42597 5.38582 -1.5
      vertex -4.42597 5.38582 -1.5
      vertex 12 12 -1.5
    endloop
  endfacet
  facet normal 0 0 -1
    outer loop
      vertex -12 12 -1.5
      vertex -4.42597 5.38582 -1.5
      vertex -5 5.5 -1.5
    endloop
  endfacet
  facet normal 0 0 -1
    outer loop
      vertex -12 12 -1.5
      vertex -5 5.5 -1.5
      vertex -5.57402 5.38582 -1.5
    endloop
  endfacet
  facet normal -0 0 -1
    outer loop
      vertex -6.38582 3.42597 -1.5
      vertex -12 -3.9 -1.5
      vertex -6.5 4 -1.5
    endloop
  endfacet
  facet normal 0 0 -1
    outer loop
      vertex -12 12 -1.5
      vertex -6.5 4 -1.5
      vertex -12 -3.9 -1.5
    endloop
  endfacet
  facet normal 0 0 -1
    outer loop
      vertex -4.42597 5.38582 -1.5
      vertex -12 12 -1.5
      vertex 12 12 -1.5
    endloop
  endfacet
  facet normal 0 0 -1
    outer loop
      vertex -6.06066 5.06066 -1.5
      vertex -12 12 -1.5
      vertex -5.57402 5.38582 -1.5
    endloop
  endfacet
  facet normal 0 0 -1
    outer loop
      vertex -6.38582 4.57402 -1.5
      vertex -12 12 -1.5
      vertex -6.06066 5.06066 -1.5
    endloop
  endfacet
  facet normal 0 0 -1
    outer loop
      vertex -6.5 4 -1.5
      vertex -12 12 -1.5
      vertex -6.38582 4.57402 -1.5
    endloop
  endfacet
  facet normal 0 -1 0
    outer loop
      vertex -8.7 -7.2 -1.5
      vertex 8.7 -7.2 1.5
      vertex -8.7 -7.2 1.5
    endloop
  endfacet
  facet normal 0 -1 -0
    outer loop
      vertex 8.7 -7.2 1.5
      vertex -8.7 -7.2 -1.5
      vertex 8.7 -7.2 -1.5
    endloop
  endfacet
  facet normal 0 0 1
    outer loop
      vertex -10.4 -1.2 31
      vertex -12 -1.2 31
      vertex -10.4 -2.6 31
    endloop
  endfacet
  facet normal 0 0 1
    outer loop
      vertex 10.4 -2.6 31
      vertex 12 -1.2 31
      vertex 10.4 -1.2 31
    endloop
  endfacet
  facet normal 0 0 1
    outer loop
      vertex 12 -1.2 31
      vertex 10.4 -2.6 31
      vertex 12 -3.9 31
    endloop
  endfacet
  facet normal 0 0 1
    outer loop
      vertex 10.4 -2.6 31
      vertex 10.1 -5.8 31
      vertex 12 -3.9 31
    endloop
  endfacet
  facet normal 0 0 1
    outer loop
      vertex 10.4 -2.6 31
      vertex -10.1 -5.8 31
      vertex 10.1 -5.8 31
    endloop
  endfacet
  facet normal -0 0 1
    outer loop
      vertex -10.4 -2.6 31
      vertex -10.1 -5.8 31
      vertex 10.4 -2.6 31
    endloop
  endfacet
  facet normal 0 0 1
    outer loop
      vertex -12 -3.9 31
      vertex -10.4 -2.6 31
      vertex -12 -1.2 31
    endloop
  endfacet
  facet normal 0 0 1
    outer loop
      vertex -10.4 -2.6 31
      vertex -12 -3.9 31
      vertex -10.1 -5.8 31
    endloop
  endfacet
  facet normal 0 0.903426 0.428744
    outer loop
      vertex 12 12 3.18571
      vertex 10.4 -1.2 31
      vertex 12 -1.2 31
    endloop
  endfacet
  facet normal 0 0.903426 0.428744
    outer loop
      vertex 10.4 -1.2 31
      vertex 12 12 3.18571
      vertex 10.4 12 3.18571
    endloop
  endfacet
  facet normal 0 0.903426 0.428744
    outer loop
      vertex -10.4 12 3.18571
      vertex -12 -1.2 31
      vertex -10.4 -1.2 31
    endloop
  endfacet
  facet normal 0 0.903426 0.428744
    outer loop
      vertex -12 -1.2 31
      vertex -10.4 12 3.18571
      vertex -12 12 3.18571
    endloop
  endfacet
  facet normal 1 0 0
    outer loop
      vertex 12 -3.9 -1.5
      vertex 12 12 3.18571
      vertex 12 -1.2 31
    endloop
  endfacet
  facet normal 1 0 0
    outer loop
      vertex 12 -3.9 -1.5
      vertex 12 -1.2 31
      vertex 12 -3.9 31
    endloop
  endfacet
  facet normal 1 0 0
    outer loop
      vertex 12 12 3.18571
      vertex 12 -3.9 -1.5
      vertex 12 12 -1.5
    endloop
  endfacet
  facet normal 1 0 0
    outer loop
      vertex -10.4 -2.6 0
      vertex -10.4 12 3.18571
      vertex -10.4 -1.2 31
    endloop
  endfacet
  facet normal 1 0 0
    outer loop
      vertex -10.4 -2.6 0
      vertex -10.4 -1.2 31
      vertex -10.4 -2.6 31
    endloop
  endfacet
  facet normal 1 0 0
    outer loop
      vertex -10.4 12 3.18571
      vertex -10.4 -2.6 0
      vertex -10.4 12 0
    endloop
  endfacet
  facet normal -1 0 0
    outer loop
      vertex 10.4 -2.6 0
      vertex 10.4 12 3.18571
      vertex 10.4 12 0
    endloop
  endfacet
  facet normal -1 -0 0
    outer loop
      vertex 10.4 12 3.18571
      vertex 10.4 -2.6 0
      vertex 10.4 -1.2 31
    endloop
  endfacet
  facet normal -1 -0 0
    outer loop
      vertex 10.4 -1.2 31
      vertex 10.4 -2.6 0
      vertex 10.4 -2.6 31
    endloop
  endfacet
  facet normal 0 0 1
    outer loop
      vertex 10.4 12 0
      vertex 6.5 4 0
      vertex 10.4 -2.6 0
    endloop
  endfacet
  facet normal 0 0 1
    outer loop
      vertex 10.4 12 0
      vertex 6.38582 4.57402 0
      vertex 6.5 4 0
    endloop
  endfacet
  facet normal 0 0 1
    outer loop
      vertex 10.4 12 0
      vertex 6.06066 5.06066 0
      vertex 6.38582 4.57402 0
    endloop
  endfacet
  facet normal 0 0 1
    outer loop
      vertex 10.4 12 0
      vertex 5.57402 5.38582 0
      vertex 6.06066 5.06066 0
    endloop
  endfacet
  facet normal 0 0 1
    outer loop
      vertex 10.4 12 0
      vertex 5 5.5 0
      vertex 5.57402 5.38582 0
    endloop
  endfacet
  facet normal 0 0 1
    outer loop
      vertex 10.4 12 0
      vertex 4.42597 5.38582 0
      vertex 5 5.5 0
    endloop
  endfacet
  facet normal 0 0 1
    outer loop
      vertex -4.42597 5.38582 0
      vertex 4.42597 5.38582 0
      vertex 10.4 12 0
    endloop
  endfacet
  facet normal 0 0 1
    outer loop
      vertex 3.61418 4.57402 0
      vertex -3.5 4 0
      vertex 3.5 4 0
    endloop
  endfacet
  facet normal 0 0 1
    outer loop
      vertex -3.61418 4.57402 0
      vertex 3.61418 4.57402 0
      vertex 3.93934 5.06066 0
    endloop
  endfacet
  facet normal 0 0 1
    outer loop
      vertex 4.42597 5.38582 0
      vertex -4.42597 5.38582 0
      vertex 3.93934 5.06066 0
    endloop
  endfacet
  facet normal 0 0 1
    outer loop
      vertex 3.61418 4.57402 0
      vertex -3.61418 4.57402 0
      vertex -3.5 4 0
    endloop
  endfacet
  facet normal 0 0 1
    outer loop
      vertex 3.93934 5.06066 0
      vertex -3.93934 5.06066 0
      vertex -3.61418 4.57402 0
    endloop
  endfacet
  facet normal 0 0 1
    outer loop
      vertex 3.93934 5.06066 0
      vertex -4.42597 5.38582 0
      vertex -3.93934 5.06066 0
    endloop
  endfacet
  facet normal -0 0 1
    outer loop
      vertex -10.4 12 0
      vertex -4.42597 5.38582 0
      vertex 10.4 12 0
    endloop
  endfacet
  facet normal 0 0 1
    outer loop
      vertex -4.42597 5.38582 0
      vertex -10.4 12 0
      vertex -5 5.5 0
    endloop
  endfacet
  facet normal 0 0 1
    outer loop
      vertex -6.38582 4.57402 0
      vertex -10.4 12 0
      vertex -6.5 4 0
    endloop
  endfacet
  facet normal 0 0 1
    outer loop
      vertex -6.06066 5.06066 0
      vertex -10.4 12 0
      vertex -6.38582 4.57402 0
    endloop
  endfacet
  facet normal 0 0 1
    outer loop
      vertex -5.57402 5.38582 0
      vertex -10.4 12 0
      vertex -6.06066 5.06066 0
    endloop
  endfacet
  facet normal 0 0 1
    outer loop
      vertex -5 5.5 0
      vertex -10.4 12 0
      vertex -5.57402 5.38582 0
    endloop
  endfacet
  facet normal -0 0 1
    outer loop
      vertex 6.38582 3.42597 0
      vertex 10.4 -2.6 0
      vertex 6.5 4 0
    endloop
  endfacet
  facet normal -0 0 1
    outer loop
      vertex 6.06066 2.93934 0
      vertex 10.4 -2.6 0
      vertex 6.38582 3.42597 0
    endloop
  endfacet
  facet normal -0 0 1
    outer loop
      vertex 5.57402 2.61418 0
      vertex 10.4 -2.6 0
      vertex 6.06066 2.93934 0
    endloop
  endfacet
  facet normal -0 0 1
    outer loop
      vertex 5 2.5 0
      vertex 10.4 -2.6 0
      vertex 5.57402 2.61418 0
    endloop
  endfacet
  facet normal 0 0 1
    outer loop
      vertex 4.42597 2.61418 0
      vertex 10.4 -2.6 0
      vertex 5 2.5 0
    endloop
  endfacet
  facet normal 0 0 1
    outer loop
      vertex -4.42597 2.61418 0
      vertex 4.42597 2.61418 0
      vertex 3.93934 2.93934 0
    endloop
  endfacet
  facet normal -0 0 1
    outer loop
      vertex -3.5 4 0
      vertex 3.61418 3.42597 0
      vertex 3.5 4 0
    endloop
  endfacet
  facet normal 0 0 1
    outer loop
      vertex -3.61418 3.42597 0
      vertex 3.61418 3.42597 0
      vertex -3.5 4 0
    endloop
  endfacet
  facet normal 0 0 1
    outer loop
      vertex 3.61418 3.42597 0
      vertex -3.61418 3.42597 0
      vertex 3.93934 2.93934 0
    endloop
  endfacet
  facet normal 0 0 1
    outer loop
      vertex -3.93934 2.93934 0
      vertex 3.93934 2.93934 0
      vertex -3.61418 3.42597 0
    endloop
  endfacet
  facet normal 0 0 1
    outer loop
      vertex -4.42597 2.61418 0
      vertex 3.93934 2.93934 0
      vertex -3.93934 2.93934 0
    endloop
  endfacet
  facet normal 0 0 1
    outer loop
      vertex 4.42597 2.61418 0
      vertex -4.42597 2.61418 0
      vertex 10.4 -2.6 0
    endloop
  endfacet
  facet normal 0 0 1
    outer loop
      vertex -10.4 -2.6 0
      vertex -4.42597 2.61418 0
      vertex -5 2.5 0
    endloop
  endfacet
  facet normal 0 0 1
    outer loop
      vertex -10.4 -2.6 0
      vertex -5 2.5 0
      vertex -5.57402 2.61418 0
    endloop
  endfacet
  facet normal 0 0 1
    outer loop
      vertex -10.4 -2.6 0
      vertex -6.5 4 0
      vertex -10.4 12 0
    endloop
  endfacet
  facet normal 0 0 1
    outer loop
      vertex -4.42597 2.61418 0
      vertex -10.4 -2.6 0
      vertex 10.4 -2.6 0
    endloop
  endfacet
  facet normal 0 0 1
    outer loop
      vertex -6.06066 2.93934 0
      vertex -10.4 -2.6 0
      vertex -5.57402 2.61418 0
    endloop
  endfacet
  facet normal 0 0 1
    outer loop
      vertex -6.38582 3.42597 0
      vertex -10.4 -2.6 0
      vertex -6.06066 2.93934 0
    endloop
  endfacet
  facet normal 0 0 1
    outer loop
      vertex -6.5 4 0
      vertex -10.4 -2.6 0
      vertex -6.38582 3.42597 0
    endloop
  endfacet
  facet normal 0 1 0
    outer loop
      vertex 10.4 -2.6 31
      vertex 0 -2.6 29.3145
      vertex -10.4 -2.6 31
    endloop
  endfacet
  facet normal 0 1 0
    outer loop
      vertex 10.4 -2.6 31
      vertex 0.638363 -2.6 29.1874
      vertex 0 -2.6 29.3145
    endloop
  endfacet
  facet normal 0 1 0
    outer loop
      vertex 10.4 -2.6 31
      vertex 1.91342 -2.6 28.9335
      vertex 0.638363 -2.6 29.1874
    endloop
  endfacet
  facet normal 0 1 0
    outer loop
      vertex 10.4 -2.6 31
      vertex 2.97931 -2.6 28.2204
      vertex 1.91342 -2.6 28.9335
    endloop
  endfacet
  facet normal 0 1 0
    outer loop
      vertex 10.4 -2.6 31
      vertex 3.53553 -2.6 27.8483
      vertex 2.97931 -2.6 28.2204
    endloop
  endfacet
  facet normal 0 1 0
    outer loop
      vertex 10.4 -2.6 31
      vertex 4.6194 -2.6 26.2244
      vertex 3.53553 -2.6 27.8483
    endloop
  endfacet
  facet normal 0 1 0
    outer loop
      vertex 10.4 -2.6 31
      vertex 4.75978 -2.6 25.5178
      vertex 4.6194 -2.6 26.2244
    endloop
  endfacet
  facet normal 0 1 0
    outer loop
      vertex 10.4 -2.6 31
      vertex 5 -2.6 24.3087
      vertex 4.75978 -2.6 25.5178
    endloop
  endfacet
  facet normal 0 1 0
    outer loop
      vertex 10.4 -2.6 31
      vertex 4.76845 -2.6 23.1433
      vertex 5 -2.6 24.3087
    endloop
  endfacet
  facet normal 0 1 -0
    outer loop
      vertex 7.39104 -2.6 12.9012
      vertex 4.76845 -2.6 23.1433
      vertex 10.4 -2.6 31
    endloop
  endfacet
  facet normal 0 1 0
    outer loop
      vertex 4.76845 -2.6 23.1433
      vertex 7.39104 -2.6 12.9012
      vertex 4.6194 -2.6 22.3931
    endloop
  endfacet
  facet normal 0 1 0
    outer loop
      vertex 4.6194 -2.6 22.3931
      vertex 5.65685 -2.6 15.4996
      vertex 3.9778 -2.6 21.4318
    endloop
  endfacet
  facet normal 0 1 -0
    outer loop
      vertex 3.06147 -2.6 17.2358
      vertex 2.85625 -2.6 20.3147
      vertex 3.53553 -2.6 20.7691
    endloop
  endfacet
  facet normal 0 1 0
    outer loop
      vertex 1.91342 -2.6 19.684
      vertex 0 -2.6 17.8454
      vertex 0 -2.6 19.303
    endloop
  endfacet
  facet normal 0 1 0
    outer loop
      vertex 2.85625 -2.6 20.3147
      vertex 3.06147 -2.6 17.2358
      vertex 1.91342 -2.6 19.684
    endloop
  endfacet
  facet normal 0 1 0
    outer loop
      vertex 1.91342 -2.6 19.684
      vertex 2.59391 -2.6 17.3289
      vertex 0 -2.6 17.8454
    endloop
  endfacet
  facet normal 0 1 0
    outer loop
      vertex 3.9778 -2.6 21.4318
      vertex 5.65685 -2.6 15.4996
      vertex 3.53553 -2.6 20.7691
    endloop
  endfacet
  facet normal 0 1 0
    outer loop
      vertex 1.91342 -2.6 19.684
      vertex 3.06147 -2.6 17.2358
      vertex 2.59391 -2.6 17.3289
    endloop
  endfacet
  facet normal 0 1 0
    outer loop
      vertex 3.53553 -2.6 20.7691
      vertex 3.46008 -2.6 16.9691
      vertex 3.06147 -2.6 17.2358
    endloop
  endfacet
  facet normal 0 1 0
    outer loop
      vertex 3.53553 -2.6 20.7691
      vertex 5.65685 -2.6 15.4996
      vertex 3.46008 -2.6 16.9691
    endloop
  endfacet
  facet normal 0 1 0
    outer loop
      vertex 4.6194 -2.6 22.3931
      vertex 7.39104 -2.6 12.9012
      vertex 5.65685 -2.6 15.4996
    endloop
  endfacet
  facet normal 0 1 0
    outer loop
      vertex 10.4 -2.6 31
      vertex 7.89681 -2.6 10.3556
      vertex 7.39104 -2.6 12.9012
    endloop
  endfacet
  facet normal 0 1 0
    outer loop
      vertex 10.4 -2.6 31
      vertex 8 -2.6 9.83621
      vertex 7.89681 -2.6 10.3556
    endloop
  endfacet
  facet normal 0 1 0
    outer loop
      vertex 10.4 -2.6 0
      vertex 7.49867 -2.6 7.31295
      vertex 8 -2.6 9.83621
    endloop
  endfacet
  facet normal 0 1 0
    outer loop
      vertex 3.06147 -2.6 2.43665
      vertex 10.4 -2.6 0
      vertex 0 -2.6 1.82698
    endloop
  endfacet
  facet normal 0 1 0
    outer loop
      vertex 5.65685 -2.6 4.17283
      vertex 10.4 -2.6 0
      vertex 3.06147 -2.6 2.43665
    endloop
  endfacet
  facet normal 0 1 0
    outer loop
      vertex 7.39104 -2.6 6.77121
      vertex 10.4 -2.6 0
      vertex 5.65685 -2.6 4.17283
    endloop
  endfacet
  facet normal 0 1 0
    outer loop
      vertex 7.49867 -2.6 7.31295
      vertex 10.4 -2.6 0
      vertex 7.39104 -2.6 6.77121
    endloop
  endfacet
  facet normal 0 1 -0
    outer loop
      vertex 10.4 -2.6 0
      vertex 8 -2.6 9.83621
      vertex 10.4 -2.6 31
    endloop
  endfacet
  facet normal 0 1 -0
    outer loop
      vertex -0.638363 -2.6 29.1874
      vertex -10.4 -2.6 31
      vertex 0 -2.6 29.3145
    endloop
  endfacet
  facet normal 0 1 -0
    outer loop
      vertex -1.91342 -2.6 28.9335
      vertex -10.4 -2.6 31
      vertex -0.638363 -2.6 29.1874
    endloop
  endfacet
  facet normal 0 1 -0
    outer loop
      vertex -2.97931 -2.6 28.2204
      vertex -10.4 -2.6 31
      vertex -1.91342 -2.6 28.9335
    endloop
  endfacet
  facet normal 0 1 -0
    outer loop
      vertex -3.53553 -2.6 27.8483
      vertex -10.4 -2.6 31
      vertex -2.97931 -2.6 28.2204
    endloop
  endfacet
  facet normal 0 1 -0
    outer loop
      vertex -4.6194 -2.6 26.2244
      vertex -10.4 -2.6 31
      vertex -3.53553 -2.6 27.8483
    endloop
  endfacet
  facet normal 0 1 -0
    outer loop
      vertex -4.75978 -2.6 25.5178
      vertex -10.4 -2.6 31
      vertex -4.6194 -2.6 26.2244
    endloop
  endfacet
  facet normal 0 1 -0
    outer loop
      vertex -5 -2.6 24.3087
      vertex -10.4 -2.6 31
      vertex -4.75978 -2.6 25.5178
    endloop
  endfacet
  facet normal 0 1 0
    outer loop
      vertex -4.76845 -2.6 23.1433
      vertex -10.4 -2.6 31
      vertex -5 -2.6 24.3087
    endloop
  endfacet
  facet normal 0 1 0
    outer loop
      vertex -7.39104 -2.6 12.9012
      vertex -4.76845 -2.6 23.1433
      vertex -4.6194 -2.6 22.3931
    endloop
  endfacet
  facet normal 0 1 0
    outer loop
      vertex -5.65685 -2.6 15.4996
      vertex -4.6194 -2.6 22.3931
      vertex -3.9778 -2.6 21.4318
    endloop
  endfacet
  facet normal 0 1 0
    outer loop
      vertex -5.65685 -2.6 15.4996
      vertex -3.9778 -2.6 21.4318
      vertex -3.53553 -2.6 20.7691
    endloop
  endfacet
  facet normal 0 1 0
    outer loop
      vertex -3.06147 -2.6 17.2358
      vertex -2.85625 -2.6 20.3147
      vertex -1.91342 -2.6 19.684
    endloop
  endfacet
  facet normal 0 1 -0
    outer loop
      vertex 0 -2.6 17.8454
      vertex -1.91342 -2.6 19.684
      vertex 0 -2.6 19.303
    endloop
  endfacet
  facet normal 0 1 0
    outer loop
      vertex -2.59391 -2.6 17.3289
      vertex -1.91342 -2.6 19.684
      vertex 0 -2.6 17.8454
    endloop
  endfacet
  facet normal 0 1 0
    outer loop
      vertex -3.06147 -2.6 17.2358
      vertex -1.91342 -2.6 19.684
      vertex -2.59391 -2.6 17.3289
    endloop
  endfacet
  facet normal 0 1 0
    outer loop
      vertex -2.85625 -2.6 20.3147
      vertex -3.06147 -2.6 17.2358
      vertex -3.53553 -2.6 20.7691
    endloop
  endfacet
  facet normal 0 1 -0
    outer loop
      vertex -3.46008 -2.6 16.9691
      vertex -3.53553 -2.6 20.7691
      vertex -3.06147 -2.6 17.2358
    endloop
  endfacet
  facet normal 0 1 0
    outer loop
      vertex -5.65685 -2.6 15.4996
      vertex -3.53553 -2.6 20.7691
      vertex -3.46008 -2.6 16.9691
    endloop
  endfacet
  facet normal 0 1 0
    outer loop
      vertex -7.39104 -2.6 12.9012
      vertex -4.6194 -2.6 22.3931
      vertex -5.65685 -2.6 15.4996
    endloop
  endfacet
  facet normal 0 1 0
    outer loop
      vertex -4.76845 -2.6 23.1433
      vertex -7.39104 -2.6 12.9012
      vertex -10.4 -2.6 31
    endloop
  endfacet
  facet normal 0 1 -0
    outer loop
      vertex -8 -2.6 9.83621
      vertex -10.4 -2.6 31
      vertex -7.39104 -2.6 12.9012
    endloop
  endfacet
  facet normal 0 1 0
    outer loop
      vertex -8 -2.6 9.83621
      vertex -10.4 -2.6 0
      vertex -10.4 -2.6 31
    endloop
  endfacet
  facet normal 0 1 0
    outer loop
      vertex -7.39104 -2.6 6.77121
      vertex -10.4 -2.6 0
      vertex -8 -2.6 9.83621
    endloop
  endfacet
  facet normal 0 1 0
    outer loop
      vertex -5.65685 -2.6 4.17283
      vertex -10.4 -2.6 0
      vertex -7.39104 -2.6 6.77121
    endloop
  endfacet
  facet normal 0 1 0
    outer loop
      vertex -3.06147 -2.6 2.43665
      vertex -10.4 -2.6 0
      vertex -5.65685 -2.6 4.17283
    endloop
  endfacet
  facet normal 0 1 0
    outer loop
      vertex 0 -2.6 1.82698
      vertex -10.4 -2.6 0
      vertex -3.06147 -2.6 2.43665
    endloop
  endfacet
  facet normal 0 1 0
    outer loop
      vertex -10.4 -2.6 0
      vertex 0 -2.6 1.82698
      vertex 10.4 -2.6 0
    endloop
  endfacet
  facet normal 0 1 0
    outer loop
      vertex 12 12 3.18571
      vertex 10.4 12 0
      vertex 10.4 12 3.18571
    endloop
  endfacet
  facet normal 0 1 0
    outer loop
      vertex 10.4 12 0
      vertex 12 12 -1.5
      vertex -10.4 12 0
    endloop
  endfacet
  facet normal 0 1 -0
    outer loop
      vertex 12 12 -1.5
      vertex 10.4 12 0
      vertex 12 12 3.18571
    endloop
  endfacet
  facet normal 0 1 -0
    outer loop
      vertex -10.4 12 0
      vertex -12 12 3.18571
      vertex -10.4 12 3.18571
    endloop
  endfacet
  facet normal 0 1 0
    outer loop
      vertex -10.4 12 0
      vertex -12 12 -1.5
      vertex -12 12 3.18571
    endloop
  endfacet
  facet normal 0 1 0
    outer loop
      vertex -12 12 -1.5
      vertex -10.4 12 0
      vertex 12 12 -1.5
    endloop
  endfacet
  facet normal -0.980785 -0.195092 0
    outer loop
      vertex 6.5 4 -1.5
      vertex 6.38582 4.57402 0
      vertex 6.38582 4.57402 -1.5
    endloop
  endfacet
  facet normal -0.980785 -0.195092 0
    outer loop
      vertex 6.38582 4.57402 0
      vertex 6.5 4 -1.5
      vertex 6.5 4 0
    endloop
  endfacet
  facet normal 0.980785 0.19509 0
    outer loop
      vertex 3.61418 3.42597 0
      vertex 3.5 4 -1.5
      vertex 3.5 4 0
    endloop
  endfacet
  facet normal 0.980785 0.19509 0
    outer loop
      vertex 3.5 4 -1.5
      vertex 3.61418 3.42597 0
      vertex 3.61418 3.42597 -1.5
    endloop
  endfacet
  facet normal 0.195092 -0.980785 0
    outer loop
      vertex 4.42597 5.38582 -1.5
      vertex 5 5.5 0
      vertex 4.42597 5.38582 0
    endloop
  endfacet
  facet normal 0.195092 -0.980785 0
    outer loop
      vertex 5 5.5 0
      vertex 4.42597 5.38582 -1.5
      vertex 5 5.5 -1.5
    endloop
  endfacet
  facet normal -0.19509 0.980785 0
    outer loop
      vertex 5.57402 2.61418 -1.5
      vertex 5 2.5 0
      vertex 5.57402 2.61418 0
    endloop
  endfacet
  facet normal -0.19509 0.980785 0
    outer loop
      vertex 5 2.5 0
      vertex 5.57402 2.61418 -1.5
      vertex 5 2.5 -1.5
    endloop
  endfacet
  facet normal -0.55557 -0.83147 0
    outer loop
      vertex 5.57402 5.38582 -1.5
      vertex 6.06066 5.06066 0
      vertex 5.57402 5.38582 0
    endloop
  endfacet
  facet normal -0.55557 -0.83147 -0
    outer loop
      vertex 6.06066 5.06066 0
      vertex 5.57402 5.38582 -1.5
      vertex 6.06066 5.06066 -1.5
    endloop
  endfacet
  facet normal -0.83147 -0.55557 0
    outer loop
      vertex 6.38582 4.57402 -1.5
      vertex 6.06066 5.06066 0
      vertex 6.06066 5.06066 -1.5
    endloop
  endfacet
  facet normal -0.83147 -0.55557 0
    outer loop
      vertex 6.06066 5.06066 0
      vertex 6.38582 4.57402 -1.5
      vertex 6.38582 4.57402 0
    endloop
  endfacet
  facet normal -0.195092 -0.980785 0
    outer loop
      vertex 5 5.5 -1.5
      vertex 5.57402 5.38582 0
      vertex 5 5.5 0
    endloop
  endfacet
  facet normal -0.195092 -0.980785 -0
    outer loop
      vertex 5.57402 5.38582 0
      vertex 5 5.5 -1.5
      vertex 5.57402 5.38582 -1.5
    endloop
  endfacet
  facet normal 0.83147 -0.55557 0
    outer loop
      vertex 3.61418 4.57402 0
      vertex 3.93934 5.06066 -1.5
      vertex 3.93934 5.06066 0
    endloop
  endfacet
  facet normal 0.83147 -0.55557 0
    outer loop
      vertex 3.93934 5.06066 -1.5
      vertex 3.61418 4.57402 0
      vertex 3.61418 4.57402 -1.5
    endloop
  endfacet
  facet normal 0.980785 -0.19509 0
    outer loop
      vertex 3.5 4 0
      vertex 3.61418 4.57402 -1.5
      vertex 3.61418 4.57402 0
    endloop
  endfacet
  facet normal 0.980785 -0.19509 0
    outer loop
      vertex 3.61418 4.57402 -1.5
      vertex 3.5 4 0
      vertex 3.5 4 -1.5
    endloop
  endfacet
  facet normal 0.55557 -0.83147 0
    outer loop
      vertex 3.93934 5.06066 -1.5
      vertex 4.42597 5.38582 0
      vertex 3.93934 5.06066 0
    endloop
  endfacet
  facet normal 0.55557 -0.83147 0
    outer loop
      vertex 4.42597 5.38582 0
      vertex 3.93934 5.06066 -1.5
      vertex 4.42597 5.38582 -1.5
    endloop
  endfacet
  facet normal -0.980785 0.195092 0
    outer loop
      vertex 6.38582 3.42597 -1.5
      vertex 6.5 4 0
      vertex 6.5 4 -1.5
    endloop
  endfacet
  facet normal -0.980785 0.195092 0
    outer loop
      vertex 6.5 4 0
      vertex 6.38582 3.42597 -1.5
      vertex 6.38582 3.42597 0
    endloop
  endfacet
  facet normal 0.83147 0.55557 0
    outer loop
      vertex 3.93934 2.93934 0
      vertex 3.61418 3.42597 -1.5
      vertex 3.61418 3.42597 0
    endloop
  endfacet
  facet normal 0.83147 0.55557 0
    outer loop
      vertex 3.61418 3.42597 -1.5
      vertex 3.93934 2.93934 0
      vertex 3.93934 2.93934 -1.5
    endloop
  endfacet
  facet normal -0.55557 0.83147 0
    outer loop
      vertex 6.06066 2.93934 -1.5
      vertex 5.57402 2.61418 0
      vertex 6.06066 2.93934 0
    endloop
  endfacet
  facet normal -0.55557 0.83147 0
    outer loop
      vertex 5.57402 2.61418 0
      vertex 6.06066 2.93934 -1.5
      vertex 5.57402 2.61418 -1.5
    endloop
  endfacet
  facet normal -0.83147 0.55557 0
    outer loop
      vertex 6.06066 2.93934 -1.5
      vertex 6.38582 3.42597 0
      vertex 6.38582 3.42597 -1.5
    endloop
  endfacet
  facet normal -0.83147 0.55557 0
    outer loop
      vertex 6.38582 3.42597 0
      vertex 6.06066 2.93934 -1.5
      vertex 6.06066 2.93934 0
    endloop
  endfacet
  facet normal 0.19509 0.980785 -0
    outer loop
      vertex 5 2.5 -1.5
      vertex 4.42597 2.61418 0
      vertex 5 2.5 0
    endloop
  endfacet
  facet normal 0.19509 0.980785 0
    outer loop
      vertex 4.42597 2.61418 0
      vertex 5 2.5 -1.5
      vertex 4.42597 2.61418 -1.5
    endloop
  endfacet
  facet normal 0.55557 0.83147 -0
    outer loop
      vertex 4.42597 2.61418 -1.5
      vertex 3.93934 2.93934 0
      vertex 4.42597 2.61418 0
    endloop
  endfacet
  facet normal 0.55557 0.83147 0
    outer loop
      vertex 3.93934 2.93934 0
      vertex 4.42597 2.61418 -1.5
      vertex 3.93934 2.93934 -1.5
    endloop
  endfacet
  facet normal -0.980785 -0.19509 0
    outer loop
      vertex -3.5 4 -1.5
      vertex -3.61418 4.57402 0
      vertex -3.61418 4.57402 -1.5
    endloop
  endfacet
  facet normal -0.980785 -0.19509 0
    outer loop
      vertex -3.61418 4.57402 0
      vertex -3.5 4 -1.5
      vertex -3.5 4 0
    endloop
  endfacet
  facet normal 0.980785 -0.195092 0
    outer loop
      vertex -6.5 4 0
      vertex -6.38582 4.57402 -1.5
      vertex -6.38582 4.57402 0
    endloop
  endfacet
  facet normal 0.980785 -0.195092 0
    outer loop
      vertex -6.38582 4.57402 -1.5
      vertex -6.5 4 0
      vertex -6.5 4 -1.5
    endloop
  endfacet
  facet normal -0.195092 -0.980785 0
    outer loop
      vertex -5 5.5 -1.5
      vertex -4.42597 5.38582 0
      vertex -5 5.5 0
    endloop
  endfacet
  facet normal -0.195092 -0.980785 -0
    outer loop
      vertex -4.42597 5.38582 0
      vertex -5 5.5 -1.5
      vertex -4.42597 5.38582 -1.5
    endloop
  endfacet
  facet normal -0.83147 -0.55557 0
    outer loop
      vertex -3.61418 4.57402 -1.5
      vertex -3.93934 5.06066 0
      vertex -3.93934 5.06066 -1.5
    endloop
  endfacet
  facet normal -0.83147 -0.55557 0
    outer loop
      vertex -3.93934 5.06066 0
      vertex -3.61418 4.57402 -1.5
      vertex -3.61418 4.57402 0
    endloop
  endfacet
  facet normal 0.19509 0.980785 -0
    outer loop
      vertex -5 2.5 -1.5
      vertex -5.57402 2.61418 0
      vertex -5 2.5 0
    endloop
  endfacet
  facet normal 0.19509 0.980785 0
    outer loop
      vertex -5.57402 2.61418 0
      vertex -5 2.5 -1.5
      vertex -5.57402 2.61418 -1.5
    endloop
  endfacet
  facet normal -0.55557 -0.83147 0
    outer loop
      vertex -4.42597 5.38582 -1.5
      vertex -3.93934 5.06066 0
      vertex -4.42597 5.38582 0
    endloop
  endfacet
  facet normal -0.55557 -0.83147 -0
    outer loop
      vertex -3.93934 5.06066 0
      vertex -4.42597 5.38582 -1.5
      vertex -3.93934 5.06066 -1.5
    endloop
  endfacet
  facet normal 0.55557 -0.83147 0
    outer loop
      vertex -6.06066 5.06066 -1.5
      vertex -5.57402 5.38582 0
      vertex -6.06066 5.06066 0
    endloop
  endfacet
  facet normal 0.55557 -0.83147 0
    outer loop
      vertex -5.57402 5.38582 0
      vertex -6.06066 5.06066 -1.5
      vertex -5.57402 5.38582 -1.5
    endloop
  endfacet
  facet normal 0.83147 -0.55557 0
    outer loop
      vertex -6.38582 4.57402 0
      vertex -6.06066 5.06066 -1.5
      vertex -6.06066 5.06066 0
    endloop
  endfacet
  facet normal 0.83147 -0.55557 0
    outer loop
      vertex -6.06066 5.06066 -1.5
      vertex -6.38582 4.57402 0
      vertex -6.38582 4.57402 -1.5
    endloop
  endfacet
  facet normal 0.195092 -0.980785 0
    outer loop
      vertex -5.57402 5.38582 -1.5
      vertex -5 5.5 0
      vertex -5.57402 5.38582 0
    endloop
  endfacet
  facet normal 0.195092 -0.980785 0
    outer loop
      vertex -5 5.5 0
      vertex -5.57402 5.38582 -1.5
      vertex -5 5.5 -1.5
    endloop
  endfacet
  facet normal -0.19509 0.980785 0
    outer loop
      vertex -4.42597 2.61418 -1.5
      vertex -5 2.5 0
      vertex -4.42597 2.61418 0
    endloop
  endfacet
  facet normal -0.19509 0.980785 0
    outer loop
      vertex -5 2.5 0
      vertex -4.42597 2.61418 -1.5
      vertex -5 2.5 -1.5
    endloop
  endfacet
  facet normal -0.83147 0.55557 0
    outer loop
      vertex -3.93934 2.93934 -1.5
      vertex -3.61418 3.42597 0
      vertex -3.61418 3.42597 -1.5
    endloop
  endfacet
  facet normal -0.83147 0.55557 0
    outer loop
      vertex -3.61418 3.42597 0
      vertex -3.93934 2.93934 -1.5
      vertex -3.93934 2.93934 0
    endloop
  endfacet
  facet normal 0.55557 0.83147 -0
    outer loop
      vertex -5.57402 2.61418 -1.5
      vertex -6.06066 2.93934 0
      vertex -5.57402 2.61418 0
    endloop
  endfacet
  facet normal 0.55557 0.83147 0
    outer loop
      vertex -6.06066 2.93934 0
      vertex -5.57402 2.61418 -1.5
      vertex -6.06066 2.93934 -1.5
    endloop
  endfacet
  facet normal 0.980785 0.195092 0
    outer loop
      vertex -6.38582 3.42597 0
      vertex -6.5 4 -1.5
      vertex -6.5 4 0
    endloop
  endfacet
  facet normal 0.980785 0.195092 0
    outer loop
      vertex -6.5 4 -1.5
      vertex -6.38582 3.42597 0
      vertex -6.38582 3.42597 -1.5
    endloop
  endfacet
  facet normal -0.980785 0.19509 0
    outer loop
      vertex -3.61418 3.42597 -1.5
      vertex -3.5 4 0
      vertex -3.5 4 -1.5
    endloop
  endfacet
  facet normal -0.980785 0.19509 0
    outer loop
      vertex -3.5 4 0
      vertex -3.61418 3.42597 -1.5
      vertex -3.61418 3.42597 0
    endloop
  endfacet
  facet normal -0.55557 0.83147 0
    outer loop
      vertex -3.93934 2.93934 -1.5
      vertex -4.42597 2.61418 0
      vertex -3.93934 2.93934 0
    endloop
  endfacet
  facet normal -0.55557 0.83147 0
    outer loop
      vertex -4.42597 2.61418 0
      vertex -3.93934 2.93934 -1.5
      vertex -4.42597 2.61418 -1.5
    endloop
  endfacet
  facet normal 0.83147 0.55557 0
    outer loop
      vertex -6.06066 2.93934 0
      vertex -6.38582 3.42597 -1.5
      vertex -6.38582 3.42597 0
    endloop
  endfacet
  facet normal 0.83147 0.55557 0
    outer loop
      vertex -6.38582 3.42597 -1.5
      vertex -6.06066 2.93934 0
      vertex -6.06066 2.93934 -1.5
    endloop
  endfacet
  facet normal -0.980785 0.00936003 0.194866
    outer loop
      vertex 4.76845 -2.6 23.1433
      vertex 4.6194 -2.6 22.3931
      vertex 4.6194 -4.5918 22.4888
    endloop
  endfacet
  facet normal -0.980785 -0.00936001 -0.194866
    outer loop
      vertex 5 -4.5 24.4
      vertex 4.75978 -2.6 25.5178
      vertex 5 -2.6 24.3087
    endloop
  endfacet
  facet normal -0.980785 -0.00936012 -0.194866
    outer loop
      vertex 4.75978 -2.6 25.5178
      vertex 5 -4.5 24.4
      vertex 4.6194 -4.4082 26.3112
    endloop
  endfacet
  facet normal 0.555569 0.039893 0.830513
    outer loop
      vertex -2.85625 -2.6 20.3147
      vertex -3.53553 -2.6 20.7691
      vertex -3.53553 -4.66963 20.8685
    endloop
  endfacet
  facet normal 0 0.998848 -0.0479779
    outer loop
      vertex 3.53553 -4.66963 20.8685
      vertex 0 -4.73989 19.4058
      vertex -3.53553 -4.66963 20.8685
    endloop
  endfacet
  facet normal 0.83147 0.0266556 0.55493
    outer loop
      vertex -3.53553 -4.66963 20.8685
      vertex -3.53553 -2.6 20.7691
      vertex -3.9778 -2.6 21.4318
    endloop
  endfacet
  facet normal -3.5909e-07 0.998848 -0.0479784
    outer loop
      vertex 4.6194 -4.4082 26.3112
      vertex 5 -4.5 24.4
      vertex 1.91342 -4.27837 29.0141
    endloop
  endfacet
  facet normal 0 0.998848 -0.0479781
    outer loop
      vertex 1.91342 -4.27837 29.0141
      vertex 0 -4.41594 26.15
      vertex -1.91342 -4.27837 29.0141
    endloop
  endfacet
  facet normal 1.23996e-07 0.998848 -0.0479782
    outer loop
      vertex 1.91342 -4.27837 29.0141
      vertex 0.669696 -4.42234 26.0168
      vertex 0 -4.41594 26.15
    endloop
  endfacet
  facet normal 3.4422e-07 0.998848 -0.0479783
    outer loop
      vertex 1.91342 -4.27837 29.0141
      vertex 1.23744 -4.44056 25.6374
      vertex 0.669696 -4.42234 26.0168
    endloop
  endfacet
  facet normal -5.90989e-07 0.998848 -0.0479781
    outer loop
      vertex 1.91342 -4.27837 29.0141
      vertex 1.61679 -4.46783 25.0697
      vertex 1.23744 -4.44056 25.6374
    endloop
  endfacet
  facet normal 4.88931e-08 0.998848 -0.0479781
    outer loop
      vertex 5 -4.5 24.4
      vertex 1.61679 -4.46783 25.0697
      vertex 1.91342 -4.27837 29.0141
    endloop
  endfacet
  facet normal 0 0.998848 -0.0479784
    outer loop
      vertex 1.61679 -4.46783 25.0697
      vertex 5 -4.5 24.4
      vertex 1.75 -4.5 24.4
    endloop
  endfacet
  facet normal -1.23996e-07 0.998848 -0.0479782
    outer loop
      vertex -0.669696 -4.42234 26.0168
      vertex -1.91342 -4.27837 29.0141
      vertex 0 -4.41594 26.15
    endloop
  endfacet
  facet normal -3.4422e-07 0.998848 -0.0479783
    outer loop
      vertex -1.23744 -4.44056 25.6374
      vertex -1.91342 -4.27837 29.0141
      vertex -0.669696 -4.42234 26.0168
    endloop
  endfacet
  facet normal 5.90989e-07 0.998848 -0.0479781
    outer loop
      vertex -1.61679 -4.46783 25.0697
      vertex -1.91342 -4.27837 29.0141
      vertex -1.23744 -4.44056 25.6374
    endloop
  endfacet
  facet normal 0 0.998848 -0.0479784
    outer loop
      vertex -5 -4.5 24.4
      vertex -1.61679 -4.46783 25.0697
      vertex -1.75 -4.5 24.4
    endloop
  endfacet
  facet normal -4.88931e-08 0.998848 -0.0479781
    outer loop
      vertex -1.61679 -4.46783 25.0697
      vertex -5 -4.5 24.4
      vertex -1.91342 -4.27837 29.0141
    endloop
  endfacet
  facet normal -0.19509 -0.0470551 -0.979656
    outer loop
      vertex 1.91342 -4.27837 29.0141
      vertex 0.638363 -2.6 29.1874
      vertex 1.91342 -2.6 28.9335
    endloop
  endfacet
  facet normal -0.195091 -0.0470559 -0.979656
    outer loop
      vertex 0.638363 -2.6 29.1874
      vertex 1.91342 -4.27837 29.0141
      vertex 0 -4.26011 29.3942
    endloop
  endfacet
  facet normal -1.25906e-06 0.998848 -0.0479776
    outer loop
      vertex 5 -4.5 24.4
      vertex 4.6194 -4.5918 22.4888
      vertex 3.53553 -4.66963 20.8685
    endloop
  endfacet
  facet normal -1.14717e-06 0.998848 -0.0479792
    outer loop
      vertex 3.53553 -4.33037 27.9315
      vertex 4.6194 -4.4082 26.3112
      vertex 1.91342 -4.27837 29.0141
    endloop
  endfacet
  facet normal -0.980785 0.00935999 0.194866
    outer loop
      vertex 4.76845 -2.6 23.1433
      vertex 5 -4.5 24.4
      vertex 5 -2.6 24.3087
    endloop
  endfacet
  facet normal -0.980785 0.0093601 0.194866
    outer loop
      vertex 5 -4.5 24.4
      vertex 4.76845 -2.6 23.1433
      vertex 4.6194 -4.5918 22.4888
    endloop
  endfacet
  facet normal 0.55557 0.0398926 0.830512
    outer loop
      vertex -2.85625 -2.6 20.3147
      vertex -1.91342 -4.72163 19.7859
      vertex -1.91342 -2.6 19.684
    endloop
  endfacet
  facet normal 0.55557 0.0398927 0.830512
    outer loop
      vertex -1.91342 -4.72163 19.7859
      vertex -2.85625 -2.6 20.3147
      vertex -3.53553 -4.66963 20.8685
    endloop
  endfacet
  facet normal 4.24074e-07 0.998848 -0.0479768
    outer loop
      vertex 0 -4.73989 19.4058
      vertex -1.91342 -4.72163 19.7859
      vertex -3.53553 -4.66963 20.8685
    endloop
  endfacet
  facet normal 0.980785 -0.00936012 -0.194866
    outer loop
      vertex -5 -4.5 24.4
      vertex -4.75978 -2.6 25.5178
      vertex -4.6194 -4.4082 26.3112
    endloop
  endfacet
  facet normal 0.980785 -0.00936001 -0.194866
    outer loop
      vertex -4.75978 -2.6 25.5178
      vertex -5 -4.5 24.4
      vertex -5 -2.6 24.3087
    endloop
  endfacet
  facet normal 0.980785 0.00936003 0.194866
    outer loop
      vertex -4.6194 -4.5918 22.4888
      vertex -4.6194 -2.6 22.3931
      vertex -4.76845 -2.6 23.1433
    endloop
  endfacet
  facet normal 0.831469 -0.0266549 -0.554931
    outer loop
      vertex -4.6194 -4.4082 26.3112
      vertex -3.53553 -2.6 27.8483
      vertex -3.53553 -4.33037 27.9315
    endloop
  endfacet
  facet normal 0.83147 -0.0266555 -0.55493
    outer loop
      vertex -3.53553 -2.6 27.8483
      vertex -4.6194 -4.4082 26.3112
      vertex -4.6194 -2.6 26.2244
    endloop
  endfacet
  facet normal -0.55557 -0.0398922 -0.830512
    outer loop
      vertex 1.91342 -4.27837 29.0141
      vertex 2.97931 -2.6 28.2204
      vertex 3.53553 -4.33037 27.9315
    endloop
  endfacet
  facet normal -0.555571 -0.0398914 -0.830512
    outer loop
      vertex 2.97931 -2.6 28.2204
      vertex 1.91342 -4.27837 29.0141
      vertex 1.91342 -2.6 28.9335
    endloop
  endfacet
  facet normal -0.83147 0.0266551 0.55493
    outer loop
      vertex 3.9778 -2.6 21.4318
      vertex 4.6194 -4.5918 22.4888
      vertex 4.6194 -2.6 22.3931
    endloop
  endfacet
  facet normal -0.831469 0.0266555 0.554931
    outer loop
      vertex 4.6194 -4.5918 22.4888
      vertex 3.9778 -2.6 21.4318
      vertex 3.53553 -4.66963 20.8685
    endloop
  endfacet
  facet normal 3.5909e-07 0.998848 -0.0479784
    outer loop
      vertex -4.6194 -4.4082 26.3112
      vertex -1.91342 -4.27837 29.0141
      vertex -5 -4.5 24.4
    endloop
  endfacet
  facet normal -0.83147 0.0266556 0.55493
    outer loop
      vertex 3.9778 -2.6 21.4318
      vertex 3.53553 -2.6 20.7691
      vertex 3.53553 -4.66963 20.8685
    endloop
  endfacet
  facet normal 1.14717e-06 0.998848 -0.0479792
    outer loop
      vertex -3.53553 -4.33037 27.9315
      vertex -1.91342 -4.27837 29.0141
      vertex -4.6194 -4.4082 26.3112
    endloop
  endfacet
  facet normal 0.980785 0.00935999 0.194866
    outer loop
      vertex -5 -4.5 24.4
      vertex -4.76845 -2.6 23.1433
      vertex -5 -2.6 24.3087
    endloop
  endfacet
  facet normal 0.980785 0.0093601 0.194866
    outer loop
      vertex -4.76845 -2.6 23.1433
      vertex -5 -4.5 24.4
      vertex -4.6194 -4.5918 22.4888
    endloop
  endfacet
  facet normal 0.83147 0.0266551 0.55493
    outer loop
      vertex -4.6194 -4.5918 22.4888
      vertex -3.9778 -2.6 21.4318
      vertex -4.6194 -2.6 22.3931
    endloop
  endfacet
  facet normal 0.831469 0.0266555 0.554931
    outer loop
      vertex -3.9778 -2.6 21.4318
      vertex -4.6194 -4.5918 22.4888
      vertex -3.53553 -4.66963 20.8685
    endloop
  endfacet
  facet normal 0.980785 -0.00936018 -0.194866
    outer loop
      vertex -4.6194 -2.6 26.2244
      vertex -4.6194 -4.4082 26.3112
      vertex -4.75978 -2.6 25.5178
    endloop
  endfacet
  facet normal 1.25906e-06 0.998848 -0.0479776
    outer loop
      vertex -3.53553 -4.66963 20.8685
      vertex -4.6194 -4.5918 22.4888
      vertex -5 -4.5 24.4
    endloop
  endfacet
  facet normal 0 0.998848 -0.0479784
    outer loop
      vertex 5 -4.5 24.4
      vertex 1.61679 -4.53217 23.7303
      vertex 1.75 -4.5 24.4
    endloop
  endfacet
  facet normal -5.87893e-08 0.998848 -0.0479781
    outer loop
      vertex 3.53553 -4.66963 20.8685
      vertex 1.61679 -4.53217 23.7303
      vertex 5 -4.5 24.4
    endloop
  endfacet
  facet normal 2.64143e-07 0.998848 -0.0479779
    outer loop
      vertex 1.61679 -4.53217 23.7303
      vertex 3.53553 -4.66963 20.8685
      vertex 1.23744 -4.55944 23.1626
    endloop
  endfacet
  facet normal 4.24954e-07 0.998848 -0.0479774
    outer loop
      vertex 0.669696 -4.57766 22.7832
      vertex 3.53553 -4.66963 20.8685
      vertex 0 -4.58406 22.65
    endloop
  endfacet
  facet normal -2.62636e-07 0.998848 -0.0479784
    outer loop
      vertex 1.23744 -4.55944 23.1626
      vertex 3.53553 -4.66963 20.8685
      vertex 0.669696 -4.57766 22.7832
    endloop
  endfacet
  facet normal 0 0.998848 -0.0479784
    outer loop
      vertex -1.61679 -4.53217 23.7303
      vertex -5 -4.5 24.4
      vertex -1.75 -4.5 24.4
    endloop
  endfacet
  facet normal -2.64143e-07 0.998848 -0.0479779
    outer loop
      vertex -3.53553 -4.66963 20.8685
      vertex -1.61679 -4.53217 23.7303
      vertex -1.23744 -4.55944 23.1626
    endloop
  endfacet
  facet normal 2.62636e-07 0.998848 -0.0479784
    outer loop
      vertex -3.53553 -4.66963 20.8685
      vertex -1.23744 -4.55944 23.1626
      vertex -0.669696 -4.57766 22.7832
    endloop
  endfacet
  facet normal 0 0.998848 -0.0479782
    outer loop
      vertex -3.53553 -4.66963 20.8685
      vertex 0 -4.58406 22.65
      vertex 3.53553 -4.66963 20.8685
    endloop
  endfacet
  facet normal -4.24954e-07 0.998848 -0.0479774
    outer loop
      vertex 0 -4.58406 22.65
      vertex -3.53553 -4.66963 20.8685
      vertex -0.669696 -4.57766 22.7832
    endloop
  endfacet
  facet normal 5.87893e-08 0.998848 -0.0479781
    outer loop
      vertex -1.61679 -4.53217 23.7303
      vertex -3.53553 -4.66963 20.8685
      vertex -5 -4.5 24.4
    endloop
  endfacet
  facet normal 0.195091 -0.0470559 -0.979656
    outer loop
      vertex -1.91342 -4.27837 29.0141
      vertex -0.638363 -2.6 29.1874
      vertex 0 -4.26011 29.3942
    endloop
  endfacet
  facet normal 0.19509 -0.0470551 -0.979656
    outer loop
      vertex -0.638363 -2.6 29.1874
      vertex -1.91342 -4.27837 29.0141
      vertex -1.91342 -2.6 28.9335
    endloop
  endfacet
  facet normal 0 0.998848 -0.047979
    outer loop
      vertex 0 -4.26011 29.3942
      vertex 1.91342 -4.27837 29.0141
      vertex -1.91342 -4.27837 29.0141
    endloop
  endfacet
  facet normal 0.555571 -0.0398914 -0.830512
    outer loop
      vertex -1.91342 -4.27837 29.0141
      vertex -2.97931 -2.6 28.2204
      vertex -1.91342 -2.6 28.9335
    endloop
  endfacet
  facet normal 0.55557 -0.0398922 -0.830512
    outer loop
      vertex -2.97931 -2.6 28.2204
      vertex -1.91342 -4.27837 29.0141
      vertex -3.53553 -4.33037 27.9315
    endloop
  endfacet
  facet normal -0.19509 -0.0470561 -0.979656
    outer loop
      vertex 0 -2.6 29.3145
      vertex 0.638363 -2.6 29.1874
      vertex 0 -4.26011 29.3942
    endloop
  endfacet
  facet normal -0.83147 -0.0266555 -0.55493
    outer loop
      vertex 4.6194 -4.4082 26.3112
      vertex 3.53553 -2.6 27.8483
      vertex 4.6194 -2.6 26.2244
    endloop
  endfacet
  facet normal -0.831469 -0.0266549 -0.554931
    outer loop
      vertex 3.53553 -2.6 27.8483
      vertex 4.6194 -4.4082 26.3112
      vertex 3.53553 -4.33037 27.9315
    endloop
  endfacet
  facet normal -0.555569 -0.0398919 -0.830513
    outer loop
      vertex 3.53553 -2.6 27.8483
      vertex 3.53553 -4.33037 27.9315
      vertex 2.97931 -2.6 28.2204
    endloop
  endfacet
  facet normal -0.980785 -0.00936018 -0.194866
    outer loop
      vertex 4.6194 -2.6 26.2244
      vertex 4.75978 -2.6 25.5178
      vertex 4.6194 -4.4082 26.3112
    endloop
  endfacet
  facet normal -4.24074e-07 0.998848 -0.0479768
    outer loop
      vertex 3.53553 -4.66963 20.8685
      vertex 1.91342 -4.72163 19.7859
      vertex 0 -4.73989 19.4058
    endloop
  endfacet
  facet normal 0.555569 -0.0398919 -0.830513
    outer loop
      vertex -3.53553 -2.6 27.8483
      vertex -2.97931 -2.6 28.2204
      vertex -3.53553 -4.33037 27.9315
    endloop
  endfacet
  facet normal 0.19509 -0.0470561 -0.979656
    outer loop
      vertex 0 -2.6 29.3145
      vertex 0 -4.26011 29.3942
      vertex -0.638363 -2.6 29.1874
    endloop
  endfacet
  facet normal -0.555569 0.039893 0.830513
    outer loop
      vertex 3.53553 -4.66963 20.8685
      vertex 3.53553 -2.6 20.7691
      vertex 2.85625 -2.6 20.3147
    endloop
  endfacet
  facet normal -0.55557 0.0398926 0.830512
    outer loop
      vertex 1.91342 -4.72163 19.7859
      vertex 2.85625 -2.6 20.3147
      vertex 1.91342 -2.6 19.684
    endloop
  endfacet
  facet normal -0.55557 0.0398927 0.830512
    outer loop
      vertex 2.85625 -2.6 20.3147
      vertex 1.91342 -4.72163 19.7859
      vertex 3.53553 -4.66963 20.8685
    endloop
  endfacet
  facet normal 0.195091 0.0470566 0.979656
    outer loop
      vertex -1.91342 -2.6 19.684
      vertex 0 -4.73989 19.4058
      vertex 0 -2.6 19.303
    endloop
  endfacet
  facet normal 0.195091 0.0470564 0.979656
    outer loop
      vertex 0 -4.73989 19.4058
      vertex -1.91342 -2.6 19.684
      vertex -1.91342 -4.72163 19.7859
    endloop
  endfacet
  facet normal -0.195091 0.0470564 0.979656
    outer loop
      vertex 0 -2.6 19.303
      vertex 1.91342 -4.72163 19.7859
      vertex 1.91342 -2.6 19.684
    endloop
  endfacet
  facet normal -0.195091 0.0470566 0.979656
    outer loop
      vertex 1.91342 -4.72163 19.7859
      vertex 0 -2.6 19.303
      vertex 0 -4.73989 19.4058
    endloop
  endfacet
  facet normal -0.980785 0 0.195091
    outer loop
      vertex 1.61679 -4.53217 23.7303
      vertex 1.75 -6.11322 24.4
      vertex 1.75 -4.5 24.4
    endloop
  endfacet
  facet normal -0.980785 0 0.195091
    outer loop
      vertex 1.75 -6.11322 24.4
      vertex 1.61679 -4.53217 23.7303
      vertex 1.61679 -6.145 23.7303
    endloop
  endfacet
  facet normal 0.980785 -0 0.195091
    outer loop
      vertex -1.75 -6.11322 24.4
      vertex -1.61679 -4.53217 23.7303
      vertex -1.75 -4.5 24.4
    endloop
  endfacet
  facet normal 0.980785 0 0.195091
    outer loop
      vertex -1.61679 -4.53217 23.7303
      vertex -1.75 -6.11322 24.4
      vertex -1.61679 -6.145 23.7303
    endloop
  endfacet
  facet normal -0.195091 0 0.980785
    outer loop
      vertex 0 -4.58406 22.65
      vertex 0.669696 -6.18995 22.7832
      vertex 0.669696 -4.57766 22.7832
    endloop
  endfacet
  facet normal -0.195091 0 0.980785
    outer loop
      vertex 0.669696 -6.18995 22.7832
      vertex 0 -4.58406 22.65
      vertex 0 -6.19627 22.65
    endloop
  endfacet
  facet normal -0.83147 0 0.55557
    outer loop
      vertex 1.23744 -4.55944 23.1626
      vertex 1.61679 -6.145 23.7303
      vertex 1.61679 -4.53217 23.7303
    endloop
  endfacet
  facet normal -0.83147 0 0.55557
    outer loop
      vertex 1.61679 -6.145 23.7303
      vertex 1.23744 -4.55944 23.1626
      vertex 1.23744 -6.17195 23.1626
    endloop
  endfacet
  facet normal 0.195091 0 -0.980785
    outer loop
      vertex -0.669696 -4.42234 26.0168
      vertex 0 -6.03017 26.15
      vertex -0.669696 -6.03649 26.0168
    endloop
  endfacet
  facet normal 0.195091 0 -0.980785
    outer loop
      vertex 0 -6.03017 26.15
      vertex -0.669696 -4.42234 26.0168
      vertex 0 -4.41594 26.15
    endloop
  endfacet
  facet normal -0.555571 0 0.831469
    outer loop
      vertex 0.669696 -4.57766 22.7832
      vertex 1.23744 -6.17195 23.1626
      vertex 1.23744 -4.55944 23.1626
    endloop
  endfacet
  facet normal -0.555571 0 0.831469
    outer loop
      vertex 1.23744 -6.17195 23.1626
      vertex 0.669696 -4.57766 22.7832
      vertex 0.669696 -6.18995 22.7832
    endloop
  endfacet
  facet normal 0.555571 -0 0.831469
    outer loop
      vertex -1.23744 -6.17195 23.1626
      vertex -0.669696 -4.57766 22.7832
      vertex -1.23744 -4.55944 23.1626
    endloop
  endfacet
  facet normal 0.555571 0 0.831469
    outer loop
      vertex -0.669696 -4.57766 22.7832
      vertex -1.23744 -6.17195 23.1626
      vertex -0.669696 -6.18995 22.7832
    endloop
  endfacet
  facet normal 0.83147 -0 0.55557
    outer loop
      vertex -1.61679 -6.145 23.7303
      vertex -1.23744 -4.55944 23.1626
      vertex -1.61679 -4.53217 23.7303
    endloop
  endfacet
  facet normal 0.83147 0 0.55557
    outer loop
      vertex -1.23744 -4.55944 23.1626
      vertex -1.61679 -6.145 23.7303
      vertex -1.23744 -6.17195 23.1626
    endloop
  endfacet
  facet normal 0.195091 -0 0.980785
    outer loop
      vertex -0.669696 -6.18995 22.7832
      vertex 0 -4.58406 22.65
      vertex -0.669696 -4.57766 22.7832
    endloop
  endfacet
  facet normal 0.195091 0 0.980785
    outer loop
      vertex 0 -4.58406 22.65
      vertex -0.669696 -6.18995 22.7832
      vertex 0 -6.19627 22.65
    endloop
  endfacet
  facet normal 0.555571 0 -0.831469
    outer loop
      vertex -1.23744 -4.44056 25.6374
      vertex -0.669696 -6.03649 26.0168
      vertex -1.23744 -6.05449 25.6374
    endloop
  endfacet
  facet normal 0.555571 0 -0.831469
    outer loop
      vertex -0.669696 -6.03649 26.0168
      vertex -1.23744 -4.44056 25.6374
      vertex -0.669696 -4.42234 26.0168
    endloop
  endfacet
  facet normal 0.980785 0 -0.195091
    outer loop
      vertex -1.61679 -6.08144 25.0697
      vertex -1.75 -4.5 24.4
      vertex -1.61679 -4.46783 25.0697
    endloop
  endfacet
  facet normal 0.980785 0 -0.195091
    outer loop
      vertex -1.75 -4.5 24.4
      vertex -1.61679 -6.08144 25.0697
      vertex -1.75 -6.11322 24.4
    endloop
  endfacet
  facet normal -0.980785 0 -0.195091
    outer loop
      vertex 1.75 -4.5 24.4
      vertex 1.61679 -6.08144 25.0697
      vertex 1.61679 -4.46783 25.0697
    endloop
  endfacet
  facet normal -0.980785 0 -0.195091
    outer loop
      vertex 1.61679 -6.08144 25.0697
      vertex 1.75 -4.5 24.4
      vertex 1.75 -6.11322 24.4
    endloop
  endfacet
  facet normal -0.555571 0 -0.831469
    outer loop
      vertex 0.669696 -6.03649 26.0168
      vertex 1.23744 -4.44056 25.6374
      vertex 1.23744 -6.05449 25.6374
    endloop
  endfacet
  facet normal -0.555571 0 -0.831469
    outer loop
      vertex 1.23744 -4.44056 25.6374
      vertex 0.669696 -6.03649 26.0168
      vertex 0.669696 -4.42234 26.0168
    endloop
  endfacet
  facet normal -0.195091 0 -0.980785
    outer loop
      vertex 0 -6.03017 26.15
      vertex 0.669696 -4.42234 26.0168
      vertex 0.669696 -6.03649 26.0168
    endloop
  endfacet
  facet normal -0.195091 0 -0.980785
    outer loop
      vertex 0.669696 -4.42234 26.0168
      vertex 0 -6.03017 26.15
      vertex 0 -4.41594 26.15
    endloop
  endfacet
  facet normal -0.83147 0 -0.55557
    outer loop
      vertex 1.61679 -4.46783 25.0697
      vertex 1.23744 -6.05449 25.6374
      vertex 1.23744 -4.44056 25.6374
    endloop
  endfacet
  facet normal -0.83147 0 -0.55557
    outer loop
      vertex 1.23744 -6.05449 25.6374
      vertex 1.61679 -4.46783 25.0697
      vertex 1.61679 -6.08144 25.0697
    endloop
  endfacet
  facet normal 0.83147 0 -0.55557
    outer loop
      vertex -1.23744 -6.05449 25.6374
      vertex -1.61679 -4.46783 25.0697
      vertex -1.23744 -4.44056 25.6374
    endloop
  endfacet
  facet normal 0.83147 0 -0.55557
    outer loop
      vertex -1.61679 -4.46783 25.0697
      vertex -1.23744 -6.05449 25.6374
      vertex -1.61679 -6.08144 25.0697
    endloop
  endfacet
  facet normal -0.980785 0.00936006 0.194866
    outer loop
      vertex 7.49867 -2.6 7.31295
      vertex 7.39104 -2.6 6.77121
      vertex 7.39104 -6.15688 6.94206
    endloop
  endfacet
  facet normal 7.92473e-08 0.998848 -0.0479782
    outer loop
      vertex -3.06147 -5.65539 17.3825
      vertex 0 -5.62617 17.9908
      vertex -7.39104 -5.86312 13.0579
    endloop
  endfacet
  facet normal -0.980785 0.0093601 0.194866
    outer loop
      vertex 7.49867 -2.6 7.31295
      vertex 8 -6.01 10
      vertex 8 -2.6 9.83621
    endloop
  endfacet
  facet normal -0.980785 0.00936005 0.194866
    outer loop
      vertex 8 -6.01 10
      vertex 7.49867 -2.6 7.31295
      vertex 7.39104 -6.15688 6.94206
    endloop
  endfacet
  facet normal -0.195091 -0.0470564 -0.979656
    outer loop
      vertex 0 -5.62617 17.9908
      vertex 2.59391 -2.6 17.3289
      vertex 3.06147 -5.65539 17.3825
    endloop
  endfacet
  facet normal -0.19509 -0.0470567 -0.979656
    outer loop
      vertex 2.59391 -2.6 17.3289
      vertex 0 -5.62617 17.9908
      vertex 0 -2.6 17.8454
    endloop
  endfacet
  facet normal 6.30389e-09 0.998848 -0.0479781
    outer loop
      vertex 0 -5.62617 17.9908
      vertex -3.06147 -6.36461 2.61747
      vertex -7.39104 -6.15688 6.94206
    endloop
  endfacet
  facet normal 0.980785 -0.00936004 -0.194866
    outer loop
      vertex -8 -6.01 10
      vertex -7.39104 -2.6 12.9012
      vertex -7.39104 -5.86312 13.0579
    endloop
  endfacet
  facet normal 0.980785 -0.00936004 -0.194866
    outer loop
      vertex -7.39104 -2.6 12.9012
      vertex -8 -6.01 10
      vertex -8 -2.6 9.83621
    endloop
  endfacet
  facet normal 0.19509 0.0470562 0.979656
    outer loop
      vertex -3.06147 -2.6 2.43665
      vertex 0 -6.39382 2.00921
      vertex 0 -2.6 1.82698
    endloop
  endfacet
  facet normal 0.19509 0.0470563 0.979656
    outer loop
      vertex 0 -6.39382 2.00921
      vertex -3.06147 -2.6 2.43665
      vertex -3.06147 -6.36461 2.61747
    endloop
  endfacet
  facet normal 0.19509 -0.0470567 -0.979656
    outer loop
      vertex 0 -5.62617 17.9908
      vertex -2.59391 -2.6 17.3289
      vertex 0 -2.6 17.8454
    endloop
  endfacet
  facet normal 0.195091 -0.0470564 -0.979656
    outer loop
      vertex -2.59391 -2.6 17.3289
      vertex 0 -5.62617 17.9908
      vertex -3.06147 -5.65539 17.3825
    endloop
  endfacet
  facet normal -5.86608e-07 0.998848 -0.0479775
    outer loop
      vertex 7.39104 -6.15688 6.94206
      vertex 5.65685 -6.2814 4.34966
      vertex 3.06147 -6.36461 2.61747
    endloop
  endfacet
  facet normal -0.55557 0.0398923 0.830512
    outer loop
      vertex 3.06147 -2.6 2.43665
      vertex 5.65685 -6.2814 4.34966
      vertex 5.65685 -2.6 4.17283
    endloop
  endfacet
  facet normal -0.55557 0.0398924 0.830512
    outer loop
      vertex 5.65685 -6.2814 4.34966
      vertex 3.06147 -2.6 2.43665
      vertex 3.06147 -6.36461 2.61747
    endloop
  endfacet
  facet normal -0.555572 -0.0398923 -0.830511
    outer loop
      vertex 3.06147 -2.6 17.2358
      vertex 3.46008 -2.6 16.9691
      vertex 3.06147 -5.65539 17.3825
    endloop
  endfacet
  facet normal 3.48113e-08 0.998848 -0.0479781
    outer loop
      vertex -7.39104 -5.86312 13.0579
      vertex 0 -5.62617 17.9908
      vertex -7.39104 -6.15688 6.94206
    endloop
  endfacet
  facet normal -3.48113e-08 0.998848 -0.0479781
    outer loop
      vertex 7.39104 -5.86312 13.0579
      vertex 7.39104 -6.15688 6.94206
      vertex 0 -5.62617 17.9908
    endloop
  endfacet
  facet normal -5.1949e-07 0.998848 -0.0479786
    outer loop
      vertex 5.65685 -5.73859 15.6503
      vertex 7.39104 -5.86312 13.0579
      vertex 3.06147 -5.65539 17.3825
    endloop
  endfacet
  facet normal 5.86608e-07 0.998848 -0.0479775
    outer loop
      vertex -3.06147 -6.36461 2.61747
      vertex -5.65685 -6.2814 4.34966
      vertex -7.39104 -6.15688 6.94206
    endloop
  endfacet
  facet normal 8.19697e-07 0.998848 -0.0479781
    outer loop
      vertex -7.39104 -5.86312 13.0579
      vertex -7.39104 -6.15688 6.94206
      vertex -8 -6.01 10
    endloop
  endfacet
  facet normal -0.83147 0.0266552 0.554931
    outer loop
      vertex 5.65685 -6.2814 4.34966
      vertex 7.39104 -2.6 6.77121
      vertex 5.65685 -2.6 4.17283
    endloop
  endfacet
  facet normal -0.83147 0.0266552 0.554931
    outer loop
      vertex 7.39104 -2.6 6.77121
      vertex 5.65685 -6.2814 4.34966
      vertex 7.39104 -6.15688 6.94206
    endloop
  endfacet
  facet normal -0.19509 0.0470563 0.979656
    outer loop
      vertex 0 -2.6 1.82698
      vertex 3.06147 -6.36461 2.61747
      vertex 3.06147 -2.6 2.43665
    endloop
  endfacet
  facet normal -0.19509 0.0470562 0.979656
    outer loop
      vertex 3.06147 -6.36461 2.61747
      vertex 0 -2.6 1.82698
      vertex 0 -6.39382 2.00921
    endloop
  endfacet
  facet normal 0 0.998848 -0.0479779
    outer loop
      vertex 3.06147 -6.36461 2.61747
      vertex 0 -6.39382 2.00921
      vertex -3.06147 -6.36461 2.61747
    endloop
  endfacet
  facet normal -7.4456e-07 0.998848 -0.0479781
    outer loop
      vertex 7.39104 -5.86312 13.0579
      vertex 8 -6.01 10
      vertex 7.39104 -6.15688 6.94206
    endloop
  endfacet
  facet normal -0.980785 -0.00936004 -0.194866
    outer loop
      vertex 7.89681 -2.6 10.3556
      vertex 7.39104 -5.86312 13.0579
      vertex 7.39104 -2.6 12.9012
    endloop
  endfacet
  facet normal -0.980785 -0.0093601 -0.194866
    outer loop
      vertex 7.39104 -5.86312 13.0579
      vertex 7.89681 -2.6 10.3556
      vertex 8 -6.01 10
    endloop
  endfacet
  facet normal -0.980785 -0.0093601 -0.194866
    outer loop
      vertex 8 -2.6 9.83621
      vertex 8 -6.01 10
      vertex 7.89681 -2.6 10.3556
    endloop
  endfacet
  facet normal -7.92473e-08 0.998848 -0.0479782
    outer loop
      vertex 3.06147 -5.65539 17.3825
      vertex 7.39104 -5.86312 13.0579
      vertex 0 -5.62617 17.9908
    endloop
  endfacet
  facet normal 0 0.998848 -0.0479781
    outer loop
      vertex 0 -5.62617 17.9908
      vertex 3.06147 -6.36461 2.61747
      vertex -3.06147 -6.36461 2.61747
    endloop
  endfacet
  facet normal -6.30389e-09 0.998848 -0.0479781
    outer loop
      vertex 7.39104 -6.15688 6.94206
      vertex 3.06147 -6.36461 2.61747
      vertex 0 -5.62617 17.9908
    endloop
  endfacet
  facet normal 0.83147 0.0266552 0.554931
    outer loop
      vertex -5.65685 -6.2814 4.34966
      vertex -7.39104 -2.6 6.77121
      vertex -7.39104 -6.15688 6.94206
    endloop
  endfacet
  facet normal 0.83147 0.0266552 0.554931
    outer loop
      vertex -7.39104 -2.6 6.77121
      vertex -5.65685 -6.2814 4.34966
      vertex -5.65685 -2.6 4.17283
    endloop
  endfacet
  facet normal 0.55557 0.0398923 0.830512
    outer loop
      vertex -5.65685 -6.2814 4.34966
      vertex -3.06147 -2.6 2.43665
      vertex -5.65685 -2.6 4.17283
    endloop
  endfacet
  facet normal 0.55557 0.0398924 0.830512
    outer loop
      vertex -3.06147 -2.6 2.43665
      vertex -5.65685 -6.2814 4.34966
      vertex -3.06147 -6.36461 2.61747
    endloop
  endfacet
  facet normal 0.980785 0.00936005 0.194866
    outer loop
      vertex -7.39104 -6.15688 6.94206
      vertex -8 -2.6 9.83621
      vertex -8 -6.01 10
    endloop
  endfacet
  facet normal 0.980785 0.00936007 0.194866
    outer loop
      vertex -8 -2.6 9.83621
      vertex -7.39104 -6.15688 6.94206
      vertex -7.39104 -2.6 6.77121
    endloop
  endfacet
  facet normal -0.55557 -0.0398924 -0.830512
    outer loop
      vertex 5.65685 -5.73859 15.6503
      vertex 3.46008 -2.6 16.9691
      vertex 5.65685 -2.6 15.4996
    endloop
  endfacet
  facet normal -0.55557 -0.0398926 -0.830512
    outer loop
      vertex 3.46008 -2.6 16.9691
      vertex 5.65685 -5.73859 15.6503
      vertex 3.06147 -5.65539 17.3825
    endloop
  endfacet
  facet normal -0.831469 -0.0266552 -0.554931
    outer loop
      vertex 7.39104 -5.86312 13.0579
      vertex 5.65685 -2.6 15.4996
      vertex 7.39104 -2.6 12.9012
    endloop
  endfacet
  facet normal -0.83147 -0.0266553 -0.554931
    outer loop
      vertex 5.65685 -2.6 15.4996
      vertex 7.39104 -5.86312 13.0579
      vertex 5.65685 -5.73859 15.6503
    endloop
  endfacet
  facet normal 5.1949e-07 0.998848 -0.0479786
    outer loop
      vertex -5.65685 -5.73859 15.6503
      vertex -3.06147 -5.65539 17.3825
      vertex -7.39104 -5.86312 13.0579
    endloop
  endfacet
  facet normal -0.195089 -0.0470562 -0.979656
    outer loop
      vertex 3.06147 -2.6 17.2358
      vertex 3.06147 -5.65539 17.3825
      vertex 2.59391 -2.6 17.3289
    endloop
  endfacet
  facet normal 0.555572 -0.0398923 -0.830511
    outer loop
      vertex -3.06147 -2.6 17.2358
      vertex -3.06147 -5.65539 17.3825
      vertex -3.46008 -2.6 16.9691
    endloop
  endfacet
  facet normal 0.195089 -0.0470562 -0.979656
    outer loop
      vertex -3.06147 -2.6 17.2358
      vertex -2.59391 -2.6 17.3289
      vertex -3.06147 -5.65539 17.3825
    endloop
  endfacet
  facet normal 0.55557 -0.0398926 -0.830512
    outer loop
      vertex -5.65685 -5.73859 15.6503
      vertex -3.46008 -2.6 16.9691
      vertex -3.06147 -5.65539 17.3825
    endloop
  endfacet
  facet normal 0.55557 -0.0398924 -0.830512
    outer loop
      vertex -3.46008 -2.6 16.9691
      vertex -5.65685 -5.73859 15.6503
      vertex -5.65685 -2.6 15.4996
    endloop
  endfacet
  facet normal 0.83147 -0.0266553 -0.554931
    outer loop
      vertex -7.39104 -5.86312 13.0579
      vertex -5.65685 -2.6 15.4996
      vertex -5.65685 -5.73859 15.6503
    endloop
  endfacet
  facet normal 0.831469 -0.0266552 -0.554931
    outer loop
      vertex -5.65685 -2.6 15.4996
      vertex -7.39104 -5.86312 13.0579
      vertex -7.39104 -2.6 12.9012
    endloop
  endfacet
  facet normal -0.707107 -0.707107 0
    outer loop
      vertex -8.7 -7.2 1.5
      vertex -12 -3.9 31
      vertex -12 -3.9 -1.5
    endloop
  endfacet
  facet normal -0.707107 -0.707107 -0
    outer loop
      vertex -8.7 -7.2 1.5
      vertex -12 -3.9 -1.5
      vertex -8.7 -7.2 -1.5
    endloop
  endfacet
  facet normal -0.707107 -0.707107 0
    outer loop
      vertex -12 -3.9 31
      vertex -8.7 -7.2 1.5
      vertex -10.1 -5.8 31
    endloop
  endfacet
  facet normal 0.707107 -0.707107 0
    outer loop
      vertex 8.7 -7.2 1.5
      vertex 12 -3.9 31
      vertex 10.1 -5.8 31
    endloop
  endfacet
  facet normal 0.707107 -0.707107 0
    outer loop
      vertex 12 -3.9 31
      vertex 8.7 -7.2 1.5
      vertex 12 -3.9 -1.5
    endloop
  endfacet
  facet normal 0.707107 -0.707107 0
    outer loop
      vertex 12 -3.9 -1.5
      vertex 8.7 -7.2 1.5
      vertex 8.7 -7.2 -1.5
    endloop
  endfacet
endsolid OpenSCAD_Model
