solid OpenSCAD_Model
  facet normal -1 0 0
    outer loop
      vertex -5 4 0
      vertex -5 2.45 4
      vertex -5 4 4
    endloop
  endfacet
  facet normal -1 0 0
    outer loop
      vertex -5 2.45 4
      vertex -5 -2.45 4
      vertex -5 2.45 5.5
    endloop
  endfacet
  facet normal -1 0 0
    outer loop
      vertex -5 4 0
      vertex -5 -2.45 4
      vertex -5 2.45 4
    endloop
  endfacet
  facet normal -1 0 0
    outer loop
      vertex -5 -4 0
      vertex -5 -2.45 4
      vertex -5 4 0
    endloop
  endfacet
  facet normal -1 -0 0
    outer loop
      vertex -5 -2.45 4
      vertex -5 -4 0
      vertex -5 -4 4
    endloop
  endfacet
  facet normal -1 -0 0
    outer loop
      vertex -5 2.45 5.5
      vertex -5 -2.45 4
      vertex -5 -2.45 5.5
    endloop
  endfacet
  facet normal -0 0 1
    outer loop
      vertex -5 4 4
      vertex 15 2.45 4
      vertex 15 4 4
    endloop
  endfacet
  facet normal 0 0 1
    outer loop
      vertex 15 2.45 4
      vertex -5 4 4
      vertex -5 2.45 4
    endloop
  endfacet
  facet normal -0 0 1
    outer loop
      vertex -5 -2.45 4
      vertex 15 -4 4
      vertex 15 -2.45 4
    endloop
  endfacet
  facet normal 0 0 1
    outer loop
      vertex 15 -4 4
      vertex -5 -2.45 4
      vertex -5 -4 4
    endloop
  endfacet
  facet normal 1 0 0
    outer loop
      vertex 15 2.45 5.5
      vertex 15 1.5 2.7
      vertex 15 2.45 4
    endloop
  endfacet
  facet normal 1 0 0
    outer loop
      vertex 15 2.45 5.5
      vertex 15 -1.5 2.7
      vertex 15 1.5 2.7
    endloop
  endfacet
  facet normal 1 -0 0
    outer loop
      vertex 15 -2.45 5.5
      vertex 15 -1.5 2.7
      vertex 15 2.45 5.5
    endloop
  endfacet
  facet normal 1 -0 0
    outer loop
      vertex 15 -2.45 4
      vertex 15 -1.5 2.7
      vertex 15 -2.45 5.5
    endloop
  endfacet
  facet normal 1 -0 0
    outer loop
      vertex 15 -4 4
      vertex 15 -1.5 2.7
      vertex 15 -2.45 4
    endloop
  endfacet
  facet normal 1 0 0
    outer loop
      vertex 15 -1.5 2.7
      vertex 15 -4 4
      vertex 15 -4 0
    endloop
  endfacet
  facet normal 1 0 0
    outer loop
      vertex 15 -1.5 2.7
      vertex 15 -4 0
      vertex 15 -1.5 0
    endloop
  endfacet
  facet normal 1 0 0
    outer loop
      vertex 15 1.5 2.7
      vertex 15 4 4
      vertex 15 2.45 4
    endloop
  endfacet
  facet normal 1 0 0
    outer loop
      vertex 15 4 4
      vertex 15 1.5 2.7
      vertex 15 4 0
    endloop
  endfacet
  facet normal 1 0 0
    outer loop
      vertex 15 4 0
      vertex 15 1.5 2.7
      vertex 15 1.5 0
    endloop
  endfacet
  facet normal 0 1 -0
    outer loop
      vertex 15 4 0
      vertex -5 4 4
      vertex 15 4 4
    endloop
  endfacet
  facet normal 0 1 0
    outer loop
      vertex -5 4 4
      vertex 15 4 0
      vertex -5 4 0
    endloop
  endfacet
  facet normal 0 0 -1
    outer loop
      vertex 15 -4 0
      vertex 10 -1.5 0
      vertex 15 -1.5 0
    endloop
  endfacet
  facet normal 0 0 -1
    outer loop
      vertex 1.7 -2.94449 0
      vertex 10 -1.5 0
      vertex 15 -4 0
    endloop
  endfacet
  facet normal 0 0 -1
    outer loop
      vertex 8.61418 -0.574024 0
      vertex 3.4 0 0
      vertex 8.5 0 0
    endloop
  endfacet
  facet normal 0 0 -1
    outer loop
      vertex 8.93934 -1.06066 0
      vertex 3.4 0 0
      vertex 8.61418 -0.574024 0
    endloop
  endfacet
  facet normal 0 0 -1
    outer loop
      vertex 1.7 -2.94449 0
      vertex 8.93934 -1.06066 0
      vertex 9.42597 -1.38582 0
    endloop
  endfacet
  facet normal -0 0 -1
    outer loop
      vertex 10 -1.5 0
      vertex 1.7 -2.94449 0
      vertex 9.42597 -1.38582 0
    endloop
  endfacet
  facet normal -0 0 -1
    outer loop
      vertex 8.93934 -1.06066 0
      vertex 1.7 -2.94449 0
      vertex 3.4 0 0
    endloop
  endfacet
  facet normal 0 0 -1
    outer loop
      vertex -5 -4 0
      vertex 1.7 -2.94449 0
      vertex 15 -4 0
    endloop
  endfacet
  facet normal -0 0 -1
    outer loop
      vertex -1.7 -2.94449 0
      vertex -5 -4 0
      vertex -3.4 0 0
    endloop
  endfacet
  facet normal -0 0 -1
    outer loop
      vertex 1.7 -2.94449 0
      vertex -5 -4 0
      vertex -1.7 -2.94449 0
    endloop
  endfacet
  facet normal 0 0 -1
    outer loop
      vertex 10 1.5 0
      vertex 15 4 0
      vertex 15 1.5 0
    endloop
  endfacet
  facet normal 0 0 -1
    outer loop
      vertex 1.7 2.94449 0
      vertex 10 1.5 0
      vertex 9.42597 1.38582 0
    endloop
  endfacet
  facet normal 0 0 -1
    outer loop
      vertex 3.4 0 0
      vertex 8.61418 0.574024 0
      vertex 8.5 0 0
    endloop
  endfacet
  facet normal 0 0 -1
    outer loop
      vertex 3.4 0 0
      vertex 8.93934 1.06066 0
      vertex 8.61418 0.574024 0
    endloop
  endfacet
  facet normal 0 0 -1
    outer loop
      vertex 1.7 2.94449 0
      vertex 8.93934 1.06066 0
      vertex 3.4 0 0
    endloop
  endfacet
  facet normal 0 0 -1
    outer loop
      vertex 8.93934 1.06066 0
      vertex 1.7 2.94449 0
      vertex 9.42597 1.38582 0
    endloop
  endfacet
  facet normal 0 0 -1
    outer loop
      vertex 10 1.5 0
      vertex 1.7 2.94449 0
      vertex 15 4 0
    endloop
  endfacet
  facet normal 0 0 -1
    outer loop
      vertex -5 4 0
      vertex 1.7 2.94449 0
      vertex -1.7 2.94449 0
    endloop
  endfacet
  facet normal 0 0 -1
    outer loop
      vertex 1.7 2.94449 0
      vertex -5 4 0
      vertex 15 4 0
    endloop
  endfacet
  facet normal 0 0 -1
    outer loop
      vertex -3.4 0 0
      vertex -5 4 0
      vertex -1.7 2.94449 0
    endloop
  endfacet
  facet normal 0 0 -1
    outer loop
      vertex -5 4 0
      vertex -3.4 0 0
      vertex -5 -4 0
    endloop
  endfacet
  facet normal 0 -1 0
    outer loop
      vertex -5 -4 0
      vertex 15 -4 4
      vertex -5 -4 4
    endloop
  endfacet
  facet normal 0 -1 -0
    outer loop
      vertex 15 -4 4
      vertex -5 -4 0
      vertex 15 -4 0
    endloop
  endfacet
  facet normal 0 0 1
    outer loop
      vertex 15 2.45 5.5
      vertex 11.5 0 5.5
      vertex 15 -2.45 5.5
    endloop
  endfacet
  facet normal 0 0 1
    outer loop
      vertex 15 2.45 5.5
      vertex 11.3858 0.574024 5.5
      vertex 11.5 0 5.5
    endloop
  endfacet
  facet normal 0 0 1
    outer loop
      vertex 15 2.45 5.5
      vertex 11.0607 1.06066 5.5
      vertex 11.3858 0.574024 5.5
    endloop
  endfacet
  facet normal 0 0 1
    outer loop
      vertex 15 2.45 5.5
      vertex 10.574 1.38582 5.5
      vertex 11.0607 1.06066 5.5
    endloop
  endfacet
  facet normal 0 0 1
    outer loop
      vertex 15 2.45 5.5
      vertex 10 1.5 5.5
      vertex 10.574 1.38582 5.5
    endloop
  endfacet
  facet normal 0 0 1
    outer loop
      vertex 8.61418 0.574024 5.5
      vertex 1.6 0 5.5
      vertex 8.5 0 5.5
    endloop
  endfacet
  facet normal -0 0 1
    outer loop
      vertex 1.47821 0.612293 5.5
      vertex 8.61418 0.574024 5.5
      vertex 8.93934 1.06066 5.5
    endloop
  endfacet
  facet normal -0 0 1
    outer loop
      vertex 1.13137 1.13137 5.5
      vertex 8.93934 1.06066 5.5
      vertex 9.42597 1.38582 5.5
    endloop
  endfacet
  facet normal -0 0 1
    outer loop
      vertex 0.612293 1.47821 5.5
      vertex 9.42597 1.38582 5.5
      vertex 10 1.5 5.5
    endloop
  endfacet
  facet normal -0 0 1
    outer loop
      vertex 0 1.6 5.5
      vertex 10 1.5 5.5
      vertex 15 2.45 5.5
    endloop
  endfacet
  facet normal 0 0 1
    outer loop
      vertex 8.61418 0.574024 5.5
      vertex 1.47821 0.612293 5.5
      vertex 1.6 0 5.5
    endloop
  endfacet
  facet normal 0 0 1
    outer loop
      vertex 8.93934 1.06066 5.5
      vertex 1.13137 1.13137 5.5
      vertex 1.47821 0.612293 5.5
    endloop
  endfacet
  facet normal 0 0 1
    outer loop
      vertex 9.42597 1.38582 5.5
      vertex 0.612293 1.47821 5.5
      vertex 1.13137 1.13137 5.5
    endloop
  endfacet
  facet normal 0 0 1
    outer loop
      vertex 10 1.5 5.5
      vertex 0 1.6 5.5
      vertex 0.612293 1.47821 5.5
    endloop
  endfacet
  facet normal 0 0 1
    outer loop
      vertex -1.47821 0.612293 5.5
      vertex -5 2.45 5.5
      vertex -1.6 0 5.5
    endloop
  endfacet
  facet normal 0 0 1
    outer loop
      vertex -1.13137 1.13137 5.5
      vertex -5 2.45 5.5
      vertex -1.47821 0.612293 5.5
    endloop
  endfacet
  facet normal 0 0 1
    outer loop
      vertex -0.612293 1.47821 5.5
      vertex -5 2.45 5.5
      vertex -1.13137 1.13137 5.5
    endloop
  endfacet
  facet normal 0 0 1
    outer loop
      vertex 0 1.6 5.5
      vertex -5 2.45 5.5
      vertex -0.612293 1.47821 5.5
    endloop
  endfacet
  facet normal -0 0 1
    outer loop
      vertex -5 2.45 5.5
      vertex 0 1.6 5.5
      vertex 15 2.45 5.5
    endloop
  endfacet
  facet normal -0 0 1
    outer loop
      vertex 11.3858 -0.574024 5.5
      vertex 15 -2.45 5.5
      vertex 11.5 0 5.5
    endloop
  endfacet
  facet normal -0 0 1
    outer loop
      vertex 11.0607 -1.06066 5.5
      vertex 15 -2.45 5.5
      vertex 11.3858 -0.574024 5.5
    endloop
  endfacet
  facet normal -0 0 1
    outer loop
      vertex 10.574 -1.38582 5.5
      vertex 15 -2.45 5.5
      vertex 11.0607 -1.06066 5.5
    endloop
  endfacet
  facet normal -0 0 1
    outer loop
      vertex 10 -1.5 5.5
      vertex 15 -2.45 5.5
      vertex 10.574 -1.38582 5.5
    endloop
  endfacet
  facet normal -0 0 1
    outer loop
      vertex 1.6 0 5.5
      vertex 8.61418 -0.574024 5.5
      vertex 8.5 0 5.5
    endloop
  endfacet
  facet normal 0 0 1
    outer loop
      vertex 1.47821 -0.612293 5.5
      vertex 8.61418 -0.574024 5.5
      vertex 1.6 0 5.5
    endloop
  endfacet
  facet normal 0 0 1
    outer loop
      vertex 8.61418 -0.574024 5.5
      vertex 1.47821 -0.612293 5.5
      vertex 8.93934 -1.06066 5.5
    endloop
  endfacet
  facet normal 0 0 1
    outer loop
      vertex 1.13137 -1.13137 5.5
      vertex 8.93934 -1.06066 5.5
      vertex 1.47821 -0.612293 5.5
    endloop
  endfacet
  facet normal 0 0 1
    outer loop
      vertex 8.93934 -1.06066 5.5
      vertex 1.13137 -1.13137 5.5
      vertex 9.42597 -1.38582 5.5
    endloop
  endfacet
  facet normal 0 0 1
    outer loop
      vertex 0.612293 -1.47821 5.5
      vertex 9.42597 -1.38582 5.5
      vertex 1.13137 -1.13137 5.5
    endloop
  endfacet
  facet normal 0 0 1
    outer loop
      vertex 9.42597 -1.38582 5.5
      vertex 0.612293 -1.47821 5.5
      vertex 10 -1.5 5.5
    endloop
  endfacet
  facet normal 0 0 1
    outer loop
      vertex 0 -1.6 5.5
      vertex 10 -1.5 5.5
      vertex 0.612293 -1.47821 5.5
    endloop
  endfacet
  facet normal 0 0 1
    outer loop
      vertex 10 -1.5 5.5
      vertex 0 -1.6 5.5
      vertex 15 -2.45 5.5
    endloop
  endfacet
  facet normal 0 0 1
    outer loop
      vertex -5 -2.45 5.5
      vertex -1.6 0 5.5
      vertex -5 2.45 5.5
    endloop
  endfacet
  facet normal 0 0 1
    outer loop
      vertex -1.6 0 5.5
      vertex -5 -2.45 5.5
      vertex -1.47821 -0.612293 5.5
    endloop
  endfacet
  facet normal 0 0 1
    outer loop
      vertex 0 -1.6 5.5
      vertex -5 -2.45 5.5
      vertex 15 -2.45 5.5
    endloop
  endfacet
  facet normal 0 0 1
    outer loop
      vertex -0.612293 -1.47821 5.5
      vertex -5 -2.45 5.5
      vertex 0 -1.6 5.5
    endloop
  endfacet
  facet normal 0 0 1
    outer loop
      vertex -1.13137 -1.13137 5.5
      vertex -5 -2.45 5.5
      vertex -0.612293 -1.47821 5.5
    endloop
  endfacet
  facet normal 0 0 1
    outer loop
      vertex -1.47821 -0.612293 5.5
      vertex -5 -2.45 5.5
      vertex -1.13137 -1.13137 5.5
    endloop
  endfacet
  facet normal 0 1 -0
    outer loop
      vertex 15 2.45 4
      vertex -5 2.45 5.5
      vertex 15 2.45 5.5
    endloop
  endfacet
  facet normal 0 1 0
    outer loop
      vertex -5 2.45 5.5
      vertex 15 2.45 4
      vertex -5 2.45 4
    endloop
  endfacet
  facet normal 0 -1 0
    outer loop
      vertex -5 -2.45 4
      vertex 15 -2.45 5.5
      vertex -5 -2.45 5.5
    endloop
  endfacet
  facet normal 0 -1 -0
    outer loop
      vertex 15 -2.45 5.5
      vertex -5 -2.45 4
      vertex 15 -2.45 4
    endloop
  endfacet
  facet normal -0.980785 -0.19509 0
    outer loop
      vertex 1.6 0 2.5
      vertex 1.47821 0.612293 5.5
      vertex 1.47821 0.612293 2.5
    endloop
  endfacet
  facet normal -0.980785 -0.19509 0
    outer loop
      vertex 1.47821 0.612293 5.5
      vertex 1.6 0 2.5
      vertex 1.6 0 5.5
    endloop
  endfacet
  facet normal 0.980785 -0.19509 0
    outer loop
      vertex -1.6 0 5.5
      vertex -1.47821 0.612293 2.5
      vertex -1.47821 0.612293 5.5
    endloop
  endfacet
  facet normal 0.980785 -0.19509 0
    outer loop
      vertex -1.47821 0.612293 2.5
      vertex -1.6 0 5.5
      vertex -1.6 0 2.5
    endloop
  endfacet
  facet normal -0.19509 -0.980785 0
    outer loop
      vertex 0 1.6 2.5
      vertex 0.612293 1.47821 5.5
      vertex 0 1.6 5.5
    endloop
  endfacet
  facet normal -0.19509 -0.980785 -0
    outer loop
      vertex 0.612293 1.47821 5.5
      vertex 0 1.6 2.5
      vertex 0.612293 1.47821 2.5
    endloop
  endfacet
  facet normal -0.83147 -0.55557 0
    outer loop
      vertex 1.47821 0.612293 2.5
      vertex 1.13137 1.13137 5.5
      vertex 1.13137 1.13137 2.5
    endloop
  endfacet
  facet normal -0.83147 -0.55557 0
    outer loop
      vertex 1.13137 1.13137 5.5
      vertex 1.47821 0.612293 2.5
      vertex 1.47821 0.612293 5.5
    endloop
  endfacet
  facet normal -0.19509 0.980785 0
    outer loop
      vertex 0.612293 -1.47821 2.5
      vertex 0 -1.6 5.5
      vertex 0.612293 -1.47821 5.5
    endloop
  endfacet
  facet normal -0.19509 0.980785 0
    outer loop
      vertex 0 -1.6 5.5
      vertex 0.612293 -1.47821 2.5
      vertex 0 -1.6 2.5
    endloop
  endfacet
  facet normal -0.55557 -0.83147 0
    outer loop
      vertex 0.612293 1.47821 2.5
      vertex 1.13137 1.13137 5.5
      vertex 0.612293 1.47821 5.5
    endloop
  endfacet
  facet normal -0.55557 -0.83147 -0
    outer loop
      vertex 1.13137 1.13137 5.5
      vertex 0.612293 1.47821 2.5
      vertex 1.13137 1.13137 2.5
    endloop
  endfacet
  facet normal 0.55557 -0.83147 0
    outer loop
      vertex -1.13137 1.13137 2.5
      vertex -0.612293 1.47821 5.5
      vertex -1.13137 1.13137 5.5
    endloop
  endfacet
  facet normal 0.55557 -0.83147 0
    outer loop
      vertex -0.612293 1.47821 5.5
      vertex -1.13137 1.13137 2.5
      vertex -0.612293 1.47821 2.5
    endloop
  endfacet
  facet normal 0.83147 -0.55557 0
    outer loop
      vertex -1.47821 0.612293 5.5
      vertex -1.13137 1.13137 2.5
      vertex -1.13137 1.13137 5.5
    endloop
  endfacet
  facet normal 0.83147 -0.55557 0
    outer loop
      vertex -1.13137 1.13137 2.5
      vertex -1.47821 0.612293 5.5
      vertex -1.47821 0.612293 2.5
    endloop
  endfacet
  facet normal 0.19509 -0.980785 0
    outer loop
      vertex -0.612293 1.47821 2.5
      vertex 0 1.6 5.5
      vertex -0.612293 1.47821 5.5
    endloop
  endfacet
  facet normal 0.19509 -0.980785 0
    outer loop
      vertex 0 1.6 5.5
      vertex -0.612293 1.47821 2.5
      vertex 0 1.6 2.5
    endloop
  endfacet
  facet normal 0.55557 0.83147 -0
    outer loop
      vertex -0.612293 -1.47821 2.5
      vertex -1.13137 -1.13137 5.5
      vertex -0.612293 -1.47821 5.5
    endloop
  endfacet
  facet normal 0.55557 0.83147 0
    outer loop
      vertex -1.13137 -1.13137 5.5
      vertex -0.612293 -1.47821 2.5
      vertex -1.13137 -1.13137 2.5
    endloop
  endfacet
  facet normal 0.980785 0.19509 0
    outer loop
      vertex -1.47821 -0.612293 5.5
      vertex -1.6 0 2.5
      vertex -1.6 0 5.5
    endloop
  endfacet
  facet normal 0.980785 0.19509 0
    outer loop
      vertex -1.6 0 2.5
      vertex -1.47821 -0.612293 5.5
      vertex -1.47821 -0.612293 2.5
    endloop
  endfacet
  facet normal -0.55557 0.83147 0
    outer loop
      vertex 1.13137 -1.13137 2.5
      vertex 0.612293 -1.47821 5.5
      vertex 1.13137 -1.13137 5.5
    endloop
  endfacet
  facet normal -0.55557 0.83147 0
    outer loop
      vertex 0.612293 -1.47821 5.5
      vertex 1.13137 -1.13137 2.5
      vertex 0.612293 -1.47821 2.5
    endloop
  endfacet
  facet normal -0.83147 0.55557 0
    outer loop
      vertex 1.13137 -1.13137 2.5
      vertex 1.47821 -0.612293 5.5
      vertex 1.47821 -0.612293 2.5
    endloop
  endfacet
  facet normal -0.83147 0.55557 0
    outer loop
      vertex 1.47821 -0.612293 5.5
      vertex 1.13137 -1.13137 2.5
      vertex 1.13137 -1.13137 5.5
    endloop
  endfacet
  facet normal 0.19509 0.980785 -0
    outer loop
      vertex 0 -1.6 2.5
      vertex -0.612293 -1.47821 5.5
      vertex 0 -1.6 5.5
    endloop
  endfacet
  facet normal 0.19509 0.980785 0
    outer loop
      vertex -0.612293 -1.47821 5.5
      vertex 0 -1.6 2.5
      vertex -0.612293 -1.47821 2.5
    endloop
  endfacet
  facet normal 0.83147 0.55557 0
    outer loop
      vertex -1.13137 -1.13137 5.5
      vertex -1.47821 -0.612293 2.5
      vertex -1.47821 -0.612293 5.5
    endloop
  endfacet
  facet normal 0.83147 0.55557 0
    outer loop
      vertex -1.47821 -0.612293 2.5
      vertex -1.13137 -1.13137 5.5
      vertex -1.13137 -1.13137 2.5
    endloop
  endfacet
  facet normal -0.980785 0.19509 0
    outer loop
      vertex 1.47821 -0.612293 2.5
      vertex 1.6 0 5.5
      vertex 1.6 0 2.5
    endloop
  endfacet
  facet normal -0.980785 0.19509 0
    outer loop
      vertex 1.6 0 5.5
      vertex 1.47821 -0.612293 2.5
      vertex 1.47821 -0.612293 5.5
    endloop
  endfacet
  facet normal -0.866025 -0.5 0
    outer loop
      vertex 3.4 0 0
      vertex 1.7 2.94449 2.5
      vertex 1.7 2.94449 0
    endloop
  endfacet
  facet normal -0.866025 -0.5 0
    outer loop
      vertex 1.7 2.94449 2.5
      vertex 3.4 0 0
      vertex 3.4 0 2.5
    endloop
  endfacet
  facet normal 0.866025 -0.5 0
    outer loop
      vertex -3.4 0 2.5
      vertex -1.7 2.94449 0
      vertex -1.7 2.94449 2.5
    endloop
  endfacet
  facet normal 0.866025 -0.5 0
    outer loop
      vertex -1.7 2.94449 0
      vertex -3.4 0 2.5
      vertex -3.4 0 0
    endloop
  endfacet
  facet normal 0 -1 0
    outer loop
      vertex -1.7 2.94449 0
      vertex 1.7 2.94449 2.5
      vertex -1.7 2.94449 2.5
    endloop
  endfacet
  facet normal 0 -1 -0
    outer loop
      vertex 1.7 2.94449 2.5
      vertex -1.7 2.94449 0
      vertex 1.7 2.94449 0
    endloop
  endfacet
  facet normal 0 0 -1
    outer loop
      vertex 1.47821 -0.612293 2.5
      vertex 3.4 0 2.5
      vertex 1.7 -2.94449 2.5
    endloop
  endfacet
  facet normal 0 0 -1
    outer loop
      vertex 1.47821 0.612293 2.5
      vertex 3.4 0 2.5
      vertex 1.6 0 2.5
    endloop
  endfacet
  facet normal -0 0 -1
    outer loop
      vertex 3.4 0 2.5
      vertex 1.47821 -0.612293 2.5
      vertex 1.6 0 2.5
    endloop
  endfacet
  facet normal 0 0 -1
    outer loop
      vertex 1.7 -2.94449 2.5
      vertex 1.13137 -1.13137 2.5
      vertex 1.47821 -0.612293 2.5
    endloop
  endfacet
  facet normal 0 0 -1
    outer loop
      vertex 1.7 -2.94449 2.5
      vertex 0.612293 -1.47821 2.5
      vertex 1.13137 -1.13137 2.5
    endloop
  endfacet
  facet normal 0 0 -1
    outer loop
      vertex 1.7 -2.94449 2.5
      vertex 0 -1.6 2.5
      vertex 0.612293 -1.47821 2.5
    endloop
  endfacet
  facet normal 0 0 -1
    outer loop
      vertex -1.7 -2.94449 2.5
      vertex 0 -1.6 2.5
      vertex 1.7 -2.94449 2.5
    endloop
  endfacet
  facet normal 0 0 -1
    outer loop
      vertex -3.4 0 2.5
      vertex -1.47821 -0.612293 2.5
      vertex -1.7 -2.94449 2.5
    endloop
  endfacet
  facet normal -0 0 -1
    outer loop
      vertex -1.13137 -1.13137 2.5
      vertex -1.7 -2.94449 2.5
      vertex -1.47821 -0.612293 2.5
    endloop
  endfacet
  facet normal -0 0 -1
    outer loop
      vertex -0.612293 -1.47821 2.5
      vertex -1.7 -2.94449 2.5
      vertex -1.13137 -1.13137 2.5
    endloop
  endfacet
  facet normal -0 0 -1
    outer loop
      vertex 0 -1.6 2.5
      vertex -1.7 -2.94449 2.5
      vertex -0.612293 -1.47821 2.5
    endloop
  endfacet
  facet normal 0 0 -1
    outer loop
      vertex 3.4 0 2.5
      vertex 1.47821 0.612293 2.5
      vertex 1.7 2.94449 2.5
    endloop
  endfacet
  facet normal 0 0 -1
    outer loop
      vertex 1.13137 1.13137 2.5
      vertex 1.7 2.94449 2.5
      vertex 1.47821 0.612293 2.5
    endloop
  endfacet
  facet normal 0 0 -1
    outer loop
      vertex 0.612293 1.47821 2.5
      vertex 1.7 2.94449 2.5
      vertex 1.13137 1.13137 2.5
    endloop
  endfacet
  facet normal 0 0 -1
    outer loop
      vertex 0 1.6 2.5
      vertex 1.7 2.94449 2.5
      vertex 0.612293 1.47821 2.5
    endloop
  endfacet
  facet normal 0 0 -1
    outer loop
      vertex -1.7 2.94449 2.5
      vertex 0 1.6 2.5
      vertex -0.612293 1.47821 2.5
    endloop
  endfacet
  facet normal 0 0 -1
    outer loop
      vertex 0 1.6 2.5
      vertex -1.7 2.94449 2.5
      vertex 1.7 2.94449 2.5
    endloop
  endfacet
  facet normal 0 0 -1
    outer loop
      vertex -1.13137 1.13137 2.5
      vertex -1.7 2.94449 2.5
      vertex -0.612293 1.47821 2.5
    endloop
  endfacet
  facet normal 0 0 -1
    outer loop
      vertex -1.47821 0.612293 2.5
      vertex -1.7 2.94449 2.5
      vertex -1.13137 1.13137 2.5
    endloop
  endfacet
  facet normal 0 0 -1
    outer loop
      vertex -3.4 0 2.5
      vertex -1.47821 0.612293 2.5
      vertex -1.6 0 2.5
    endloop
  endfacet
  facet normal 0 0 -1
    outer loop
      vertex -1.47821 -0.612293 2.5
      vertex -3.4 0 2.5
      vertex -1.6 0 2.5
    endloop
  endfacet
  facet normal -0 0 -1
    outer loop
      vertex -1.47821 0.612293 2.5
      vertex -3.4 0 2.5
      vertex -1.7 2.94449 2.5
    endloop
  endfacet
  facet normal 0.866025 0.5 0
    outer loop
      vertex -1.7 -2.94449 2.5
      vertex -3.4 0 0
      vertex -3.4 0 2.5
    endloop
  endfacet
  facet normal 0.866025 0.5 0
    outer loop
      vertex -3.4 0 0
      vertex -1.7 -2.94449 2.5
      vertex -1.7 -2.94449 0
    endloop
  endfacet
  facet normal 0 1 -0
    outer loop
      vertex 1.7 -2.94449 0
      vertex -1.7 -2.94449 2.5
      vertex 1.7 -2.94449 2.5
    endloop
  endfacet
  facet normal 0 1 0
    outer loop
      vertex -1.7 -2.94449 2.5
      vertex 1.7 -2.94449 0
      vertex -1.7 -2.94449 0
    endloop
  endfacet
  facet normal -0.866025 0.5 0
    outer loop
      vertex 1.7 -2.94449 0
      vertex 3.4 0 2.5
      vertex 3.4 0 0
    endloop
  endfacet
  facet normal -0.866025 0.5 0
    outer loop
      vertex 3.4 0 2.5
      vertex 1.7 -2.94449 0
      vertex 1.7 -2.94449 2.5
    endloop
  endfacet
  facet normal -0.980785 -0.195092 0
    outer loop
      vertex 11.5 0 2.7
      vertex 11.3858 0.574024 5.5
      vertex 11.3858 0.574024 2.7
    endloop
  endfacet
  facet normal -0.980785 -0.195092 0
    outer loop
      vertex 11.3858 0.574024 5.5
      vertex 11.5 0 2.7
      vertex 11.5 0 5.5
    endloop
  endfacet
  facet normal 0.980785 0.19509 0
    outer loop
      vertex 8.61418 -0.574024 5.5
      vertex 8.5 0 0
      vertex 8.5 0 5.5
    endloop
  endfacet
  facet normal 0.980785 0.19509 0
    outer loop
      vertex 8.5 0 0
      vertex 8.61418 -0.574024 5.5
      vertex 8.61418 -0.574024 0
    endloop
  endfacet
  facet normal -0.195092 0.980785 0
    outer loop
      vertex 10.574 -1.38582 2.7
      vertex 10 -1.5 5.5
      vertex 10.574 -1.38582 5.5
    endloop
  endfacet
  facet normal -0.195092 0.980785 0
    outer loop
      vertex 10 -1.5 5.5
      vertex 10.574 -1.38582 2.7
      vertex 10 -1.5 2.7
    endloop
  endfacet
  facet normal 0.195092 -0.980785 0
    outer loop
      vertex 9.42597 1.38582 5.5
      vertex 10 1.5 2.7
      vertex 10 1.5 5.5
    endloop
  endfacet
  facet normal 0.195092 -0.980785 0
    outer loop
      vertex 9.42597 1.38582 0
      vertex 10 1.5 2.7
      vertex 9.42597 1.38582 5.5
    endloop
  endfacet
  facet normal 0.195092 -0.980785 0
    outer loop
      vertex 10 1.5 2.7
      vertex 9.42597 1.38582 0
      vertex 10 1.5 0
    endloop
  endfacet
  facet normal -0.55557 -0.83147 0
    outer loop
      vertex 10.574 1.38582 2.7
      vertex 11.0607 1.06066 5.5
      vertex 10.574 1.38582 5.5
    endloop
  endfacet
  facet normal -0.55557 -0.83147 -0
    outer loop
      vertex 11.0607 1.06066 5.5
      vertex 10.574 1.38582 2.7
      vertex 11.0607 1.06066 2.7
    endloop
  endfacet
  facet normal -0.83147 -0.55557 0
    outer loop
      vertex 11.3858 0.574024 2.7
      vertex 11.0607 1.06066 5.5
      vertex 11.0607 1.06066 2.7
    endloop
  endfacet
  facet normal -0.83147 -0.55557 0
    outer loop
      vertex 11.0607 1.06066 5.5
      vertex 11.3858 0.574024 2.7
      vertex 11.3858 0.574024 5.5
    endloop
  endfacet
  facet normal -0.195092 -0.980785 0
    outer loop
      vertex 10 1.5 2.7
      vertex 10.574 1.38582 5.5
      vertex 10 1.5 5.5
    endloop
  endfacet
  facet normal -0.195092 -0.980785 -0
    outer loop
      vertex 10.574 1.38582 5.5
      vertex 10 1.5 2.7
      vertex 10.574 1.38582 2.7
    endloop
  endfacet
  facet normal 0.83147 -0.55557 0
    outer loop
      vertex 8.61418 0.574024 5.5
      vertex 8.93934 1.06066 0
      vertex 8.93934 1.06066 5.5
    endloop
  endfacet
  facet normal 0.83147 -0.55557 0
    outer loop
      vertex 8.93934 1.06066 0
      vertex 8.61418 0.574024 5.5
      vertex 8.61418 0.574024 0
    endloop
  endfacet
  facet normal 0.980785 -0.19509 0
    outer loop
      vertex 8.5 0 5.5
      vertex 8.61418 0.574024 0
      vertex 8.61418 0.574024 5.5
    endloop
  endfacet
  facet normal 0.980785 -0.19509 0
    outer loop
      vertex 8.61418 0.574024 0
      vertex 8.5 0 5.5
      vertex 8.5 0 0
    endloop
  endfacet
  facet normal 0.55557 -0.83147 0
    outer loop
      vertex 8.93934 1.06066 0
      vertex 9.42597 1.38582 5.5
      vertex 8.93934 1.06066 5.5
    endloop
  endfacet
  facet normal 0.55557 -0.83147 0
    outer loop
      vertex 9.42597 1.38582 5.5
      vertex 8.93934 1.06066 0
      vertex 9.42597 1.38582 0
    endloop
  endfacet
  facet normal -0.980785 0.195092 0
    outer loop
      vertex 11.3858 -0.574024 2.7
      vertex 11.5 0 5.5
      vertex 11.5 0 2.7
    endloop
  endfacet
  facet normal -0.980785 0.195092 0
    outer loop
      vertex 11.5 0 5.5
      vertex 11.3858 -0.574024 2.7
      vertex 11.3858 -0.574024 5.5
    endloop
  endfacet
  facet normal -0.55557 0.83147 0
    outer loop
      vertex 11.0607 -1.06066 2.7
      vertex 10.574 -1.38582 5.5
      vertex 11.0607 -1.06066 5.5
    endloop
  endfacet
  facet normal -0.55557 0.83147 0
    outer loop
      vertex 10.574 -1.38582 5.5
      vertex 11.0607 -1.06066 2.7
      vertex 10.574 -1.38582 2.7
    endloop
  endfacet
  facet normal 0.195092 0.980785 -0
    outer loop
      vertex 10 -1.5 2.7
      vertex 9.42597 -1.38582 5.5
      vertex 10 -1.5 5.5
    endloop
  endfacet
  facet normal 0.195092 0.980785 0
    outer loop
      vertex 9.42597 -1.38582 0
      vertex 10 -1.5 2.7
      vertex 10 -1.5 0
    endloop
  endfacet
  facet normal 0.195092 0.980785 0
    outer loop
      vertex 10 -1.5 2.7
      vertex 9.42597 -1.38582 0
      vertex 9.42597 -1.38582 5.5
    endloop
  endfacet
  facet normal 0.55557 0.83147 -0
    outer loop
      vertex 9.42597 -1.38582 0
      vertex 8.93934 -1.06066 5.5
      vertex 9.42597 -1.38582 5.5
    endloop
  endfacet
  facet normal 0.55557 0.83147 0
    outer loop
      vertex 8.93934 -1.06066 5.5
      vertex 9.42597 -1.38582 0
      vertex 8.93934 -1.06066 0
    endloop
  endfacet
  facet normal 0.83147 0.55557 0
    outer loop
      vertex 8.93934 -1.06066 5.5
      vertex 8.61418 -0.574024 0
      vertex 8.61418 -0.574024 5.5
    endloop
  endfacet
  facet normal 0.83147 0.55557 0
    outer loop
      vertex 8.61418 -0.574024 0
      vertex 8.93934 -1.06066 5.5
      vertex 8.93934 -1.06066 0
    endloop
  endfacet
  facet normal -0.83147 0.55557 0
    outer loop
      vertex 11.0607 -1.06066 2.7
      vertex 11.3858 -0.574024 5.5
      vertex 11.3858 -0.574024 2.7
    endloop
  endfacet
  facet normal -0.83147 0.55557 0
    outer loop
      vertex 11.3858 -0.574024 5.5
      vertex 11.0607 -1.06066 2.7
      vertex 11.0607 -1.06066 5.5
    endloop
  endfacet
  facet normal 0 0 -1
    outer loop
      vertex 15 -1.5 2.7
      vertex 11.5 0 2.7
      vertex 15 1.5 2.7
    endloop
  endfacet
  facet normal 0 0 -1
    outer loop
      vertex 15 -1.5 2.7
      vertex 11.3858 -0.574024 2.7
      vertex 11.5 0 2.7
    endloop
  endfacet
  facet normal 0 0 -1
    outer loop
      vertex 15 -1.5 2.7
      vertex 11.0607 -1.06066 2.7
      vertex 11.3858 -0.574024 2.7
    endloop
  endfacet
  facet normal 0 0 -1
    outer loop
      vertex 15 -1.5 2.7
      vertex 10.574 -1.38582 2.7
      vertex 11.0607 -1.06066 2.7
    endloop
  endfacet
  facet normal 0 -0 -1
    outer loop
      vertex 10.574 -1.38582 2.7
      vertex 15 -1.5 2.7
      vertex 10 -1.5 2.7
    endloop
  endfacet
  facet normal 0 0 -1
    outer loop
      vertex 11.3858 0.574024 2.7
      vertex 15 1.5 2.7
      vertex 11.5 0 2.7
    endloop
  endfacet
  facet normal 0 0 -1
    outer loop
      vertex 11.0607 1.06066 2.7
      vertex 15 1.5 2.7
      vertex 11.3858 0.574024 2.7
    endloop
  endfacet
  facet normal 0 0 -1
    outer loop
      vertex 10.574 1.38582 2.7
      vertex 15 1.5 2.7
      vertex 11.0607 1.06066 2.7
    endloop
  endfacet
  facet normal -0 0 -1
    outer loop
      vertex 15 1.5 2.7
      vertex 10.574 1.38582 2.7
      vertex 10 1.5 2.7
    endloop
  endfacet
  facet normal 0 -1 0
    outer loop
      vertex 10 1.5 0
      vertex 15 1.5 2.7
      vertex 10 1.5 2.7
    endloop
  endfacet
  facet normal 0 -1 -0
    outer loop
      vertex 15 1.5 2.7
      vertex 10 1.5 0
      vertex 15 1.5 0
    endloop
  endfacet
  facet normal 0 1 -0
    outer loop
      vertex 15 -1.5 0
      vertex 10 -1.5 2.7
      vertex 15 -1.5 2.7
    endloop
  endfacet
  facet normal 0 1 0
    outer loop
      vertex 10 -1.5 2.7
      vertex 15 -1.5 0
      vertex 10 -1.5 0
    endloop
  endfacet
endsolid OpenSCAD_Model
