solid OpenSCAD_Model
  facet normal 0 1 -0
    outer loop
      vertex 1.97245 -14.7666 4.75
      vertex -1.97245 -14.7666 6.75
      vertex 1.97245 -14.7666 6.75
    endloop
  endfacet
  facet normal 0 1 0
    outer loop
      vertex -1.97245 -14.7666 6.75
      vertex 1.97245 -14.7666 4.75
      vertex -1.97245 -14.7666 4.75
    endloop
  endfacet
  facet normal 0 0 1
    outer loop
      vertex 17.952 5.224 4.75
      vertex 15.6042 -6.506 4.75
      vertex 17.952 -6.506 4.75
    endloop
  endfacet
  facet normal -0 0 1
    outer loop
      vertex 14.2145 5.0267 4.75
      vertex 15.6042 -6.506 4.75
      vertex 17.952 5.224 4.75
    endloop
  endfacet
  facet normal -0 0 1
    outer loop
      vertex 14.9873 5.79953 4.75
      vertex 17.952 5.224 4.75
      vertex 15.096 6.346 4.75
    endloop
  endfacet
  facet normal 0 0 1
    outer loop
      vertex 17.952 5.224 4.75
      vertex 14.9873 6.89247 4.75
      vertex 15.096 6.346 4.75
    endloop
  endfacet
  facet normal 0 0 1
    outer loop
      vertex 17.952 5.224 4.75
      vertex 14.6777 7.35575 4.75
      vertex 14.9873 6.89247 4.75
    endloop
  endfacet
  facet normal 0 0 1
    outer loop
      vertex 9.078 14.098 4.75
      vertex 14.6777 7.35575 4.75
      vertex 17.952 5.224 4.75
    endloop
  endfacet
  facet normal 0 0 1
    outer loop
      vertex 14.6777 7.35575 4.75
      vertex 9.078 14.098 4.75
      vertex 14.2145 7.6653 4.75
    endloop
  endfacet
  facet normal 0 0 1
    outer loop
      vertex 9.078 14.098 4.75
      vertex 13.668 7.774 4.75
      vertex 14.2145 7.6653 4.75
    endloop
  endfacet
  facet normal 0 0 1
    outer loop
      vertex 9.078 14.098 4.75
      vertex 13.1215 7.6653 4.75
      vertex 13.668 7.774 4.75
    endloop
  endfacet
  facet normal 0 0 1
    outer loop
      vertex 9.078 14.098 4.75
      vertex 12.6583 7.35575 4.75
      vertex 13.1215 7.6653 4.75
    endloop
  endfacet
  facet normal 0 0 1
    outer loop
      vertex 9.078 14.098 4.75
      vertex 12.3487 6.89247 4.75
      vertex 12.6583 7.35575 4.75
    endloop
  endfacet
  facet normal -0 0 1
    outer loop
      vertex 3 14 4.75
      vertex 12.3487 6.89247 4.75
      vertex 9.078 14.098 4.75
    endloop
  endfacet
  facet normal 0 0 1
    outer loop
      vertex 12.24 6.346 4.75
      vertex 3 14 4.75
      vertex 12.3487 5.79953 4.75
    endloop
  endfacet
  facet normal 0 0 1
    outer loop
      vertex 12.3487 5.79953 4.75
      vertex 3 -10 4.75
      vertex 9.435 -12.3419 4.75
    endloop
  endfacet
  facet normal 0 0 1
    outer loop
      vertex 12.3487 5.79953 4.75
      vertex 3 14 4.75
      vertex 3 -10 4.75
    endloop
  endfacet
  facet normal 0 0 1
    outer loop
      vertex 9.078 14.098 4.75
      vertex -3 14 4.75
      vertex 3 14 4.75
    endloop
  endfacet
  facet normal -0 0 1
    outer loop
      vertex -12.3487 5.79953 4.75
      vertex -3 -10 4.75
      vertex -3 14 4.75
    endloop
  endfacet
  facet normal -0 0 1
    outer loop
      vertex -9.078 14.098 4.75
      vertex -3 14 4.75
      vertex 9.078 14.098 4.75
    endloop
  endfacet
  facet normal 0 0 1
    outer loop
      vertex -12.3487 6.89247 4.75
      vertex -3 14 4.75
      vertex -9.078 14.098 4.75
    endloop
  endfacet
  facet normal 0 0 1
    outer loop
      vertex -12.3487 5.79953 4.75
      vertex -3 14 4.75
      vertex -12.24 6.346 4.75
    endloop
  endfacet
  facet normal -0 0 1
    outer loop
      vertex -12.6583 5.33625 4.75
      vertex -3 -10 4.75
      vertex -12.3487 5.79953 4.75
    endloop
  endfacet
  facet normal 0 0 1
    outer loop
      vertex -3 14 4.75
      vertex -12.3487 6.89247 4.75
      vertex -12.24 6.346 4.75
    endloop
  endfacet
  facet normal 0 0 1
    outer loop
      vertex -9.078 14.098 4.75
      vertex -12.6583 7.35575 4.75
      vertex -12.3487 6.89247 4.75
    endloop
  endfacet
  facet normal 0 0 1
    outer loop
      vertex -9.078 14.098 4.75
      vertex -13.1215 7.6653 4.75
      vertex -12.6583 7.35575 4.75
    endloop
  endfacet
  facet normal 0 0 1
    outer loop
      vertex -9.078 14.098 4.75
      vertex -13.668 7.774 4.75
      vertex -13.1215 7.6653 4.75
    endloop
  endfacet
  facet normal 0 0 1
    outer loop
      vertex -9.078 14.098 4.75
      vertex -14.2145 7.6653 4.75
      vertex -13.668 7.774 4.75
    endloop
  endfacet
  facet normal 0 0 1
    outer loop
      vertex -9.078 14.098 4.75
      vertex -14.6777 7.35575 4.75
      vertex -14.2145 7.6653 4.75
    endloop
  endfacet
  facet normal 0 0 1
    outer loop
      vertex -12.6583 5.33625 4.75
      vertex -15.6042 -6.506 4.75
      vertex -15.2662 -7.09151 4.75
    endloop
  endfacet
  facet normal 0 0 1
    outer loop
      vertex -17.952 5.224 4.75
      vertex -14.6777 7.35575 4.75
      vertex -9.078 14.098 4.75
    endloop
  endfacet
  facet normal 0 0 1
    outer loop
      vertex -17.952 5.224 4.75
      vertex -14.9873 6.89247 4.75
      vertex -14.6777 7.35575 4.75
    endloop
  endfacet
  facet normal 0 0 1
    outer loop
      vertex -17.952 5.224 4.75
      vertex -15.096 6.346 4.75
      vertex -14.9873 6.89247 4.75
    endloop
  endfacet
  facet normal 0 0 1
    outer loop
      vertex -14.9873 5.79953 4.75
      vertex -17.952 5.224 4.75
      vertex -15.6042 -6.506 4.75
    endloop
  endfacet
  facet normal 0 0 1
    outer loop
      vertex -15.6042 -6.506 4.75
      vertex -17.952 5.224 4.75
      vertex -17.952 -6.506 4.75
    endloop
  endfacet
  facet normal -0 0 1
    outer loop
      vertex 14.6777 5.33625 4.75
      vertex 17.952 5.224 4.75
      vertex 14.9873 5.79953 4.75
    endloop
  endfacet
  facet normal 0 0 1
    outer loop
      vertex 14.2145 5.0267 4.75
      vertex 17.952 5.224 4.75
      vertex 14.6777 5.33625 4.75
    endloop
  endfacet
  facet normal -0 0 1
    outer loop
      vertex 13.668 4.918 4.75
      vertex 15.6042 -6.506 4.75
      vertex 14.2145 5.0267 4.75
    endloop
  endfacet
  facet normal 0 0 1
    outer loop
      vertex 13.1215 5.0267 4.75
      vertex 15.6042 -6.506 4.75
      vertex 13.668 4.918 4.75
    endloop
  endfacet
  facet normal 0 0 1
    outer loop
      vertex 12.6583 5.33625 4.75
      vertex 15.6042 -6.506 4.75
      vertex 13.1215 5.0267 4.75
    endloop
  endfacet
  facet normal 0 0 1
    outer loop
      vertex 15.6042 -6.506 4.75
      vertex 12.6583 5.33625 4.75
      vertex 15.2662 -7.09151 4.75
    endloop
  endfacet
  facet normal 0 0 1
    outer loop
      vertex 12.6583 5.33625 4.75
      vertex 12.6265 -10.0231 4.75
      vertex 15.2662 -7.09151 4.75
    endloop
  endfacet
  facet normal 0 0 1
    outer loop
      vertex 9.435 -12.3419 4.75
      vertex 12.6583 5.33625 4.75
      vertex 12.3487 5.79953 4.75
    endloop
  endfacet
  facet normal 0 0 1
    outer loop
      vertex 12.3487 6.89247 4.75
      vertex 3 14 4.75
      vertex 12.24 6.346 4.75
    endloop
  endfacet
  facet normal 0 0 1
    outer loop
      vertex 12.6583 5.33625 4.75
      vertex 9.435 -12.3419 4.75
      vertex 12.6265 -10.0231 4.75
    endloop
  endfacet
  facet normal 0 0 1
    outer loop
      vertex 9.435 -12.3419 4.75
      vertex 3 -10 4.75
      vertex 5.83115 -13.9464 4.75
    endloop
  endfacet
  facet normal 0 0 1
    outer loop
      vertex 3 -10 4.75
      vertex 1.97245 -14.7666 4.75
      vertex 5.83115 -13.9464 4.75
    endloop
  endfacet
  facet normal 0 0 1
    outer loop
      vertex 3 -10 4.75
      vertex -1.97245 -14.7666 4.75
      vertex 1.97245 -14.7666 4.75
    endloop
  endfacet
  facet normal -0 0 1
    outer loop
      vertex -3 -10 4.75
      vertex -1.97245 -14.7666 4.75
      vertex 3 -10 4.75
    endloop
  endfacet
  facet normal 0 0 1
    outer loop
      vertex -1.97245 -14.7666 4.75
      vertex -3 -10 4.75
      vertex -5.83115 -13.9464 4.75
    endloop
  endfacet
  facet normal -0 0 1
    outer loop
      vertex -15.2662 -7.09151 4.75
      vertex -3 -10 4.75
      vertex -12.6583 5.33625 4.75
    endloop
  endfacet
  facet normal 0 0 1
    outer loop
      vertex -3 -10 4.75
      vertex -9.435 -12.3419 4.75
      vertex -5.83115 -13.9464 4.75
    endloop
  endfacet
  facet normal 0 0 1
    outer loop
      vertex -3 -10 4.75
      vertex -12.6265 -10.0231 4.75
      vertex -9.435 -12.3419 4.75
    endloop
  endfacet
  facet normal 0 0 1
    outer loop
      vertex -15.6042 -6.506 4.75
      vertex -12.6583 5.33625 4.75
      vertex -13.1215 5.0267 4.75
    endloop
  endfacet
  facet normal 0 0 1
    outer loop
      vertex -15.6042 -6.506 4.75
      vertex -13.1215 5.0267 4.75
      vertex -13.668 4.918 4.75
    endloop
  endfacet
  facet normal 0 0 1
    outer loop
      vertex -15.6042 -6.506 4.75
      vertex -13.668 4.918 4.75
      vertex -14.2145 5.0267 4.75
    endloop
  endfacet
  facet normal 0 0 1
    outer loop
      vertex -15.6042 -6.506 4.75
      vertex -14.2145 5.0267 4.75
      vertex -14.6777 5.33625 4.75
    endloop
  endfacet
  facet normal 0 0 1
    outer loop
      vertex -15.6042 -6.506 4.75
      vertex -14.6777 5.33625 4.75
      vertex -14.9873 5.79953 4.75
    endloop
  endfacet
  facet normal 0 0 1
    outer loop
      vertex -17.952 5.224 4.75
      vertex -14.9873 5.79953 4.75
      vertex -15.096 6.346 4.75
    endloop
  endfacet
  facet normal 0 0 1
    outer loop
      vertex -3 -10 4.75
      vertex -15.2662 -7.09151 4.75
      vertex -12.6265 -10.0231 4.75
    endloop
  endfacet
  facet normal -0.207912 0.978148 0
    outer loop
      vertex 5.83115 -13.9464 4.75
      vertex 1.97245 -14.7666 6.75
      vertex 5.83115 -13.9464 6.75
    endloop
  endfacet
  facet normal -0.207912 0.978148 0
    outer loop
      vertex 1.97245 -14.7666 6.75
      vertex 5.83115 -13.9464 4.75
      vertex 1.97245 -14.7666 4.75
    endloop
  endfacet
  facet normal -0.743145 0.669131 0
    outer loop
      vertex 12.6265 -10.0231 4.75
      vertex 15.2662 -7.09151 6.75
      vertex 15.2662 -7.09151 4.75
    endloop
  endfacet
  facet normal -0.743145 0.669131 0
    outer loop
      vertex 15.2662 -7.09151 6.75
      vertex 12.6265 -10.0231 4.75
      vertex 12.6265 -10.0231 6.75
    endloop
  endfacet
  facet normal -0.866025 0.5 0
    outer loop
      vertex 15.2662 -7.09151 4.75
      vertex 15.6042 -6.506 6.75
      vertex 15.6042 -6.506 4.75
    endloop
  endfacet
  facet normal -0.866025 0.5 0
    outer loop
      vertex 15.6042 -6.506 6.75
      vertex 15.2662 -7.09151 4.75
      vertex 15.2662 -7.09151 6.75
    endloop
  endfacet
  facet normal 0.866025 0.5 0
    outer loop
      vertex -15.2662 -7.09151 6.75
      vertex -15.6042 -6.506 4.75
      vertex -15.6042 -6.506 6.75
    endloop
  endfacet
  facet normal 0.866025 0.5 0
    outer loop
      vertex -15.6042 -6.506 4.75
      vertex -15.2662 -7.09151 6.75
      vertex -15.2662 -7.09151 4.75
    endloop
  endfacet
  facet normal -0.587785 0.809017 0
    outer loop
      vertex 12.6265 -10.0231 4.75
      vertex 9.435 -12.3419 6.75
      vertex 12.6265 -10.0231 6.75
    endloop
  endfacet
  facet normal -0.587785 0.809017 0
    outer loop
      vertex 9.435 -12.3419 6.75
      vertex 12.6265 -10.0231 4.75
      vertex 9.435 -12.3419 4.75
    endloop
  endfacet
  facet normal -0.406737 0.913545 0
    outer loop
      vertex 9.435 -12.3419 4.75
      vertex 5.83115 -13.9464 6.75
      vertex 9.435 -12.3419 6.75
    endloop
  endfacet
  facet normal -0.406737 0.913545 0
    outer loop
      vertex 5.83115 -13.9464 6.75
      vertex 9.435 -12.3419 4.75
      vertex 5.83115 -13.9464 4.75
    endloop
  endfacet
  facet normal 0.207912 0.978148 -0
    outer loop
      vertex -1.97245 -14.7666 4.75
      vertex -5.83115 -13.9464 6.75
      vertex -1.97245 -14.7666 6.75
    endloop
  endfacet
  facet normal 0.207912 0.978148 0
    outer loop
      vertex -5.83115 -13.9464 6.75
      vertex -1.97245 -14.7666 4.75
      vertex -5.83115 -13.9464 4.75
    endloop
  endfacet
  facet normal 0.587785 0.809017 -0
    outer loop
      vertex -9.435 -12.3419 4.75
      vertex -12.6265 -10.0231 6.75
      vertex -9.435 -12.3419 6.75
    endloop
  endfacet
  facet normal 0.587785 0.809017 0
    outer loop
      vertex -12.6265 -10.0231 6.75
      vertex -9.435 -12.3419 4.75
      vertex -12.6265 -10.0231 4.75
    endloop
  endfacet
  facet normal 0.743145 0.669131 0
    outer loop
      vertex -12.6265 -10.0231 6.75
      vertex -15.2662 -7.09151 4.75
      vertex -15.2662 -7.09151 6.75
    endloop
  endfacet
  facet normal 0.743145 0.669131 0
    outer loop
      vertex -15.2662 -7.09151 4.75
      vertex -12.6265 -10.0231 6.75
      vertex -12.6265 -10.0231 4.75
    endloop
  endfacet
  facet normal 0.406737 0.913545 -0
    outer loop
      vertex -5.83115 -13.9464 4.75
      vertex -9.435 -12.3419 6.75
      vertex -5.83115 -13.9464 6.75
    endloop
  endfacet
  facet normal 0.406737 0.913545 0
    outer loop
      vertex -9.435 -12.3419 6.75
      vertex -5.83115 -13.9464 4.75
      vertex -9.435 -12.3419 4.75
    endloop
  endfacet
  facet normal -0.980786 -0.195088 0
    outer loop
      vertex 15.096 6.346 0
      vertex 14.9873 6.89247 4.75
      vertex 14.9873 6.89247 0
    endloop
  endfacet
  facet normal -0.980786 -0.195088 0
    outer loop
      vertex 14.9873 6.89247 4.75
      vertex 15.096 6.346 0
      vertex 15.096 6.346 4.75
    endloop
  endfacet
  facet normal 0.980785 -0.19509 0
    outer loop
      vertex 12.24 6.346 4.75
      vertex 12.3487 6.89247 0
      vertex 12.3487 6.89247 4.75
    endloop
  endfacet
  facet normal 0.980785 -0.19509 0
    outer loop
      vertex 12.3487 6.89247 0
      vertex 12.24 6.346 4.75
      vertex 12.24 6.346 0
    endloop
  endfacet
  facet normal -0.195091 -0.980785 0
    outer loop
      vertex 13.668 7.774 0
      vertex 14.2145 7.6653 4.75
      vertex 13.668 7.774 4.75
    endloop
  endfacet
  facet normal -0.195091 -0.980785 -0
    outer loop
      vertex 14.2145 7.6653 4.75
      vertex 13.668 7.774 0
      vertex 14.2145 7.6653 0
    endloop
  endfacet
  facet normal -0.831469 -0.555571 0
    outer loop
      vertex 14.9873 6.89247 0
      vertex 14.6777 7.35575 4.75
      vertex 14.6777 7.35575 0
    endloop
  endfacet
  facet normal -0.831469 -0.555571 0
    outer loop
      vertex 14.6777 7.35575 4.75
      vertex 14.9873 6.89247 0
      vertex 14.9873 6.89247 4.75
    endloop
  endfacet
  facet normal -0.19509 0.980785 0
    outer loop
      vertex 14.2145 5.0267 0
      vertex 13.668 4.918 4.75
      vertex 14.2145 5.0267 4.75
    endloop
  endfacet
  facet normal -0.19509 0.980785 0
    outer loop
      vertex 13.668 4.918 4.75
      vertex 14.2145 5.0267 0
      vertex 13.668 4.918 0
    endloop
  endfacet
  facet normal -0.55557 -0.83147 0
    outer loop
      vertex 14.2145 7.6653 0
      vertex 14.6777 7.35575 4.75
      vertex 14.2145 7.6653 4.75
    endloop
  endfacet
  facet normal -0.55557 -0.83147 -0
    outer loop
      vertex 14.6777 7.35575 4.75
      vertex 14.2145 7.6653 0
      vertex 14.6777 7.35575 0
    endloop
  endfacet
  facet normal 0.55557 -0.83147 0
    outer loop
      vertex 12.6583 7.35575 0
      vertex 13.1215 7.6653 4.75
      vertex 12.6583 7.35575 4.75
    endloop
  endfacet
  facet normal 0.55557 -0.83147 0
    outer loop
      vertex 13.1215 7.6653 4.75
      vertex 12.6583 7.35575 0
      vertex 13.1215 7.6653 0
    endloop
  endfacet
  facet normal 0.831469 -0.555571 0
    outer loop
      vertex 12.3487 6.89247 4.75
      vertex 12.6583 7.35575 0
      vertex 12.6583 7.35575 4.75
    endloop
  endfacet
  facet normal 0.831469 -0.555571 0
    outer loop
      vertex 12.6583 7.35575 0
      vertex 12.3487 6.89247 4.75
      vertex 12.3487 6.89247 0
    endloop
  endfacet
  facet normal 0.195092 -0.980785 0
    outer loop
      vertex 13.1215 7.6653 0
      vertex 13.668 7.774 4.75
      vertex 13.1215 7.6653 4.75
    endloop
  endfacet
  facet normal 0.195092 -0.980785 0
    outer loop
      vertex 13.668 7.774 4.75
      vertex 13.1215 7.6653 0
      vertex 13.668 7.774 0
    endloop
  endfacet
  facet normal -0.980786 0.195089 0
    outer loop
      vertex 14.9873 5.79953 0
      vertex 15.096 6.346 4.75
      vertex 15.096 6.346 0
    endloop
  endfacet
  facet normal -0.980786 0.195089 0
    outer loop
      vertex 15.096 6.346 4.75
      vertex 14.9873 5.79953 0
      vertex 14.9873 5.79953 4.75
    endloop
  endfacet
  facet normal -0.55557 0.831469 0
    outer loop
      vertex 14.6777 5.33625 0
      vertex 14.2145 5.0267 4.75
      vertex 14.6777 5.33625 4.75
    endloop
  endfacet
  facet normal -0.55557 0.831469 0
    outer loop
      vertex 14.2145 5.0267 4.75
      vertex 14.6777 5.33625 0
      vertex 14.2145 5.0267 0
    endloop
  endfacet
  facet normal 0.980785 0.19509 0
    outer loop
      vertex 12.3487 5.79953 4.75
      vertex 12.24 6.346 0
      vertex 12.24 6.346 4.75
    endloop
  endfacet
  facet normal 0.980785 0.19509 0
    outer loop
      vertex 12.24 6.346 0
      vertex 12.3487 5.79953 4.75
      vertex 12.3487 5.79953 0
    endloop
  endfacet
  facet normal -0.831469 0.55557 0
    outer loop
      vertex 14.6777 5.33625 0
      vertex 14.9873 5.79953 4.75
      vertex 14.9873 5.79953 0
    endloop
  endfacet
  facet normal -0.831469 0.55557 0
    outer loop
      vertex 14.9873 5.79953 4.75
      vertex 14.6777 5.33625 0
      vertex 14.6777 5.33625 4.75
    endloop
  endfacet
  facet normal 0.19509 0.980785 -0
    outer loop
      vertex 13.668 4.918 0
      vertex 13.1215 5.0267 4.75
      vertex 13.668 4.918 4.75
    endloop
  endfacet
  facet normal 0.19509 0.980785 0
    outer loop
      vertex 13.1215 5.0267 4.75
      vertex 13.668 4.918 0
      vertex 13.1215 5.0267 0
    endloop
  endfacet
  facet normal 0.831469 0.55557 0
    outer loop
      vertex 12.6583 5.33625 4.75
      vertex 12.3487 5.79953 0
      vertex 12.3487 5.79953 4.75
    endloop
  endfacet
  facet normal 0.831469 0.55557 0
    outer loop
      vertex 12.3487 5.79953 0
      vertex 12.6583 5.33625 4.75
      vertex 12.6583 5.33625 0
    endloop
  endfacet
  facet normal 0.55557 0.831469 -0
    outer loop
      vertex 13.1215 5.0267 0
      vertex 12.6583 5.33625 4.75
      vertex 13.1215 5.0267 4.75
    endloop
  endfacet
  facet normal 0.55557 0.831469 0
    outer loop
      vertex 12.6583 5.33625 4.75
      vertex 13.1215 5.0267 0
      vertex 12.6583 5.33625 0
    endloop
  endfacet
  facet normal -0.980785 -0.19509 0
    outer loop
      vertex -12.24 6.346 0
      vertex -12.3487 6.89247 4.75
      vertex -12.3487 6.89247 0
    endloop
  endfacet
  facet normal -0.980785 -0.19509 0
    outer loop
      vertex -12.3487 6.89247 4.75
      vertex -12.24 6.346 0
      vertex -12.24 6.346 4.75
    endloop
  endfacet
  facet normal 0.980786 -0.195088 0
    outer loop
      vertex -15.096 6.346 4.75
      vertex -14.9873 6.89247 0
      vertex -14.9873 6.89247 4.75
    endloop
  endfacet
  facet normal 0.980786 -0.195088 0
    outer loop
      vertex -14.9873 6.89247 0
      vertex -15.096 6.346 4.75
      vertex -15.096 6.346 0
    endloop
  endfacet
  facet normal -0.195092 -0.980785 0
    outer loop
      vertex -13.668 7.774 0
      vertex -13.1215 7.6653 4.75
      vertex -13.668 7.774 4.75
    endloop
  endfacet
  facet normal -0.195092 -0.980785 -0
    outer loop
      vertex -13.1215 7.6653 4.75
      vertex -13.668 7.774 0
      vertex -13.1215 7.6653 0
    endloop
  endfacet
  facet normal -0.831469 -0.555571 0
    outer loop
      vertex -12.3487 6.89247 0
      vertex -12.6583 7.35575 4.75
      vertex -12.6583 7.35575 0
    endloop
  endfacet
  facet normal -0.831469 -0.555571 0
    outer loop
      vertex -12.6583 7.35575 4.75
      vertex -12.3487 6.89247 0
      vertex -12.3487 6.89247 4.75
    endloop
  endfacet
  facet normal -0.19509 0.980785 0
    outer loop
      vertex -13.1215 5.0267 0
      vertex -13.668 4.918 4.75
      vertex -13.1215 5.0267 4.75
    endloop
  endfacet
  facet normal -0.19509 0.980785 0
    outer loop
      vertex -13.668 4.918 4.75
      vertex -13.1215 5.0267 0
      vertex -13.668 4.918 0
    endloop
  endfacet
  facet normal -0.831469 0.55557 0
    outer loop
      vertex -12.6583 5.33625 0
      vertex -12.3487 5.79953 4.75
      vertex -12.3487 5.79953 0
    endloop
  endfacet
  facet normal -0.831469 0.55557 0
    outer loop
      vertex -12.3487 5.79953 4.75
      vertex -12.6583 5.33625 0
      vertex -12.6583 5.33625 4.75
    endloop
  endfacet
  facet normal -0.55557 -0.83147 0
    outer loop
      vertex -13.1215 7.6653 0
      vertex -12.6583 7.35575 4.75
      vertex -13.1215 7.6653 4.75
    endloop
  endfacet
  facet normal -0.55557 -0.83147 -0
    outer loop
      vertex -12.6583 7.35575 4.75
      vertex -13.1215 7.6653 0
      vertex -12.6583 7.35575 0
    endloop
  endfacet
  facet normal 0.55557 -0.83147 0
    outer loop
      vertex -14.6777 7.35575 0
      vertex -14.2145 7.6653 4.75
      vertex -14.6777 7.35575 4.75
    endloop
  endfacet
  facet normal 0.55557 -0.83147 0
    outer loop
      vertex -14.2145 7.6653 4.75
      vertex -14.6777 7.35575 0
      vertex -14.2145 7.6653 0
    endloop
  endfacet
  facet normal 0.831469 -0.555571 0
    outer loop
      vertex -14.9873 6.89247 4.75
      vertex -14.6777 7.35575 0
      vertex -14.6777 7.35575 4.75
    endloop
  endfacet
  facet normal 0.831469 -0.555571 0
    outer loop
      vertex -14.6777 7.35575 0
      vertex -14.9873 6.89247 4.75
      vertex -14.9873 6.89247 0
    endloop
  endfacet
  facet normal 0.195091 -0.980785 0
    outer loop
      vertex -14.2145 7.6653 0
      vertex -13.668 7.774 4.75
      vertex -14.2145 7.6653 4.75
    endloop
  endfacet
  facet normal 0.195091 -0.980785 0
    outer loop
      vertex -13.668 7.774 4.75
      vertex -14.2145 7.6653 0
      vertex -13.668 7.774 0
    endloop
  endfacet
  facet normal -0.980785 0.19509 0
    outer loop
      vertex -12.3487 5.79953 0
      vertex -12.24 6.346 4.75
      vertex -12.24 6.346 0
    endloop
  endfacet
  facet normal -0.980785 0.19509 0
    outer loop
      vertex -12.24 6.346 4.75
      vertex -12.3487 5.79953 0
      vertex -12.3487 5.79953 4.75
    endloop
  endfacet
  facet normal -0.55557 0.831469 0
    outer loop
      vertex -12.6583 5.33625 0
      vertex -13.1215 5.0267 4.75
      vertex -12.6583 5.33625 4.75
    endloop
  endfacet
  facet normal -0.55557 0.831469 0
    outer loop
      vertex -13.1215 5.0267 4.75
      vertex -12.6583 5.33625 0
      vertex -13.1215 5.0267 0
    endloop
  endfacet
  facet normal 0.19509 0.980785 -0
    outer loop
      vertex -13.668 4.918 0
      vertex -14.2145 5.0267 4.75
      vertex -13.668 4.918 4.75
    endloop
  endfacet
  facet normal 0.19509 0.980785 0
    outer loop
      vertex -14.2145 5.0267 4.75
      vertex -13.668 4.918 0
      vertex -14.2145 5.0267 0
    endloop
  endfacet
  facet normal 0.831469 0.55557 0
    outer loop
      vertex -14.6777 5.33625 4.75
      vertex -14.9873 5.79953 0
      vertex -14.9873 5.79953 4.75
    endloop
  endfacet
  facet normal 0.831469 0.55557 0
    outer loop
      vertex -14.9873 5.79953 0
      vertex -14.6777 5.33625 4.75
      vertex -14.6777 5.33625 0
    endloop
  endfacet
  facet normal 0.980786 0.195089 0
    outer loop
      vertex -14.9873 5.79953 4.75
      vertex -15.096 6.346 0
      vertex -15.096 6.346 4.75
    endloop
  endfacet
  facet normal 0.980786 0.195089 0
    outer loop
      vertex -15.096 6.346 0
      vertex -14.9873 5.79953 4.75
      vertex -14.9873 5.79953 0
    endloop
  endfacet
  facet normal 0.55557 0.831469 -0
    outer loop
      vertex -14.2145 5.0267 0
      vertex -14.6777 5.33625 4.75
      vertex -14.2145 5.0267 4.75
    endloop
  endfacet
  facet normal 0.55557 0.831469 0
    outer loop
      vertex -14.6777 5.33625 4.75
      vertex -14.2145 5.0267 0
      vertex -14.6777 5.33625 0
    endloop
  endfacet
  facet normal 1 -0 0
    outer loop
      vertex -17.952 -6.506 6.75
      vertex -17.952 5.224 4.75
      vertex -17.952 5.224 6.75
    endloop
  endfacet
  facet normal 1 0 0
    outer loop
      vertex -17.952 5.224 4.75
      vertex -17.952 -6.506 6.75
      vertex -17.952 -6.506 4.75
    endloop
  endfacet
  facet normal -1 0 0
    outer loop
      vertex 17.952 -6.506 4.75
      vertex 17.952 5.224 6.75
      vertex 17.952 5.224 4.75
    endloop
  endfacet
  facet normal -1 -0 0
    outer loop
      vertex 17.952 5.224 6.75
      vertex 17.952 -6.506 4.75
      vertex 17.952 -6.506 6.75
    endloop
  endfacet
  facet normal 0 1 -0
    outer loop
      vertex -15.6042 -6.506 4.75
      vertex -17.952 -6.506 6.75
      vertex -15.6042 -6.506 6.75
    endloop
  endfacet
  facet normal 0 1 0
    outer loop
      vertex -17.952 -6.506 6.75
      vertex -15.6042 -6.506 4.75
      vertex -17.952 -6.506 4.75
    endloop
  endfacet
  facet normal 0 1 -0
    outer loop
      vertex 17.952 -6.506 4.75
      vertex 15.6042 -6.506 6.75
      vertex 17.952 -6.506 6.75
    endloop
  endfacet
  facet normal 0 1 0
    outer loop
      vertex 15.6042 -6.506 6.75
      vertex 17.952 -6.506 4.75
      vertex 15.6042 -6.506 4.75
    endloop
  endfacet
  facet normal 0 -1 0
    outer loop
      vertex -9.078 14.098 4.75
      vertex 9.078 14.098 6.75
      vertex -9.078 14.098 6.75
    endloop
  endfacet
  facet normal 0 -1 -0
    outer loop
      vertex 9.078 14.098 6.75
      vertex -9.078 14.098 4.75
      vertex 9.078 14.098 4.75
    endloop
  endfacet
  facet normal -0.707107 -0.707107 0
    outer loop
      vertex 17.952 5.224 4.75
      vertex 9.078 14.098 6.75
      vertex 9.078 14.098 4.75
    endloop
  endfacet
  facet normal -0.707107 -0.707107 0
    outer loop
      vertex 9.078 14.098 6.75
      vertex 17.952 5.224 4.75
      vertex 17.952 5.224 6.75
    endloop
  endfacet
  facet normal 0.707107 -0.707107 0
    outer loop
      vertex -17.952 5.224 6.75
      vertex -9.078 14.098 4.75
      vertex -9.078 14.098 6.75
    endloop
  endfacet
  facet normal 0.707107 -0.707107 0
    outer loop
      vertex -9.078 14.098 4.75
      vertex -17.952 5.224 6.75
      vertex -17.952 5.224 4.75
    endloop
  endfacet
  facet normal 1 -0 0
    outer loop
      vertex -3 -10 4.75
      vertex -3 14 1
      vertex -3 14 4.75
    endloop
  endfacet
  facet normal 1 0 0
    outer loop
      vertex -3 14 1
      vertex -3 -10 4.75
      vertex -3 -10 1
    endloop
  endfacet
  facet normal -1 0 0
    outer loop
      vertex 3 -10 1
      vertex 3 14 4.75
      vertex 3 14 1
    endloop
  endfacet
  facet normal -1 -0 0
    outer loop
      vertex 3 14 4.75
      vertex 3 -10 1
      vertex 3 -10 4.75
    endloop
  endfacet
  facet normal -0 0 1
    outer loop
      vertex -3 14 1
      vertex 3 -10 1
      vertex 3 14 1
    endloop
  endfacet
  facet normal 0 0 1
    outer loop
      vertex 3 -10 1
      vertex -3 14 1
      vertex -3 -10 1
    endloop
  endfacet
  facet normal 0 1 -0
    outer loop
      vertex 3 -10 1
      vertex -3 -10 4.75
      vertex 3 -10 4.75
    endloop
  endfacet
  facet normal 0 1 0
    outer loop
      vertex -3 -10 4.75
      vertex 3 -10 1
      vertex -3 -10 1
    endloop
  endfacet
  facet normal 0 -1 0
    outer loop
      vertex -3 14 1
      vertex 3 14 4.75
      vertex -3 14 4.75
    endloop
  endfacet
  facet normal 0 -1 -0
    outer loop
      vertex 3 14 4.75
      vertex -3 14 1
      vertex 3 14 1
    endloop
  endfacet
  facet normal 0 -1 0
    outer loop
      vertex -2.15983 -16.391 0
      vertex 2.15983 -16.391 6.75
      vertex -2.15983 -16.391 6.75
    endloop
  endfacet
  facet normal 0 -1 -0
    outer loop
      vertex 2.15983 -16.391 6.75
      vertex -2.15983 -16.391 0
      vertex 2.15983 -16.391 0
    endloop
  endfacet
  facet normal 0 0 -1
    outer loop
      vertex 12.3487 5.79953 0
      vertex -12.3487 5.79953 0
      vertex -12.24 6.346 0
    endloop
  endfacet
  facet normal 0 0 -1
    outer loop
      vertex -6.38511 -15.4805 0
      vertex -12.6583 5.33625 0
      vertex -12.3487 5.79953 0
    endloop
  endfacet
  facet normal 0 0 -1
    outer loop
      vertex -13.826 -11.1257 0
      vertex -12.6583 5.33625 0
      vertex -10.3313 -13.6995 0
    endloop
  endfacet
  facet normal 0 0 -1
    outer loop
      vertex -12.6583 5.33625 0
      vertex -13.826 -11.1257 0
      vertex -13.1215 5.0267 0
    endloop
  endfacet
  facet normal 0 0 -1
    outer loop
      vertex -16.5897 -8.0142 0
      vertex -13.1215 5.0267 0
      vertex -13.826 -11.1257 0
    endloop
  endfacet
  facet normal 0 0 -1
    outer loop
      vertex -13.1215 5.0267 0
      vertex -16.5897 -8.0142 0
      vertex -13.668 4.918 0
    endloop
  endfacet
  facet normal -0 0 -1
    outer loop
      vertex -13.668 4.918 0
      vertex -16.5897 -8.0142 0
      vertex -14.2145 5.0267 0
    endloop
  endfacet
  facet normal 0 0 -1
    outer loop
      vertex -19.6574 5.79864 0
      vertex -14.2145 5.0267 0
      vertex -16.5897 -8.0142 0
    endloop
  endfacet
  facet normal 0 0 -1
    outer loop
      vertex -14.2145 5.0267 0
      vertex -19.6574 5.79864 0
      vertex -14.6777 5.33625 0
    endloop
  endfacet
  facet normal 0 0 -1
    outer loop
      vertex -14.6777 5.33625 0
      vertex -19.6574 5.79864 0
      vertex -14.9873 5.79953 0
    endloop
  endfacet
  facet normal 0 0 -1
    outer loop
      vertex 19.6574 5.79864 0
      vertex 14.9873 5.79953 0
      vertex 15.096 6.346 0
    endloop
  endfacet
  facet normal -0 0 -1
    outer loop
      vertex 19.6574 5.79864 0
      vertex 14.6777 5.33625 0
      vertex 14.9873 5.79953 0
    endloop
  endfacet
  facet normal 0 0 -1
    outer loop
      vertex 19.6574 5.79864 0
      vertex 14.2145 5.0267 0
      vertex 14.6777 5.33625 0
    endloop
  endfacet
  facet normal 0 0 -1
    outer loop
      vertex 13.1215 5.0267 0
      vertex 16.5897 -8.0142 0
      vertex 13.826 -11.1257 0
    endloop
  endfacet
  facet normal 0 0 -1
    outer loop
      vertex 16.5897 -8.0142 0
      vertex 13.668 4.918 0
      vertex 14.2145 5.0267 0
    endloop
  endfacet
  facet normal 0 0 -1
    outer loop
      vertex 16.5897 -8.0142 0
      vertex 13.1215 5.0267 0
      vertex 13.668 4.918 0
    endloop
  endfacet
  facet normal 0 0 -1
    outer loop
      vertex 13.826 -11.1257 0
      vertex 12.6583 5.33625 0
      vertex 13.1215 5.0267 0
    endloop
  endfacet
  facet normal 0 0 -1
    outer loop
      vertex 10.3313 -13.6995 0
      vertex 12.6583 5.33625 0
      vertex 13.826 -11.1257 0
    endloop
  endfacet
  facet normal 0 0 -1
    outer loop
      vertex 6.38511 -15.4805 0
      vertex 12.6583 5.33625 0
      vertex 10.3313 -13.6995 0
    endloop
  endfacet
  facet normal 0 0 -1
    outer loop
      vertex 2.15983 -16.391 0
      vertex 12.6583 5.33625 0
      vertex 6.38511 -15.4805 0
    endloop
  endfacet
  facet normal 0 0 -1
    outer loop
      vertex 16.5897 -8.0142 0
      vertex 19.6574 5.79864 0
      vertex 19.6574 -8.0142 0
    endloop
  endfacet
  facet normal 0 0 -1
    outer loop
      vertex 14.2145 5.0267 0
      vertex 19.6574 5.79864 0
      vertex 16.5897 -8.0142 0
    endloop
  endfacet
  facet normal 0 0 -1
    outer loop
      vertex 14.9873 6.89247 0
      vertex 19.6574 5.79864 0
      vertex 15.096 6.346 0
    endloop
  endfacet
  facet normal 0 0 -1
    outer loop
      vertex 14.6777 7.35575 0
      vertex 19.6574 5.79864 0
      vertex 14.9873 6.89247 0
    endloop
  endfacet
  facet normal 0 0 -1
    outer loop
      vertex 14.2145 7.6653 0
      vertex 19.6574 5.79864 0
      vertex 14.6777 7.35575 0
    endloop
  endfacet
  facet normal 0 0 -1
    outer loop
      vertex 14.2145 7.6653 0
      vertex 9.94041 15.6488 0
      vertex 19.6574 5.79864 0
    endloop
  endfacet
  facet normal 0 0 -1
    outer loop
      vertex 13.668 7.774 0
      vertex 9.94041 15.6488 0
      vertex 14.2145 7.6653 0
    endloop
  endfacet
  facet normal 0 0 -1
    outer loop
      vertex 13.1215 7.6653 0
      vertex 9.94041 15.6488 0
      vertex 13.668 7.774 0
    endloop
  endfacet
  facet normal 0 0 -1
    outer loop
      vertex 12.6583 7.35575 0
      vertex 9.94041 15.6488 0
      vertex 13.1215 7.6653 0
    endloop
  endfacet
  facet normal 0 0 -1
    outer loop
      vertex 12.3487 6.89247 0
      vertex 9.94041 15.6488 0
      vertex 12.6583 7.35575 0
    endloop
  endfacet
  facet normal 0 0 -1
    outer loop
      vertex 12.24 6.346 0
      vertex 9.94041 15.6488 0
      vertex 12.3487 6.89247 0
    endloop
  endfacet
  facet normal -0 0 -1
    outer loop
      vertex 12.6583 5.33625 0
      vertex 2.15983 -16.391 0
      vertex 12.3487 5.79953 0
    endloop
  endfacet
  facet normal 0 0 -1
    outer loop
      vertex -12.3487 5.79953 0
      vertex 12.3487 5.79953 0
      vertex 2.15983 -16.391 0
    endloop
  endfacet
  facet normal 0 0 -1
    outer loop
      vertex 12.3487 5.79953 0
      vertex -12.24 6.346 0
      vertex 12.24 6.346 0
    endloop
  endfacet
  facet normal 0 0 -1
    outer loop
      vertex -12.3487 5.79953 0
      vertex 2.15983 -16.391 0
      vertex -2.15983 -16.391 0
    endloop
  endfacet
  facet normal 0 0 -1
    outer loop
      vertex -12.3487 5.79953 0
      vertex -2.15983 -16.391 0
      vertex -6.38511 -15.4805 0
    endloop
  endfacet
  facet normal 0 0 -1
    outer loop
      vertex 12.24 6.346 0
      vertex -12.24 6.346 0
      vertex 9.94041 15.6488 0
    endloop
  endfacet
  facet normal 0 0 -1
    outer loop
      vertex -12.6583 5.33625 0
      vertex -6.38511 -15.4805 0
      vertex -10.3313 -13.6995 0
    endloop
  endfacet
  facet normal -0 0 -1
    outer loop
      vertex 9.94041 15.6488 0
      vertex -12.24 6.346 0
      vertex -9.94041 15.6488 0
    endloop
  endfacet
  facet normal 0 0 -1
    outer loop
      vertex -12.3487 6.89247 0
      vertex -9.94041 15.6488 0
      vertex -12.24 6.346 0
    endloop
  endfacet
  facet normal 0 0 -1
    outer loop
      vertex -12.6583 7.35575 0
      vertex -9.94041 15.6488 0
      vertex -12.3487 6.89247 0
    endloop
  endfacet
  facet normal 0 0 -1
    outer loop
      vertex -13.1215 7.6653 0
      vertex -9.94041 15.6488 0
      vertex -12.6583 7.35575 0
    endloop
  endfacet
  facet normal 0 0 -1
    outer loop
      vertex -13.668 7.774 0
      vertex -9.94041 15.6488 0
      vertex -13.1215 7.6653 0
    endloop
  endfacet
  facet normal 0 0 -1
    outer loop
      vertex -14.2145 7.6653 0
      vertex -9.94041 15.6488 0
      vertex -13.668 7.774 0
    endloop
  endfacet
  facet normal 0 0 -1
    outer loop
      vertex -14.6777 7.35575 0
      vertex -9.94041 15.6488 0
      vertex -14.2145 7.6653 0
    endloop
  endfacet
  facet normal 0 0 -1
    outer loop
      vertex -19.6574 5.79864 0
      vertex -14.6777 7.35575 0
      vertex -14.9873 6.89247 0
    endloop
  endfacet
  facet normal 0 0 -1
    outer loop
      vertex -19.6574 5.79864 0
      vertex -16.5897 -8.0142 0
      vertex -19.6574 -8.0142 0
    endloop
  endfacet
  facet normal -0 0 -1
    outer loop
      vertex -14.9873 5.79953 0
      vertex -19.6574 5.79864 0
      vertex -15.096 6.346 0
    endloop
  endfacet
  facet normal -0 0 -1
    outer loop
      vertex -14.6777 7.35575 0
      vertex -19.6574 5.79864 0
      vertex -9.94041 15.6488 0
    endloop
  endfacet
  facet normal -0 0 -1
    outer loop
      vertex -15.096 6.346 0
      vertex -19.6574 5.79864 0
      vertex -14.9873 6.89247 0
    endloop
  endfacet
  facet normal 0.210634 -0.977565 0
    outer loop
      vertex 2.15983 -16.391 0
      vertex 6.38511 -15.4805 6.75
      vertex 2.15983 -16.391 6.75
    endloop
  endfacet
  facet normal 0.210634 -0.977565 0
    outer loop
      vertex 6.38511 -15.4805 6.75
      vertex 2.15983 -16.391 0
      vertex 6.38511 -15.4805 0
    endloop
  endfacet
  facet normal 0.747651 -0.664091 0
    outer loop
      vertex 13.826 -11.1257 6.75
      vertex 16.5897 -8.0142 0
      vertex 16.5897 -8.0142 6.75
    endloop
  endfacet
  facet normal 0.747651 -0.664091 0
    outer loop
      vertex 16.5897 -8.0142 0
      vertex 13.826 -11.1257 6.75
      vertex 13.826 -11.1257 0
    endloop
  endfacet
  facet normal 0.593018 -0.805189 0
    outer loop
      vertex 10.3313 -13.6995 0
      vertex 13.826 -11.1257 6.75
      vertex 10.3313 -13.6995 6.75
    endloop
  endfacet
  facet normal 0.593018 -0.805189 0
    outer loop
      vertex 13.826 -11.1257 6.75
      vertex 10.3313 -13.6995 0
      vertex 13.826 -11.1257 0
    endloop
  endfacet
  facet normal 0.411371 -0.911468 0
    outer loop
      vertex 6.38511 -15.4805 0
      vertex 10.3313 -13.6995 6.75
      vertex 6.38511 -15.4805 6.75
    endloop
  endfacet
  facet normal 0.411371 -0.911468 0
    outer loop
      vertex 10.3313 -13.6995 6.75
      vertex 6.38511 -15.4805 0
      vertex 10.3313 -13.6995 0
    endloop
  endfacet
  facet normal -0.210634 -0.977565 0
    outer loop
      vertex -6.38511 -15.4805 0
      vertex -2.15983 -16.391 6.75
      vertex -6.38511 -15.4805 6.75
    endloop
  endfacet
  facet normal -0.210634 -0.977565 -0
    outer loop
      vertex -2.15983 -16.391 6.75
      vertex -6.38511 -15.4805 0
      vertex -2.15983 -16.391 0
    endloop
  endfacet
  facet normal -0.593018 -0.805189 0
    outer loop
      vertex -13.826 -11.1257 0
      vertex -10.3313 -13.6995 6.75
      vertex -13.826 -11.1257 6.75
    endloop
  endfacet
  facet normal -0.593018 -0.805189 -0
    outer loop
      vertex -10.3313 -13.6995 6.75
      vertex -13.826 -11.1257 0
      vertex -10.3313 -13.6995 0
    endloop
  endfacet
  facet normal -0.747651 -0.664091 0
    outer loop
      vertex -13.826 -11.1257 0
      vertex -16.5897 -8.0142 6.75
      vertex -16.5897 -8.0142 0
    endloop
  endfacet
  facet normal -0.747651 -0.664091 0
    outer loop
      vertex -16.5897 -8.0142 6.75
      vertex -13.826 -11.1257 0
      vertex -13.826 -11.1257 6.75
    endloop
  endfacet
  facet normal -0.411371 -0.911468 0
    outer loop
      vertex -10.3313 -13.6995 0
      vertex -6.38511 -15.4805 6.75
      vertex -10.3313 -13.6995 6.75
    endloop
  endfacet
  facet normal -0.411371 -0.911468 -0
    outer loop
      vertex -6.38511 -15.4805 6.75
      vertex -10.3313 -13.6995 0
      vertex -6.38511 -15.4805 0
    endloop
  endfacet
  facet normal -1 0 0
    outer loop
      vertex -19.6574 -8.0142 0
      vertex -19.6574 5.79864 6.75
      vertex -19.6574 5.79864 0
    endloop
  endfacet
  facet normal -1 -0 0
    outer loop
      vertex -19.6574 5.79864 6.75
      vertex -19.6574 -8.0142 0
      vertex -19.6574 -8.0142 6.75
    endloop
  endfacet
  facet normal 1 -0 0
    outer loop
      vertex 19.6574 -8.0142 6.75
      vertex 19.6574 5.79864 0
      vertex 19.6574 5.79864 6.75
    endloop
  endfacet
  facet normal 1 0 0
    outer loop
      vertex 19.6574 5.79864 0
      vertex 19.6574 -8.0142 6.75
      vertex 19.6574 -8.0142 0
    endloop
  endfacet
  facet normal 0 1 -0
    outer loop
      vertex 9.94041 15.6488 0
      vertex -9.94041 15.6488 6.75
      vertex 9.94041 15.6488 6.75
    endloop
  endfacet
  facet normal 0 1 0
    outer loop
      vertex -9.94041 15.6488 6.75
      vertex 9.94041 15.6488 0
      vertex -9.94041 15.6488 0
    endloop
  endfacet
  facet normal 0 -1 0
    outer loop
      vertex -19.6574 -8.0142 0
      vertex -16.5897 -8.0142 6.75
      vertex -19.6574 -8.0142 6.75
    endloop
  endfacet
  facet normal 0 -1 -0
    outer loop
      vertex -16.5897 -8.0142 6.75
      vertex -19.6574 -8.0142 0
      vertex -16.5897 -8.0142 0
    endloop
  endfacet
  facet normal 0 -1 0
    outer loop
      vertex 16.5897 -8.0142 0
      vertex 19.6574 -8.0142 6.75
      vertex 16.5897 -8.0142 6.75
    endloop
  endfacet
  facet normal 0 -1 -0
    outer loop
      vertex 19.6574 -8.0142 6.75
      vertex 16.5897 -8.0142 0
      vertex 19.6574 -8.0142 0
    endloop
  endfacet
  facet normal 0.711901 0.70228 0
    outer loop
      vertex 19.6574 5.79864 6.75
      vertex 9.94041 15.6488 0
      vertex 9.94041 15.6488 6.75
    endloop
  endfacet
  facet normal 0.711901 0.70228 0
    outer loop
      vertex 9.94041 15.6488 0
      vertex 19.6574 5.79864 6.75
      vertex 19.6574 5.79864 0
    endloop
  endfacet
  facet normal -0.711901 0.70228 0
    outer loop
      vertex -19.6574 5.79864 0
      vertex -9.94041 15.6488 6.75
      vertex -9.94041 15.6488 0
    endloop
  endfacet
  facet normal -0.711901 0.70228 0
    outer loop
      vertex -9.94041 15.6488 6.75
      vertex -19.6574 5.79864 0
      vertex -19.6574 5.79864 6.75
    endloop
  endfacet
  facet normal 0 0 1
    outer loop
      vertex 17.952 -6.506 6.75
      vertex 19.6574 5.79864 6.75
      vertex 17.952 5.224 6.75
    endloop
  endfacet
  facet normal 0 0 1
    outer loop
      vertex 9.94041 15.6488 6.75
      vertex 17.952 5.224 6.75
      vertex 19.6574 5.79864 6.75
    endloop
  endfacet
  facet normal 0 0 1
    outer loop
      vertex 9.94041 15.6488 6.75
      vertex 9.078 14.098 6.75
      vertex 17.952 5.224 6.75
    endloop
  endfacet
  facet normal 0 0 1
    outer loop
      vertex 9.94041 15.6488 6.75
      vertex -9.078 14.098 6.75
      vertex 9.078 14.098 6.75
    endloop
  endfacet
  facet normal -0 0 1
    outer loop
      vertex -9.94041 15.6488 6.75
      vertex -9.078 14.098 6.75
      vertex 9.94041 15.6488 6.75
    endloop
  endfacet
  facet normal 0 0 1
    outer loop
      vertex -9.94041 15.6488 6.75
      vertex -17.952 5.224 6.75
      vertex -9.078 14.098 6.75
    endloop
  endfacet
  facet normal 0 0 1
    outer loop
      vertex -17.952 5.224 6.75
      vertex -19.6574 5.79864 6.75
      vertex -17.952 -6.506 6.75
    endloop
  endfacet
  facet normal -0 0 1
    outer loop
      vertex -19.6574 5.79864 6.75
      vertex -17.952 5.224 6.75
      vertex -9.94041 15.6488 6.75
    endloop
  endfacet
  facet normal 0 0 1
    outer loop
      vertex 19.6574 5.79864 6.75
      vertex 17.952 -6.506 6.75
      vertex 19.6574 -8.0142 6.75
    endloop
  endfacet
  facet normal 0 0 1
    outer loop
      vertex 17.952 -6.506 6.75
      vertex 16.5897 -8.0142 6.75
      vertex 19.6574 -8.0142 6.75
    endloop
  endfacet
  facet normal -0 0 1
    outer loop
      vertex 15.6042 -6.506 6.75
      vertex 16.5897 -8.0142 6.75
      vertex 17.952 -6.506 6.75
    endloop
  endfacet
  facet normal -0 0 1
    outer loop
      vertex 15.2662 -7.09151 6.75
      vertex 16.5897 -8.0142 6.75
      vertex 15.6042 -6.506 6.75
    endloop
  endfacet
  facet normal 0 0 1
    outer loop
      vertex 15.2662 -7.09151 6.75
      vertex 13.826 -11.1257 6.75
      vertex 16.5897 -8.0142 6.75
    endloop
  endfacet
  facet normal -0 0 1
    outer loop
      vertex 12.6265 -10.0231 6.75
      vertex 13.826 -11.1257 6.75
      vertex 15.2662 -7.09151 6.75
    endloop
  endfacet
  facet normal 0 0 1
    outer loop
      vertex 12.6265 -10.0231 6.75
      vertex 10.3313 -13.6995 6.75
      vertex 13.826 -11.1257 6.75
    endloop
  endfacet
  facet normal -0 0 1
    outer loop
      vertex 9.435 -12.3419 6.75
      vertex 10.3313 -13.6995 6.75
      vertex 12.6265 -10.0231 6.75
    endloop
  endfacet
  facet normal 0 0 1
    outer loop
      vertex 9.435 -12.3419 6.75
      vertex 6.38511 -15.4805 6.75
      vertex 10.3313 -13.6995 6.75
    endloop
  endfacet
  facet normal -0 0 1
    outer loop
      vertex 5.83115 -13.9464 6.75
      vertex 6.38511 -15.4805 6.75
      vertex 9.435 -12.3419 6.75
    endloop
  endfacet
  facet normal 0 0 1
    outer loop
      vertex 5.83115 -13.9464 6.75
      vertex 2.15983 -16.391 6.75
      vertex 6.38511 -15.4805 6.75
    endloop
  endfacet
  facet normal -0 0 1
    outer loop
      vertex 1.97245 -14.7666 6.75
      vertex 2.15983 -16.391 6.75
      vertex 5.83115 -13.9464 6.75
    endloop
  endfacet
  facet normal -0 0 1
    outer loop
      vertex -1.97245 -14.7666 6.75
      vertex 2.15983 -16.391 6.75
      vertex 1.97245 -14.7666 6.75
    endloop
  endfacet
  facet normal 0 0 1
    outer loop
      vertex -1.97245 -14.7666 6.75
      vertex -2.15983 -16.391 6.75
      vertex 2.15983 -16.391 6.75
    endloop
  endfacet
  facet normal 0 0 1
    outer loop
      vertex -5.83115 -13.9464 6.75
      vertex -2.15983 -16.391 6.75
      vertex -1.97245 -14.7666 6.75
    endloop
  endfacet
  facet normal 0 0 1
    outer loop
      vertex -5.83115 -13.9464 6.75
      vertex -6.38511 -15.4805 6.75
      vertex -2.15983 -16.391 6.75
    endloop
  endfacet
  facet normal 0 0 1
    outer loop
      vertex -9.435 -12.3419 6.75
      vertex -6.38511 -15.4805 6.75
      vertex -5.83115 -13.9464 6.75
    endloop
  endfacet
  facet normal 0 0 1
    outer loop
      vertex -9.435 -12.3419 6.75
      vertex -10.3313 -13.6995 6.75
      vertex -6.38511 -15.4805 6.75
    endloop
  endfacet
  facet normal 0 0 1
    outer loop
      vertex -12.6265 -10.0231 6.75
      vertex -10.3313 -13.6995 6.75
      vertex -9.435 -12.3419 6.75
    endloop
  endfacet
  facet normal 0 0 1
    outer loop
      vertex -12.6265 -10.0231 6.75
      vertex -13.826 -11.1257 6.75
      vertex -10.3313 -13.6995 6.75
    endloop
  endfacet
  facet normal 0 0 1
    outer loop
      vertex -15.2662 -7.09151 6.75
      vertex -13.826 -11.1257 6.75
      vertex -12.6265 -10.0231 6.75
    endloop
  endfacet
  facet normal 0 0 1
    outer loop
      vertex -16.5897 -8.0142 6.75
      vertex -15.2662 -7.09151 6.75
      vertex -15.6042 -6.506 6.75
    endloop
  endfacet
  facet normal 0 0 1
    outer loop
      vertex -15.2662 -7.09151 6.75
      vertex -16.5897 -8.0142 6.75
      vertex -13.826 -11.1257 6.75
    endloop
  endfacet
  facet normal -0 0 1
    outer loop
      vertex -17.952 -6.506 6.75
      vertex -16.5897 -8.0142 6.75
      vertex -15.6042 -6.506 6.75
    endloop
  endfacet
  facet normal 0 0 1
    outer loop
      vertex -17.952 -6.506 6.75
      vertex -19.6574 -8.0142 6.75
      vertex -16.5897 -8.0142 6.75
    endloop
  endfacet
  facet normal 0 0 1
    outer loop
      vertex -19.6574 -8.0142 6.75
      vertex -17.952 -6.506 6.75
      vertex -19.6574 5.79864 6.75
    endloop
  endfacet
endsolid OpenSCAD_Model
