G75*
%MOIN*%
%OFA0B0*%
%FSLAX25Y25*%
%IPPOS*%
%LPD*%
%AMOC8*
5,1,8,0,0,1.08239X$1,22.5*
%
%ADD10C,0.00000*%
%ADD11R,0.04800X0.04800*%
%ADD12C,0.04800*%
%ADD13C,0.11811*%
%ADD14C,0.02781*%
%ADD15C,0.03962*%
%ADD16C,0.04000*%
%ADD17C,0.00591*%
%ADD18C,0.01181*%
%ADD19C,0.00787*%
D10*
X0037313Y0048654D02*
X0051223Y0042461D01*
X0066117Y0039295D01*
X0081344Y0039295D01*
X0096237Y0042461D01*
X0110148Y0048654D01*
X0122466Y0057604D01*
X0132655Y0068919D01*
X0133959Y0071179D01*
X0142234Y0071179D01*
X0142234Y0116849D01*
X0109163Y0149919D01*
X0038297Y0149919D01*
X0005226Y0116849D01*
X0005226Y0071179D01*
X0013501Y0071179D01*
X0014806Y0068919D01*
X0024994Y0057604D01*
X0037313Y0048654D01*
X0015462Y0120412D02*
X0015464Y0120560D01*
X0015470Y0120708D01*
X0015480Y0120856D01*
X0015494Y0121003D01*
X0015512Y0121150D01*
X0015533Y0121296D01*
X0015559Y0121442D01*
X0015589Y0121587D01*
X0015622Y0121731D01*
X0015660Y0121874D01*
X0015701Y0122016D01*
X0015746Y0122157D01*
X0015794Y0122297D01*
X0015847Y0122436D01*
X0015903Y0122573D01*
X0015963Y0122708D01*
X0016026Y0122842D01*
X0016093Y0122974D01*
X0016164Y0123104D01*
X0016238Y0123232D01*
X0016315Y0123358D01*
X0016396Y0123482D01*
X0016480Y0123604D01*
X0016567Y0123723D01*
X0016658Y0123840D01*
X0016752Y0123955D01*
X0016848Y0124067D01*
X0016948Y0124177D01*
X0017050Y0124283D01*
X0017156Y0124387D01*
X0017264Y0124488D01*
X0017375Y0124586D01*
X0017488Y0124682D01*
X0017604Y0124774D01*
X0017722Y0124863D01*
X0017843Y0124948D01*
X0017966Y0125031D01*
X0018091Y0125110D01*
X0018218Y0125186D01*
X0018347Y0125258D01*
X0018478Y0125327D01*
X0018611Y0125392D01*
X0018746Y0125453D01*
X0018882Y0125511D01*
X0019019Y0125566D01*
X0019158Y0125616D01*
X0019299Y0125663D01*
X0019440Y0125706D01*
X0019583Y0125746D01*
X0019727Y0125781D01*
X0019871Y0125813D01*
X0020017Y0125840D01*
X0020163Y0125864D01*
X0020310Y0125884D01*
X0020457Y0125900D01*
X0020604Y0125912D01*
X0020752Y0125920D01*
X0020900Y0125924D01*
X0021048Y0125924D01*
X0021196Y0125920D01*
X0021344Y0125912D01*
X0021491Y0125900D01*
X0021638Y0125884D01*
X0021785Y0125864D01*
X0021931Y0125840D01*
X0022077Y0125813D01*
X0022221Y0125781D01*
X0022365Y0125746D01*
X0022508Y0125706D01*
X0022649Y0125663D01*
X0022790Y0125616D01*
X0022929Y0125566D01*
X0023066Y0125511D01*
X0023202Y0125453D01*
X0023337Y0125392D01*
X0023470Y0125327D01*
X0023601Y0125258D01*
X0023730Y0125186D01*
X0023857Y0125110D01*
X0023982Y0125031D01*
X0024105Y0124948D01*
X0024226Y0124863D01*
X0024344Y0124774D01*
X0024460Y0124682D01*
X0024573Y0124586D01*
X0024684Y0124488D01*
X0024792Y0124387D01*
X0024898Y0124283D01*
X0025000Y0124177D01*
X0025100Y0124067D01*
X0025196Y0123955D01*
X0025290Y0123840D01*
X0025381Y0123723D01*
X0025468Y0123604D01*
X0025552Y0123482D01*
X0025633Y0123358D01*
X0025710Y0123232D01*
X0025784Y0123104D01*
X0025855Y0122974D01*
X0025922Y0122842D01*
X0025985Y0122708D01*
X0026045Y0122573D01*
X0026101Y0122436D01*
X0026154Y0122297D01*
X0026202Y0122157D01*
X0026247Y0122016D01*
X0026288Y0121874D01*
X0026326Y0121731D01*
X0026359Y0121587D01*
X0026389Y0121442D01*
X0026415Y0121296D01*
X0026436Y0121150D01*
X0026454Y0121003D01*
X0026468Y0120856D01*
X0026478Y0120708D01*
X0026484Y0120560D01*
X0026486Y0120412D01*
X0026484Y0120264D01*
X0026478Y0120116D01*
X0026468Y0119968D01*
X0026454Y0119821D01*
X0026436Y0119674D01*
X0026415Y0119528D01*
X0026389Y0119382D01*
X0026359Y0119237D01*
X0026326Y0119093D01*
X0026288Y0118950D01*
X0026247Y0118808D01*
X0026202Y0118667D01*
X0026154Y0118527D01*
X0026101Y0118388D01*
X0026045Y0118251D01*
X0025985Y0118116D01*
X0025922Y0117982D01*
X0025855Y0117850D01*
X0025784Y0117720D01*
X0025710Y0117592D01*
X0025633Y0117466D01*
X0025552Y0117342D01*
X0025468Y0117220D01*
X0025381Y0117101D01*
X0025290Y0116984D01*
X0025196Y0116869D01*
X0025100Y0116757D01*
X0025000Y0116647D01*
X0024898Y0116541D01*
X0024792Y0116437D01*
X0024684Y0116336D01*
X0024573Y0116238D01*
X0024460Y0116142D01*
X0024344Y0116050D01*
X0024226Y0115961D01*
X0024105Y0115876D01*
X0023982Y0115793D01*
X0023857Y0115714D01*
X0023730Y0115638D01*
X0023601Y0115566D01*
X0023470Y0115497D01*
X0023337Y0115432D01*
X0023202Y0115371D01*
X0023066Y0115313D01*
X0022929Y0115258D01*
X0022790Y0115208D01*
X0022649Y0115161D01*
X0022508Y0115118D01*
X0022365Y0115078D01*
X0022221Y0115043D01*
X0022077Y0115011D01*
X0021931Y0114984D01*
X0021785Y0114960D01*
X0021638Y0114940D01*
X0021491Y0114924D01*
X0021344Y0114912D01*
X0021196Y0114904D01*
X0021048Y0114900D01*
X0020900Y0114900D01*
X0020752Y0114904D01*
X0020604Y0114912D01*
X0020457Y0114924D01*
X0020310Y0114940D01*
X0020163Y0114960D01*
X0020017Y0114984D01*
X0019871Y0115011D01*
X0019727Y0115043D01*
X0019583Y0115078D01*
X0019440Y0115118D01*
X0019299Y0115161D01*
X0019158Y0115208D01*
X0019019Y0115258D01*
X0018882Y0115313D01*
X0018746Y0115371D01*
X0018611Y0115432D01*
X0018478Y0115497D01*
X0018347Y0115566D01*
X0018218Y0115638D01*
X0018091Y0115714D01*
X0017966Y0115793D01*
X0017843Y0115876D01*
X0017722Y0115961D01*
X0017604Y0116050D01*
X0017488Y0116142D01*
X0017375Y0116238D01*
X0017264Y0116336D01*
X0017156Y0116437D01*
X0017050Y0116541D01*
X0016948Y0116647D01*
X0016848Y0116757D01*
X0016752Y0116869D01*
X0016658Y0116984D01*
X0016567Y0117101D01*
X0016480Y0117220D01*
X0016396Y0117342D01*
X0016315Y0117466D01*
X0016238Y0117592D01*
X0016164Y0117720D01*
X0016093Y0117850D01*
X0016026Y0117982D01*
X0015963Y0118116D01*
X0015903Y0118251D01*
X0015847Y0118388D01*
X0015794Y0118527D01*
X0015746Y0118667D01*
X0015701Y0118808D01*
X0015660Y0118950D01*
X0015622Y0119093D01*
X0015589Y0119237D01*
X0015559Y0119382D01*
X0015533Y0119528D01*
X0015512Y0119674D01*
X0015494Y0119821D01*
X0015480Y0119968D01*
X0015470Y0120116D01*
X0015464Y0120264D01*
X0015462Y0120412D01*
X0038612Y0150628D02*
X0108691Y0150628D01*
X0120994Y0120412D02*
X0120996Y0120560D01*
X0121002Y0120708D01*
X0121012Y0120856D01*
X0121026Y0121003D01*
X0121044Y0121150D01*
X0121065Y0121296D01*
X0121091Y0121442D01*
X0121121Y0121587D01*
X0121154Y0121731D01*
X0121192Y0121874D01*
X0121233Y0122016D01*
X0121278Y0122157D01*
X0121326Y0122297D01*
X0121379Y0122436D01*
X0121435Y0122573D01*
X0121495Y0122708D01*
X0121558Y0122842D01*
X0121625Y0122974D01*
X0121696Y0123104D01*
X0121770Y0123232D01*
X0121847Y0123358D01*
X0121928Y0123482D01*
X0122012Y0123604D01*
X0122099Y0123723D01*
X0122190Y0123840D01*
X0122284Y0123955D01*
X0122380Y0124067D01*
X0122480Y0124177D01*
X0122582Y0124283D01*
X0122688Y0124387D01*
X0122796Y0124488D01*
X0122907Y0124586D01*
X0123020Y0124682D01*
X0123136Y0124774D01*
X0123254Y0124863D01*
X0123375Y0124948D01*
X0123498Y0125031D01*
X0123623Y0125110D01*
X0123750Y0125186D01*
X0123879Y0125258D01*
X0124010Y0125327D01*
X0124143Y0125392D01*
X0124278Y0125453D01*
X0124414Y0125511D01*
X0124551Y0125566D01*
X0124690Y0125616D01*
X0124831Y0125663D01*
X0124972Y0125706D01*
X0125115Y0125746D01*
X0125259Y0125781D01*
X0125403Y0125813D01*
X0125549Y0125840D01*
X0125695Y0125864D01*
X0125842Y0125884D01*
X0125989Y0125900D01*
X0126136Y0125912D01*
X0126284Y0125920D01*
X0126432Y0125924D01*
X0126580Y0125924D01*
X0126728Y0125920D01*
X0126876Y0125912D01*
X0127023Y0125900D01*
X0127170Y0125884D01*
X0127317Y0125864D01*
X0127463Y0125840D01*
X0127609Y0125813D01*
X0127753Y0125781D01*
X0127897Y0125746D01*
X0128040Y0125706D01*
X0128181Y0125663D01*
X0128322Y0125616D01*
X0128461Y0125566D01*
X0128598Y0125511D01*
X0128734Y0125453D01*
X0128869Y0125392D01*
X0129002Y0125327D01*
X0129133Y0125258D01*
X0129262Y0125186D01*
X0129389Y0125110D01*
X0129514Y0125031D01*
X0129637Y0124948D01*
X0129758Y0124863D01*
X0129876Y0124774D01*
X0129992Y0124682D01*
X0130105Y0124586D01*
X0130216Y0124488D01*
X0130324Y0124387D01*
X0130430Y0124283D01*
X0130532Y0124177D01*
X0130632Y0124067D01*
X0130728Y0123955D01*
X0130822Y0123840D01*
X0130913Y0123723D01*
X0131000Y0123604D01*
X0131084Y0123482D01*
X0131165Y0123358D01*
X0131242Y0123232D01*
X0131316Y0123104D01*
X0131387Y0122974D01*
X0131454Y0122842D01*
X0131517Y0122708D01*
X0131577Y0122573D01*
X0131633Y0122436D01*
X0131686Y0122297D01*
X0131734Y0122157D01*
X0131779Y0122016D01*
X0131820Y0121874D01*
X0131858Y0121731D01*
X0131891Y0121587D01*
X0131921Y0121442D01*
X0131947Y0121296D01*
X0131968Y0121150D01*
X0131986Y0121003D01*
X0132000Y0120856D01*
X0132010Y0120708D01*
X0132016Y0120560D01*
X0132018Y0120412D01*
X0132016Y0120264D01*
X0132010Y0120116D01*
X0132000Y0119968D01*
X0131986Y0119821D01*
X0131968Y0119674D01*
X0131947Y0119528D01*
X0131921Y0119382D01*
X0131891Y0119237D01*
X0131858Y0119093D01*
X0131820Y0118950D01*
X0131779Y0118808D01*
X0131734Y0118667D01*
X0131686Y0118527D01*
X0131633Y0118388D01*
X0131577Y0118251D01*
X0131517Y0118116D01*
X0131454Y0117982D01*
X0131387Y0117850D01*
X0131316Y0117720D01*
X0131242Y0117592D01*
X0131165Y0117466D01*
X0131084Y0117342D01*
X0131000Y0117220D01*
X0130913Y0117101D01*
X0130822Y0116984D01*
X0130728Y0116869D01*
X0130632Y0116757D01*
X0130532Y0116647D01*
X0130430Y0116541D01*
X0130324Y0116437D01*
X0130216Y0116336D01*
X0130105Y0116238D01*
X0129992Y0116142D01*
X0129876Y0116050D01*
X0129758Y0115961D01*
X0129637Y0115876D01*
X0129514Y0115793D01*
X0129389Y0115714D01*
X0129262Y0115638D01*
X0129133Y0115566D01*
X0129002Y0115497D01*
X0128869Y0115432D01*
X0128734Y0115371D01*
X0128598Y0115313D01*
X0128461Y0115258D01*
X0128322Y0115208D01*
X0128181Y0115161D01*
X0128040Y0115118D01*
X0127897Y0115078D01*
X0127753Y0115043D01*
X0127609Y0115011D01*
X0127463Y0114984D01*
X0127317Y0114960D01*
X0127170Y0114940D01*
X0127023Y0114924D01*
X0126876Y0114912D01*
X0126728Y0114904D01*
X0126580Y0114900D01*
X0126432Y0114900D01*
X0126284Y0114904D01*
X0126136Y0114912D01*
X0125989Y0114924D01*
X0125842Y0114940D01*
X0125695Y0114960D01*
X0125549Y0114984D01*
X0125403Y0115011D01*
X0125259Y0115043D01*
X0125115Y0115078D01*
X0124972Y0115118D01*
X0124831Y0115161D01*
X0124690Y0115208D01*
X0124551Y0115258D01*
X0124414Y0115313D01*
X0124278Y0115371D01*
X0124143Y0115432D01*
X0124010Y0115497D01*
X0123879Y0115566D01*
X0123750Y0115638D01*
X0123623Y0115714D01*
X0123498Y0115793D01*
X0123375Y0115876D01*
X0123254Y0115961D01*
X0123136Y0116050D01*
X0123020Y0116142D01*
X0122907Y0116238D01*
X0122796Y0116336D01*
X0122688Y0116437D01*
X0122582Y0116541D01*
X0122480Y0116647D01*
X0122380Y0116757D01*
X0122284Y0116869D01*
X0122190Y0116984D01*
X0122099Y0117101D01*
X0122012Y0117220D01*
X0121928Y0117342D01*
X0121847Y0117466D01*
X0121770Y0117592D01*
X0121696Y0117720D01*
X0121625Y0117850D01*
X0121558Y0117982D01*
X0121495Y0118116D01*
X0121435Y0118251D01*
X0121379Y0118388D01*
X0121326Y0118527D01*
X0121278Y0118667D01*
X0121233Y0118808D01*
X0121192Y0118950D01*
X0121154Y0119093D01*
X0121121Y0119237D01*
X0121091Y0119382D01*
X0121065Y0119528D01*
X0121044Y0119674D01*
X0121026Y0119821D01*
X0121012Y0119968D01*
X0121002Y0120116D01*
X0120996Y0120264D01*
X0120994Y0120412D01*
D11*
X0094596Y0050313D03*
D12*
X0086722Y0050313D03*
X0086722Y0058187D03*
X0086722Y0066061D03*
X0094596Y0066061D03*
X0094596Y0058187D03*
D13*
X0073730Y0115667D03*
D14*
X0072510Y0093856D03*
X0083041Y0088345D03*
X0089478Y0090372D03*
X0094892Y0091160D03*
X0099026Y0091258D03*
X0102667Y0082104D03*
X0115207Y0087478D03*
X0114675Y0095037D03*
X0115148Y0115825D03*
X0103652Y0121671D03*
X0114616Y0140746D03*
X0102864Y0147203D03*
X0087923Y0147203D03*
X0072982Y0146986D03*
X0058809Y0146986D03*
X0044813Y0147262D03*
X0043927Y0142695D03*
X0043691Y0130530D03*
X0052136Y0115707D03*
X0046368Y0109860D03*
X0051191Y0105234D03*
X0049951Y0101179D03*
X0043514Y0102124D03*
X0031998Y0101534D03*
X0031939Y0108325D03*
X0032096Y0116356D03*
X0028356Y0116356D03*
X0026053Y0128660D03*
X0024852Y0132242D03*
X0011919Y0114093D03*
X0007923Y0115904D03*
X0020778Y0099132D03*
X0007549Y0092439D03*
X0008159Y0073778D03*
X0025994Y0076494D03*
X0026093Y0065274D03*
X0033770Y0055431D03*
X0051289Y0069703D03*
X0059360Y0063600D03*
X0063494Y0063502D03*
X0070384Y0052675D03*
X0073927Y0052675D03*
X0064577Y0046179D03*
X0054144Y0044368D03*
X0080915Y0063600D03*
X0081486Y0069171D03*
X0100994Y0064486D03*
X0106112Y0054053D03*
X0102333Y0048069D03*
X0114793Y0055116D03*
X0125659Y0064860D03*
X0115758Y0070392D03*
X0139951Y0073778D03*
X0139459Y0094624D03*
X0131801Y0110943D03*
X0139459Y0114821D03*
X0126132Y0129112D03*
X0086762Y0043167D03*
X0051073Y0081278D03*
D15*
X0031703Y0070490D03*
X0131998Y0096868D03*
D16*
X0057963Y0096868D01*
X0031663Y0070569D01*
D17*
X0024035Y0060306D02*
X0061363Y0060306D01*
X0061897Y0059772D02*
X0069043Y0059772D01*
X0077192Y0051623D01*
X0083590Y0051623D01*
X0083666Y0051546D01*
X0083427Y0050969D01*
X0083427Y0049658D01*
X0083929Y0048446D01*
X0084856Y0047519D01*
X0086067Y0047018D01*
X0087378Y0047018D01*
X0088589Y0047519D01*
X0089516Y0048446D01*
X0090018Y0049658D01*
X0090018Y0050969D01*
X0089516Y0052180D01*
X0088636Y0053060D01*
X0090948Y0053060D01*
X0090901Y0052884D01*
X0090901Y0050608D01*
X0094301Y0050608D01*
X0094301Y0050018D01*
X0090901Y0050018D01*
X0090901Y0047743D01*
X0090989Y0047413D01*
X0091160Y0047118D01*
X0091401Y0046877D01*
X0091696Y0046706D01*
X0092026Y0046618D01*
X0094301Y0046618D01*
X0094301Y0050018D01*
X0094892Y0050018D01*
X0094892Y0050608D01*
X0098292Y0050608D01*
X0098292Y0052884D01*
X0098203Y0053213D01*
X0098033Y0053508D01*
X0097792Y0053750D01*
X0097592Y0053865D01*
X0097657Y0053930D01*
X0101610Y0057882D01*
X0102480Y0058753D01*
X0102480Y0062739D01*
X0103280Y0063539D01*
X0103280Y0065433D01*
X0101941Y0066772D01*
X0100047Y0066772D01*
X0099429Y0066154D01*
X0099429Y0088972D01*
X0099972Y0088972D01*
X0101311Y0090311D01*
X0101311Y0092205D01*
X0099972Y0093544D01*
X0098079Y0093544D01*
X0096909Y0092374D01*
X0095839Y0093445D01*
X0093945Y0093445D01*
X0092606Y0092106D01*
X0092606Y0090213D01*
X0093701Y0089117D01*
X0093701Y0071771D01*
X0089616Y0067686D01*
X0089516Y0067928D01*
X0088589Y0068855D01*
X0087913Y0069135D01*
X0087913Y0085157D01*
X0085327Y0087742D01*
X0085327Y0089291D01*
X0083988Y0090630D01*
X0082095Y0090630D01*
X0080756Y0089291D01*
X0080756Y0087398D01*
X0082095Y0086059D01*
X0083643Y0086059D01*
X0085532Y0084170D01*
X0085532Y0069135D01*
X0084856Y0068855D01*
X0083929Y0067928D01*
X0083427Y0066717D01*
X0083427Y0065406D01*
X0083929Y0064194D01*
X0084856Y0063268D01*
X0086067Y0062766D01*
X0087378Y0062766D01*
X0088589Y0063268D01*
X0089370Y0064049D01*
X0089370Y0062519D01*
X0088054Y0061202D01*
X0087378Y0061482D01*
X0086067Y0061482D01*
X0084856Y0060981D01*
X0083929Y0060054D01*
X0083427Y0058843D01*
X0083427Y0057532D01*
X0083929Y0056320D01*
X0084218Y0056031D01*
X0079267Y0056031D01*
X0071181Y0064117D01*
X0070310Y0064988D01*
X0065241Y0064988D01*
X0064441Y0065788D01*
X0062547Y0065788D01*
X0061476Y0064717D01*
X0060307Y0065886D01*
X0058413Y0065886D01*
X0057074Y0064547D01*
X0057074Y0062654D01*
X0058413Y0061315D01*
X0060307Y0061315D01*
X0060331Y0061338D01*
X0061897Y0059772D01*
X0060774Y0060895D02*
X0023504Y0060895D01*
X0022974Y0061484D02*
X0058244Y0061484D01*
X0057655Y0062073D02*
X0022444Y0062073D01*
X0021913Y0062663D02*
X0057074Y0062663D01*
X0057074Y0063252D02*
X0021383Y0063252D01*
X0020853Y0063841D02*
X0057074Y0063841D01*
X0057074Y0064430D02*
X0020322Y0064430D01*
X0019792Y0065019D02*
X0057546Y0065019D01*
X0058135Y0065608D02*
X0019261Y0065608D01*
X0018731Y0066197D02*
X0083427Y0066197D01*
X0083427Y0065608D02*
X0064621Y0065608D01*
X0065210Y0065019D02*
X0083587Y0065019D01*
X0083831Y0064430D02*
X0070868Y0064430D01*
X0071458Y0063841D02*
X0084283Y0063841D01*
X0084894Y0063252D02*
X0072047Y0063252D01*
X0072636Y0062663D02*
X0089370Y0062663D01*
X0089370Y0063252D02*
X0088551Y0063252D01*
X0089162Y0063841D02*
X0089370Y0063841D01*
X0088925Y0062073D02*
X0073225Y0062073D01*
X0073814Y0061484D02*
X0088336Y0061484D01*
X0090561Y0062026D02*
X0086722Y0058187D01*
X0084770Y0060895D02*
X0074403Y0060895D01*
X0074992Y0060306D02*
X0084181Y0060306D01*
X0083789Y0059717D02*
X0075581Y0059717D01*
X0076170Y0059128D02*
X0083545Y0059128D01*
X0083427Y0058539D02*
X0076759Y0058539D01*
X0077348Y0057950D02*
X0083427Y0057950D01*
X0083498Y0057361D02*
X0077937Y0057361D01*
X0078526Y0056772D02*
X0083742Y0056772D01*
X0084066Y0056183D02*
X0079115Y0056183D01*
X0076166Y0052648D02*
X0033678Y0052648D01*
X0034489Y0052059D02*
X0076756Y0052059D01*
X0075577Y0053238D02*
X0032867Y0053238D01*
X0032056Y0053827D02*
X0074988Y0053827D01*
X0074399Y0054416D02*
X0031246Y0054416D01*
X0030435Y0055005D02*
X0073810Y0055005D01*
X0073221Y0055594D02*
X0029624Y0055594D01*
X0028813Y0056183D02*
X0072632Y0056183D01*
X0072043Y0056772D02*
X0028003Y0056772D01*
X0027192Y0057361D02*
X0071454Y0057361D01*
X0070865Y0057950D02*
X0026381Y0057950D01*
X0025731Y0058422D02*
X0015697Y0069567D01*
X0014596Y0071473D01*
X0014596Y0071633D01*
X0014378Y0071852D01*
X0014223Y0072120D01*
X0014068Y0072161D01*
X0013955Y0072274D01*
X0013645Y0072274D01*
X0013346Y0072355D01*
X0013208Y0072274D01*
X0006322Y0072274D01*
X0006322Y0116395D01*
X0038751Y0148824D01*
X0108710Y0148824D01*
X0141139Y0116395D01*
X0141139Y0072274D01*
X0134253Y0072274D01*
X0134114Y0072355D01*
X0133815Y0072274D01*
X0133506Y0072274D01*
X0133392Y0072161D01*
X0133238Y0072120D01*
X0133083Y0071852D01*
X0132864Y0071633D01*
X0132864Y0071473D01*
X0131764Y0069567D01*
X0121729Y0058422D01*
X0109597Y0049607D01*
X0095897Y0043508D01*
X0081228Y0040390D01*
X0066232Y0040390D01*
X0051564Y0043508D01*
X0037864Y0049607D01*
X0025731Y0058422D01*
X0025626Y0058539D02*
X0070276Y0058539D01*
X0069687Y0059128D02*
X0025096Y0059128D01*
X0024565Y0059717D02*
X0069098Y0059717D01*
X0062367Y0065608D02*
X0060585Y0065608D01*
X0061175Y0065019D02*
X0061778Y0065019D01*
X0048233Y0044991D02*
X0099227Y0044991D01*
X0097904Y0044402D02*
X0049557Y0044402D01*
X0050880Y0043813D02*
X0096581Y0043813D01*
X0097167Y0046618D02*
X0094892Y0046618D01*
X0094892Y0050018D01*
X0098292Y0050018D01*
X0098292Y0047743D01*
X0098203Y0047413D01*
X0098033Y0047118D01*
X0097792Y0046877D01*
X0097496Y0046706D01*
X0097167Y0046618D01*
X0097586Y0046758D02*
X0103197Y0046758D01*
X0104520Y0047347D02*
X0098165Y0047347D01*
X0098292Y0047936D02*
X0105843Y0047936D01*
X0107166Y0048525D02*
X0098292Y0048525D01*
X0098292Y0049114D02*
X0108489Y0049114D01*
X0109729Y0049703D02*
X0098292Y0049703D01*
X0098292Y0050881D02*
X0111350Y0050881D01*
X0110540Y0050292D02*
X0094892Y0050292D01*
X0094892Y0049703D02*
X0094301Y0049703D01*
X0094301Y0049114D02*
X0094892Y0049114D01*
X0094892Y0048525D02*
X0094301Y0048525D01*
X0094301Y0047936D02*
X0094892Y0047936D01*
X0094892Y0047347D02*
X0094301Y0047347D01*
X0094301Y0046758D02*
X0094892Y0046758D01*
X0094301Y0050292D02*
X0090018Y0050292D01*
X0090018Y0049703D02*
X0090901Y0049703D01*
X0090901Y0049114D02*
X0089793Y0049114D01*
X0089549Y0048525D02*
X0090901Y0048525D01*
X0090901Y0047936D02*
X0089006Y0047936D01*
X0088172Y0047347D02*
X0091028Y0047347D01*
X0091607Y0046758D02*
X0044264Y0046758D01*
X0042941Y0047347D02*
X0085272Y0047347D01*
X0084439Y0047936D02*
X0041618Y0047936D01*
X0040295Y0048525D02*
X0083896Y0048525D01*
X0083652Y0049114D02*
X0038972Y0049114D01*
X0037732Y0049703D02*
X0083427Y0049703D01*
X0083427Y0050292D02*
X0036921Y0050292D01*
X0036110Y0050881D02*
X0083427Y0050881D01*
X0083635Y0051470D02*
X0035299Y0051470D01*
X0045587Y0046169D02*
X0101873Y0046169D01*
X0100550Y0045580D02*
X0046910Y0045580D01*
X0052902Y0043223D02*
X0094558Y0043223D01*
X0091787Y0042634D02*
X0055673Y0042634D01*
X0058444Y0042045D02*
X0089016Y0042045D01*
X0086245Y0041456D02*
X0061215Y0041456D01*
X0063986Y0040867D02*
X0083474Y0040867D01*
X0090018Y0050881D02*
X0090901Y0050881D01*
X0090901Y0051470D02*
X0089810Y0051470D01*
X0089566Y0052059D02*
X0090901Y0052059D01*
X0090901Y0052648D02*
X0089047Y0052648D01*
X0094596Y0058187D02*
X0098238Y0061829D01*
X0098238Y0090471D01*
X0099026Y0091258D01*
X0097240Y0092705D02*
X0096579Y0092705D01*
X0095990Y0093294D02*
X0097829Y0093294D01*
X0100222Y0093294D02*
X0141139Y0093294D01*
X0141139Y0093883D02*
X0006322Y0093883D01*
X0006322Y0094472D02*
X0141139Y0094472D01*
X0141139Y0095061D02*
X0006322Y0095061D01*
X0006322Y0095650D02*
X0141139Y0095650D01*
X0141139Y0096239D02*
X0006322Y0096239D01*
X0006322Y0096828D02*
X0141139Y0096828D01*
X0141139Y0097417D02*
X0006322Y0097417D01*
X0006322Y0098006D02*
X0141139Y0098006D01*
X0141139Y0098595D02*
X0006322Y0098595D01*
X0006322Y0099184D02*
X0141139Y0099184D01*
X0141139Y0099773D02*
X0006322Y0099773D01*
X0006322Y0100363D02*
X0141139Y0100363D01*
X0141139Y0100952D02*
X0006322Y0100952D01*
X0006322Y0101541D02*
X0141139Y0101541D01*
X0141139Y0102130D02*
X0006322Y0102130D01*
X0006322Y0102719D02*
X0141139Y0102719D01*
X0141139Y0103308D02*
X0052497Y0103308D01*
X0052138Y0102949D02*
X0053477Y0104288D01*
X0053477Y0106181D01*
X0052138Y0107520D01*
X0050244Y0107520D01*
X0049149Y0106425D01*
X0021271Y0106425D01*
X0014205Y0113490D01*
X0014205Y0115039D01*
X0012866Y0116378D01*
X0010972Y0116378D01*
X0009633Y0115039D01*
X0009633Y0113146D01*
X0010972Y0111807D01*
X0012521Y0111807D01*
X0020284Y0104044D01*
X0049149Y0104044D01*
X0050244Y0102949D01*
X0052138Y0102949D01*
X0053086Y0103897D02*
X0141139Y0103897D01*
X0141139Y0104486D02*
X0053477Y0104486D01*
X0053477Y0105075D02*
X0141139Y0105075D01*
X0141139Y0105664D02*
X0053477Y0105664D01*
X0053405Y0106253D02*
X0141139Y0106253D01*
X0141139Y0106842D02*
X0052816Y0106842D01*
X0052227Y0107431D02*
X0141139Y0107431D01*
X0141139Y0108020D02*
X0047761Y0108020D01*
X0047315Y0107574D02*
X0048654Y0108913D01*
X0048654Y0110807D01*
X0047315Y0112146D01*
X0045421Y0112146D01*
X0045045Y0111769D01*
X0028339Y0128475D01*
X0028339Y0129606D01*
X0027000Y0130945D01*
X0025106Y0130945D01*
X0023767Y0129606D01*
X0023767Y0127713D01*
X0025106Y0126374D01*
X0026238Y0126374D01*
X0043367Y0109245D01*
X0044237Y0108374D01*
X0044621Y0108374D01*
X0045421Y0107574D01*
X0047315Y0107574D01*
X0048350Y0108609D02*
X0141139Y0108609D01*
X0141139Y0109198D02*
X0048654Y0109198D01*
X0048654Y0109788D02*
X0141139Y0109788D01*
X0141139Y0110377D02*
X0048654Y0110377D01*
X0048495Y0110966D02*
X0141139Y0110966D01*
X0141139Y0111555D02*
X0047906Y0111555D01*
X0047317Y0112144D02*
X0141139Y0112144D01*
X0141139Y0112733D02*
X0044081Y0112733D01*
X0043492Y0113322D02*
X0141139Y0113322D01*
X0141139Y0113911D02*
X0128077Y0113911D01*
X0127820Y0113804D02*
X0130249Y0114810D01*
X0132107Y0116669D01*
X0133113Y0119097D01*
X0133113Y0121726D01*
X0132107Y0124154D01*
X0130249Y0126013D01*
X0127820Y0127019D01*
X0125192Y0127019D01*
X0122763Y0126013D01*
X0120905Y0124154D01*
X0119899Y0121726D01*
X0119899Y0119097D01*
X0120905Y0116669D01*
X0122763Y0114810D01*
X0125192Y0113804D01*
X0127820Y0113804D01*
X0129500Y0114500D02*
X0141139Y0114500D01*
X0141139Y0115089D02*
X0130527Y0115089D01*
X0131116Y0115678D02*
X0141139Y0115678D01*
X0141139Y0116267D02*
X0131705Y0116267D01*
X0132185Y0116856D02*
X0140677Y0116856D01*
X0140088Y0117445D02*
X0132429Y0117445D01*
X0132673Y0118034D02*
X0139499Y0118034D01*
X0138910Y0118623D02*
X0132917Y0118623D01*
X0133113Y0119213D02*
X0138321Y0119213D01*
X0137732Y0119802D02*
X0133113Y0119802D01*
X0133113Y0120391D02*
X0137143Y0120391D01*
X0136554Y0120980D02*
X0133113Y0120980D01*
X0133113Y0121569D02*
X0135965Y0121569D01*
X0135376Y0122158D02*
X0132934Y0122158D01*
X0132690Y0122747D02*
X0134787Y0122747D01*
X0134198Y0123336D02*
X0132446Y0123336D01*
X0132202Y0123925D02*
X0133609Y0123925D01*
X0133020Y0124514D02*
X0131747Y0124514D01*
X0131158Y0125103D02*
X0132431Y0125103D01*
X0131842Y0125692D02*
X0130569Y0125692D01*
X0131252Y0126281D02*
X0129600Y0126281D01*
X0130663Y0126870D02*
X0128178Y0126870D01*
X0129485Y0128048D02*
X0028765Y0128048D01*
X0028339Y0128638D02*
X0128896Y0128638D01*
X0128307Y0129227D02*
X0028339Y0129227D01*
X0028130Y0129816D02*
X0127718Y0129816D01*
X0127129Y0130405D02*
X0027541Y0130405D01*
X0029355Y0127459D02*
X0130074Y0127459D01*
X0126540Y0130994D02*
X0020921Y0130994D01*
X0021510Y0131583D02*
X0125951Y0131583D01*
X0125362Y0132172D02*
X0022099Y0132172D01*
X0022688Y0132761D02*
X0124773Y0132761D01*
X0124184Y0133350D02*
X0023277Y0133350D01*
X0023866Y0133939D02*
X0123595Y0133939D01*
X0123006Y0134528D02*
X0024455Y0134528D01*
X0025044Y0135117D02*
X0122417Y0135117D01*
X0121827Y0135706D02*
X0025633Y0135706D01*
X0026222Y0136295D02*
X0121238Y0136295D01*
X0120649Y0136884D02*
X0026811Y0136884D01*
X0027400Y0137473D02*
X0120060Y0137473D01*
X0119471Y0138063D02*
X0027989Y0138063D01*
X0028578Y0138652D02*
X0118882Y0138652D01*
X0118293Y0139241D02*
X0029168Y0139241D01*
X0029757Y0139830D02*
X0117704Y0139830D01*
X0117115Y0140419D02*
X0030346Y0140419D01*
X0030935Y0141008D02*
X0116526Y0141008D01*
X0115937Y0141597D02*
X0031524Y0141597D01*
X0032113Y0142186D02*
X0115348Y0142186D01*
X0114759Y0142775D02*
X0032702Y0142775D01*
X0033291Y0143364D02*
X0114170Y0143364D01*
X0113581Y0143953D02*
X0033880Y0143953D01*
X0034469Y0144542D02*
X0112991Y0144542D01*
X0112402Y0145131D02*
X0035058Y0145131D01*
X0035647Y0145720D02*
X0111813Y0145720D01*
X0111224Y0146309D02*
X0036236Y0146309D01*
X0036825Y0146898D02*
X0110635Y0146898D01*
X0110046Y0147488D02*
X0037414Y0147488D01*
X0038003Y0148077D02*
X0109457Y0148077D01*
X0108868Y0148666D02*
X0038593Y0148666D01*
X0024566Y0130405D02*
X0020332Y0130405D01*
X0019743Y0129816D02*
X0023977Y0129816D01*
X0023767Y0129227D02*
X0019153Y0129227D01*
X0018564Y0128638D02*
X0023767Y0128638D01*
X0023767Y0128048D02*
X0017975Y0128048D01*
X0017386Y0127459D02*
X0024021Y0127459D01*
X0024610Y0126870D02*
X0022646Y0126870D01*
X0022289Y0127019D02*
X0019660Y0127019D01*
X0017232Y0126013D01*
X0015373Y0124154D01*
X0014367Y0121726D01*
X0014367Y0119097D01*
X0015373Y0116669D01*
X0017232Y0114810D01*
X0019660Y0113804D01*
X0022289Y0113804D01*
X0024717Y0114810D01*
X0026576Y0116669D01*
X0027581Y0119097D01*
X0027581Y0121726D01*
X0026576Y0124154D01*
X0024717Y0126013D01*
X0022289Y0127019D01*
X0024069Y0126281D02*
X0026330Y0126281D01*
X0026919Y0125692D02*
X0025037Y0125692D01*
X0025627Y0125103D02*
X0027508Y0125103D01*
X0028097Y0124514D02*
X0026216Y0124514D01*
X0026670Y0123925D02*
X0028686Y0123925D01*
X0029275Y0123336D02*
X0026915Y0123336D01*
X0027159Y0122747D02*
X0029864Y0122747D01*
X0030454Y0122158D02*
X0027402Y0122158D01*
X0027581Y0121569D02*
X0031043Y0121569D01*
X0031632Y0120980D02*
X0027581Y0120980D01*
X0027581Y0120391D02*
X0032221Y0120391D01*
X0032810Y0119802D02*
X0027581Y0119802D01*
X0027581Y0119213D02*
X0033399Y0119213D01*
X0033988Y0118623D02*
X0027385Y0118623D01*
X0027141Y0118034D02*
X0034577Y0118034D01*
X0035166Y0117445D02*
X0026897Y0117445D01*
X0026653Y0116856D02*
X0035755Y0116856D01*
X0036344Y0116267D02*
X0026174Y0116267D01*
X0025585Y0115678D02*
X0036933Y0115678D01*
X0037522Y0115089D02*
X0024996Y0115089D01*
X0023968Y0114500D02*
X0038111Y0114500D01*
X0038700Y0113911D02*
X0022546Y0113911D01*
X0019403Y0113911D02*
X0014205Y0113911D01*
X0014205Y0114500D02*
X0017981Y0114500D01*
X0016953Y0115089D02*
X0014155Y0115089D01*
X0013566Y0115678D02*
X0016364Y0115678D01*
X0015775Y0116267D02*
X0012977Y0116267D01*
X0010861Y0116267D02*
X0006322Y0116267D01*
X0006322Y0115678D02*
X0010272Y0115678D01*
X0009683Y0115089D02*
X0006322Y0115089D01*
X0006322Y0114500D02*
X0009633Y0114500D01*
X0009633Y0113911D02*
X0006322Y0113911D01*
X0006322Y0113322D02*
X0009633Y0113322D01*
X0010046Y0112733D02*
X0006322Y0112733D01*
X0006322Y0112144D02*
X0010635Y0112144D01*
X0012773Y0111555D02*
X0006322Y0111555D01*
X0006322Y0110966D02*
X0013363Y0110966D01*
X0013952Y0110377D02*
X0006322Y0110377D01*
X0006322Y0109788D02*
X0014541Y0109788D01*
X0015130Y0109198D02*
X0006322Y0109198D01*
X0006322Y0108609D02*
X0015719Y0108609D01*
X0016308Y0108020D02*
X0006322Y0108020D01*
X0006322Y0107431D02*
X0016897Y0107431D01*
X0017486Y0106842D02*
X0006322Y0106842D01*
X0006322Y0106253D02*
X0018075Y0106253D01*
X0018664Y0105664D02*
X0006322Y0105664D01*
X0006322Y0105075D02*
X0019253Y0105075D01*
X0019842Y0104486D02*
X0006322Y0104486D01*
X0006322Y0103897D02*
X0049296Y0103897D01*
X0049885Y0103308D02*
X0006322Y0103308D01*
X0014374Y0113322D02*
X0039289Y0113322D01*
X0039879Y0112733D02*
X0014963Y0112733D01*
X0015552Y0112144D02*
X0040468Y0112144D01*
X0041057Y0111555D02*
X0016141Y0111555D01*
X0016730Y0110966D02*
X0041646Y0110966D01*
X0042235Y0110377D02*
X0017319Y0110377D01*
X0017908Y0109788D02*
X0042824Y0109788D01*
X0043413Y0109198D02*
X0018497Y0109198D01*
X0019086Y0108609D02*
X0044002Y0108609D01*
X0044975Y0108020D02*
X0019675Y0108020D01*
X0020264Y0107431D02*
X0050155Y0107431D01*
X0049566Y0106842D02*
X0020853Y0106842D01*
X0020778Y0105234D02*
X0011919Y0114093D01*
X0015296Y0116856D02*
X0006783Y0116856D01*
X0007372Y0117445D02*
X0015052Y0117445D01*
X0014808Y0118034D02*
X0007961Y0118034D01*
X0008550Y0118623D02*
X0014564Y0118623D01*
X0014367Y0119213D02*
X0009139Y0119213D01*
X0009728Y0119802D02*
X0014367Y0119802D01*
X0014367Y0120391D02*
X0010317Y0120391D01*
X0010907Y0120980D02*
X0014367Y0120980D01*
X0014367Y0121569D02*
X0011496Y0121569D01*
X0012085Y0122158D02*
X0014546Y0122158D01*
X0014790Y0122747D02*
X0012674Y0122747D01*
X0013263Y0123336D02*
X0015034Y0123336D01*
X0015278Y0123925D02*
X0013852Y0123925D01*
X0014441Y0124514D02*
X0015733Y0124514D01*
X0016322Y0125103D02*
X0015030Y0125103D01*
X0015619Y0125692D02*
X0016911Y0125692D01*
X0016208Y0126281D02*
X0017880Y0126281D01*
X0016797Y0126870D02*
X0019302Y0126870D01*
X0029944Y0126870D02*
X0124834Y0126870D01*
X0123412Y0126281D02*
X0030533Y0126281D01*
X0031122Y0125692D02*
X0122443Y0125692D01*
X0121854Y0125103D02*
X0031711Y0125103D01*
X0032300Y0124514D02*
X0121265Y0124514D01*
X0120810Y0123925D02*
X0032889Y0123925D01*
X0033478Y0123336D02*
X0120566Y0123336D01*
X0120322Y0122747D02*
X0034067Y0122747D01*
X0034656Y0122158D02*
X0120078Y0122158D01*
X0119899Y0121569D02*
X0035245Y0121569D01*
X0035834Y0120980D02*
X0119899Y0120980D01*
X0119899Y0120391D02*
X0036423Y0120391D01*
X0037012Y0119802D02*
X0119899Y0119802D01*
X0119899Y0119213D02*
X0037601Y0119213D01*
X0038190Y0118623D02*
X0120095Y0118623D01*
X0120339Y0118034D02*
X0038780Y0118034D01*
X0039369Y0117445D02*
X0120583Y0117445D01*
X0120827Y0116856D02*
X0039958Y0116856D01*
X0040547Y0116267D02*
X0121306Y0116267D01*
X0121895Y0115678D02*
X0041136Y0115678D01*
X0041725Y0115089D02*
X0122484Y0115089D01*
X0123512Y0114500D02*
X0042314Y0114500D01*
X0042903Y0113911D02*
X0124934Y0113911D01*
X0141139Y0092705D02*
X0100811Y0092705D01*
X0101311Y0092116D02*
X0141139Y0092116D01*
X0141139Y0091527D02*
X0101311Y0091527D01*
X0101311Y0090938D02*
X0141139Y0090938D01*
X0141139Y0090348D02*
X0101311Y0090348D01*
X0100760Y0089759D02*
X0141139Y0089759D01*
X0141139Y0089170D02*
X0100171Y0089170D01*
X0099429Y0088581D02*
X0141139Y0088581D01*
X0141139Y0087992D02*
X0099429Y0087992D01*
X0099429Y0087403D02*
X0141139Y0087403D01*
X0141139Y0086814D02*
X0099429Y0086814D01*
X0099429Y0086225D02*
X0141139Y0086225D01*
X0141139Y0085636D02*
X0099429Y0085636D01*
X0099429Y0085047D02*
X0141139Y0085047D01*
X0141139Y0084458D02*
X0099429Y0084458D01*
X0099429Y0083869D02*
X0141139Y0083869D01*
X0141139Y0083280D02*
X0099429Y0083280D01*
X0099429Y0082691D02*
X0141139Y0082691D01*
X0141139Y0082102D02*
X0099429Y0082102D01*
X0099429Y0081513D02*
X0141139Y0081513D01*
X0141139Y0080923D02*
X0099429Y0080923D01*
X0099429Y0080334D02*
X0141139Y0080334D01*
X0141139Y0079745D02*
X0099429Y0079745D01*
X0099429Y0079156D02*
X0141139Y0079156D01*
X0141139Y0078567D02*
X0099429Y0078567D01*
X0099429Y0077978D02*
X0141139Y0077978D01*
X0141139Y0077389D02*
X0099429Y0077389D01*
X0099429Y0076800D02*
X0141139Y0076800D01*
X0141139Y0076211D02*
X0099429Y0076211D01*
X0099429Y0075622D02*
X0141139Y0075622D01*
X0141139Y0075033D02*
X0099429Y0075033D01*
X0099429Y0074444D02*
X0141139Y0074444D01*
X0141139Y0073855D02*
X0099429Y0073855D01*
X0099429Y0073266D02*
X0141139Y0073266D01*
X0141139Y0072677D02*
X0116706Y0072677D01*
X0116705Y0072678D02*
X0114811Y0072678D01*
X0113472Y0071339D01*
X0113472Y0069445D01*
X0114811Y0068106D01*
X0116705Y0068106D01*
X0118044Y0069445D01*
X0118044Y0071339D01*
X0116705Y0072678D01*
X0117295Y0072088D02*
X0133219Y0072088D01*
X0132864Y0071498D02*
X0117884Y0071498D01*
X0118044Y0070909D02*
X0132539Y0070909D01*
X0132199Y0070320D02*
X0118044Y0070320D01*
X0118044Y0069731D02*
X0131859Y0069731D01*
X0131382Y0069142D02*
X0117741Y0069142D01*
X0117152Y0068553D02*
X0130851Y0068553D01*
X0130321Y0067964D02*
X0099429Y0067964D01*
X0099429Y0067375D02*
X0129790Y0067375D01*
X0129260Y0066786D02*
X0099429Y0066786D01*
X0099429Y0066197D02*
X0099472Y0066197D01*
X0099429Y0068553D02*
X0114364Y0068553D01*
X0113775Y0069142D02*
X0099429Y0069142D01*
X0099429Y0069731D02*
X0113472Y0069731D01*
X0113472Y0070320D02*
X0099429Y0070320D01*
X0099429Y0070909D02*
X0113472Y0070909D01*
X0113632Y0071498D02*
X0099429Y0071498D01*
X0099429Y0072088D02*
X0114221Y0072088D01*
X0114810Y0072677D02*
X0099429Y0072677D01*
X0094892Y0071278D02*
X0094892Y0091160D01*
X0093204Y0092705D02*
X0006322Y0092705D01*
X0006322Y0093294D02*
X0093793Y0093294D01*
X0092615Y0092116D02*
X0006322Y0092116D01*
X0006322Y0091527D02*
X0092606Y0091527D01*
X0092606Y0090938D02*
X0006322Y0090938D01*
X0006322Y0090348D02*
X0081813Y0090348D01*
X0081224Y0089759D02*
X0006322Y0089759D01*
X0006322Y0089170D02*
X0080756Y0089170D01*
X0080756Y0088581D02*
X0006322Y0088581D01*
X0006322Y0087992D02*
X0080756Y0087992D01*
X0080756Y0087403D02*
X0006322Y0087403D01*
X0006322Y0086814D02*
X0081339Y0086814D01*
X0081928Y0086225D02*
X0006322Y0086225D01*
X0006322Y0085636D02*
X0084066Y0085636D01*
X0084655Y0085047D02*
X0006322Y0085047D01*
X0006322Y0084458D02*
X0085244Y0084458D01*
X0085532Y0083869D02*
X0006322Y0083869D01*
X0006322Y0083280D02*
X0085532Y0083280D01*
X0085532Y0082691D02*
X0006322Y0082691D01*
X0006322Y0082102D02*
X0085532Y0082102D01*
X0085532Y0081513D02*
X0006322Y0081513D01*
X0006322Y0080923D02*
X0085532Y0080923D01*
X0085532Y0080334D02*
X0006322Y0080334D01*
X0006322Y0079745D02*
X0085532Y0079745D01*
X0085532Y0079156D02*
X0006322Y0079156D01*
X0006322Y0078567D02*
X0085532Y0078567D01*
X0085532Y0077978D02*
X0006322Y0077978D01*
X0006322Y0077389D02*
X0085532Y0077389D01*
X0085532Y0076800D02*
X0006322Y0076800D01*
X0006322Y0076211D02*
X0085532Y0076211D01*
X0085532Y0075622D02*
X0006322Y0075622D01*
X0006322Y0075033D02*
X0085532Y0075033D01*
X0085532Y0074444D02*
X0006322Y0074444D01*
X0006322Y0073855D02*
X0085532Y0073855D01*
X0085532Y0073266D02*
X0006322Y0073266D01*
X0006322Y0072677D02*
X0085532Y0072677D01*
X0085532Y0072088D02*
X0014241Y0072088D01*
X0014596Y0071498D02*
X0085532Y0071498D01*
X0085532Y0070909D02*
X0014922Y0070909D01*
X0015262Y0070320D02*
X0085532Y0070320D01*
X0085532Y0069731D02*
X0015602Y0069731D01*
X0016079Y0069142D02*
X0085532Y0069142D01*
X0084554Y0068553D02*
X0016609Y0068553D01*
X0017140Y0067964D02*
X0083965Y0067964D01*
X0083700Y0067375D02*
X0017670Y0067375D01*
X0018201Y0066786D02*
X0083456Y0066786D01*
X0086722Y0066061D02*
X0086722Y0084663D01*
X0083041Y0088345D01*
X0085327Y0088581D02*
X0093701Y0088581D01*
X0093701Y0087992D02*
X0085327Y0087992D01*
X0085666Y0087403D02*
X0093701Y0087403D01*
X0093701Y0086814D02*
X0086255Y0086814D01*
X0086845Y0086225D02*
X0093701Y0086225D01*
X0093701Y0085636D02*
X0087434Y0085636D01*
X0087913Y0085047D02*
X0093701Y0085047D01*
X0093701Y0084458D02*
X0087913Y0084458D01*
X0087913Y0083869D02*
X0093701Y0083869D01*
X0093701Y0083280D02*
X0087913Y0083280D01*
X0087913Y0082691D02*
X0093701Y0082691D01*
X0093701Y0082102D02*
X0087913Y0082102D01*
X0087913Y0081513D02*
X0093701Y0081513D01*
X0093701Y0080923D02*
X0087913Y0080923D01*
X0087913Y0080334D02*
X0093701Y0080334D01*
X0093701Y0079745D02*
X0087913Y0079745D01*
X0087913Y0079156D02*
X0093701Y0079156D01*
X0093701Y0078567D02*
X0087913Y0078567D01*
X0087913Y0077978D02*
X0093701Y0077978D01*
X0093701Y0077389D02*
X0087913Y0077389D01*
X0087913Y0076800D02*
X0093701Y0076800D01*
X0093701Y0076211D02*
X0087913Y0076211D01*
X0087913Y0075622D02*
X0093701Y0075622D01*
X0093701Y0075033D02*
X0087913Y0075033D01*
X0087913Y0074444D02*
X0093701Y0074444D01*
X0093701Y0073855D02*
X0087913Y0073855D01*
X0087913Y0073266D02*
X0093701Y0073266D01*
X0093701Y0072677D02*
X0087913Y0072677D01*
X0087913Y0072088D02*
X0093701Y0072088D01*
X0093429Y0071498D02*
X0087913Y0071498D01*
X0087913Y0070909D02*
X0092840Y0070909D01*
X0092251Y0070320D02*
X0087913Y0070320D01*
X0087913Y0069731D02*
X0091662Y0069731D01*
X0091073Y0069142D02*
X0087913Y0069142D01*
X0088891Y0068553D02*
X0090484Y0068553D01*
X0089895Y0067964D02*
X0089480Y0067964D01*
X0090561Y0066947D02*
X0094892Y0071278D01*
X0090561Y0066947D02*
X0090561Y0062026D01*
X0098143Y0054416D02*
X0116215Y0054416D01*
X0117026Y0055005D02*
X0098732Y0055005D01*
X0099321Y0055594D02*
X0117837Y0055594D01*
X0118647Y0056183D02*
X0099910Y0056183D01*
X0100499Y0056772D02*
X0119458Y0056772D01*
X0120269Y0057361D02*
X0101088Y0057361D01*
X0101610Y0057882D02*
X0101610Y0057882D01*
X0101677Y0057950D02*
X0121080Y0057950D01*
X0121835Y0058539D02*
X0102266Y0058539D01*
X0102480Y0059128D02*
X0122365Y0059128D01*
X0122895Y0059717D02*
X0102480Y0059717D01*
X0102480Y0060306D02*
X0123426Y0060306D01*
X0123956Y0060895D02*
X0102480Y0060895D01*
X0102480Y0061484D02*
X0124487Y0061484D01*
X0125017Y0062073D02*
X0102480Y0062073D01*
X0102480Y0062663D02*
X0125547Y0062663D01*
X0126078Y0063252D02*
X0102992Y0063252D01*
X0103280Y0063841D02*
X0126608Y0063841D01*
X0127138Y0064430D02*
X0103280Y0064430D01*
X0103280Y0065019D02*
X0127669Y0065019D01*
X0128199Y0065608D02*
X0103105Y0065608D01*
X0102516Y0066197D02*
X0128730Y0066197D01*
X0115404Y0053827D02*
X0097658Y0053827D01*
X0097657Y0053930D02*
X0097657Y0053930D01*
X0098189Y0053238D02*
X0114593Y0053238D01*
X0113783Y0052648D02*
X0098292Y0052648D01*
X0098292Y0052059D02*
X0112972Y0052059D01*
X0112161Y0051470D02*
X0098292Y0051470D01*
X0093648Y0089170D02*
X0085327Y0089170D01*
X0084859Y0089759D02*
X0093059Y0089759D01*
X0092606Y0090348D02*
X0084270Y0090348D01*
X0051191Y0105234D02*
X0020778Y0105234D01*
X0044670Y0112144D02*
X0045419Y0112144D01*
D18*
X0044852Y0109860D02*
X0046368Y0109860D01*
X0044852Y0109860D02*
X0026053Y0128660D01*
X0063494Y0063502D02*
X0069695Y0063502D01*
X0078652Y0054545D01*
X0096171Y0054545D01*
X0100994Y0059368D01*
X0100994Y0064486D01*
D19*
X0086722Y0050313D02*
X0084124Y0052912D01*
X0077726Y0052912D01*
X0069577Y0061061D01*
X0062431Y0061061D01*
X0059892Y0063600D01*
X0059360Y0063600D01*
M02*
