G75*
%MOIN*%
%OFA0B0*%
%FSLAX25Y25*%
%IPPOS*%
%LPD*%
%AMOC8*
5,1,8,0,0,1.08239X$1,22.5*
%
%ADD10C,0.00000*%
%ADD11R,0.04800X0.04800*%
%ADD12C,0.04800*%
%ADD13OC8,0.05200*%
%ADD14C,0.05200*%
%ADD15C,0.11811*%
%ADD16C,0.02781*%
%ADD17C,0.03962*%
%ADD18C,0.04000*%
%ADD19C,0.00591*%
%ADD20C,0.01181*%
%ADD21C,0.00787*%
D10*
X0037313Y0095543D02*
X0051223Y0089350D01*
X0066117Y0086184D01*
X0081344Y0086184D01*
X0096237Y0089350D01*
X0110148Y0095543D01*
X0122466Y0104493D01*
X0132655Y0115809D01*
X0133959Y0118069D01*
X0142234Y0118069D01*
X0142234Y0163738D01*
X0109163Y0196809D01*
X0038297Y0196809D01*
X0005226Y0163738D01*
X0005226Y0118069D01*
X0013501Y0118069D01*
X0014806Y0115809D01*
X0024994Y0104493D01*
X0037313Y0095543D01*
X0015462Y0167301D02*
X0015464Y0167449D01*
X0015470Y0167597D01*
X0015480Y0167745D01*
X0015494Y0167892D01*
X0015512Y0168039D01*
X0015533Y0168185D01*
X0015559Y0168331D01*
X0015589Y0168476D01*
X0015622Y0168620D01*
X0015660Y0168763D01*
X0015701Y0168905D01*
X0015746Y0169046D01*
X0015794Y0169186D01*
X0015847Y0169325D01*
X0015903Y0169462D01*
X0015963Y0169597D01*
X0016026Y0169731D01*
X0016093Y0169863D01*
X0016164Y0169993D01*
X0016238Y0170121D01*
X0016315Y0170247D01*
X0016396Y0170371D01*
X0016480Y0170493D01*
X0016567Y0170612D01*
X0016658Y0170729D01*
X0016752Y0170844D01*
X0016848Y0170956D01*
X0016948Y0171066D01*
X0017050Y0171172D01*
X0017156Y0171276D01*
X0017264Y0171377D01*
X0017375Y0171475D01*
X0017488Y0171571D01*
X0017604Y0171663D01*
X0017722Y0171752D01*
X0017843Y0171837D01*
X0017966Y0171920D01*
X0018091Y0171999D01*
X0018218Y0172075D01*
X0018347Y0172147D01*
X0018478Y0172216D01*
X0018611Y0172281D01*
X0018746Y0172342D01*
X0018882Y0172400D01*
X0019019Y0172455D01*
X0019158Y0172505D01*
X0019299Y0172552D01*
X0019440Y0172595D01*
X0019583Y0172635D01*
X0019727Y0172670D01*
X0019871Y0172702D01*
X0020017Y0172729D01*
X0020163Y0172753D01*
X0020310Y0172773D01*
X0020457Y0172789D01*
X0020604Y0172801D01*
X0020752Y0172809D01*
X0020900Y0172813D01*
X0021048Y0172813D01*
X0021196Y0172809D01*
X0021344Y0172801D01*
X0021491Y0172789D01*
X0021638Y0172773D01*
X0021785Y0172753D01*
X0021931Y0172729D01*
X0022077Y0172702D01*
X0022221Y0172670D01*
X0022365Y0172635D01*
X0022508Y0172595D01*
X0022649Y0172552D01*
X0022790Y0172505D01*
X0022929Y0172455D01*
X0023066Y0172400D01*
X0023202Y0172342D01*
X0023337Y0172281D01*
X0023470Y0172216D01*
X0023601Y0172147D01*
X0023730Y0172075D01*
X0023857Y0171999D01*
X0023982Y0171920D01*
X0024105Y0171837D01*
X0024226Y0171752D01*
X0024344Y0171663D01*
X0024460Y0171571D01*
X0024573Y0171475D01*
X0024684Y0171377D01*
X0024792Y0171276D01*
X0024898Y0171172D01*
X0025000Y0171066D01*
X0025100Y0170956D01*
X0025196Y0170844D01*
X0025290Y0170729D01*
X0025381Y0170612D01*
X0025468Y0170493D01*
X0025552Y0170371D01*
X0025633Y0170247D01*
X0025710Y0170121D01*
X0025784Y0169993D01*
X0025855Y0169863D01*
X0025922Y0169731D01*
X0025985Y0169597D01*
X0026045Y0169462D01*
X0026101Y0169325D01*
X0026154Y0169186D01*
X0026202Y0169046D01*
X0026247Y0168905D01*
X0026288Y0168763D01*
X0026326Y0168620D01*
X0026359Y0168476D01*
X0026389Y0168331D01*
X0026415Y0168185D01*
X0026436Y0168039D01*
X0026454Y0167892D01*
X0026468Y0167745D01*
X0026478Y0167597D01*
X0026484Y0167449D01*
X0026486Y0167301D01*
X0026484Y0167153D01*
X0026478Y0167005D01*
X0026468Y0166857D01*
X0026454Y0166710D01*
X0026436Y0166563D01*
X0026415Y0166417D01*
X0026389Y0166271D01*
X0026359Y0166126D01*
X0026326Y0165982D01*
X0026288Y0165839D01*
X0026247Y0165697D01*
X0026202Y0165556D01*
X0026154Y0165416D01*
X0026101Y0165277D01*
X0026045Y0165140D01*
X0025985Y0165005D01*
X0025922Y0164871D01*
X0025855Y0164739D01*
X0025784Y0164609D01*
X0025710Y0164481D01*
X0025633Y0164355D01*
X0025552Y0164231D01*
X0025468Y0164109D01*
X0025381Y0163990D01*
X0025290Y0163873D01*
X0025196Y0163758D01*
X0025100Y0163646D01*
X0025000Y0163536D01*
X0024898Y0163430D01*
X0024792Y0163326D01*
X0024684Y0163225D01*
X0024573Y0163127D01*
X0024460Y0163031D01*
X0024344Y0162939D01*
X0024226Y0162850D01*
X0024105Y0162765D01*
X0023982Y0162682D01*
X0023857Y0162603D01*
X0023730Y0162527D01*
X0023601Y0162455D01*
X0023470Y0162386D01*
X0023337Y0162321D01*
X0023202Y0162260D01*
X0023066Y0162202D01*
X0022929Y0162147D01*
X0022790Y0162097D01*
X0022649Y0162050D01*
X0022508Y0162007D01*
X0022365Y0161967D01*
X0022221Y0161932D01*
X0022077Y0161900D01*
X0021931Y0161873D01*
X0021785Y0161849D01*
X0021638Y0161829D01*
X0021491Y0161813D01*
X0021344Y0161801D01*
X0021196Y0161793D01*
X0021048Y0161789D01*
X0020900Y0161789D01*
X0020752Y0161793D01*
X0020604Y0161801D01*
X0020457Y0161813D01*
X0020310Y0161829D01*
X0020163Y0161849D01*
X0020017Y0161873D01*
X0019871Y0161900D01*
X0019727Y0161932D01*
X0019583Y0161967D01*
X0019440Y0162007D01*
X0019299Y0162050D01*
X0019158Y0162097D01*
X0019019Y0162147D01*
X0018882Y0162202D01*
X0018746Y0162260D01*
X0018611Y0162321D01*
X0018478Y0162386D01*
X0018347Y0162455D01*
X0018218Y0162527D01*
X0018091Y0162603D01*
X0017966Y0162682D01*
X0017843Y0162765D01*
X0017722Y0162850D01*
X0017604Y0162939D01*
X0017488Y0163031D01*
X0017375Y0163127D01*
X0017264Y0163225D01*
X0017156Y0163326D01*
X0017050Y0163430D01*
X0016948Y0163536D01*
X0016848Y0163646D01*
X0016752Y0163758D01*
X0016658Y0163873D01*
X0016567Y0163990D01*
X0016480Y0164109D01*
X0016396Y0164231D01*
X0016315Y0164355D01*
X0016238Y0164481D01*
X0016164Y0164609D01*
X0016093Y0164739D01*
X0016026Y0164871D01*
X0015963Y0165005D01*
X0015903Y0165140D01*
X0015847Y0165277D01*
X0015794Y0165416D01*
X0015746Y0165556D01*
X0015701Y0165697D01*
X0015660Y0165839D01*
X0015622Y0165982D01*
X0015589Y0166126D01*
X0015559Y0166271D01*
X0015533Y0166417D01*
X0015512Y0166563D01*
X0015494Y0166710D01*
X0015480Y0166857D01*
X0015470Y0167005D01*
X0015464Y0167153D01*
X0015462Y0167301D01*
X0038612Y0197518D02*
X0108691Y0197518D01*
X0120994Y0167301D02*
X0120996Y0167449D01*
X0121002Y0167597D01*
X0121012Y0167745D01*
X0121026Y0167892D01*
X0121044Y0168039D01*
X0121065Y0168185D01*
X0121091Y0168331D01*
X0121121Y0168476D01*
X0121154Y0168620D01*
X0121192Y0168763D01*
X0121233Y0168905D01*
X0121278Y0169046D01*
X0121326Y0169186D01*
X0121379Y0169325D01*
X0121435Y0169462D01*
X0121495Y0169597D01*
X0121558Y0169731D01*
X0121625Y0169863D01*
X0121696Y0169993D01*
X0121770Y0170121D01*
X0121847Y0170247D01*
X0121928Y0170371D01*
X0122012Y0170493D01*
X0122099Y0170612D01*
X0122190Y0170729D01*
X0122284Y0170844D01*
X0122380Y0170956D01*
X0122480Y0171066D01*
X0122582Y0171172D01*
X0122688Y0171276D01*
X0122796Y0171377D01*
X0122907Y0171475D01*
X0123020Y0171571D01*
X0123136Y0171663D01*
X0123254Y0171752D01*
X0123375Y0171837D01*
X0123498Y0171920D01*
X0123623Y0171999D01*
X0123750Y0172075D01*
X0123879Y0172147D01*
X0124010Y0172216D01*
X0124143Y0172281D01*
X0124278Y0172342D01*
X0124414Y0172400D01*
X0124551Y0172455D01*
X0124690Y0172505D01*
X0124831Y0172552D01*
X0124972Y0172595D01*
X0125115Y0172635D01*
X0125259Y0172670D01*
X0125403Y0172702D01*
X0125549Y0172729D01*
X0125695Y0172753D01*
X0125842Y0172773D01*
X0125989Y0172789D01*
X0126136Y0172801D01*
X0126284Y0172809D01*
X0126432Y0172813D01*
X0126580Y0172813D01*
X0126728Y0172809D01*
X0126876Y0172801D01*
X0127023Y0172789D01*
X0127170Y0172773D01*
X0127317Y0172753D01*
X0127463Y0172729D01*
X0127609Y0172702D01*
X0127753Y0172670D01*
X0127897Y0172635D01*
X0128040Y0172595D01*
X0128181Y0172552D01*
X0128322Y0172505D01*
X0128461Y0172455D01*
X0128598Y0172400D01*
X0128734Y0172342D01*
X0128869Y0172281D01*
X0129002Y0172216D01*
X0129133Y0172147D01*
X0129262Y0172075D01*
X0129389Y0171999D01*
X0129514Y0171920D01*
X0129637Y0171837D01*
X0129758Y0171752D01*
X0129876Y0171663D01*
X0129992Y0171571D01*
X0130105Y0171475D01*
X0130216Y0171377D01*
X0130324Y0171276D01*
X0130430Y0171172D01*
X0130532Y0171066D01*
X0130632Y0170956D01*
X0130728Y0170844D01*
X0130822Y0170729D01*
X0130913Y0170612D01*
X0131000Y0170493D01*
X0131084Y0170371D01*
X0131165Y0170247D01*
X0131242Y0170121D01*
X0131316Y0169993D01*
X0131387Y0169863D01*
X0131454Y0169731D01*
X0131517Y0169597D01*
X0131577Y0169462D01*
X0131633Y0169325D01*
X0131686Y0169186D01*
X0131734Y0169046D01*
X0131779Y0168905D01*
X0131820Y0168763D01*
X0131858Y0168620D01*
X0131891Y0168476D01*
X0131921Y0168331D01*
X0131947Y0168185D01*
X0131968Y0168039D01*
X0131986Y0167892D01*
X0132000Y0167745D01*
X0132010Y0167597D01*
X0132016Y0167449D01*
X0132018Y0167301D01*
X0132016Y0167153D01*
X0132010Y0167005D01*
X0132000Y0166857D01*
X0131986Y0166710D01*
X0131968Y0166563D01*
X0131947Y0166417D01*
X0131921Y0166271D01*
X0131891Y0166126D01*
X0131858Y0165982D01*
X0131820Y0165839D01*
X0131779Y0165697D01*
X0131734Y0165556D01*
X0131686Y0165416D01*
X0131633Y0165277D01*
X0131577Y0165140D01*
X0131517Y0165005D01*
X0131454Y0164871D01*
X0131387Y0164739D01*
X0131316Y0164609D01*
X0131242Y0164481D01*
X0131165Y0164355D01*
X0131084Y0164231D01*
X0131000Y0164109D01*
X0130913Y0163990D01*
X0130822Y0163873D01*
X0130728Y0163758D01*
X0130632Y0163646D01*
X0130532Y0163536D01*
X0130430Y0163430D01*
X0130324Y0163326D01*
X0130216Y0163225D01*
X0130105Y0163127D01*
X0129992Y0163031D01*
X0129876Y0162939D01*
X0129758Y0162850D01*
X0129637Y0162765D01*
X0129514Y0162682D01*
X0129389Y0162603D01*
X0129262Y0162527D01*
X0129133Y0162455D01*
X0129002Y0162386D01*
X0128869Y0162321D01*
X0128734Y0162260D01*
X0128598Y0162202D01*
X0128461Y0162147D01*
X0128322Y0162097D01*
X0128181Y0162050D01*
X0128040Y0162007D01*
X0127897Y0161967D01*
X0127753Y0161932D01*
X0127609Y0161900D01*
X0127463Y0161873D01*
X0127317Y0161849D01*
X0127170Y0161829D01*
X0127023Y0161813D01*
X0126876Y0161801D01*
X0126728Y0161793D01*
X0126580Y0161789D01*
X0126432Y0161789D01*
X0126284Y0161793D01*
X0126136Y0161801D01*
X0125989Y0161813D01*
X0125842Y0161829D01*
X0125695Y0161849D01*
X0125549Y0161873D01*
X0125403Y0161900D01*
X0125259Y0161932D01*
X0125115Y0161967D01*
X0124972Y0162007D01*
X0124831Y0162050D01*
X0124690Y0162097D01*
X0124551Y0162147D01*
X0124414Y0162202D01*
X0124278Y0162260D01*
X0124143Y0162321D01*
X0124010Y0162386D01*
X0123879Y0162455D01*
X0123750Y0162527D01*
X0123623Y0162603D01*
X0123498Y0162682D01*
X0123375Y0162765D01*
X0123254Y0162850D01*
X0123136Y0162939D01*
X0123020Y0163031D01*
X0122907Y0163127D01*
X0122796Y0163225D01*
X0122688Y0163326D01*
X0122582Y0163430D01*
X0122480Y0163536D01*
X0122380Y0163646D01*
X0122284Y0163758D01*
X0122190Y0163873D01*
X0122099Y0163990D01*
X0122012Y0164109D01*
X0121928Y0164231D01*
X0121847Y0164355D01*
X0121770Y0164481D01*
X0121696Y0164609D01*
X0121625Y0164739D01*
X0121558Y0164871D01*
X0121495Y0165005D01*
X0121435Y0165140D01*
X0121379Y0165277D01*
X0121326Y0165416D01*
X0121278Y0165556D01*
X0121233Y0165697D01*
X0121192Y0165839D01*
X0121154Y0165982D01*
X0121121Y0166126D01*
X0121091Y0166271D01*
X0121065Y0166417D01*
X0121044Y0166563D01*
X0121026Y0166710D01*
X0121012Y0166857D01*
X0121002Y0167005D01*
X0120996Y0167153D01*
X0120994Y0167301D01*
D11*
X0094596Y0097990D03*
D12*
X0094596Y0105864D03*
X0094596Y0113738D03*
X0086722Y0113738D03*
X0086722Y0105864D03*
X0086722Y0097990D03*
D13*
X0109163Y0106884D03*
D14*
X0109163Y0114884D03*
D15*
X0073730Y0162557D03*
D16*
X0072510Y0140746D03*
X0083041Y0135234D03*
X0089478Y0137262D03*
X0094892Y0138049D03*
X0099026Y0138148D03*
X0102667Y0128994D03*
X0115207Y0134368D03*
X0114675Y0141927D03*
X0125207Y0122006D03*
X0125659Y0111750D03*
X0114793Y0102006D03*
X0106112Y0100943D03*
X0102333Y0094959D03*
X0086762Y0090057D03*
X0073927Y0099565D03*
X0070384Y0099565D03*
X0064577Y0093069D03*
X0054144Y0091258D03*
X0063494Y0110392D03*
X0060837Y0113541D03*
X0061427Y0116986D03*
X0051073Y0128167D03*
X0049951Y0148069D03*
X0051191Y0152124D03*
X0046368Y0156750D03*
X0052136Y0162597D03*
X0043514Y0149014D03*
X0031998Y0148423D03*
X0031939Y0155215D03*
X0032096Y0163246D03*
X0028356Y0163246D03*
X0025955Y0175549D03*
X0024852Y0179132D03*
X0011919Y0160982D03*
X0007923Y0162793D03*
X0020778Y0146022D03*
X0007549Y0139329D03*
X0008159Y0120667D03*
X0023829Y0124762D03*
X0025305Y0111179D03*
X0033376Y0101337D03*
X0080915Y0110490D03*
X0081486Y0116061D03*
X0115148Y0162715D03*
X0103652Y0168561D03*
X0114616Y0187636D03*
X0102864Y0194093D03*
X0087923Y0194093D03*
X0072982Y0193876D03*
X0058809Y0193876D03*
X0044813Y0194152D03*
X0043927Y0189585D03*
X0043691Y0177419D03*
X0126132Y0176002D03*
X0131801Y0160786D03*
X0139459Y0161711D03*
X0139459Y0141514D03*
X0139951Y0120667D03*
D17*
X0131998Y0146711D03*
X0028947Y0118660D03*
D18*
X0028022Y0117557D02*
X0054321Y0143856D01*
X0129144Y0143856D01*
X0131998Y0146711D01*
D19*
X0141139Y0146663D02*
X0006322Y0146663D01*
X0006322Y0146074D02*
X0141139Y0146074D01*
X0141139Y0145485D02*
X0006322Y0145485D01*
X0006322Y0144896D02*
X0141139Y0144896D01*
X0141139Y0144307D02*
X0006322Y0144307D01*
X0006322Y0143718D02*
X0141139Y0143718D01*
X0141139Y0143129D02*
X0006322Y0143129D01*
X0006322Y0142540D02*
X0141139Y0142540D01*
X0141139Y0141951D02*
X0006322Y0141951D01*
X0006322Y0141362D02*
X0141139Y0141362D01*
X0141139Y0140773D02*
X0006322Y0140773D01*
X0006322Y0140184D02*
X0093793Y0140184D01*
X0093945Y0140335D02*
X0092606Y0138996D01*
X0092606Y0137102D01*
X0093701Y0136007D01*
X0093701Y0119448D01*
X0090059Y0115806D01*
X0090059Y0110885D01*
X0088054Y0108879D01*
X0087378Y0109160D01*
X0086067Y0109160D01*
X0084856Y0108658D01*
X0083929Y0107731D01*
X0083427Y0106520D01*
X0083427Y0105209D01*
X0083929Y0103998D01*
X0084218Y0103708D01*
X0078480Y0103708D01*
X0071181Y0111007D01*
X0070310Y0111878D01*
X0065241Y0111878D01*
X0064441Y0112678D01*
X0063122Y0112678D01*
X0063122Y0114488D01*
X0061783Y0115827D01*
X0059890Y0115827D01*
X0058551Y0114488D01*
X0058551Y0112595D01*
X0059548Y0111598D01*
X0059548Y0109110D01*
X0060303Y0108355D01*
X0061996Y0106662D01*
X0069043Y0106662D01*
X0076405Y0099300D01*
X0083590Y0099300D01*
X0083666Y0099223D01*
X0083427Y0098646D01*
X0083427Y0097335D01*
X0083929Y0096124D01*
X0084856Y0095197D01*
X0086067Y0094695D01*
X0087378Y0094695D01*
X0088589Y0095197D01*
X0089516Y0096124D01*
X0090018Y0097335D01*
X0090018Y0098646D01*
X0089516Y0099857D01*
X0088636Y0100737D01*
X0090948Y0100737D01*
X0090901Y0100561D01*
X0090901Y0098285D01*
X0094301Y0098285D01*
X0094301Y0097695D01*
X0090901Y0097695D01*
X0090901Y0095420D01*
X0090989Y0095090D01*
X0091160Y0094795D01*
X0091401Y0094554D01*
X0091696Y0094383D01*
X0092026Y0094295D01*
X0094301Y0094295D01*
X0094301Y0097695D01*
X0094892Y0097695D01*
X0094892Y0098285D01*
X0098292Y0098285D01*
X0098292Y0100561D01*
X0098203Y0100890D01*
X0098033Y0101186D01*
X0097792Y0101427D01*
X0097592Y0101542D01*
X0097657Y0101607D01*
X0097657Y0101607D01*
X0107740Y0111690D01*
X0108468Y0111389D01*
X0109859Y0111389D01*
X0111143Y0111921D01*
X0112127Y0112904D01*
X0112659Y0114189D01*
X0112659Y0115579D01*
X0112127Y0116864D01*
X0111143Y0117847D01*
X0109859Y0118379D01*
X0108468Y0118379D01*
X0107183Y0117847D01*
X0106200Y0116864D01*
X0105668Y0115579D01*
X0105668Y0114189D01*
X0105776Y0113928D01*
X0097892Y0106044D01*
X0097892Y0106520D01*
X0097612Y0107196D01*
X0099044Y0107196D01*
X0099633Y0107785D02*
X0098201Y0107785D01*
X0098731Y0108315D02*
X0099429Y0109013D01*
X0099429Y0135862D01*
X0099972Y0135862D01*
X0101311Y0137201D01*
X0101311Y0139095D01*
X0099972Y0140434D01*
X0098079Y0140434D01*
X0096909Y0139264D01*
X0095839Y0140335D01*
X0093945Y0140335D01*
X0093204Y0139594D02*
X0006322Y0139594D01*
X0006322Y0139005D02*
X0092615Y0139005D01*
X0092606Y0138416D02*
X0006322Y0138416D01*
X0006322Y0137827D02*
X0092606Y0137827D01*
X0092606Y0137238D02*
X0084270Y0137238D01*
X0083988Y0137520D02*
X0082095Y0137520D01*
X0080756Y0136181D01*
X0080756Y0134288D01*
X0082095Y0132948D01*
X0083643Y0132948D01*
X0085532Y0131060D01*
X0085532Y0116812D01*
X0084856Y0116532D01*
X0083929Y0115605D01*
X0083427Y0114394D01*
X0083427Y0113083D01*
X0083929Y0111872D01*
X0084856Y0110945D01*
X0086067Y0110443D01*
X0087378Y0110443D01*
X0088589Y0110945D01*
X0089516Y0111872D01*
X0090018Y0113083D01*
X0090018Y0114394D01*
X0089516Y0115605D01*
X0088589Y0116532D01*
X0087913Y0116812D01*
X0087913Y0132046D01*
X0085327Y0134632D01*
X0085327Y0136181D01*
X0083988Y0137520D01*
X0084859Y0136649D02*
X0093059Y0136649D01*
X0093648Y0136060D02*
X0085327Y0136060D01*
X0085327Y0135471D02*
X0093701Y0135471D01*
X0093701Y0134882D02*
X0085327Y0134882D01*
X0085666Y0134293D02*
X0093701Y0134293D01*
X0093701Y0133704D02*
X0086255Y0133704D01*
X0086845Y0133115D02*
X0093701Y0133115D01*
X0093701Y0132526D02*
X0087434Y0132526D01*
X0087913Y0131937D02*
X0093701Y0131937D01*
X0093701Y0131348D02*
X0087913Y0131348D01*
X0087913Y0130759D02*
X0093701Y0130759D01*
X0093701Y0130169D02*
X0087913Y0130169D01*
X0087913Y0129580D02*
X0093701Y0129580D01*
X0093701Y0128991D02*
X0087913Y0128991D01*
X0087913Y0128402D02*
X0093701Y0128402D01*
X0093701Y0127813D02*
X0087913Y0127813D01*
X0087913Y0127224D02*
X0093701Y0127224D01*
X0093701Y0126635D02*
X0087913Y0126635D01*
X0087913Y0126046D02*
X0093701Y0126046D01*
X0093701Y0125457D02*
X0087913Y0125457D01*
X0087913Y0124868D02*
X0093701Y0124868D01*
X0093701Y0124279D02*
X0087913Y0124279D01*
X0087913Y0123690D02*
X0093701Y0123690D01*
X0093701Y0123101D02*
X0087913Y0123101D01*
X0087913Y0122512D02*
X0093701Y0122512D01*
X0093701Y0121923D02*
X0087913Y0121923D01*
X0087913Y0121334D02*
X0093701Y0121334D01*
X0093701Y0120744D02*
X0087913Y0120744D01*
X0087913Y0120155D02*
X0093701Y0120155D01*
X0093701Y0119566D02*
X0087913Y0119566D01*
X0087913Y0118977D02*
X0093231Y0118977D01*
X0092641Y0118388D02*
X0087913Y0118388D01*
X0087913Y0117799D02*
X0092052Y0117799D01*
X0091463Y0117210D02*
X0087913Y0117210D01*
X0088374Y0116621D02*
X0090874Y0116621D01*
X0090285Y0116032D02*
X0089089Y0116032D01*
X0089583Y0115443D02*
X0090059Y0115443D01*
X0090059Y0114854D02*
X0089827Y0114854D01*
X0090018Y0114265D02*
X0090059Y0114265D01*
X0090059Y0113676D02*
X0090018Y0113676D01*
X0090018Y0113087D02*
X0090059Y0113087D01*
X0090059Y0112498D02*
X0089775Y0112498D01*
X0089531Y0111909D02*
X0090059Y0111909D01*
X0090059Y0111319D02*
X0088964Y0111319D01*
X0088072Y0110730D02*
X0089905Y0110730D01*
X0089316Y0110141D02*
X0072047Y0110141D01*
X0072636Y0109552D02*
X0088727Y0109552D01*
X0088138Y0108963D02*
X0087852Y0108963D01*
X0086722Y0105864D02*
X0091250Y0110392D01*
X0091250Y0115313D01*
X0094892Y0118955D01*
X0094892Y0138049D01*
X0096579Y0139594D02*
X0097240Y0139594D01*
X0097829Y0140184D02*
X0095990Y0140184D01*
X0098238Y0137360D02*
X0099026Y0138148D01*
X0098238Y0137360D02*
X0098238Y0109506D01*
X0094596Y0105864D01*
X0097612Y0107196D02*
X0098731Y0108315D01*
X0098790Y0108374D02*
X0100222Y0108374D01*
X0100811Y0108963D02*
X0099379Y0108963D01*
X0099429Y0109552D02*
X0101400Y0109552D01*
X0101989Y0110141D02*
X0099429Y0110141D01*
X0099429Y0110730D02*
X0102578Y0110730D01*
X0103167Y0111319D02*
X0099429Y0111319D01*
X0099429Y0111909D02*
X0103756Y0111909D01*
X0104345Y0112498D02*
X0099429Y0112498D01*
X0099429Y0113087D02*
X0104934Y0113087D01*
X0105523Y0113676D02*
X0099429Y0113676D01*
X0099429Y0114265D02*
X0105668Y0114265D01*
X0105668Y0114854D02*
X0099429Y0114854D01*
X0099429Y0115443D02*
X0105668Y0115443D01*
X0105856Y0116032D02*
X0099429Y0116032D01*
X0099429Y0116621D02*
X0106100Y0116621D01*
X0106547Y0117210D02*
X0099429Y0117210D01*
X0099429Y0117799D02*
X0107136Y0117799D01*
X0111191Y0117799D02*
X0132539Y0117799D01*
X0132864Y0118362D02*
X0131764Y0116456D01*
X0121729Y0105312D01*
X0109597Y0096497D01*
X0095897Y0090398D01*
X0081228Y0087280D01*
X0066232Y0087280D01*
X0051564Y0090398D01*
X0037864Y0096497D01*
X0025731Y0105312D01*
X0015697Y0116456D01*
X0014596Y0118362D01*
X0014596Y0118523D01*
X0014378Y0118741D01*
X0014223Y0119009D01*
X0014068Y0119051D01*
X0013955Y0119164D01*
X0013645Y0119164D01*
X0013346Y0119244D01*
X0013208Y0119164D01*
X0006322Y0119164D01*
X0006322Y0163285D01*
X0038751Y0195714D01*
X0108710Y0195714D01*
X0141139Y0163285D01*
X0141139Y0119164D01*
X0134253Y0119164D01*
X0134114Y0119244D01*
X0133815Y0119164D01*
X0133506Y0119164D01*
X0133392Y0119051D01*
X0133238Y0119009D01*
X0133083Y0118741D01*
X0132864Y0118523D01*
X0132864Y0118362D01*
X0132864Y0118388D02*
X0099429Y0118388D01*
X0099429Y0118977D02*
X0133219Y0118977D01*
X0132199Y0117210D02*
X0111780Y0117210D01*
X0112227Y0116621D02*
X0131859Y0116621D01*
X0131382Y0116032D02*
X0112471Y0116032D01*
X0112659Y0115443D02*
X0130851Y0115443D01*
X0130321Y0114854D02*
X0112659Y0114854D01*
X0112659Y0114265D02*
X0129790Y0114265D01*
X0129260Y0113676D02*
X0112446Y0113676D01*
X0112202Y0113087D02*
X0128730Y0113087D01*
X0128199Y0112498D02*
X0111720Y0112498D01*
X0111114Y0111909D02*
X0127669Y0111909D01*
X0127138Y0111319D02*
X0107369Y0111319D01*
X0107550Y0110779D02*
X0105268Y0108497D01*
X0105268Y0107179D01*
X0108868Y0107179D01*
X0108868Y0106589D01*
X0105268Y0106589D01*
X0105268Y0105270D01*
X0107550Y0102989D01*
X0108868Y0102989D01*
X0108868Y0106589D01*
X0109459Y0106589D01*
X0109459Y0107179D01*
X0113059Y0107179D01*
X0113059Y0108497D01*
X0110777Y0110779D01*
X0109459Y0110779D01*
X0109459Y0107179D01*
X0108868Y0107179D01*
X0108868Y0110779D01*
X0107550Y0110779D01*
X0107501Y0110730D02*
X0106780Y0110730D01*
X0106912Y0110141D02*
X0106191Y0110141D01*
X0106323Y0109552D02*
X0105602Y0109552D01*
X0105734Y0108963D02*
X0105013Y0108963D01*
X0105268Y0108374D02*
X0104424Y0108374D01*
X0103835Y0107785D02*
X0105268Y0107785D01*
X0105268Y0107196D02*
X0103246Y0107196D01*
X0102657Y0106607D02*
X0108868Y0106607D01*
X0108868Y0107196D02*
X0109459Y0107196D01*
X0109459Y0106607D02*
X0122895Y0106607D01*
X0122365Y0106018D02*
X0113059Y0106018D01*
X0113059Y0106589D02*
X0109459Y0106589D01*
X0109459Y0102989D01*
X0110777Y0102989D01*
X0113059Y0105270D01*
X0113059Y0106589D01*
X0113059Y0107196D02*
X0123426Y0107196D01*
X0123956Y0107785D02*
X0113059Y0107785D01*
X0113059Y0108374D02*
X0124487Y0108374D01*
X0125017Y0108963D02*
X0112593Y0108963D01*
X0112004Y0109552D02*
X0125547Y0109552D01*
X0126078Y0110141D02*
X0111415Y0110141D01*
X0110826Y0110730D02*
X0126608Y0110730D01*
X0121835Y0105429D02*
X0113059Y0105429D01*
X0112628Y0104840D02*
X0121080Y0104840D01*
X0120269Y0104251D02*
X0112039Y0104251D01*
X0111450Y0103662D02*
X0119458Y0103662D01*
X0118647Y0103073D02*
X0110861Y0103073D01*
X0109459Y0103073D02*
X0108868Y0103073D01*
X0108868Y0103662D02*
X0109459Y0103662D01*
X0109459Y0104251D02*
X0108868Y0104251D01*
X0108868Y0104840D02*
X0109459Y0104840D01*
X0109459Y0105429D02*
X0108868Y0105429D01*
X0108868Y0106018D02*
X0109459Y0106018D01*
X0109459Y0107785D02*
X0108868Y0107785D01*
X0108868Y0108374D02*
X0109459Y0108374D01*
X0109459Y0108963D02*
X0108868Y0108963D01*
X0108868Y0109552D02*
X0109459Y0109552D01*
X0109459Y0110141D02*
X0108868Y0110141D01*
X0108868Y0110730D02*
X0109459Y0110730D01*
X0105268Y0106018D02*
X0102068Y0106018D01*
X0101479Y0105429D02*
X0105268Y0105429D01*
X0105699Y0104840D02*
X0100890Y0104840D01*
X0100301Y0104251D02*
X0106288Y0104251D01*
X0106877Y0103662D02*
X0099712Y0103662D01*
X0099123Y0103073D02*
X0107466Y0103073D01*
X0111350Y0097771D02*
X0094892Y0097771D01*
X0094892Y0097695D02*
X0098292Y0097695D01*
X0098292Y0095420D01*
X0098203Y0095090D01*
X0098033Y0094795D01*
X0097792Y0094554D01*
X0097496Y0094383D01*
X0097167Y0094295D01*
X0094892Y0094295D01*
X0094892Y0097695D01*
X0094892Y0097182D02*
X0094301Y0097182D01*
X0094301Y0097771D02*
X0090018Y0097771D01*
X0090018Y0098360D02*
X0090901Y0098360D01*
X0090901Y0098949D02*
X0089892Y0098949D01*
X0089648Y0099538D02*
X0090901Y0099538D01*
X0090901Y0100127D02*
X0089246Y0100127D01*
X0088657Y0100716D02*
X0090943Y0100716D01*
X0090901Y0097182D02*
X0089954Y0097182D01*
X0089710Y0096593D02*
X0090901Y0096593D01*
X0090901Y0096004D02*
X0089396Y0096004D01*
X0088807Y0095415D02*
X0090902Y0095415D01*
X0091142Y0094826D02*
X0087694Y0094826D01*
X0085751Y0094826D02*
X0041618Y0094826D01*
X0042941Y0094237D02*
X0104520Y0094237D01*
X0105843Y0094826D02*
X0098051Y0094826D01*
X0098290Y0095415D02*
X0107166Y0095415D01*
X0108489Y0096004D02*
X0098292Y0096004D01*
X0098292Y0096593D02*
X0109729Y0096593D01*
X0110540Y0097182D02*
X0098292Y0097182D01*
X0098292Y0098360D02*
X0112161Y0098360D01*
X0112972Y0098949D02*
X0098292Y0098949D01*
X0098292Y0099538D02*
X0113783Y0099538D01*
X0114593Y0100127D02*
X0098292Y0100127D01*
X0098250Y0100716D02*
X0115404Y0100716D01*
X0116215Y0101305D02*
X0097913Y0101305D01*
X0097944Y0101894D02*
X0117026Y0101894D01*
X0117837Y0102484D02*
X0098534Y0102484D01*
X0098454Y0106607D02*
X0097856Y0106607D01*
X0094892Y0096593D02*
X0094301Y0096593D01*
X0094301Y0096004D02*
X0094892Y0096004D01*
X0094892Y0095415D02*
X0094301Y0095415D01*
X0094301Y0094826D02*
X0094892Y0094826D01*
X0096581Y0090702D02*
X0050880Y0090702D01*
X0049557Y0091291D02*
X0097904Y0091291D01*
X0099227Y0091880D02*
X0048233Y0091880D01*
X0046910Y0092469D02*
X0100550Y0092469D01*
X0101873Y0093059D02*
X0045587Y0093059D01*
X0044264Y0093648D02*
X0103197Y0093648D01*
X0094558Y0090113D02*
X0052902Y0090113D01*
X0055673Y0089524D02*
X0091787Y0089524D01*
X0089016Y0088935D02*
X0058444Y0088935D01*
X0061215Y0088346D02*
X0086245Y0088346D01*
X0083474Y0087757D02*
X0063986Y0087757D01*
X0073810Y0101894D02*
X0030435Y0101894D01*
X0031246Y0101305D02*
X0074399Y0101305D01*
X0074988Y0100716D02*
X0032056Y0100716D01*
X0032867Y0100127D02*
X0075577Y0100127D01*
X0076166Y0099538D02*
X0033678Y0099538D01*
X0034489Y0098949D02*
X0083553Y0098949D01*
X0083427Y0098360D02*
X0035299Y0098360D01*
X0036110Y0097771D02*
X0083427Y0097771D01*
X0083490Y0097182D02*
X0036921Y0097182D01*
X0037732Y0096593D02*
X0083734Y0096593D01*
X0084049Y0096004D02*
X0038972Y0096004D01*
X0040295Y0095415D02*
X0084638Y0095415D01*
X0083824Y0104251D02*
X0077937Y0104251D01*
X0077348Y0104840D02*
X0083580Y0104840D01*
X0083427Y0105429D02*
X0076759Y0105429D01*
X0076170Y0106018D02*
X0083427Y0106018D01*
X0083463Y0106607D02*
X0075581Y0106607D01*
X0074992Y0107196D02*
X0083707Y0107196D01*
X0083983Y0107785D02*
X0074403Y0107785D01*
X0073814Y0108374D02*
X0084572Y0108374D01*
X0085593Y0108963D02*
X0073225Y0108963D01*
X0071458Y0110730D02*
X0085373Y0110730D01*
X0084481Y0111319D02*
X0070868Y0111319D01*
X0069098Y0106607D02*
X0024565Y0106607D01*
X0024035Y0107196D02*
X0061461Y0107196D01*
X0060872Y0107785D02*
X0023504Y0107785D01*
X0022974Y0108374D02*
X0060283Y0108374D01*
X0059694Y0108963D02*
X0022444Y0108963D01*
X0021913Y0109552D02*
X0059548Y0109552D01*
X0059548Y0110141D02*
X0021383Y0110141D01*
X0020853Y0110730D02*
X0059548Y0110730D01*
X0059548Y0111319D02*
X0020322Y0111319D01*
X0019792Y0111909D02*
X0059237Y0111909D01*
X0058648Y0112498D02*
X0019261Y0112498D01*
X0018731Y0113087D02*
X0058551Y0113087D01*
X0058551Y0113676D02*
X0018201Y0113676D01*
X0017670Y0114265D02*
X0058551Y0114265D01*
X0058916Y0114854D02*
X0017140Y0114854D01*
X0016609Y0115443D02*
X0059505Y0115443D01*
X0062168Y0115443D02*
X0083862Y0115443D01*
X0083618Y0114854D02*
X0062757Y0114854D01*
X0063122Y0114265D02*
X0083427Y0114265D01*
X0083427Y0113676D02*
X0063122Y0113676D01*
X0063122Y0113087D02*
X0083427Y0113087D01*
X0083670Y0112498D02*
X0064621Y0112498D01*
X0065210Y0111909D02*
X0083914Y0111909D01*
X0086722Y0113738D02*
X0086722Y0131553D01*
X0083041Y0135234D01*
X0081813Y0137238D02*
X0006322Y0137238D01*
X0006322Y0136649D02*
X0081224Y0136649D01*
X0080756Y0136060D02*
X0006322Y0136060D01*
X0006322Y0135471D02*
X0080756Y0135471D01*
X0080756Y0134882D02*
X0006322Y0134882D01*
X0006322Y0134293D02*
X0080756Y0134293D01*
X0081339Y0133704D02*
X0006322Y0133704D01*
X0006322Y0133115D02*
X0081928Y0133115D01*
X0084066Y0132526D02*
X0006322Y0132526D01*
X0006322Y0131937D02*
X0084655Y0131937D01*
X0085244Y0131348D02*
X0006322Y0131348D01*
X0006322Y0130759D02*
X0085532Y0130759D01*
X0085532Y0130169D02*
X0006322Y0130169D01*
X0006322Y0129580D02*
X0085532Y0129580D01*
X0085532Y0128991D02*
X0006322Y0128991D01*
X0006322Y0128402D02*
X0085532Y0128402D01*
X0085532Y0127813D02*
X0006322Y0127813D01*
X0006322Y0127224D02*
X0085532Y0127224D01*
X0085532Y0126635D02*
X0006322Y0126635D01*
X0006322Y0126046D02*
X0085532Y0126046D01*
X0085532Y0125457D02*
X0006322Y0125457D01*
X0006322Y0124868D02*
X0085532Y0124868D01*
X0085532Y0124279D02*
X0006322Y0124279D01*
X0006322Y0123690D02*
X0085532Y0123690D01*
X0085532Y0123101D02*
X0006322Y0123101D01*
X0006322Y0122512D02*
X0085532Y0122512D01*
X0085532Y0121923D02*
X0006322Y0121923D01*
X0006322Y0121334D02*
X0085532Y0121334D01*
X0085532Y0120744D02*
X0006322Y0120744D01*
X0006322Y0120155D02*
X0085532Y0120155D01*
X0085532Y0119566D02*
X0006322Y0119566D01*
X0014241Y0118977D02*
X0085532Y0118977D01*
X0085532Y0118388D02*
X0014596Y0118388D01*
X0014922Y0117799D02*
X0085532Y0117799D01*
X0085532Y0117210D02*
X0015262Y0117210D01*
X0015602Y0116621D02*
X0085071Y0116621D01*
X0084356Y0116032D02*
X0016079Y0116032D01*
X0025096Y0106018D02*
X0069687Y0106018D01*
X0070276Y0105429D02*
X0025626Y0105429D01*
X0026381Y0104840D02*
X0070865Y0104840D01*
X0071454Y0104251D02*
X0027192Y0104251D01*
X0028003Y0103662D02*
X0072043Y0103662D01*
X0072632Y0103073D02*
X0028813Y0103073D01*
X0029624Y0102484D02*
X0073221Y0102484D01*
X0099429Y0119566D02*
X0141139Y0119566D01*
X0141139Y0120155D02*
X0126589Y0120155D01*
X0126154Y0119720D02*
X0127493Y0121059D01*
X0127493Y0122953D01*
X0126154Y0124292D01*
X0124260Y0124292D01*
X0122921Y0122953D01*
X0122921Y0121059D01*
X0124260Y0119720D01*
X0126154Y0119720D01*
X0127178Y0120744D02*
X0141139Y0120744D01*
X0141139Y0121334D02*
X0127493Y0121334D01*
X0127493Y0121923D02*
X0141139Y0121923D01*
X0141139Y0122512D02*
X0127493Y0122512D01*
X0127345Y0123101D02*
X0141139Y0123101D01*
X0141139Y0123690D02*
X0126755Y0123690D01*
X0126166Y0124279D02*
X0141139Y0124279D01*
X0141139Y0124868D02*
X0099429Y0124868D01*
X0099429Y0125457D02*
X0141139Y0125457D01*
X0141139Y0126046D02*
X0099429Y0126046D01*
X0099429Y0126635D02*
X0141139Y0126635D01*
X0141139Y0127224D02*
X0099429Y0127224D01*
X0099429Y0127813D02*
X0141139Y0127813D01*
X0141139Y0128402D02*
X0099429Y0128402D01*
X0099429Y0128991D02*
X0141139Y0128991D01*
X0141139Y0129580D02*
X0099429Y0129580D01*
X0099429Y0130169D02*
X0141139Y0130169D01*
X0141139Y0130759D02*
X0099429Y0130759D01*
X0099429Y0131348D02*
X0141139Y0131348D01*
X0141139Y0131937D02*
X0099429Y0131937D01*
X0099429Y0132526D02*
X0141139Y0132526D01*
X0141139Y0133115D02*
X0099429Y0133115D01*
X0099429Y0133704D02*
X0141139Y0133704D01*
X0141139Y0134293D02*
X0099429Y0134293D01*
X0099429Y0134882D02*
X0141139Y0134882D01*
X0141139Y0135471D02*
X0099429Y0135471D01*
X0100171Y0136060D02*
X0141139Y0136060D01*
X0141139Y0136649D02*
X0100760Y0136649D01*
X0101311Y0137238D02*
X0141139Y0137238D01*
X0141139Y0137827D02*
X0101311Y0137827D01*
X0101311Y0138416D02*
X0141139Y0138416D01*
X0141139Y0139005D02*
X0101311Y0139005D01*
X0100811Y0139594D02*
X0141139Y0139594D01*
X0141139Y0140184D02*
X0100222Y0140184D01*
X0099429Y0124279D02*
X0124247Y0124279D01*
X0123658Y0123690D02*
X0099429Y0123690D01*
X0099429Y0123101D02*
X0123069Y0123101D01*
X0122921Y0122512D02*
X0099429Y0122512D01*
X0099429Y0121923D02*
X0122921Y0121923D01*
X0122921Y0121334D02*
X0099429Y0121334D01*
X0099429Y0120744D02*
X0123236Y0120744D01*
X0123825Y0120155D02*
X0099429Y0120155D01*
X0122763Y0161700D02*
X0125192Y0160694D01*
X0127820Y0160694D01*
X0130249Y0161700D01*
X0132107Y0163559D01*
X0133113Y0165987D01*
X0133113Y0168615D01*
X0132107Y0171044D01*
X0130249Y0172902D01*
X0127820Y0173908D01*
X0125192Y0173908D01*
X0122763Y0172902D01*
X0120905Y0171044D01*
X0119899Y0168615D01*
X0119899Y0165987D01*
X0120905Y0163559D01*
X0122763Y0161700D01*
X0122484Y0161979D02*
X0041626Y0161979D01*
X0041037Y0162568D02*
X0121895Y0162568D01*
X0121306Y0163157D02*
X0040448Y0163157D01*
X0039859Y0163746D02*
X0120827Y0163746D01*
X0120583Y0164335D02*
X0039270Y0164335D01*
X0038681Y0164924D02*
X0120339Y0164924D01*
X0120095Y0165513D02*
X0038092Y0165513D01*
X0037503Y0166102D02*
X0119899Y0166102D01*
X0119899Y0166691D02*
X0036914Y0166691D01*
X0036325Y0167280D02*
X0119899Y0167280D01*
X0119899Y0167869D02*
X0035736Y0167869D01*
X0035147Y0168459D02*
X0119899Y0168459D01*
X0120078Y0169048D02*
X0034558Y0169048D01*
X0033969Y0169637D02*
X0120322Y0169637D01*
X0120566Y0170226D02*
X0033380Y0170226D01*
X0032790Y0170815D02*
X0120810Y0170815D01*
X0121265Y0171404D02*
X0032201Y0171404D01*
X0031612Y0171993D02*
X0121854Y0171993D01*
X0122443Y0172582D02*
X0031023Y0172582D01*
X0030434Y0173171D02*
X0123412Y0173171D01*
X0124834Y0173760D02*
X0029845Y0173760D01*
X0029256Y0174349D02*
X0130074Y0174349D01*
X0129485Y0174938D02*
X0028667Y0174938D01*
X0028241Y0175365D02*
X0028241Y0176496D01*
X0026902Y0177835D01*
X0025008Y0177835D01*
X0023669Y0176496D01*
X0023669Y0174602D01*
X0025008Y0173263D01*
X0026139Y0173263D01*
X0043268Y0156135D01*
X0044138Y0155264D01*
X0044621Y0155264D01*
X0045421Y0154464D01*
X0047315Y0154464D01*
X0048654Y0155803D01*
X0048654Y0157697D01*
X0047315Y0159036D01*
X0045421Y0159036D01*
X0044995Y0158610D01*
X0028241Y0175365D01*
X0028241Y0175527D02*
X0128896Y0175527D01*
X0128307Y0176116D02*
X0028241Y0176116D01*
X0028031Y0176705D02*
X0127718Y0176705D01*
X0127129Y0177294D02*
X0027442Y0177294D01*
X0026232Y0173171D02*
X0024069Y0173171D01*
X0024717Y0172902D02*
X0022289Y0173908D01*
X0019660Y0173908D01*
X0017232Y0172902D01*
X0015373Y0171044D01*
X0014367Y0168615D01*
X0014367Y0165987D01*
X0015373Y0163559D01*
X0017232Y0161700D01*
X0019660Y0160694D01*
X0022289Y0160694D01*
X0024717Y0161700D01*
X0026576Y0163559D01*
X0027581Y0165987D01*
X0027581Y0168615D01*
X0026576Y0171044D01*
X0024717Y0172902D01*
X0025037Y0172582D02*
X0026821Y0172582D01*
X0027410Y0171993D02*
X0025627Y0171993D01*
X0026216Y0171404D02*
X0027999Y0171404D01*
X0028588Y0170815D02*
X0026670Y0170815D01*
X0026915Y0170226D02*
X0029177Y0170226D01*
X0029766Y0169637D02*
X0027159Y0169637D01*
X0027402Y0169048D02*
X0030355Y0169048D01*
X0030944Y0168459D02*
X0027581Y0168459D01*
X0027581Y0167869D02*
X0031533Y0167869D01*
X0032122Y0167280D02*
X0027581Y0167280D01*
X0027581Y0166691D02*
X0032711Y0166691D01*
X0033300Y0166102D02*
X0027581Y0166102D01*
X0027385Y0165513D02*
X0033889Y0165513D01*
X0034479Y0164924D02*
X0027141Y0164924D01*
X0026897Y0164335D02*
X0035068Y0164335D01*
X0035657Y0163746D02*
X0026653Y0163746D01*
X0026174Y0163157D02*
X0036246Y0163157D01*
X0036835Y0162568D02*
X0025585Y0162568D01*
X0024996Y0161979D02*
X0037424Y0161979D01*
X0038013Y0161390D02*
X0023968Y0161390D01*
X0022546Y0160801D02*
X0038602Y0160801D01*
X0039191Y0160212D02*
X0014374Y0160212D01*
X0014205Y0160380D02*
X0014205Y0161929D01*
X0012866Y0163268D01*
X0010972Y0163268D01*
X0009633Y0161929D01*
X0009633Y0160036D01*
X0010972Y0158697D01*
X0012521Y0158697D01*
X0020284Y0150934D01*
X0049149Y0150934D01*
X0050244Y0149838D01*
X0052138Y0149838D01*
X0053477Y0151177D01*
X0053477Y0153071D01*
X0052138Y0154410D01*
X0050244Y0154410D01*
X0049149Y0153315D01*
X0021271Y0153315D01*
X0014205Y0160380D01*
X0014205Y0160801D02*
X0019403Y0160801D01*
X0017981Y0161390D02*
X0014205Y0161390D01*
X0014155Y0161979D02*
X0016953Y0161979D01*
X0016364Y0162568D02*
X0013566Y0162568D01*
X0012977Y0163157D02*
X0015775Y0163157D01*
X0015296Y0163746D02*
X0006783Y0163746D01*
X0006322Y0163157D02*
X0010861Y0163157D01*
X0010272Y0162568D02*
X0006322Y0162568D01*
X0006322Y0161979D02*
X0009683Y0161979D01*
X0009633Y0161390D02*
X0006322Y0161390D01*
X0006322Y0160801D02*
X0009633Y0160801D01*
X0009633Y0160212D02*
X0006322Y0160212D01*
X0006322Y0159623D02*
X0010046Y0159623D01*
X0010635Y0159034D02*
X0006322Y0159034D01*
X0006322Y0158444D02*
X0012773Y0158444D01*
X0013363Y0157855D02*
X0006322Y0157855D01*
X0006322Y0157266D02*
X0013952Y0157266D01*
X0014541Y0156677D02*
X0006322Y0156677D01*
X0006322Y0156088D02*
X0015130Y0156088D01*
X0015719Y0155499D02*
X0006322Y0155499D01*
X0006322Y0154910D02*
X0016308Y0154910D01*
X0016897Y0154321D02*
X0006322Y0154321D01*
X0006322Y0153732D02*
X0017486Y0153732D01*
X0018075Y0153143D02*
X0006322Y0153143D01*
X0006322Y0152554D02*
X0018664Y0152554D01*
X0019253Y0151965D02*
X0006322Y0151965D01*
X0006322Y0151376D02*
X0019842Y0151376D01*
X0020778Y0152124D02*
X0011919Y0160982D01*
X0014963Y0159623D02*
X0039780Y0159623D01*
X0040369Y0159034D02*
X0015552Y0159034D01*
X0016141Y0158444D02*
X0040958Y0158444D01*
X0041547Y0157855D02*
X0016730Y0157855D01*
X0017319Y0157266D02*
X0042136Y0157266D01*
X0042725Y0156677D02*
X0017908Y0156677D01*
X0018497Y0156088D02*
X0043314Y0156088D01*
X0043904Y0155499D02*
X0019086Y0155499D01*
X0019675Y0154910D02*
X0044975Y0154910D01*
X0047761Y0154910D02*
X0141139Y0154910D01*
X0141139Y0154321D02*
X0052227Y0154321D01*
X0052816Y0153732D02*
X0141139Y0153732D01*
X0141139Y0153143D02*
X0053405Y0153143D01*
X0053477Y0152554D02*
X0141139Y0152554D01*
X0141139Y0151965D02*
X0053477Y0151965D01*
X0053477Y0151376D02*
X0141139Y0151376D01*
X0141139Y0150787D02*
X0053086Y0150787D01*
X0052497Y0150198D02*
X0141139Y0150198D01*
X0141139Y0149609D02*
X0006322Y0149609D01*
X0006322Y0150198D02*
X0049885Y0150198D01*
X0049296Y0150787D02*
X0006322Y0150787D01*
X0006322Y0149019D02*
X0141139Y0149019D01*
X0141139Y0148430D02*
X0006322Y0148430D01*
X0006322Y0147841D02*
X0141139Y0147841D01*
X0141139Y0147252D02*
X0006322Y0147252D01*
X0007372Y0164335D02*
X0015052Y0164335D01*
X0014808Y0164924D02*
X0007961Y0164924D01*
X0008550Y0165513D02*
X0014564Y0165513D01*
X0014367Y0166102D02*
X0009139Y0166102D01*
X0009728Y0166691D02*
X0014367Y0166691D01*
X0014367Y0167280D02*
X0010317Y0167280D01*
X0010907Y0167869D02*
X0014367Y0167869D01*
X0014367Y0168459D02*
X0011496Y0168459D01*
X0012085Y0169048D02*
X0014546Y0169048D01*
X0014790Y0169637D02*
X0012674Y0169637D01*
X0013263Y0170226D02*
X0015034Y0170226D01*
X0015278Y0170815D02*
X0013852Y0170815D01*
X0014441Y0171404D02*
X0015733Y0171404D01*
X0016322Y0171993D02*
X0015030Y0171993D01*
X0015619Y0172582D02*
X0016911Y0172582D01*
X0016208Y0173171D02*
X0017880Y0173171D01*
X0016797Y0173760D02*
X0019302Y0173760D01*
X0017975Y0174938D02*
X0023669Y0174938D01*
X0023669Y0175527D02*
X0018564Y0175527D01*
X0019153Y0176116D02*
X0023669Y0176116D01*
X0023878Y0176705D02*
X0019743Y0176705D01*
X0020332Y0177294D02*
X0024467Y0177294D01*
X0022688Y0179651D02*
X0124773Y0179651D01*
X0124184Y0180240D02*
X0023277Y0180240D01*
X0023866Y0180829D02*
X0123595Y0180829D01*
X0123006Y0181418D02*
X0024455Y0181418D01*
X0025044Y0182007D02*
X0122417Y0182007D01*
X0121827Y0182596D02*
X0025633Y0182596D01*
X0026222Y0183185D02*
X0121238Y0183185D01*
X0120649Y0183774D02*
X0026811Y0183774D01*
X0027400Y0184363D02*
X0120060Y0184363D01*
X0119471Y0184952D02*
X0027989Y0184952D01*
X0028578Y0185541D02*
X0118882Y0185541D01*
X0118293Y0186130D02*
X0029168Y0186130D01*
X0029757Y0186719D02*
X0117704Y0186719D01*
X0117115Y0187309D02*
X0030346Y0187309D01*
X0030935Y0187898D02*
X0116526Y0187898D01*
X0115937Y0188487D02*
X0031524Y0188487D01*
X0032113Y0189076D02*
X0115348Y0189076D01*
X0114759Y0189665D02*
X0032702Y0189665D01*
X0033291Y0190254D02*
X0114170Y0190254D01*
X0113581Y0190843D02*
X0033880Y0190843D01*
X0034469Y0191432D02*
X0112991Y0191432D01*
X0112402Y0192021D02*
X0035058Y0192021D01*
X0035647Y0192610D02*
X0111813Y0192610D01*
X0111224Y0193199D02*
X0036236Y0193199D01*
X0036825Y0193788D02*
X0110635Y0193788D01*
X0110046Y0194377D02*
X0037414Y0194377D01*
X0038003Y0194966D02*
X0109457Y0194966D01*
X0108868Y0195555D02*
X0038593Y0195555D01*
X0023922Y0174349D02*
X0017386Y0174349D01*
X0020921Y0177884D02*
X0126540Y0177884D01*
X0125951Y0178473D02*
X0021510Y0178473D01*
X0022099Y0179062D02*
X0125362Y0179062D01*
X0128178Y0173760D02*
X0130663Y0173760D01*
X0131252Y0173171D02*
X0129600Y0173171D01*
X0130569Y0172582D02*
X0131842Y0172582D01*
X0132431Y0171993D02*
X0131158Y0171993D01*
X0131747Y0171404D02*
X0133020Y0171404D01*
X0133609Y0170815D02*
X0132202Y0170815D01*
X0132446Y0170226D02*
X0134198Y0170226D01*
X0134787Y0169637D02*
X0132690Y0169637D01*
X0132934Y0169048D02*
X0135376Y0169048D01*
X0135965Y0168459D02*
X0133113Y0168459D01*
X0133113Y0167869D02*
X0136554Y0167869D01*
X0137143Y0167280D02*
X0133113Y0167280D01*
X0133113Y0166691D02*
X0137732Y0166691D01*
X0138321Y0166102D02*
X0133113Y0166102D01*
X0132917Y0165513D02*
X0138910Y0165513D01*
X0139499Y0164924D02*
X0132673Y0164924D01*
X0132429Y0164335D02*
X0140088Y0164335D01*
X0140677Y0163746D02*
X0132185Y0163746D01*
X0131705Y0163157D02*
X0141139Y0163157D01*
X0141139Y0162568D02*
X0131116Y0162568D01*
X0130527Y0161979D02*
X0141139Y0161979D01*
X0141139Y0161390D02*
X0129500Y0161390D01*
X0128077Y0160801D02*
X0141139Y0160801D01*
X0141139Y0160212D02*
X0043394Y0160212D01*
X0043983Y0159623D02*
X0141139Y0159623D01*
X0141139Y0159034D02*
X0047317Y0159034D01*
X0047906Y0158444D02*
X0141139Y0158444D01*
X0141139Y0157855D02*
X0048495Y0157855D01*
X0048654Y0157266D02*
X0141139Y0157266D01*
X0141139Y0156677D02*
X0048654Y0156677D01*
X0048654Y0156088D02*
X0141139Y0156088D01*
X0141139Y0155499D02*
X0048350Y0155499D01*
X0049566Y0153732D02*
X0020853Y0153732D01*
X0020264Y0154321D02*
X0050155Y0154321D01*
X0051191Y0152124D02*
X0020778Y0152124D01*
X0022646Y0173760D02*
X0024511Y0173760D01*
X0042215Y0161390D02*
X0123512Y0161390D01*
X0124934Y0160801D02*
X0042805Y0160801D01*
X0044572Y0159034D02*
X0045419Y0159034D01*
D20*
X0044754Y0156750D02*
X0046368Y0156750D01*
X0044754Y0156750D02*
X0025955Y0175549D01*
X0063494Y0110392D02*
X0069695Y0110392D01*
X0077864Y0102223D01*
X0096171Y0102223D01*
X0108833Y0114884D01*
X0109163Y0114884D01*
D21*
X0086722Y0097990D02*
X0084124Y0100589D01*
X0076939Y0100589D01*
X0069577Y0107951D01*
X0062530Y0107951D01*
X0060837Y0109644D01*
X0060837Y0113541D01*
M02*
