%
M48
M72
T01C0.01181
T02C0.02362
T03C0.02800
T04C0.03200
T05C0.07874
T06C0.11024
%
T01
X54144Y91258
X64577Y93069
X70384Y99565
X73927Y99565
X80915Y110490
X81486Y116061
X83041Y135234
X89478Y137262
X94892Y138049
X99026Y138148
X102667Y128994
X115207Y134368
X114675Y141927
X125207Y122006
X125659Y111750
X114793Y102006
X106112Y100943
X102333Y94959
X86762Y90057
X63494Y110392
X60837Y113541
X61427Y116986
X51073Y128167
X49951Y148069
X51191Y152124
X46368Y156750
X52136Y162597
X43514Y149014
X31998Y148423
X31939Y155215
X32096Y163246
X28356Y163246
X25955Y175549
X24852Y179132
X11919Y160982
X7923Y162793
X20778Y146022
X7549Y139329
X8159Y120667
X23829Y124762
X25305Y111179
X33376Y101337
X72510Y140746
X43691Y177419
X43927Y189585
X44813Y194152
X58809Y193876
X72982Y193876
X87923Y194093
X102864Y194093
X114616Y187636
X126132Y176002
X131801Y160786
X139459Y161711
X139459Y141514
X139951Y120667
X115148Y162715
X103652Y168561
T02
X131998Y146711
X28947Y118660
T03
X86722Y113738
X86722Y105864
X86722Y97990
X94596Y97990
X94596Y105864
X94596Y113738
T04
X109163Y114884
X109163Y106884
T05
X73730Y162557
T06
X20974Y167301
X126506Y167301
M30
