G75*
%MOIN*%
%OFA0B0*%
%FSLAX25Y25*%
%IPPOS*%
%LPD*%
%AMOC8*
5,1,8,0,0,1.08239X$1,22.5*
%
%ADD10C,0.00000*%
D10*
X0037313Y0048654D02*
X0051223Y0042461D01*
X0066117Y0039295D01*
X0081344Y0039295D01*
X0096237Y0042461D01*
X0110148Y0048654D01*
X0122466Y0057604D01*
X0132655Y0068919D01*
X0133959Y0071179D01*
X0142234Y0071179D01*
X0142234Y0116849D01*
X0109163Y0149919D01*
X0038297Y0149919D01*
X0005226Y0116849D01*
X0005226Y0071179D01*
X0013501Y0071179D01*
X0014806Y0068919D01*
X0024994Y0057604D01*
X0037313Y0048654D01*
X0015462Y0120412D02*
X0015464Y0120560D01*
X0015470Y0120708D01*
X0015480Y0120856D01*
X0015494Y0121003D01*
X0015512Y0121150D01*
X0015533Y0121296D01*
X0015559Y0121442D01*
X0015589Y0121587D01*
X0015622Y0121731D01*
X0015660Y0121874D01*
X0015701Y0122016D01*
X0015746Y0122157D01*
X0015794Y0122297D01*
X0015847Y0122436D01*
X0015903Y0122573D01*
X0015963Y0122708D01*
X0016026Y0122842D01*
X0016093Y0122974D01*
X0016164Y0123104D01*
X0016238Y0123232D01*
X0016315Y0123358D01*
X0016396Y0123482D01*
X0016480Y0123604D01*
X0016567Y0123723D01*
X0016658Y0123840D01*
X0016752Y0123955D01*
X0016848Y0124067D01*
X0016948Y0124177D01*
X0017050Y0124283D01*
X0017156Y0124387D01*
X0017264Y0124488D01*
X0017375Y0124586D01*
X0017488Y0124682D01*
X0017604Y0124774D01*
X0017722Y0124863D01*
X0017843Y0124948D01*
X0017966Y0125031D01*
X0018091Y0125110D01*
X0018218Y0125186D01*
X0018347Y0125258D01*
X0018478Y0125327D01*
X0018611Y0125392D01*
X0018746Y0125453D01*
X0018882Y0125511D01*
X0019019Y0125566D01*
X0019158Y0125616D01*
X0019299Y0125663D01*
X0019440Y0125706D01*
X0019583Y0125746D01*
X0019727Y0125781D01*
X0019871Y0125813D01*
X0020017Y0125840D01*
X0020163Y0125864D01*
X0020310Y0125884D01*
X0020457Y0125900D01*
X0020604Y0125912D01*
X0020752Y0125920D01*
X0020900Y0125924D01*
X0021048Y0125924D01*
X0021196Y0125920D01*
X0021344Y0125912D01*
X0021491Y0125900D01*
X0021638Y0125884D01*
X0021785Y0125864D01*
X0021931Y0125840D01*
X0022077Y0125813D01*
X0022221Y0125781D01*
X0022365Y0125746D01*
X0022508Y0125706D01*
X0022649Y0125663D01*
X0022790Y0125616D01*
X0022929Y0125566D01*
X0023066Y0125511D01*
X0023202Y0125453D01*
X0023337Y0125392D01*
X0023470Y0125327D01*
X0023601Y0125258D01*
X0023730Y0125186D01*
X0023857Y0125110D01*
X0023982Y0125031D01*
X0024105Y0124948D01*
X0024226Y0124863D01*
X0024344Y0124774D01*
X0024460Y0124682D01*
X0024573Y0124586D01*
X0024684Y0124488D01*
X0024792Y0124387D01*
X0024898Y0124283D01*
X0025000Y0124177D01*
X0025100Y0124067D01*
X0025196Y0123955D01*
X0025290Y0123840D01*
X0025381Y0123723D01*
X0025468Y0123604D01*
X0025552Y0123482D01*
X0025633Y0123358D01*
X0025710Y0123232D01*
X0025784Y0123104D01*
X0025855Y0122974D01*
X0025922Y0122842D01*
X0025985Y0122708D01*
X0026045Y0122573D01*
X0026101Y0122436D01*
X0026154Y0122297D01*
X0026202Y0122157D01*
X0026247Y0122016D01*
X0026288Y0121874D01*
X0026326Y0121731D01*
X0026359Y0121587D01*
X0026389Y0121442D01*
X0026415Y0121296D01*
X0026436Y0121150D01*
X0026454Y0121003D01*
X0026468Y0120856D01*
X0026478Y0120708D01*
X0026484Y0120560D01*
X0026486Y0120412D01*
X0026484Y0120264D01*
X0026478Y0120116D01*
X0026468Y0119968D01*
X0026454Y0119821D01*
X0026436Y0119674D01*
X0026415Y0119528D01*
X0026389Y0119382D01*
X0026359Y0119237D01*
X0026326Y0119093D01*
X0026288Y0118950D01*
X0026247Y0118808D01*
X0026202Y0118667D01*
X0026154Y0118527D01*
X0026101Y0118388D01*
X0026045Y0118251D01*
X0025985Y0118116D01*
X0025922Y0117982D01*
X0025855Y0117850D01*
X0025784Y0117720D01*
X0025710Y0117592D01*
X0025633Y0117466D01*
X0025552Y0117342D01*
X0025468Y0117220D01*
X0025381Y0117101D01*
X0025290Y0116984D01*
X0025196Y0116869D01*
X0025100Y0116757D01*
X0025000Y0116647D01*
X0024898Y0116541D01*
X0024792Y0116437D01*
X0024684Y0116336D01*
X0024573Y0116238D01*
X0024460Y0116142D01*
X0024344Y0116050D01*
X0024226Y0115961D01*
X0024105Y0115876D01*
X0023982Y0115793D01*
X0023857Y0115714D01*
X0023730Y0115638D01*
X0023601Y0115566D01*
X0023470Y0115497D01*
X0023337Y0115432D01*
X0023202Y0115371D01*
X0023066Y0115313D01*
X0022929Y0115258D01*
X0022790Y0115208D01*
X0022649Y0115161D01*
X0022508Y0115118D01*
X0022365Y0115078D01*
X0022221Y0115043D01*
X0022077Y0115011D01*
X0021931Y0114984D01*
X0021785Y0114960D01*
X0021638Y0114940D01*
X0021491Y0114924D01*
X0021344Y0114912D01*
X0021196Y0114904D01*
X0021048Y0114900D01*
X0020900Y0114900D01*
X0020752Y0114904D01*
X0020604Y0114912D01*
X0020457Y0114924D01*
X0020310Y0114940D01*
X0020163Y0114960D01*
X0020017Y0114984D01*
X0019871Y0115011D01*
X0019727Y0115043D01*
X0019583Y0115078D01*
X0019440Y0115118D01*
X0019299Y0115161D01*
X0019158Y0115208D01*
X0019019Y0115258D01*
X0018882Y0115313D01*
X0018746Y0115371D01*
X0018611Y0115432D01*
X0018478Y0115497D01*
X0018347Y0115566D01*
X0018218Y0115638D01*
X0018091Y0115714D01*
X0017966Y0115793D01*
X0017843Y0115876D01*
X0017722Y0115961D01*
X0017604Y0116050D01*
X0017488Y0116142D01*
X0017375Y0116238D01*
X0017264Y0116336D01*
X0017156Y0116437D01*
X0017050Y0116541D01*
X0016948Y0116647D01*
X0016848Y0116757D01*
X0016752Y0116869D01*
X0016658Y0116984D01*
X0016567Y0117101D01*
X0016480Y0117220D01*
X0016396Y0117342D01*
X0016315Y0117466D01*
X0016238Y0117592D01*
X0016164Y0117720D01*
X0016093Y0117850D01*
X0016026Y0117982D01*
X0015963Y0118116D01*
X0015903Y0118251D01*
X0015847Y0118388D01*
X0015794Y0118527D01*
X0015746Y0118667D01*
X0015701Y0118808D01*
X0015660Y0118950D01*
X0015622Y0119093D01*
X0015589Y0119237D01*
X0015559Y0119382D01*
X0015533Y0119528D01*
X0015512Y0119674D01*
X0015494Y0119821D01*
X0015480Y0119968D01*
X0015470Y0120116D01*
X0015464Y0120264D01*
X0015462Y0120412D01*
X0038612Y0150628D02*
X0108691Y0150628D01*
X0120994Y0120412D02*
X0120996Y0120560D01*
X0121002Y0120708D01*
X0121012Y0120856D01*
X0121026Y0121003D01*
X0121044Y0121150D01*
X0121065Y0121296D01*
X0121091Y0121442D01*
X0121121Y0121587D01*
X0121154Y0121731D01*
X0121192Y0121874D01*
X0121233Y0122016D01*
X0121278Y0122157D01*
X0121326Y0122297D01*
X0121379Y0122436D01*
X0121435Y0122573D01*
X0121495Y0122708D01*
X0121558Y0122842D01*
X0121625Y0122974D01*
X0121696Y0123104D01*
X0121770Y0123232D01*
X0121847Y0123358D01*
X0121928Y0123482D01*
X0122012Y0123604D01*
X0122099Y0123723D01*
X0122190Y0123840D01*
X0122284Y0123955D01*
X0122380Y0124067D01*
X0122480Y0124177D01*
X0122582Y0124283D01*
X0122688Y0124387D01*
X0122796Y0124488D01*
X0122907Y0124586D01*
X0123020Y0124682D01*
X0123136Y0124774D01*
X0123254Y0124863D01*
X0123375Y0124948D01*
X0123498Y0125031D01*
X0123623Y0125110D01*
X0123750Y0125186D01*
X0123879Y0125258D01*
X0124010Y0125327D01*
X0124143Y0125392D01*
X0124278Y0125453D01*
X0124414Y0125511D01*
X0124551Y0125566D01*
X0124690Y0125616D01*
X0124831Y0125663D01*
X0124972Y0125706D01*
X0125115Y0125746D01*
X0125259Y0125781D01*
X0125403Y0125813D01*
X0125549Y0125840D01*
X0125695Y0125864D01*
X0125842Y0125884D01*
X0125989Y0125900D01*
X0126136Y0125912D01*
X0126284Y0125920D01*
X0126432Y0125924D01*
X0126580Y0125924D01*
X0126728Y0125920D01*
X0126876Y0125912D01*
X0127023Y0125900D01*
X0127170Y0125884D01*
X0127317Y0125864D01*
X0127463Y0125840D01*
X0127609Y0125813D01*
X0127753Y0125781D01*
X0127897Y0125746D01*
X0128040Y0125706D01*
X0128181Y0125663D01*
X0128322Y0125616D01*
X0128461Y0125566D01*
X0128598Y0125511D01*
X0128734Y0125453D01*
X0128869Y0125392D01*
X0129002Y0125327D01*
X0129133Y0125258D01*
X0129262Y0125186D01*
X0129389Y0125110D01*
X0129514Y0125031D01*
X0129637Y0124948D01*
X0129758Y0124863D01*
X0129876Y0124774D01*
X0129992Y0124682D01*
X0130105Y0124586D01*
X0130216Y0124488D01*
X0130324Y0124387D01*
X0130430Y0124283D01*
X0130532Y0124177D01*
X0130632Y0124067D01*
X0130728Y0123955D01*
X0130822Y0123840D01*
X0130913Y0123723D01*
X0131000Y0123604D01*
X0131084Y0123482D01*
X0131165Y0123358D01*
X0131242Y0123232D01*
X0131316Y0123104D01*
X0131387Y0122974D01*
X0131454Y0122842D01*
X0131517Y0122708D01*
X0131577Y0122573D01*
X0131633Y0122436D01*
X0131686Y0122297D01*
X0131734Y0122157D01*
X0131779Y0122016D01*
X0131820Y0121874D01*
X0131858Y0121731D01*
X0131891Y0121587D01*
X0131921Y0121442D01*
X0131947Y0121296D01*
X0131968Y0121150D01*
X0131986Y0121003D01*
X0132000Y0120856D01*
X0132010Y0120708D01*
X0132016Y0120560D01*
X0132018Y0120412D01*
X0132016Y0120264D01*
X0132010Y0120116D01*
X0132000Y0119968D01*
X0131986Y0119821D01*
X0131968Y0119674D01*
X0131947Y0119528D01*
X0131921Y0119382D01*
X0131891Y0119237D01*
X0131858Y0119093D01*
X0131820Y0118950D01*
X0131779Y0118808D01*
X0131734Y0118667D01*
X0131686Y0118527D01*
X0131633Y0118388D01*
X0131577Y0118251D01*
X0131517Y0118116D01*
X0131454Y0117982D01*
X0131387Y0117850D01*
X0131316Y0117720D01*
X0131242Y0117592D01*
X0131165Y0117466D01*
X0131084Y0117342D01*
X0131000Y0117220D01*
X0130913Y0117101D01*
X0130822Y0116984D01*
X0130728Y0116869D01*
X0130632Y0116757D01*
X0130532Y0116647D01*
X0130430Y0116541D01*
X0130324Y0116437D01*
X0130216Y0116336D01*
X0130105Y0116238D01*
X0129992Y0116142D01*
X0129876Y0116050D01*
X0129758Y0115961D01*
X0129637Y0115876D01*
X0129514Y0115793D01*
X0129389Y0115714D01*
X0129262Y0115638D01*
X0129133Y0115566D01*
X0129002Y0115497D01*
X0128869Y0115432D01*
X0128734Y0115371D01*
X0128598Y0115313D01*
X0128461Y0115258D01*
X0128322Y0115208D01*
X0128181Y0115161D01*
X0128040Y0115118D01*
X0127897Y0115078D01*
X0127753Y0115043D01*
X0127609Y0115011D01*
X0127463Y0114984D01*
X0127317Y0114960D01*
X0127170Y0114940D01*
X0127023Y0114924D01*
X0126876Y0114912D01*
X0126728Y0114904D01*
X0126580Y0114900D01*
X0126432Y0114900D01*
X0126284Y0114904D01*
X0126136Y0114912D01*
X0125989Y0114924D01*
X0125842Y0114940D01*
X0125695Y0114960D01*
X0125549Y0114984D01*
X0125403Y0115011D01*
X0125259Y0115043D01*
X0125115Y0115078D01*
X0124972Y0115118D01*
X0124831Y0115161D01*
X0124690Y0115208D01*
X0124551Y0115258D01*
X0124414Y0115313D01*
X0124278Y0115371D01*
X0124143Y0115432D01*
X0124010Y0115497D01*
X0123879Y0115566D01*
X0123750Y0115638D01*
X0123623Y0115714D01*
X0123498Y0115793D01*
X0123375Y0115876D01*
X0123254Y0115961D01*
X0123136Y0116050D01*
X0123020Y0116142D01*
X0122907Y0116238D01*
X0122796Y0116336D01*
X0122688Y0116437D01*
X0122582Y0116541D01*
X0122480Y0116647D01*
X0122380Y0116757D01*
X0122284Y0116869D01*
X0122190Y0116984D01*
X0122099Y0117101D01*
X0122012Y0117220D01*
X0121928Y0117342D01*
X0121847Y0117466D01*
X0121770Y0117592D01*
X0121696Y0117720D01*
X0121625Y0117850D01*
X0121558Y0117982D01*
X0121495Y0118116D01*
X0121435Y0118251D01*
X0121379Y0118388D01*
X0121326Y0118527D01*
X0121278Y0118667D01*
X0121233Y0118808D01*
X0121192Y0118950D01*
X0121154Y0119093D01*
X0121121Y0119237D01*
X0121091Y0119382D01*
X0121065Y0119528D01*
X0121044Y0119674D01*
X0121026Y0119821D01*
X0121012Y0119968D01*
X0121002Y0120116D01*
X0120996Y0120264D01*
X0120994Y0120412D01*
M02*
