%
M48
M72
T01C0.01181
T02C0.02362
T03C0.02800
T04C0.07874
T05C0.11024
%
T01
X33770Y55431
X26093Y65274
X25994Y76494
X8159Y73778
X7549Y92439
X20778Y99132
X31998Y101534
X31939Y108325
X32096Y116356
X28356Y116356
X26053Y128660
X24852Y132242
X11919Y114093
X7923Y115904
X43514Y102124
X49951Y101179
X51191Y105234
X46368Y109860
X52136Y115707
X43691Y130530
X43927Y142695
X44813Y147262
X58809Y146986
X72982Y146986
X87923Y147203
X102864Y147203
X114616Y140746
X126132Y129112
X115148Y115825
X103652Y121671
X114675Y95037
X115207Y87478
X102667Y82104
X99026Y91258
X94892Y91160
X89478Y90372
X83041Y88345
X72510Y93856
X81486Y69171
X80915Y63600
X73927Y52675
X70384Y52675
X64577Y46179
X54144Y44368
X63494Y63502
X59360Y63600
X51289Y69703
X51073Y81278
X86762Y43167
X102333Y48069
X106112Y54053
X114793Y55116
X125659Y64860
X115758Y70392
X100994Y64486
X131801Y110943
X139459Y114821
X139459Y94624
X139951Y73778
T02
X131998Y96868
X31703Y70490
T03
X86722Y66061
X86722Y58187
X86722Y50313
X94596Y50313
X94596Y58187
X94596Y66061
T04
X73730Y115667
T05
X20974Y120412
X126506Y120412
M30
