G75*
%MOIN*%
%OFA0B0*%
%FSLAX25Y25*%
%IPPOS*%
%LPD*%
%AMOC8*
5,1,8,0,0,1.08239X$1,22.5*
%
%ADD10C,0.00000*%
%ADD11R,0.02559X0.02559*%
%ADD12R,0.05709X0.04528*%
%ADD13R,0.03543X0.03740*%
%ADD14R,0.01181X0.02953*%
%ADD15R,0.05748X0.05354*%
%ADD16R,0.02362X0.02362*%
%ADD17C,0.05000*%
%ADD18C,0.10000*%
%ADD19R,0.02400X0.06000*%
%ADD20R,0.05906X0.03543*%
%ADD21R,0.03543X0.05906*%
%ADD22R,0.23622X0.23622*%
%ADD23R,0.04800X0.04800*%
%ADD24C,0.04800*%
%ADD25R,0.16535X0.05906*%
%ADD26OC8,0.05200*%
%ADD27C,0.05200*%
%ADD28R,0.06693X0.04331*%
%ADD29C,0.00591*%
%ADD30C,0.01575*%
%ADD31C,0.01181*%
%ADD32C,0.11811*%
%ADD33C,0.03150*%
%ADD34C,0.02781*%
%ADD35C,0.03962*%
%ADD36C,0.04000*%
%ADD37C,0.01969*%
%ADD38C,0.05000*%
D10*
X0037313Y0095543D02*
X0051223Y0089350D01*
X0066117Y0086184D01*
X0081344Y0086184D01*
X0096237Y0089350D01*
X0110148Y0095543D01*
X0122466Y0104493D01*
X0132655Y0115809D01*
X0133959Y0118069D01*
X0142234Y0118069D01*
X0142234Y0163738D01*
X0109163Y0196809D01*
X0038297Y0196809D01*
X0005226Y0163738D01*
X0005226Y0118069D01*
X0013501Y0118069D01*
X0014806Y0115809D01*
X0024994Y0104493D01*
X0037313Y0095543D01*
X0015462Y0167301D02*
X0015464Y0167449D01*
X0015470Y0167597D01*
X0015480Y0167745D01*
X0015494Y0167892D01*
X0015512Y0168039D01*
X0015533Y0168185D01*
X0015559Y0168331D01*
X0015589Y0168476D01*
X0015622Y0168620D01*
X0015660Y0168763D01*
X0015701Y0168905D01*
X0015746Y0169046D01*
X0015794Y0169186D01*
X0015847Y0169325D01*
X0015903Y0169462D01*
X0015963Y0169597D01*
X0016026Y0169731D01*
X0016093Y0169863D01*
X0016164Y0169993D01*
X0016238Y0170121D01*
X0016315Y0170247D01*
X0016396Y0170371D01*
X0016480Y0170493D01*
X0016567Y0170612D01*
X0016658Y0170729D01*
X0016752Y0170844D01*
X0016848Y0170956D01*
X0016948Y0171066D01*
X0017050Y0171172D01*
X0017156Y0171276D01*
X0017264Y0171377D01*
X0017375Y0171475D01*
X0017488Y0171571D01*
X0017604Y0171663D01*
X0017722Y0171752D01*
X0017843Y0171837D01*
X0017966Y0171920D01*
X0018091Y0171999D01*
X0018218Y0172075D01*
X0018347Y0172147D01*
X0018478Y0172216D01*
X0018611Y0172281D01*
X0018746Y0172342D01*
X0018882Y0172400D01*
X0019019Y0172455D01*
X0019158Y0172505D01*
X0019299Y0172552D01*
X0019440Y0172595D01*
X0019583Y0172635D01*
X0019727Y0172670D01*
X0019871Y0172702D01*
X0020017Y0172729D01*
X0020163Y0172753D01*
X0020310Y0172773D01*
X0020457Y0172789D01*
X0020604Y0172801D01*
X0020752Y0172809D01*
X0020900Y0172813D01*
X0021048Y0172813D01*
X0021196Y0172809D01*
X0021344Y0172801D01*
X0021491Y0172789D01*
X0021638Y0172773D01*
X0021785Y0172753D01*
X0021931Y0172729D01*
X0022077Y0172702D01*
X0022221Y0172670D01*
X0022365Y0172635D01*
X0022508Y0172595D01*
X0022649Y0172552D01*
X0022790Y0172505D01*
X0022929Y0172455D01*
X0023066Y0172400D01*
X0023202Y0172342D01*
X0023337Y0172281D01*
X0023470Y0172216D01*
X0023601Y0172147D01*
X0023730Y0172075D01*
X0023857Y0171999D01*
X0023982Y0171920D01*
X0024105Y0171837D01*
X0024226Y0171752D01*
X0024344Y0171663D01*
X0024460Y0171571D01*
X0024573Y0171475D01*
X0024684Y0171377D01*
X0024792Y0171276D01*
X0024898Y0171172D01*
X0025000Y0171066D01*
X0025100Y0170956D01*
X0025196Y0170844D01*
X0025290Y0170729D01*
X0025381Y0170612D01*
X0025468Y0170493D01*
X0025552Y0170371D01*
X0025633Y0170247D01*
X0025710Y0170121D01*
X0025784Y0169993D01*
X0025855Y0169863D01*
X0025922Y0169731D01*
X0025985Y0169597D01*
X0026045Y0169462D01*
X0026101Y0169325D01*
X0026154Y0169186D01*
X0026202Y0169046D01*
X0026247Y0168905D01*
X0026288Y0168763D01*
X0026326Y0168620D01*
X0026359Y0168476D01*
X0026389Y0168331D01*
X0026415Y0168185D01*
X0026436Y0168039D01*
X0026454Y0167892D01*
X0026468Y0167745D01*
X0026478Y0167597D01*
X0026484Y0167449D01*
X0026486Y0167301D01*
X0026484Y0167153D01*
X0026478Y0167005D01*
X0026468Y0166857D01*
X0026454Y0166710D01*
X0026436Y0166563D01*
X0026415Y0166417D01*
X0026389Y0166271D01*
X0026359Y0166126D01*
X0026326Y0165982D01*
X0026288Y0165839D01*
X0026247Y0165697D01*
X0026202Y0165556D01*
X0026154Y0165416D01*
X0026101Y0165277D01*
X0026045Y0165140D01*
X0025985Y0165005D01*
X0025922Y0164871D01*
X0025855Y0164739D01*
X0025784Y0164609D01*
X0025710Y0164481D01*
X0025633Y0164355D01*
X0025552Y0164231D01*
X0025468Y0164109D01*
X0025381Y0163990D01*
X0025290Y0163873D01*
X0025196Y0163758D01*
X0025100Y0163646D01*
X0025000Y0163536D01*
X0024898Y0163430D01*
X0024792Y0163326D01*
X0024684Y0163225D01*
X0024573Y0163127D01*
X0024460Y0163031D01*
X0024344Y0162939D01*
X0024226Y0162850D01*
X0024105Y0162765D01*
X0023982Y0162682D01*
X0023857Y0162603D01*
X0023730Y0162527D01*
X0023601Y0162455D01*
X0023470Y0162386D01*
X0023337Y0162321D01*
X0023202Y0162260D01*
X0023066Y0162202D01*
X0022929Y0162147D01*
X0022790Y0162097D01*
X0022649Y0162050D01*
X0022508Y0162007D01*
X0022365Y0161967D01*
X0022221Y0161932D01*
X0022077Y0161900D01*
X0021931Y0161873D01*
X0021785Y0161849D01*
X0021638Y0161829D01*
X0021491Y0161813D01*
X0021344Y0161801D01*
X0021196Y0161793D01*
X0021048Y0161789D01*
X0020900Y0161789D01*
X0020752Y0161793D01*
X0020604Y0161801D01*
X0020457Y0161813D01*
X0020310Y0161829D01*
X0020163Y0161849D01*
X0020017Y0161873D01*
X0019871Y0161900D01*
X0019727Y0161932D01*
X0019583Y0161967D01*
X0019440Y0162007D01*
X0019299Y0162050D01*
X0019158Y0162097D01*
X0019019Y0162147D01*
X0018882Y0162202D01*
X0018746Y0162260D01*
X0018611Y0162321D01*
X0018478Y0162386D01*
X0018347Y0162455D01*
X0018218Y0162527D01*
X0018091Y0162603D01*
X0017966Y0162682D01*
X0017843Y0162765D01*
X0017722Y0162850D01*
X0017604Y0162939D01*
X0017488Y0163031D01*
X0017375Y0163127D01*
X0017264Y0163225D01*
X0017156Y0163326D01*
X0017050Y0163430D01*
X0016948Y0163536D01*
X0016848Y0163646D01*
X0016752Y0163758D01*
X0016658Y0163873D01*
X0016567Y0163990D01*
X0016480Y0164109D01*
X0016396Y0164231D01*
X0016315Y0164355D01*
X0016238Y0164481D01*
X0016164Y0164609D01*
X0016093Y0164739D01*
X0016026Y0164871D01*
X0015963Y0165005D01*
X0015903Y0165140D01*
X0015847Y0165277D01*
X0015794Y0165416D01*
X0015746Y0165556D01*
X0015701Y0165697D01*
X0015660Y0165839D01*
X0015622Y0165982D01*
X0015589Y0166126D01*
X0015559Y0166271D01*
X0015533Y0166417D01*
X0015512Y0166563D01*
X0015494Y0166710D01*
X0015480Y0166857D01*
X0015470Y0167005D01*
X0015464Y0167153D01*
X0015462Y0167301D01*
X0038612Y0197518D02*
X0108691Y0197518D01*
X0120994Y0167301D02*
X0120996Y0167449D01*
X0121002Y0167597D01*
X0121012Y0167745D01*
X0121026Y0167892D01*
X0121044Y0168039D01*
X0121065Y0168185D01*
X0121091Y0168331D01*
X0121121Y0168476D01*
X0121154Y0168620D01*
X0121192Y0168763D01*
X0121233Y0168905D01*
X0121278Y0169046D01*
X0121326Y0169186D01*
X0121379Y0169325D01*
X0121435Y0169462D01*
X0121495Y0169597D01*
X0121558Y0169731D01*
X0121625Y0169863D01*
X0121696Y0169993D01*
X0121770Y0170121D01*
X0121847Y0170247D01*
X0121928Y0170371D01*
X0122012Y0170493D01*
X0122099Y0170612D01*
X0122190Y0170729D01*
X0122284Y0170844D01*
X0122380Y0170956D01*
X0122480Y0171066D01*
X0122582Y0171172D01*
X0122688Y0171276D01*
X0122796Y0171377D01*
X0122907Y0171475D01*
X0123020Y0171571D01*
X0123136Y0171663D01*
X0123254Y0171752D01*
X0123375Y0171837D01*
X0123498Y0171920D01*
X0123623Y0171999D01*
X0123750Y0172075D01*
X0123879Y0172147D01*
X0124010Y0172216D01*
X0124143Y0172281D01*
X0124278Y0172342D01*
X0124414Y0172400D01*
X0124551Y0172455D01*
X0124690Y0172505D01*
X0124831Y0172552D01*
X0124972Y0172595D01*
X0125115Y0172635D01*
X0125259Y0172670D01*
X0125403Y0172702D01*
X0125549Y0172729D01*
X0125695Y0172753D01*
X0125842Y0172773D01*
X0125989Y0172789D01*
X0126136Y0172801D01*
X0126284Y0172809D01*
X0126432Y0172813D01*
X0126580Y0172813D01*
X0126728Y0172809D01*
X0126876Y0172801D01*
X0127023Y0172789D01*
X0127170Y0172773D01*
X0127317Y0172753D01*
X0127463Y0172729D01*
X0127609Y0172702D01*
X0127753Y0172670D01*
X0127897Y0172635D01*
X0128040Y0172595D01*
X0128181Y0172552D01*
X0128322Y0172505D01*
X0128461Y0172455D01*
X0128598Y0172400D01*
X0128734Y0172342D01*
X0128869Y0172281D01*
X0129002Y0172216D01*
X0129133Y0172147D01*
X0129262Y0172075D01*
X0129389Y0171999D01*
X0129514Y0171920D01*
X0129637Y0171837D01*
X0129758Y0171752D01*
X0129876Y0171663D01*
X0129992Y0171571D01*
X0130105Y0171475D01*
X0130216Y0171377D01*
X0130324Y0171276D01*
X0130430Y0171172D01*
X0130532Y0171066D01*
X0130632Y0170956D01*
X0130728Y0170844D01*
X0130822Y0170729D01*
X0130913Y0170612D01*
X0131000Y0170493D01*
X0131084Y0170371D01*
X0131165Y0170247D01*
X0131242Y0170121D01*
X0131316Y0169993D01*
X0131387Y0169863D01*
X0131454Y0169731D01*
X0131517Y0169597D01*
X0131577Y0169462D01*
X0131633Y0169325D01*
X0131686Y0169186D01*
X0131734Y0169046D01*
X0131779Y0168905D01*
X0131820Y0168763D01*
X0131858Y0168620D01*
X0131891Y0168476D01*
X0131921Y0168331D01*
X0131947Y0168185D01*
X0131968Y0168039D01*
X0131986Y0167892D01*
X0132000Y0167745D01*
X0132010Y0167597D01*
X0132016Y0167449D01*
X0132018Y0167301D01*
X0132016Y0167153D01*
X0132010Y0167005D01*
X0132000Y0166857D01*
X0131986Y0166710D01*
X0131968Y0166563D01*
X0131947Y0166417D01*
X0131921Y0166271D01*
X0131891Y0166126D01*
X0131858Y0165982D01*
X0131820Y0165839D01*
X0131779Y0165697D01*
X0131734Y0165556D01*
X0131686Y0165416D01*
X0131633Y0165277D01*
X0131577Y0165140D01*
X0131517Y0165005D01*
X0131454Y0164871D01*
X0131387Y0164739D01*
X0131316Y0164609D01*
X0131242Y0164481D01*
X0131165Y0164355D01*
X0131084Y0164231D01*
X0131000Y0164109D01*
X0130913Y0163990D01*
X0130822Y0163873D01*
X0130728Y0163758D01*
X0130632Y0163646D01*
X0130532Y0163536D01*
X0130430Y0163430D01*
X0130324Y0163326D01*
X0130216Y0163225D01*
X0130105Y0163127D01*
X0129992Y0163031D01*
X0129876Y0162939D01*
X0129758Y0162850D01*
X0129637Y0162765D01*
X0129514Y0162682D01*
X0129389Y0162603D01*
X0129262Y0162527D01*
X0129133Y0162455D01*
X0129002Y0162386D01*
X0128869Y0162321D01*
X0128734Y0162260D01*
X0128598Y0162202D01*
X0128461Y0162147D01*
X0128322Y0162097D01*
X0128181Y0162050D01*
X0128040Y0162007D01*
X0127897Y0161967D01*
X0127753Y0161932D01*
X0127609Y0161900D01*
X0127463Y0161873D01*
X0127317Y0161849D01*
X0127170Y0161829D01*
X0127023Y0161813D01*
X0126876Y0161801D01*
X0126728Y0161793D01*
X0126580Y0161789D01*
X0126432Y0161789D01*
X0126284Y0161793D01*
X0126136Y0161801D01*
X0125989Y0161813D01*
X0125842Y0161829D01*
X0125695Y0161849D01*
X0125549Y0161873D01*
X0125403Y0161900D01*
X0125259Y0161932D01*
X0125115Y0161967D01*
X0124972Y0162007D01*
X0124831Y0162050D01*
X0124690Y0162097D01*
X0124551Y0162147D01*
X0124414Y0162202D01*
X0124278Y0162260D01*
X0124143Y0162321D01*
X0124010Y0162386D01*
X0123879Y0162455D01*
X0123750Y0162527D01*
X0123623Y0162603D01*
X0123498Y0162682D01*
X0123375Y0162765D01*
X0123254Y0162850D01*
X0123136Y0162939D01*
X0123020Y0163031D01*
X0122907Y0163127D01*
X0122796Y0163225D01*
X0122688Y0163326D01*
X0122582Y0163430D01*
X0122480Y0163536D01*
X0122380Y0163646D01*
X0122284Y0163758D01*
X0122190Y0163873D01*
X0122099Y0163990D01*
X0122012Y0164109D01*
X0121928Y0164231D01*
X0121847Y0164355D01*
X0121770Y0164481D01*
X0121696Y0164609D01*
X0121625Y0164739D01*
X0121558Y0164871D01*
X0121495Y0165005D01*
X0121435Y0165140D01*
X0121379Y0165277D01*
X0121326Y0165416D01*
X0121278Y0165556D01*
X0121233Y0165697D01*
X0121192Y0165839D01*
X0121154Y0165982D01*
X0121121Y0166126D01*
X0121091Y0166271D01*
X0121065Y0166417D01*
X0121044Y0166563D01*
X0121026Y0166710D01*
X0121012Y0166857D01*
X0121002Y0167005D01*
X0120996Y0167153D01*
X0120994Y0167301D01*
D11*
X0074026Y0089723D03*
X0070482Y0089723D03*
X0032707Y0180746D03*
X0029163Y0180746D03*
D12*
X0030856Y0175077D03*
X0030856Y0167990D03*
X0037943Y0112557D03*
X0037943Y0105471D03*
X0063533Y0105313D03*
X0063533Y0098226D03*
D13*
X0070463Y0110510D03*
X0076762Y0110510D03*
D14*
X0075108Y0105471D03*
X0073140Y0105471D03*
X0071171Y0105471D03*
X0069203Y0105471D03*
X0069203Y0093660D03*
X0071171Y0093660D03*
X0073140Y0093660D03*
X0075108Y0093660D03*
D15*
X0072156Y0099565D03*
D16*
X0080305Y0098030D03*
X0080305Y0101573D03*
X0077470Y0115608D03*
X0073927Y0115608D03*
X0069990Y0115608D03*
X0066447Y0115608D03*
X0101781Y0114821D03*
X0101781Y0118364D03*
X0116959Y0152439D03*
X0116959Y0155982D03*
X0015423Y0157163D03*
X0011880Y0157163D03*
D17*
X0018770Y0130549D03*
X0039321Y0118974D03*
X0115522Y0167833D03*
X0115522Y0175392D03*
X0115522Y0182833D03*
X0129636Y0133226D03*
D18*
X0125187Y0121986D03*
X0028907Y0118640D03*
D19*
X0026250Y0130537D03*
X0021250Y0130537D03*
X0016250Y0130537D03*
X0011250Y0130537D03*
X0011250Y0152137D03*
X0016250Y0152137D03*
X0021250Y0152137D03*
X0026250Y0152137D03*
X0121998Y0155050D03*
X0126998Y0155050D03*
X0131998Y0155050D03*
X0136998Y0155050D03*
X0136998Y0133450D03*
X0131998Y0133450D03*
X0126998Y0133450D03*
X0121998Y0133450D03*
D20*
X0109163Y0132872D03*
X0109163Y0127872D03*
X0109163Y0137872D03*
X0109163Y0142872D03*
X0109163Y0147872D03*
X0109163Y0152872D03*
X0109163Y0157872D03*
X0109163Y0162872D03*
X0109163Y0167872D03*
X0109163Y0172872D03*
X0109163Y0177872D03*
X0109163Y0182872D03*
X0109163Y0187872D03*
X0109163Y0192872D03*
X0038297Y0192872D03*
X0038297Y0187872D03*
X0038297Y0182872D03*
X0038297Y0177872D03*
X0038297Y0172872D03*
X0038297Y0167872D03*
X0038297Y0162872D03*
X0038297Y0157872D03*
X0038297Y0152872D03*
X0038297Y0147872D03*
X0038297Y0142872D03*
X0038297Y0137872D03*
X0038297Y0132872D03*
X0038297Y0127872D03*
D21*
X0051230Y0122006D03*
X0056230Y0122006D03*
X0061230Y0122006D03*
X0066230Y0122006D03*
X0071230Y0122006D03*
X0076230Y0122006D03*
X0081230Y0122006D03*
X0086230Y0122006D03*
X0091230Y0122006D03*
X0096230Y0122006D03*
D22*
X0073730Y0162557D03*
D23*
X0094596Y0097990D03*
D24*
X0094596Y0105864D03*
X0094596Y0113738D03*
X0086722Y0113738D03*
X0086722Y0105864D03*
X0086722Y0097990D03*
D25*
X0050502Y0099467D03*
X0050502Y0112065D03*
D26*
X0109163Y0106884D03*
D27*
X0109163Y0114884D03*
D28*
X0117431Y0110786D03*
X0117431Y0122203D03*
D29*
X0119984Y0119142D02*
X0120189Y0118647D01*
X0121848Y0116989D01*
X0124014Y0116091D01*
X0126360Y0116091D01*
X0128526Y0116989D01*
X0130185Y0118647D01*
X0131082Y0120814D01*
X0131082Y0123159D01*
X0130185Y0125326D01*
X0128526Y0126984D01*
X0126360Y0127882D01*
X0124014Y0127882D01*
X0121848Y0126984D01*
X0120189Y0125326D01*
X0120163Y0125263D01*
X0113714Y0125263D01*
X0113189Y0124739D01*
X0113189Y0119667D01*
X0113714Y0119142D01*
X0119984Y0119142D01*
X0120052Y0118977D02*
X0103858Y0118977D01*
X0103858Y0119249D02*
X0103858Y0116812D01*
X0103638Y0116593D01*
X0103858Y0116373D01*
X0103858Y0113269D01*
X0103333Y0112745D01*
X0100601Y0112745D01*
X0096968Y0109111D01*
X0096968Y0109111D01*
X0096489Y0108632D01*
X0097390Y0107731D01*
X0097892Y0106520D01*
X0097892Y0105209D01*
X0097390Y0103998D01*
X0096463Y0103071D01*
X0095252Y0102569D01*
X0093941Y0102569D01*
X0092730Y0103071D01*
X0091948Y0103852D01*
X0091948Y0103599D01*
X0088861Y0100512D01*
X0089516Y0099857D01*
X0090018Y0098646D01*
X0090018Y0097335D01*
X0089516Y0096124D01*
X0088589Y0095197D01*
X0087378Y0094695D01*
X0086067Y0094695D01*
X0084856Y0095197D01*
X0083929Y0096124D01*
X0083649Y0096800D01*
X0082381Y0096800D01*
X0082381Y0096478D01*
X0081857Y0095953D01*
X0078753Y0095953D01*
X0078229Y0096478D01*
X0078229Y0099582D01*
X0078448Y0099801D01*
X0078229Y0100021D01*
X0078229Y0103125D01*
X0078753Y0103649D01*
X0079115Y0103649D01*
X0079115Y0104783D01*
X0085153Y0110821D01*
X0084856Y0110945D01*
X0083929Y0111872D01*
X0083427Y0113083D01*
X0083427Y0114394D01*
X0083929Y0115605D01*
X0084856Y0116532D01*
X0086067Y0117034D01*
X0087378Y0117034D01*
X0088589Y0116532D01*
X0089516Y0115605D01*
X0090018Y0114394D01*
X0090018Y0113083D01*
X0089516Y0111872D01*
X0088589Y0110945D01*
X0087913Y0110665D01*
X0087913Y0110214D01*
X0087216Y0109516D01*
X0086859Y0109160D01*
X0087378Y0109160D01*
X0088589Y0108658D01*
X0089516Y0107731D01*
X0089567Y0107607D01*
X0089567Y0107637D01*
X0090265Y0108334D01*
X0092725Y0110795D01*
X0093091Y0110795D01*
X0092730Y0110945D01*
X0091803Y0111872D01*
X0091301Y0113083D01*
X0091301Y0114394D01*
X0091803Y0115605D01*
X0092730Y0116532D01*
X0093941Y0117034D01*
X0095252Y0117034D01*
X0096463Y0116532D01*
X0097118Y0115877D01*
X0099705Y0118464D01*
X0099705Y0119916D01*
X0100230Y0120441D01*
X0101682Y0120441D01*
X0106447Y0125205D01*
X0105840Y0125205D01*
X0105315Y0125730D01*
X0105315Y0130015D01*
X0105673Y0130372D01*
X0105315Y0130730D01*
X0105315Y0133502D01*
X0103661Y0131847D01*
X0102964Y0131150D01*
X0070481Y0131150D01*
X0051793Y0149838D01*
X0050244Y0149838D01*
X0048905Y0151177D01*
X0048905Y0153071D01*
X0050244Y0154410D01*
X0052138Y0154410D01*
X0052382Y0154165D01*
X0052382Y0154879D01*
X0046525Y0160737D01*
X0045827Y0161434D01*
X0045827Y0178206D01*
X0042351Y0181682D01*
X0042145Y0181682D01*
X0042145Y0180730D01*
X0041788Y0180372D01*
X0042145Y0180015D01*
X0042145Y0175730D01*
X0041788Y0175372D01*
X0042145Y0175015D01*
X0042145Y0170730D01*
X0041788Y0170372D01*
X0042145Y0170015D01*
X0042145Y0165730D01*
X0041788Y0165372D01*
X0042145Y0165015D01*
X0042145Y0160730D01*
X0041788Y0160372D01*
X0042145Y0160015D01*
X0042145Y0155730D01*
X0041788Y0155372D01*
X0042145Y0155015D01*
X0042145Y0150730D01*
X0041788Y0150372D01*
X0042145Y0150015D01*
X0042145Y0145730D01*
X0041788Y0145372D01*
X0042145Y0145015D01*
X0042145Y0140730D01*
X0041788Y0140372D01*
X0042145Y0140015D01*
X0042145Y0135730D01*
X0041788Y0135372D01*
X0042145Y0135015D01*
X0042145Y0130730D01*
X0041788Y0130372D01*
X0042145Y0130015D01*
X0042145Y0125730D01*
X0041621Y0125205D01*
X0034974Y0125205D01*
X0034449Y0125730D01*
X0034449Y0130015D01*
X0034807Y0130372D01*
X0034449Y0130730D01*
X0034449Y0135015D01*
X0034807Y0135372D01*
X0034449Y0135730D01*
X0034449Y0140015D01*
X0034807Y0140372D01*
X0034449Y0140730D01*
X0034449Y0145015D01*
X0034807Y0145372D01*
X0034449Y0145730D01*
X0034449Y0150015D01*
X0034807Y0150372D01*
X0034449Y0150730D01*
X0034449Y0155015D01*
X0034807Y0155372D01*
X0034449Y0155730D01*
X0034449Y0160015D01*
X0034807Y0160372D01*
X0034449Y0160730D01*
X0034449Y0164657D01*
X0034211Y0164519D01*
X0033881Y0164431D01*
X0031152Y0164431D01*
X0031152Y0167695D01*
X0030561Y0167695D01*
X0027581Y0167695D01*
X0027581Y0168285D01*
X0030561Y0168285D01*
X0030561Y0167695D01*
X0030561Y0164431D01*
X0027831Y0164431D01*
X0027502Y0164519D01*
X0027207Y0164690D01*
X0027092Y0164805D01*
X0026576Y0163559D01*
X0024717Y0161700D01*
X0022289Y0160694D01*
X0019660Y0160694D01*
X0017232Y0161700D01*
X0015373Y0163559D01*
X0014367Y0165987D01*
X0014367Y0168615D01*
X0015373Y0171044D01*
X0017232Y0172902D01*
X0019660Y0173908D01*
X0022289Y0173908D01*
X0024717Y0172902D01*
X0026576Y0171044D01*
X0026756Y0170608D01*
X0026795Y0170754D01*
X0026965Y0171049D01*
X0027207Y0171290D01*
X0027502Y0171461D01*
X0027831Y0171549D01*
X0030561Y0171549D01*
X0030561Y0168286D01*
X0031152Y0168286D01*
X0031152Y0171549D01*
X0033881Y0171549D01*
X0034211Y0171461D01*
X0034449Y0171323D01*
X0034449Y0172286D01*
X0034081Y0171918D01*
X0027631Y0171918D01*
X0027107Y0172442D01*
X0027107Y0173469D01*
X0026902Y0173263D01*
X0025008Y0173263D01*
X0023669Y0174602D01*
X0023669Y0176496D01*
X0025008Y0177835D01*
X0026902Y0177835D01*
X0027107Y0177630D01*
X0027107Y0177711D01*
X0027598Y0178202D01*
X0027384Y0178260D01*
X0027089Y0178430D01*
X0026847Y0178671D01*
X0026677Y0178967D01*
X0026589Y0179296D01*
X0026589Y0180451D01*
X0028868Y0180451D01*
X0028868Y0181041D01*
X0026589Y0181041D01*
X0026589Y0182196D01*
X0026677Y0182526D01*
X0026847Y0182821D01*
X0027089Y0183062D01*
X0027384Y0183233D01*
X0027713Y0183321D01*
X0028868Y0183321D01*
X0028868Y0181041D01*
X0029459Y0181041D01*
X0029459Y0183321D01*
X0030613Y0183321D01*
X0030943Y0183233D01*
X0031024Y0183186D01*
X0031024Y0185321D01*
X0034154Y0188451D01*
X0034449Y0188746D01*
X0034449Y0190015D01*
X0034524Y0190089D01*
X0034308Y0190305D01*
X0034137Y0190601D01*
X0034049Y0190930D01*
X0034049Y0191012D01*
X0006322Y0163285D01*
X0006322Y0119164D01*
X0013208Y0119164D01*
X0013346Y0119244D01*
X0013645Y0119164D01*
X0013955Y0119164D01*
X0014068Y0119051D01*
X0014223Y0119009D01*
X0014378Y0118741D01*
X0014596Y0118523D01*
X0014596Y0118362D01*
X0015697Y0116456D01*
X0025731Y0105312D01*
X0037864Y0096497D01*
X0051564Y0090398D01*
X0066232Y0087280D01*
X0081228Y0087280D01*
X0095897Y0090398D01*
X0109597Y0096497D01*
X0121729Y0105312D01*
X0131764Y0116456D01*
X0132864Y0118362D01*
X0132864Y0118523D01*
X0133083Y0118741D01*
X0133238Y0119009D01*
X0133392Y0119051D01*
X0133506Y0119164D01*
X0133815Y0119164D01*
X0134114Y0119244D01*
X0134253Y0119164D01*
X0141139Y0119164D01*
X0141139Y0163285D01*
X0113411Y0191012D01*
X0113411Y0190930D01*
X0113323Y0190601D01*
X0113153Y0190305D01*
X0112937Y0190089D01*
X0113011Y0190015D01*
X0113011Y0185730D01*
X0112654Y0185372D01*
X0112957Y0185069D01*
X0113598Y0185711D01*
X0114846Y0186228D01*
X0116197Y0186228D01*
X0117445Y0185711D01*
X0118400Y0184756D01*
X0118917Y0183508D01*
X0118917Y0182157D01*
X0118400Y0180909D01*
X0117445Y0179954D01*
X0116197Y0179437D01*
X0114846Y0179437D01*
X0113598Y0179954D01*
X0112917Y0180635D01*
X0112654Y0180372D01*
X0113011Y0180015D01*
X0113011Y0178249D01*
X0113102Y0178340D01*
X0113724Y0178755D01*
X0114415Y0179041D01*
X0115148Y0179187D01*
X0115226Y0179187D01*
X0115226Y0175687D01*
X0115817Y0175687D01*
X0119317Y0175687D01*
X0119317Y0175766D01*
X0119171Y0176499D01*
X0118885Y0177190D01*
X0118470Y0177811D01*
X0117941Y0178340D01*
X0117319Y0178755D01*
X0116629Y0179041D01*
X0115895Y0179187D01*
X0115817Y0179187D01*
X0115817Y0175687D01*
X0115817Y0175097D01*
X0119317Y0175097D01*
X0119317Y0175018D01*
X0119171Y0174285D01*
X0118885Y0173594D01*
X0118470Y0172972D01*
X0117941Y0172444D01*
X0117319Y0172028D01*
X0116629Y0171742D01*
X0115895Y0171597D01*
X0115817Y0171597D01*
X0115817Y0175096D01*
X0115226Y0175096D01*
X0115226Y0171597D01*
X0115148Y0171597D01*
X0114415Y0171742D01*
X0113724Y0172028D01*
X0113102Y0172444D01*
X0113011Y0172535D01*
X0113011Y0170730D01*
X0112654Y0170372D01*
X0112957Y0170069D01*
X0113598Y0170711D01*
X0114846Y0171228D01*
X0116197Y0171228D01*
X0117445Y0170711D01*
X0118400Y0169756D01*
X0118917Y0168508D01*
X0118917Y0167157D01*
X0118400Y0165909D01*
X0117445Y0164954D01*
X0116197Y0164437D01*
X0114846Y0164437D01*
X0113598Y0164954D01*
X0112917Y0165635D01*
X0112654Y0165372D01*
X0113011Y0165015D01*
X0113011Y0160730D01*
X0112654Y0160372D01*
X0113011Y0160015D01*
X0113011Y0155730D01*
X0112654Y0155372D01*
X0113011Y0155015D01*
X0113011Y0150730D01*
X0112654Y0150372D01*
X0113011Y0150015D01*
X0113011Y0145730D01*
X0112654Y0145372D01*
X0113011Y0145015D01*
X0113011Y0140730D01*
X0112654Y0140372D01*
X0113011Y0140015D01*
X0113011Y0139063D01*
X0114792Y0139063D01*
X0120768Y0145038D01*
X0120768Y0151155D01*
X0120427Y0151155D01*
X0119903Y0151679D01*
X0119903Y0153860D01*
X0119417Y0153860D01*
X0119435Y0153791D01*
X0119435Y0152734D01*
X0117254Y0152734D01*
X0117254Y0152144D01*
X0119435Y0152144D01*
X0119435Y0151087D01*
X0119347Y0150758D01*
X0119176Y0150463D01*
X0118935Y0150221D01*
X0118640Y0150051D01*
X0118310Y0149963D01*
X0117254Y0149963D01*
X0117254Y0152144D01*
X0116663Y0152144D01*
X0114482Y0152144D01*
X0114482Y0151087D01*
X0114571Y0150758D01*
X0114741Y0150463D01*
X0114982Y0150221D01*
X0115278Y0150051D01*
X0115607Y0149963D01*
X0116663Y0149963D01*
X0116663Y0152144D01*
X0116663Y0152734D01*
X0114482Y0152734D01*
X0114482Y0153791D01*
X0114571Y0154120D01*
X0114741Y0154415D01*
X0114882Y0154557D01*
X0114882Y0157534D01*
X0115407Y0158059D01*
X0118511Y0158059D01*
X0119035Y0157534D01*
X0119035Y0156241D01*
X0119903Y0156241D01*
X0119903Y0158421D01*
X0120427Y0158945D01*
X0123569Y0158945D01*
X0124093Y0158421D01*
X0124093Y0151679D01*
X0123569Y0151155D01*
X0123149Y0151155D01*
X0123149Y0144052D01*
X0122452Y0143355D01*
X0115779Y0136682D01*
X0113011Y0136682D01*
X0113011Y0135730D01*
X0112654Y0135372D01*
X0113011Y0135015D01*
X0113011Y0130730D01*
X0112654Y0130372D01*
X0113011Y0130015D01*
X0113011Y0125730D01*
X0112487Y0125205D01*
X0109814Y0125205D01*
X0109657Y0125048D01*
X0103858Y0119249D01*
X0104175Y0119566D02*
X0113290Y0119566D01*
X0113189Y0120155D02*
X0104764Y0120155D01*
X0105353Y0120744D02*
X0113189Y0120744D01*
X0113189Y0121334D02*
X0105942Y0121334D01*
X0106531Y0121923D02*
X0113189Y0121923D01*
X0113189Y0122512D02*
X0107120Y0122512D01*
X0107710Y0123101D02*
X0113189Y0123101D01*
X0113189Y0123690D02*
X0108299Y0123690D01*
X0108888Y0124279D02*
X0113189Y0124279D01*
X0113318Y0124868D02*
X0109477Y0124868D01*
X0109163Y0126238D02*
X0109163Y0127872D01*
X0109163Y0126238D02*
X0101978Y0119053D01*
X0102077Y0119053D01*
X0101781Y0118364D01*
X0101978Y0119053D02*
X0096663Y0113738D01*
X0094596Y0113738D01*
X0092230Y0116032D02*
X0089089Y0116032D01*
X0089583Y0115443D02*
X0091736Y0115443D01*
X0091492Y0114854D02*
X0089827Y0114854D01*
X0090018Y0114265D02*
X0091301Y0114265D01*
X0091301Y0113676D02*
X0090018Y0113676D01*
X0090018Y0113087D02*
X0091301Y0113087D01*
X0091544Y0112498D02*
X0089775Y0112498D01*
X0089531Y0111909D02*
X0091788Y0111909D01*
X0092355Y0111319D02*
X0088964Y0111319D01*
X0088072Y0110730D02*
X0092661Y0110730D01*
X0092072Y0110141D02*
X0087841Y0110141D01*
X0087252Y0109552D02*
X0091483Y0109552D01*
X0090894Y0108963D02*
X0087852Y0108963D01*
X0088873Y0108374D02*
X0090305Y0108374D01*
X0089716Y0107785D02*
X0089462Y0107785D01*
X0090758Y0107144D02*
X0090758Y0104093D01*
X0086722Y0100057D01*
X0086722Y0097990D01*
X0080738Y0097990D01*
X0080305Y0098030D01*
X0082381Y0096593D02*
X0083734Y0096593D01*
X0084049Y0096004D02*
X0081908Y0096004D01*
X0084638Y0095415D02*
X0076965Y0095415D01*
X0076994Y0095306D02*
X0076906Y0095636D01*
X0076735Y0095931D01*
X0076494Y0096172D01*
X0076208Y0096338D01*
X0076237Y0096388D01*
X0076325Y0096717D01*
X0076325Y0099270D01*
X0072451Y0099270D01*
X0072451Y0099860D01*
X0076325Y0099860D01*
X0076325Y0102413D01*
X0076237Y0102742D01*
X0076066Y0103038D01*
X0076005Y0103099D01*
X0076070Y0103099D01*
X0076594Y0103623D01*
X0076594Y0107318D01*
X0076467Y0107445D01*
X0076467Y0110215D01*
X0077057Y0110215D01*
X0077057Y0110805D01*
X0079829Y0110805D01*
X0079829Y0112551D01*
X0079740Y0112880D01*
X0079570Y0113175D01*
X0079388Y0113357D01*
X0079447Y0113391D01*
X0079688Y0113632D01*
X0079859Y0113927D01*
X0079947Y0114257D01*
X0079947Y0115313D01*
X0077766Y0115313D01*
X0077766Y0115904D01*
X0077175Y0115904D01*
X0077175Y0118085D01*
X0076119Y0118085D01*
X0075789Y0117996D01*
X0075494Y0117826D01*
X0075353Y0117685D01*
X0072375Y0117685D01*
X0071959Y0117268D01*
X0071542Y0117685D01*
X0068438Y0117685D01*
X0068218Y0117465D01*
X0067999Y0117685D01*
X0064895Y0117685D01*
X0064370Y0117160D01*
X0064370Y0115216D01*
X0063887Y0114732D01*
X0062879Y0114732D01*
X0061783Y0115827D01*
X0059890Y0115827D01*
X0059558Y0115495D01*
X0059141Y0115913D01*
X0041863Y0115913D01*
X0041417Y0115467D01*
X0041168Y0115716D01*
X0040964Y0115716D01*
X0040964Y0115980D01*
X0041244Y0116096D01*
X0042199Y0117051D01*
X0042716Y0118299D01*
X0042716Y0119650D01*
X0042199Y0120898D01*
X0041975Y0121122D01*
X0047854Y0127001D01*
X0047854Y0155003D01*
X0048654Y0155803D01*
X0048654Y0157697D01*
X0047315Y0159036D01*
X0045421Y0159036D01*
X0044082Y0157697D01*
X0044082Y0155803D01*
X0044882Y0155003D01*
X0044882Y0128232D01*
X0039020Y0122370D01*
X0038645Y0122370D01*
X0037398Y0121853D01*
X0036442Y0120898D01*
X0035926Y0119650D01*
X0035926Y0118299D01*
X0036442Y0117051D01*
X0037398Y0116096D01*
X0037993Y0115850D01*
X0037993Y0115716D01*
X0034718Y0115716D01*
X0034193Y0115192D01*
X0034193Y0109923D01*
X0034718Y0109398D01*
X0041168Y0109398D01*
X0041339Y0109569D01*
X0041339Y0108917D01*
X0041297Y0108941D01*
X0040968Y0109030D01*
X0038238Y0109030D01*
X0038238Y0105766D01*
X0037648Y0105766D01*
X0037648Y0109030D01*
X0034918Y0109030D01*
X0034589Y0108941D01*
X0034293Y0108771D01*
X0034052Y0108530D01*
X0033882Y0108234D01*
X0033793Y0107905D01*
X0033793Y0105766D01*
X0037648Y0105766D01*
X0037648Y0105175D01*
X0038238Y0105175D01*
X0038238Y0101911D01*
X0040968Y0101911D01*
X0041297Y0102000D01*
X0041339Y0102024D01*
X0041339Y0096143D01*
X0041863Y0095619D01*
X0055120Y0095619D01*
X0061713Y0089026D01*
X0062699Y0088040D01*
X0068340Y0088040D01*
X0068832Y0087548D01*
X0072133Y0087548D01*
X0072254Y0087669D01*
X0072375Y0087548D01*
X0075676Y0087548D01*
X0076200Y0088072D01*
X0076200Y0090977D01*
X0076494Y0091147D01*
X0076735Y0091388D01*
X0076906Y0091683D01*
X0076994Y0092013D01*
X0076994Y0093659D01*
X0075108Y0093659D01*
X0075108Y0093660D01*
X0076994Y0093660D01*
X0076994Y0095306D01*
X0076994Y0094826D02*
X0085751Y0094826D01*
X0087694Y0094826D02*
X0091142Y0094826D01*
X0091160Y0094795D02*
X0091401Y0094554D01*
X0091696Y0094383D01*
X0092026Y0094295D01*
X0094301Y0094295D01*
X0094301Y0097695D01*
X0090901Y0097695D01*
X0090901Y0095420D01*
X0090989Y0095090D01*
X0091160Y0094795D01*
X0090902Y0095415D02*
X0088807Y0095415D01*
X0089396Y0096004D02*
X0090901Y0096004D01*
X0090901Y0096593D02*
X0089710Y0096593D01*
X0089954Y0097182D02*
X0090901Y0097182D01*
X0090018Y0097771D02*
X0094301Y0097771D01*
X0094301Y0097695D02*
X0094301Y0098285D01*
X0090901Y0098285D01*
X0090901Y0100561D01*
X0090989Y0100890D01*
X0091160Y0101186D01*
X0091401Y0101427D01*
X0091696Y0101597D01*
X0092026Y0101685D01*
X0094301Y0101685D01*
X0094301Y0098286D01*
X0094892Y0098286D01*
X0094892Y0101685D01*
X0097167Y0101685D01*
X0097496Y0101597D01*
X0097792Y0101427D01*
X0098033Y0101186D01*
X0098203Y0100890D01*
X0098292Y0100561D01*
X0098292Y0098285D01*
X0094892Y0098285D01*
X0094892Y0097695D01*
X0098292Y0097695D01*
X0098292Y0095420D01*
X0098203Y0095090D01*
X0098033Y0094795D01*
X0097792Y0094554D01*
X0097496Y0094383D01*
X0097167Y0094295D01*
X0094892Y0094295D01*
X0094892Y0097695D01*
X0094301Y0097695D01*
X0094301Y0097182D02*
X0094892Y0097182D01*
X0094892Y0097771D02*
X0111350Y0097771D01*
X0110540Y0097182D02*
X0098292Y0097182D01*
X0098292Y0096593D02*
X0109729Y0096593D01*
X0108489Y0096004D02*
X0098292Y0096004D01*
X0098290Y0095415D02*
X0107166Y0095415D01*
X0105843Y0094826D02*
X0098051Y0094826D01*
X0099227Y0091880D02*
X0076959Y0091880D01*
X0076994Y0092469D02*
X0100550Y0092469D01*
X0101873Y0093059D02*
X0076994Y0093059D01*
X0076994Y0093648D02*
X0103197Y0093648D01*
X0104520Y0094237D02*
X0076994Y0094237D01*
X0076663Y0096004D02*
X0078703Y0096004D01*
X0078229Y0096593D02*
X0076291Y0096593D01*
X0076325Y0097182D02*
X0078229Y0097182D01*
X0078229Y0097771D02*
X0076325Y0097771D01*
X0076325Y0098360D02*
X0078229Y0098360D01*
X0078229Y0098949D02*
X0076325Y0098949D01*
X0076325Y0100127D02*
X0078229Y0100127D01*
X0078229Y0099538D02*
X0072451Y0099538D01*
X0071860Y0099538D02*
X0067683Y0099538D01*
X0067986Y0099270D02*
X0067986Y0096717D01*
X0068074Y0096388D01*
X0068103Y0096338D01*
X0067817Y0096172D01*
X0067683Y0096039D01*
X0067683Y0097931D01*
X0063829Y0097931D01*
X0063829Y0098522D01*
X0063238Y0098522D01*
X0063238Y0101785D01*
X0060509Y0101785D01*
X0060179Y0101697D01*
X0059884Y0101527D01*
X0059665Y0101308D01*
X0059665Y0102790D01*
X0059141Y0103315D01*
X0042092Y0103315D01*
X0042092Y0105175D01*
X0038238Y0105175D01*
X0038238Y0105766D01*
X0042093Y0105766D01*
X0042093Y0107905D01*
X0042009Y0108217D01*
X0059141Y0108217D01*
X0059665Y0108741D01*
X0059665Y0111480D01*
X0059890Y0111256D01*
X0061208Y0111256D01*
X0061208Y0109445D01*
X0062008Y0108645D01*
X0062008Y0108472D01*
X0060308Y0108472D01*
X0059784Y0107948D01*
X0059784Y0102678D01*
X0060308Y0102154D01*
X0066759Y0102154D01*
X0067283Y0102678D01*
X0067283Y0103591D01*
X0067749Y0103591D01*
X0068241Y0103099D01*
X0068306Y0103099D01*
X0068245Y0103038D01*
X0068074Y0102742D01*
X0067986Y0102413D01*
X0067986Y0099860D01*
X0071860Y0099860D01*
X0071860Y0099270D01*
X0067986Y0099270D01*
X0067986Y0098949D02*
X0067683Y0098949D01*
X0067683Y0098522D02*
X0067683Y0100661D01*
X0067595Y0100990D01*
X0067424Y0101286D01*
X0067183Y0101527D01*
X0066888Y0101697D01*
X0066558Y0101785D01*
X0063829Y0101785D01*
X0063829Y0098522D01*
X0067683Y0098522D01*
X0067986Y0098360D02*
X0063829Y0098360D01*
X0063829Y0097931D02*
X0063238Y0097931D01*
X0063238Y0094667D01*
X0060830Y0094667D01*
X0064093Y0091405D01*
X0067566Y0091405D01*
X0067405Y0091683D01*
X0067317Y0092013D01*
X0067317Y0093659D01*
X0069203Y0093659D01*
X0069203Y0093660D01*
X0067317Y0093660D01*
X0067317Y0095060D01*
X0067183Y0094926D01*
X0066888Y0094756D01*
X0066558Y0094667D01*
X0063829Y0094667D01*
X0063829Y0097931D01*
X0063829Y0097771D02*
X0063238Y0097771D01*
X0063238Y0097182D02*
X0063829Y0097182D01*
X0063829Y0096593D02*
X0063238Y0096593D01*
X0063238Y0096004D02*
X0063829Y0096004D01*
X0063829Y0095415D02*
X0063238Y0095415D01*
X0063238Y0094826D02*
X0063829Y0094826D01*
X0062439Y0093059D02*
X0067317Y0093059D01*
X0067317Y0093648D02*
X0061850Y0093648D01*
X0061261Y0094237D02*
X0067317Y0094237D01*
X0067317Y0094826D02*
X0067009Y0094826D01*
X0067683Y0096593D02*
X0068020Y0096593D01*
X0067986Y0097182D02*
X0067683Y0097182D01*
X0067683Y0097771D02*
X0067986Y0097771D01*
X0067986Y0100127D02*
X0067683Y0100127D01*
X0067668Y0100716D02*
X0067986Y0100716D01*
X0067986Y0101305D02*
X0067404Y0101305D01*
X0067986Y0101894D02*
X0059665Y0101894D01*
X0059665Y0102484D02*
X0059979Y0102484D01*
X0059784Y0103073D02*
X0059383Y0103073D01*
X0059784Y0103662D02*
X0042092Y0103662D01*
X0042092Y0104251D02*
X0059784Y0104251D01*
X0059784Y0104840D02*
X0042092Y0104840D01*
X0042093Y0106018D02*
X0059784Y0106018D01*
X0059784Y0106607D02*
X0042093Y0106607D01*
X0042093Y0107196D02*
X0059784Y0107196D01*
X0059784Y0107785D02*
X0042093Y0107785D01*
X0041339Y0108963D02*
X0041215Y0108963D01*
X0041322Y0109552D02*
X0041339Y0109552D01*
X0038238Y0108963D02*
X0037648Y0108963D01*
X0037648Y0108374D02*
X0038238Y0108374D01*
X0038238Y0107785D02*
X0037648Y0107785D01*
X0037648Y0107196D02*
X0038238Y0107196D01*
X0038238Y0106607D02*
X0037648Y0106607D01*
X0037648Y0106018D02*
X0038238Y0106018D01*
X0038238Y0105429D02*
X0059784Y0105429D01*
X0060210Y0108374D02*
X0059298Y0108374D01*
X0059665Y0108963D02*
X0061690Y0108963D01*
X0061208Y0109552D02*
X0059665Y0109552D01*
X0059665Y0110141D02*
X0061208Y0110141D01*
X0061208Y0110730D02*
X0059665Y0110730D01*
X0059665Y0111319D02*
X0059826Y0111319D01*
X0060837Y0113541D02*
X0064380Y0113541D01*
X0066447Y0115608D01*
X0064370Y0115443D02*
X0062168Y0115443D01*
X0062757Y0114854D02*
X0064009Y0114854D01*
X0064370Y0116032D02*
X0041089Y0116032D01*
X0041769Y0116621D02*
X0064370Y0116621D01*
X0064420Y0117210D02*
X0042265Y0117210D01*
X0042509Y0117799D02*
X0049134Y0117799D01*
X0049288Y0117758D02*
X0050935Y0117758D01*
X0050935Y0121711D01*
X0048163Y0121711D01*
X0048163Y0118883D01*
X0048252Y0118553D01*
X0048422Y0118258D01*
X0048663Y0118017D01*
X0048959Y0117846D01*
X0049288Y0117758D01*
X0048347Y0118388D02*
X0042716Y0118388D01*
X0042716Y0118977D02*
X0048163Y0118977D01*
X0048163Y0119566D02*
X0042716Y0119566D01*
X0042507Y0120155D02*
X0048163Y0120155D01*
X0048163Y0120744D02*
X0042263Y0120744D01*
X0042187Y0121334D02*
X0048163Y0121334D01*
X0048163Y0122301D02*
X0050935Y0122301D01*
X0050935Y0121711D01*
X0051526Y0121711D01*
X0051526Y0117758D01*
X0053172Y0117758D01*
X0053502Y0117846D01*
X0053797Y0118017D01*
X0054013Y0118233D01*
X0054088Y0118158D01*
X0058373Y0118158D01*
X0058730Y0118515D01*
X0059088Y0118158D01*
X0063373Y0118158D01*
X0063730Y0118515D01*
X0064088Y0118158D01*
X0068373Y0118158D01*
X0068730Y0118515D01*
X0069088Y0118158D01*
X0073373Y0118158D01*
X0073730Y0118515D01*
X0074088Y0118158D01*
X0078373Y0118158D01*
X0078730Y0118515D01*
X0079088Y0118158D01*
X0083373Y0118158D01*
X0083730Y0118515D01*
X0084088Y0118158D01*
X0088373Y0118158D01*
X0088730Y0118515D01*
X0089088Y0118158D01*
X0093373Y0118158D01*
X0093730Y0118515D01*
X0094088Y0118158D01*
X0098373Y0118158D01*
X0098897Y0118682D01*
X0098897Y0125330D01*
X0098373Y0125854D01*
X0094088Y0125854D01*
X0093730Y0125496D01*
X0093373Y0125854D01*
X0089088Y0125854D01*
X0088730Y0125496D01*
X0088373Y0125854D01*
X0084088Y0125854D01*
X0083730Y0125496D01*
X0083373Y0125854D01*
X0079088Y0125854D01*
X0078730Y0125496D01*
X0078373Y0125854D01*
X0074088Y0125854D01*
X0073730Y0125496D01*
X0073373Y0125854D01*
X0069088Y0125854D01*
X0068730Y0125496D01*
X0068373Y0125854D01*
X0064088Y0125854D01*
X0063730Y0125496D01*
X0063373Y0125854D01*
X0059088Y0125854D01*
X0058730Y0125496D01*
X0058373Y0125854D01*
X0054088Y0125854D01*
X0054013Y0125779D01*
X0053797Y0125995D01*
X0053502Y0126166D01*
X0053172Y0126254D01*
X0051526Y0126254D01*
X0051526Y0122301D01*
X0050935Y0122301D01*
X0050935Y0126254D01*
X0049288Y0126254D01*
X0048959Y0126166D01*
X0048663Y0125995D01*
X0048422Y0125754D01*
X0048252Y0125459D01*
X0048163Y0125129D01*
X0048163Y0122301D01*
X0048163Y0122512D02*
X0043365Y0122512D01*
X0043954Y0123101D02*
X0048163Y0123101D01*
X0048163Y0123690D02*
X0044543Y0123690D01*
X0045132Y0124279D02*
X0048163Y0124279D01*
X0048163Y0124868D02*
X0045721Y0124868D01*
X0046310Y0125457D02*
X0048251Y0125457D01*
X0048751Y0126046D02*
X0046899Y0126046D01*
X0047488Y0126635D02*
X0105315Y0126635D01*
X0105315Y0126046D02*
X0053709Y0126046D01*
X0051526Y0126046D02*
X0050935Y0126046D01*
X0050935Y0125457D02*
X0051526Y0125457D01*
X0051526Y0124868D02*
X0050935Y0124868D01*
X0050935Y0124279D02*
X0051526Y0124279D01*
X0051526Y0123690D02*
X0050935Y0123690D01*
X0050935Y0123101D02*
X0051526Y0123101D01*
X0051526Y0122512D02*
X0050935Y0122512D01*
X0050935Y0121923D02*
X0042776Y0121923D01*
X0040929Y0124279D02*
X0031707Y0124279D01*
X0031324Y0124474D02*
X0030382Y0124780D01*
X0029403Y0124935D01*
X0029203Y0124935D01*
X0029203Y0118935D01*
X0035203Y0118935D01*
X0035203Y0119135D01*
X0035048Y0120114D01*
X0034742Y0121056D01*
X0034292Y0121939D01*
X0033709Y0122741D01*
X0033009Y0123442D01*
X0032207Y0124024D01*
X0031324Y0124474D01*
X0029827Y0124868D02*
X0041519Y0124868D01*
X0041873Y0125457D02*
X0042108Y0125457D01*
X0042145Y0126046D02*
X0042697Y0126046D01*
X0042145Y0126635D02*
X0043286Y0126635D01*
X0043875Y0127224D02*
X0042145Y0127224D01*
X0042145Y0127813D02*
X0044464Y0127813D01*
X0044882Y0128402D02*
X0042145Y0128402D01*
X0042145Y0128991D02*
X0044882Y0128991D01*
X0044882Y0129580D02*
X0042145Y0129580D01*
X0041990Y0130169D02*
X0044882Y0130169D01*
X0044882Y0130759D02*
X0042145Y0130759D01*
X0042145Y0131348D02*
X0044882Y0131348D01*
X0044882Y0131937D02*
X0042145Y0131937D01*
X0042145Y0132526D02*
X0044882Y0132526D01*
X0044882Y0133115D02*
X0042145Y0133115D01*
X0042145Y0133704D02*
X0044882Y0133704D01*
X0044882Y0134293D02*
X0042145Y0134293D01*
X0042145Y0134882D02*
X0044882Y0134882D01*
X0044882Y0135471D02*
X0041887Y0135471D01*
X0042145Y0136060D02*
X0044882Y0136060D01*
X0044882Y0136649D02*
X0042145Y0136649D01*
X0042145Y0137238D02*
X0044882Y0137238D01*
X0044882Y0137827D02*
X0042145Y0137827D01*
X0042145Y0138416D02*
X0044882Y0138416D01*
X0044882Y0139005D02*
X0042145Y0139005D01*
X0042145Y0139594D02*
X0044882Y0139594D01*
X0044882Y0140184D02*
X0041976Y0140184D01*
X0042145Y0140773D02*
X0044882Y0140773D01*
X0044882Y0141362D02*
X0042145Y0141362D01*
X0042145Y0141951D02*
X0044882Y0141951D01*
X0044882Y0142540D02*
X0042145Y0142540D01*
X0042145Y0143129D02*
X0044882Y0143129D01*
X0044882Y0143718D02*
X0042145Y0143718D01*
X0042145Y0144307D02*
X0044882Y0144307D01*
X0044882Y0144896D02*
X0042145Y0144896D01*
X0041901Y0145485D02*
X0044882Y0145485D01*
X0044882Y0146074D02*
X0042145Y0146074D01*
X0042145Y0146663D02*
X0044882Y0146663D01*
X0044882Y0147252D02*
X0042145Y0147252D01*
X0042145Y0147841D02*
X0044882Y0147841D01*
X0044882Y0148430D02*
X0042145Y0148430D01*
X0042145Y0149019D02*
X0044882Y0149019D01*
X0044882Y0149609D02*
X0042145Y0149609D01*
X0041962Y0150198D02*
X0044882Y0150198D01*
X0044882Y0150787D02*
X0042145Y0150787D01*
X0042145Y0151376D02*
X0044882Y0151376D01*
X0044882Y0151965D02*
X0042145Y0151965D01*
X0042145Y0152554D02*
X0044882Y0152554D01*
X0044882Y0153143D02*
X0042145Y0153143D01*
X0042145Y0153732D02*
X0044882Y0153732D01*
X0044882Y0154321D02*
X0042145Y0154321D01*
X0042145Y0154910D02*
X0044882Y0154910D01*
X0044386Y0155499D02*
X0041915Y0155499D01*
X0042145Y0156088D02*
X0044082Y0156088D01*
X0044082Y0156677D02*
X0042145Y0156677D01*
X0042145Y0157266D02*
X0044082Y0157266D01*
X0044241Y0157855D02*
X0042145Y0157855D01*
X0042145Y0158444D02*
X0044830Y0158444D01*
X0045419Y0159034D02*
X0042145Y0159034D01*
X0042145Y0159623D02*
X0047639Y0159623D01*
X0047317Y0159034D02*
X0048228Y0159034D01*
X0047906Y0158444D02*
X0048817Y0158444D01*
X0048495Y0157855D02*
X0049406Y0157855D01*
X0049995Y0157266D02*
X0048654Y0157266D01*
X0048654Y0156677D02*
X0050584Y0156677D01*
X0051173Y0156088D02*
X0048654Y0156088D01*
X0048350Y0155499D02*
X0051762Y0155499D01*
X0052351Y0154910D02*
X0047854Y0154910D01*
X0047854Y0154321D02*
X0050155Y0154321D01*
X0049566Y0153732D02*
X0047854Y0153732D01*
X0047854Y0153143D02*
X0048977Y0153143D01*
X0048905Y0152554D02*
X0047854Y0152554D01*
X0047854Y0151965D02*
X0048905Y0151965D01*
X0048905Y0151376D02*
X0047854Y0151376D01*
X0047854Y0150787D02*
X0049296Y0150787D01*
X0049885Y0150198D02*
X0047854Y0150198D01*
X0047854Y0149609D02*
X0052023Y0149609D01*
X0052612Y0149019D02*
X0047854Y0149019D01*
X0047854Y0148430D02*
X0053201Y0148430D01*
X0053790Y0147841D02*
X0047854Y0147841D01*
X0047854Y0147252D02*
X0054379Y0147252D01*
X0054968Y0146663D02*
X0047854Y0146663D01*
X0047854Y0146074D02*
X0055557Y0146074D01*
X0056146Y0145485D02*
X0047854Y0145485D01*
X0047854Y0144896D02*
X0056735Y0144896D01*
X0057324Y0144307D02*
X0047854Y0144307D01*
X0047854Y0143718D02*
X0057913Y0143718D01*
X0058502Y0143129D02*
X0047854Y0143129D01*
X0047854Y0142540D02*
X0059092Y0142540D01*
X0059681Y0141951D02*
X0047854Y0141951D01*
X0047854Y0141362D02*
X0060270Y0141362D01*
X0060859Y0140773D02*
X0047854Y0140773D01*
X0047854Y0140184D02*
X0061448Y0140184D01*
X0062037Y0139594D02*
X0047854Y0139594D01*
X0047854Y0139005D02*
X0062626Y0139005D01*
X0063215Y0138416D02*
X0047854Y0138416D01*
X0047854Y0137827D02*
X0063804Y0137827D01*
X0064393Y0137238D02*
X0047854Y0137238D01*
X0047854Y0136649D02*
X0064982Y0136649D01*
X0065571Y0136060D02*
X0047854Y0136060D01*
X0047854Y0135471D02*
X0066160Y0135471D01*
X0066749Y0134882D02*
X0047854Y0134882D01*
X0047854Y0134293D02*
X0067338Y0134293D01*
X0067927Y0133704D02*
X0047854Y0133704D01*
X0047854Y0133115D02*
X0068517Y0133115D01*
X0069106Y0132526D02*
X0047854Y0132526D01*
X0047854Y0131937D02*
X0069695Y0131937D01*
X0070284Y0131348D02*
X0047854Y0131348D01*
X0047854Y0130759D02*
X0105315Y0130759D01*
X0105315Y0131348D02*
X0103161Y0131348D01*
X0103750Y0131937D02*
X0105315Y0131937D01*
X0105315Y0132526D02*
X0104339Y0132526D01*
X0104928Y0133115D02*
X0105315Y0133115D01*
X0105226Y0135097D02*
X0102470Y0132341D01*
X0070974Y0132341D01*
X0051191Y0152124D01*
X0052227Y0154321D02*
X0052382Y0154321D01*
X0053573Y0155372D02*
X0047018Y0161927D01*
X0047018Y0178699D01*
X0042844Y0182872D01*
X0038297Y0182872D01*
X0034190Y0188487D02*
X0031524Y0188487D01*
X0032113Y0189076D02*
X0034449Y0189076D01*
X0034449Y0189665D02*
X0032702Y0189665D01*
X0033291Y0190254D02*
X0034359Y0190254D01*
X0034073Y0190843D02*
X0033880Y0190843D01*
X0033601Y0187898D02*
X0030935Y0187898D01*
X0030346Y0187309D02*
X0033011Y0187309D01*
X0032422Y0186719D02*
X0029757Y0186719D01*
X0029168Y0186130D02*
X0031833Y0186130D01*
X0031244Y0185541D02*
X0028578Y0185541D01*
X0027989Y0184952D02*
X0031024Y0184952D01*
X0031024Y0184363D02*
X0027400Y0184363D01*
X0026811Y0183774D02*
X0031024Y0183774D01*
X0029459Y0183185D02*
X0028868Y0183185D01*
X0028868Y0182596D02*
X0029459Y0182596D01*
X0029459Y0182007D02*
X0028868Y0182007D01*
X0028868Y0181418D02*
X0029459Y0181418D01*
X0028868Y0180829D02*
X0023866Y0180829D01*
X0024455Y0181418D02*
X0026589Y0181418D01*
X0026589Y0182007D02*
X0025044Y0182007D01*
X0025633Y0182596D02*
X0026718Y0182596D01*
X0026222Y0183185D02*
X0027302Y0183185D01*
X0026589Y0180240D02*
X0023277Y0180240D01*
X0022688Y0179651D02*
X0026589Y0179651D01*
X0026651Y0179062D02*
X0022099Y0179062D01*
X0021510Y0178473D02*
X0027046Y0178473D01*
X0027279Y0177884D02*
X0020921Y0177884D01*
X0020332Y0177294D02*
X0024467Y0177294D01*
X0023878Y0176705D02*
X0019743Y0176705D01*
X0019153Y0176116D02*
X0023669Y0176116D01*
X0023669Y0175527D02*
X0018564Y0175527D01*
X0017975Y0174938D02*
X0023669Y0174938D01*
X0023922Y0174349D02*
X0017386Y0174349D01*
X0016797Y0173760D02*
X0019302Y0173760D01*
X0017880Y0173171D02*
X0016208Y0173171D01*
X0015619Y0172582D02*
X0016911Y0172582D01*
X0016322Y0171993D02*
X0015030Y0171993D01*
X0014441Y0171404D02*
X0015733Y0171404D01*
X0015278Y0170815D02*
X0013852Y0170815D01*
X0013263Y0170226D02*
X0015034Y0170226D01*
X0014790Y0169637D02*
X0012674Y0169637D01*
X0012085Y0169048D02*
X0014546Y0169048D01*
X0014367Y0168459D02*
X0011496Y0168459D01*
X0010907Y0167869D02*
X0014367Y0167869D01*
X0014367Y0167280D02*
X0010317Y0167280D01*
X0009728Y0166691D02*
X0014367Y0166691D01*
X0014367Y0166102D02*
X0009139Y0166102D01*
X0008550Y0165513D02*
X0014564Y0165513D01*
X0014808Y0164924D02*
X0007961Y0164924D01*
X0007372Y0164335D02*
X0015052Y0164335D01*
X0015296Y0163746D02*
X0006783Y0163746D01*
X0006322Y0163157D02*
X0010861Y0163157D01*
X0010972Y0163268D02*
X0009633Y0161929D01*
X0009633Y0160036D01*
X0010429Y0159240D01*
X0010328Y0159240D01*
X0009804Y0158715D01*
X0009804Y0156032D01*
X0009679Y0156032D01*
X0009155Y0155508D01*
X0009155Y0148766D01*
X0009679Y0148241D01*
X0012821Y0148241D01*
X0013345Y0148766D01*
X0013345Y0155047D01*
X0013447Y0154946D01*
X0013742Y0154775D01*
X0013755Y0154772D01*
X0013755Y0152432D01*
X0015955Y0152432D01*
X0015955Y0151841D01*
X0016545Y0151841D01*
X0016545Y0147841D01*
X0017621Y0147841D01*
X0017950Y0147930D01*
X0018245Y0148100D01*
X0018486Y0148341D01*
X0018657Y0148637D01*
X0018745Y0148966D01*
X0018745Y0151841D01*
X0016545Y0151841D01*
X0016545Y0152432D01*
X0018745Y0152432D01*
X0018745Y0155307D01*
X0018657Y0155637D01*
X0018486Y0155932D01*
X0018245Y0156173D01*
X0017950Y0156344D01*
X0017900Y0156357D01*
X0017900Y0156868D01*
X0015719Y0156868D01*
X0015719Y0157459D01*
X0017900Y0157459D01*
X0017900Y0158515D01*
X0017811Y0158845D01*
X0017641Y0159140D01*
X0017400Y0159381D01*
X0017104Y0159552D01*
X0016775Y0159640D01*
X0015718Y0159640D01*
X0015718Y0157459D01*
X0015128Y0157459D01*
X0015128Y0159640D01*
X0014072Y0159640D01*
X0013742Y0159552D01*
X0013692Y0159523D01*
X0014205Y0160036D01*
X0014205Y0161929D01*
X0012866Y0163268D01*
X0010972Y0163268D01*
X0010272Y0162568D02*
X0006322Y0162568D01*
X0006322Y0161979D02*
X0009683Y0161979D01*
X0009633Y0161390D02*
X0006322Y0161390D01*
X0006322Y0160801D02*
X0009633Y0160801D01*
X0009633Y0160212D02*
X0006322Y0160212D01*
X0006322Y0159623D02*
X0010046Y0159623D01*
X0010122Y0159034D02*
X0006322Y0159034D01*
X0006322Y0158444D02*
X0009804Y0158444D01*
X0009804Y0157855D02*
X0006322Y0157855D01*
X0006322Y0157266D02*
X0009804Y0157266D01*
X0009804Y0156677D02*
X0006322Y0156677D01*
X0006322Y0156088D02*
X0009804Y0156088D01*
X0009155Y0155499D02*
X0006322Y0155499D01*
X0006322Y0154910D02*
X0009155Y0154910D01*
X0009155Y0154321D02*
X0006322Y0154321D01*
X0006322Y0153732D02*
X0009155Y0153732D01*
X0009155Y0153143D02*
X0006322Y0153143D01*
X0006322Y0152554D02*
X0009155Y0152554D01*
X0009155Y0151965D02*
X0006322Y0151965D01*
X0006322Y0151376D02*
X0009155Y0151376D01*
X0009155Y0150787D02*
X0006322Y0150787D01*
X0006322Y0150198D02*
X0009155Y0150198D01*
X0009155Y0149609D02*
X0006322Y0149609D01*
X0006322Y0149019D02*
X0009155Y0149019D01*
X0009490Y0148430D02*
X0006322Y0148430D01*
X0006322Y0147841D02*
X0034449Y0147841D01*
X0034449Y0147252D02*
X0006322Y0147252D01*
X0006322Y0146663D02*
X0034449Y0146663D01*
X0034449Y0146074D02*
X0006322Y0146074D01*
X0006322Y0145485D02*
X0034694Y0145485D01*
X0034449Y0144896D02*
X0006322Y0144896D01*
X0006322Y0144307D02*
X0034449Y0144307D01*
X0034449Y0143718D02*
X0006322Y0143718D01*
X0006322Y0143129D02*
X0034449Y0143129D01*
X0034449Y0142540D02*
X0006322Y0142540D01*
X0006322Y0141951D02*
X0034449Y0141951D01*
X0034449Y0141362D02*
X0006322Y0141362D01*
X0006322Y0140773D02*
X0034449Y0140773D01*
X0034618Y0140184D02*
X0006322Y0140184D01*
X0006322Y0139594D02*
X0034449Y0139594D01*
X0034449Y0139005D02*
X0006322Y0139005D01*
X0006322Y0138416D02*
X0034449Y0138416D01*
X0034449Y0137827D02*
X0006322Y0137827D01*
X0006322Y0137238D02*
X0034449Y0137238D01*
X0034449Y0136649D02*
X0006322Y0136649D01*
X0006322Y0136060D02*
X0034449Y0136060D01*
X0034708Y0135471D02*
X0006322Y0135471D01*
X0006322Y0134882D02*
X0034449Y0134882D01*
X0034449Y0134293D02*
X0027960Y0134293D01*
X0027821Y0134432D02*
X0024679Y0134432D01*
X0024179Y0133932D01*
X0023321Y0133932D01*
X0022821Y0134432D01*
X0019679Y0134432D01*
X0019192Y0133945D01*
X0018308Y0133945D01*
X0017821Y0134432D01*
X0014679Y0134432D01*
X0014179Y0133932D01*
X0013321Y0133932D01*
X0012821Y0134432D01*
X0009679Y0134432D01*
X0009155Y0133908D01*
X0009155Y0133243D01*
X0008372Y0132460D01*
X0007855Y0131212D01*
X0007855Y0129861D01*
X0008372Y0128613D01*
X0009155Y0127830D01*
X0009155Y0127166D01*
X0009679Y0126641D01*
X0012821Y0126641D01*
X0013321Y0127141D01*
X0014179Y0127141D01*
X0014679Y0126641D01*
X0017821Y0126641D01*
X0018321Y0127141D01*
X0019179Y0127141D01*
X0019679Y0126641D01*
X0022821Y0126641D01*
X0023321Y0127141D01*
X0024179Y0127141D01*
X0024679Y0126641D01*
X0027821Y0126641D01*
X0028345Y0127166D01*
X0028345Y0127830D01*
X0029128Y0128613D01*
X0029645Y0129861D01*
X0029645Y0131212D01*
X0029128Y0132460D01*
X0028345Y0133243D01*
X0028345Y0133908D01*
X0027821Y0134432D01*
X0028345Y0133704D02*
X0034449Y0133704D01*
X0034449Y0133115D02*
X0028474Y0133115D01*
X0029063Y0132526D02*
X0034449Y0132526D01*
X0034449Y0131937D02*
X0029345Y0131937D01*
X0029589Y0131348D02*
X0034449Y0131348D01*
X0034449Y0130759D02*
X0029645Y0130759D01*
X0029645Y0130169D02*
X0034604Y0130169D01*
X0034449Y0129580D02*
X0029529Y0129580D01*
X0029285Y0128991D02*
X0034449Y0128991D01*
X0034449Y0128402D02*
X0028917Y0128402D01*
X0028345Y0127813D02*
X0034449Y0127813D01*
X0034449Y0127224D02*
X0028345Y0127224D01*
X0028412Y0124935D02*
X0027433Y0124780D01*
X0026491Y0124474D01*
X0025608Y0124024D01*
X0024806Y0123442D01*
X0024106Y0122741D01*
X0023523Y0121939D01*
X0023073Y0121056D01*
X0022767Y0120114D01*
X0022612Y0119135D01*
X0022612Y0118935D01*
X0028612Y0118935D01*
X0028612Y0118345D01*
X0022612Y0118345D01*
X0022612Y0118144D01*
X0022767Y0117166D01*
X0023073Y0116223D01*
X0023523Y0115340D01*
X0024106Y0114539D01*
X0024806Y0113838D01*
X0025608Y0113256D01*
X0026491Y0112806D01*
X0027433Y0112500D01*
X0028412Y0112345D01*
X0028612Y0112345D01*
X0028612Y0118345D01*
X0029203Y0118345D01*
X0029203Y0118935D01*
X0028612Y0118935D01*
X0028612Y0124935D01*
X0028412Y0124935D01*
X0028612Y0124868D02*
X0029203Y0124868D01*
X0029203Y0124279D02*
X0028612Y0124279D01*
X0028612Y0123690D02*
X0029203Y0123690D01*
X0029203Y0123101D02*
X0028612Y0123101D01*
X0028612Y0122512D02*
X0029203Y0122512D01*
X0029203Y0121923D02*
X0028612Y0121923D01*
X0028612Y0121334D02*
X0029203Y0121334D01*
X0029203Y0120744D02*
X0028612Y0120744D01*
X0028612Y0120155D02*
X0029203Y0120155D01*
X0029203Y0119566D02*
X0028612Y0119566D01*
X0028612Y0118977D02*
X0029203Y0118977D01*
X0029203Y0118388D02*
X0035926Y0118388D01*
X0035926Y0118977D02*
X0035203Y0118977D01*
X0035134Y0119566D02*
X0035926Y0119566D01*
X0036135Y0120155D02*
X0035034Y0120155D01*
X0034843Y0120744D02*
X0036379Y0120744D01*
X0036878Y0121334D02*
X0034600Y0121334D01*
X0034300Y0121923D02*
X0037566Y0121923D01*
X0039162Y0122512D02*
X0033876Y0122512D01*
X0033349Y0123101D02*
X0039751Y0123101D01*
X0040340Y0123690D02*
X0032667Y0123690D01*
X0034722Y0125457D02*
X0006322Y0125457D01*
X0006322Y0126046D02*
X0034449Y0126046D01*
X0034449Y0126635D02*
X0006322Y0126635D01*
X0006322Y0127224D02*
X0009155Y0127224D01*
X0009155Y0127813D02*
X0006322Y0127813D01*
X0006322Y0128402D02*
X0008583Y0128402D01*
X0008215Y0128991D02*
X0006322Y0128991D01*
X0006322Y0129580D02*
X0007971Y0129580D01*
X0007855Y0130169D02*
X0006322Y0130169D01*
X0006322Y0130759D02*
X0007855Y0130759D01*
X0007911Y0131348D02*
X0006322Y0131348D01*
X0006322Y0131937D02*
X0008155Y0131937D01*
X0008437Y0132526D02*
X0006322Y0132526D01*
X0006322Y0133115D02*
X0009026Y0133115D01*
X0009155Y0133704D02*
X0006322Y0133704D01*
X0006322Y0134293D02*
X0009540Y0134293D01*
X0012960Y0134293D02*
X0014540Y0134293D01*
X0017960Y0134293D02*
X0019540Y0134293D01*
X0022960Y0134293D02*
X0024540Y0134293D01*
X0027988Y0124868D02*
X0006322Y0124868D01*
X0006322Y0124279D02*
X0026108Y0124279D01*
X0025148Y0123690D02*
X0006322Y0123690D01*
X0006322Y0123101D02*
X0024466Y0123101D01*
X0023939Y0122512D02*
X0006322Y0122512D01*
X0006322Y0121923D02*
X0023515Y0121923D01*
X0023215Y0121334D02*
X0006322Y0121334D01*
X0006322Y0120744D02*
X0022972Y0120744D01*
X0022781Y0120155D02*
X0006322Y0120155D01*
X0006322Y0119566D02*
X0022680Y0119566D01*
X0022612Y0118977D02*
X0014241Y0118977D01*
X0014596Y0118388D02*
X0028612Y0118388D01*
X0028612Y0117799D02*
X0029203Y0117799D01*
X0029203Y0118345D02*
X0029203Y0112345D01*
X0029403Y0112345D01*
X0030382Y0112500D01*
X0031324Y0112806D01*
X0032207Y0113256D01*
X0033009Y0113838D01*
X0033709Y0114539D01*
X0034292Y0115340D01*
X0034742Y0116223D01*
X0035048Y0117166D01*
X0035203Y0118144D01*
X0035203Y0118345D01*
X0029203Y0118345D01*
X0029203Y0117210D02*
X0028612Y0117210D01*
X0028612Y0116621D02*
X0029203Y0116621D01*
X0029203Y0116032D02*
X0028612Y0116032D01*
X0028612Y0115443D02*
X0029203Y0115443D01*
X0029203Y0114854D02*
X0028612Y0114854D01*
X0028612Y0114265D02*
X0029203Y0114265D01*
X0029203Y0113676D02*
X0028612Y0113676D01*
X0028612Y0113087D02*
X0029203Y0113087D01*
X0029203Y0112498D02*
X0028612Y0112498D01*
X0027446Y0112498D02*
X0019261Y0112498D01*
X0018731Y0113087D02*
X0025940Y0113087D01*
X0025030Y0113676D02*
X0018201Y0113676D01*
X0017670Y0114265D02*
X0024380Y0114265D01*
X0023877Y0114854D02*
X0017140Y0114854D01*
X0016609Y0115443D02*
X0023471Y0115443D01*
X0023171Y0116032D02*
X0016079Y0116032D01*
X0015602Y0116621D02*
X0022944Y0116621D01*
X0022760Y0117210D02*
X0015262Y0117210D01*
X0014922Y0117799D02*
X0022667Y0117799D01*
X0019792Y0111909D02*
X0034193Y0111909D01*
X0034193Y0112498D02*
X0030369Y0112498D01*
X0031875Y0113087D02*
X0034193Y0113087D01*
X0034193Y0113676D02*
X0032785Y0113676D01*
X0033435Y0114265D02*
X0034193Y0114265D01*
X0034193Y0114854D02*
X0033938Y0114854D01*
X0034344Y0115443D02*
X0034444Y0115443D01*
X0034644Y0116032D02*
X0037552Y0116032D01*
X0036873Y0116621D02*
X0034871Y0116621D01*
X0035055Y0117210D02*
X0036377Y0117210D01*
X0036133Y0117799D02*
X0035148Y0117799D01*
X0039478Y0117793D02*
X0039321Y0118974D01*
X0034193Y0111319D02*
X0020322Y0111319D01*
X0020853Y0110730D02*
X0034193Y0110730D01*
X0034193Y0110141D02*
X0021383Y0110141D01*
X0021913Y0109552D02*
X0034564Y0109552D01*
X0034670Y0108963D02*
X0022444Y0108963D01*
X0022974Y0108374D02*
X0033962Y0108374D01*
X0033793Y0107785D02*
X0023504Y0107785D01*
X0024035Y0107196D02*
X0033793Y0107196D01*
X0033793Y0106607D02*
X0024565Y0106607D01*
X0025096Y0106018D02*
X0033793Y0106018D01*
X0033793Y0105175D02*
X0033793Y0103036D01*
X0033882Y0102707D01*
X0034052Y0102411D01*
X0034293Y0102170D01*
X0034589Y0102000D01*
X0034918Y0101911D01*
X0037648Y0101911D01*
X0037648Y0105175D01*
X0033793Y0105175D01*
X0033793Y0104840D02*
X0026381Y0104840D01*
X0025626Y0105429D02*
X0037648Y0105429D01*
X0037648Y0104840D02*
X0038238Y0104840D01*
X0038238Y0104251D02*
X0037648Y0104251D01*
X0037648Y0103662D02*
X0038238Y0103662D01*
X0038238Y0103073D02*
X0037648Y0103073D01*
X0037648Y0102484D02*
X0038238Y0102484D01*
X0041339Y0101894D02*
X0030435Y0101894D01*
X0031246Y0101305D02*
X0041339Y0101305D01*
X0041339Y0100716D02*
X0032056Y0100716D01*
X0032867Y0100127D02*
X0041339Y0100127D01*
X0041339Y0099538D02*
X0033678Y0099538D01*
X0034489Y0098949D02*
X0041339Y0098949D01*
X0041339Y0098360D02*
X0035299Y0098360D01*
X0036110Y0097771D02*
X0041339Y0097771D01*
X0041339Y0097182D02*
X0036921Y0097182D01*
X0037732Y0096593D02*
X0041339Y0096593D01*
X0041478Y0096004D02*
X0038972Y0096004D01*
X0040295Y0095415D02*
X0055324Y0095415D01*
X0055913Y0094826D02*
X0041618Y0094826D01*
X0042941Y0094237D02*
X0056502Y0094237D01*
X0057091Y0093648D02*
X0044264Y0093648D01*
X0045587Y0093059D02*
X0057680Y0093059D01*
X0058269Y0092469D02*
X0046910Y0092469D01*
X0048233Y0091880D02*
X0058858Y0091880D01*
X0059447Y0091291D02*
X0049557Y0091291D01*
X0050880Y0090702D02*
X0060036Y0090702D01*
X0060625Y0090113D02*
X0052902Y0090113D01*
X0055673Y0089524D02*
X0061214Y0089524D01*
X0061803Y0088935D02*
X0058444Y0088935D01*
X0061215Y0088346D02*
X0062392Y0088346D01*
X0063986Y0087757D02*
X0068623Y0087757D01*
X0067352Y0091880D02*
X0063617Y0091880D01*
X0063028Y0092469D02*
X0067317Y0092469D01*
X0063829Y0098949D02*
X0063238Y0098949D01*
X0063238Y0099538D02*
X0063829Y0099538D01*
X0063829Y0100127D02*
X0063238Y0100127D01*
X0063238Y0100716D02*
X0063829Y0100716D01*
X0063829Y0101305D02*
X0063238Y0101305D01*
X0067088Y0102484D02*
X0068005Y0102484D01*
X0068280Y0103073D02*
X0067283Y0103073D01*
X0072943Y0107045D02*
X0070463Y0109526D01*
X0070463Y0110510D01*
X0073927Y0108325D02*
X0073927Y0115608D01*
X0069990Y0115608D01*
X0068858Y0118388D02*
X0068603Y0118388D01*
X0073297Y0117990D02*
X0073415Y0118108D01*
X0080915Y0118108D01*
X0079688Y0117585D02*
X0079447Y0117826D01*
X0079152Y0117996D01*
X0078822Y0118085D01*
X0077766Y0118085D01*
X0077766Y0115904D01*
X0079947Y0115904D01*
X0079947Y0116960D01*
X0079859Y0117289D01*
X0079688Y0117585D01*
X0079474Y0117799D02*
X0099041Y0117799D01*
X0098603Y0118388D02*
X0099630Y0118388D01*
X0099705Y0118977D02*
X0098897Y0118977D01*
X0098897Y0119566D02*
X0099705Y0119566D01*
X0099944Y0120155D02*
X0098897Y0120155D01*
X0098897Y0120744D02*
X0101986Y0120744D01*
X0102575Y0121334D02*
X0098897Y0121334D01*
X0098897Y0121923D02*
X0103164Y0121923D01*
X0103753Y0122512D02*
X0098897Y0122512D01*
X0098897Y0123101D02*
X0104342Y0123101D01*
X0104931Y0123690D02*
X0098897Y0123690D01*
X0098897Y0124279D02*
X0105520Y0124279D01*
X0106109Y0124868D02*
X0098897Y0124868D01*
X0098770Y0125457D02*
X0105588Y0125457D01*
X0105315Y0127224D02*
X0047854Y0127224D01*
X0047854Y0127813D02*
X0105315Y0127813D01*
X0105315Y0128402D02*
X0047854Y0128402D01*
X0047854Y0128991D02*
X0105315Y0128991D01*
X0105315Y0129580D02*
X0047854Y0129580D01*
X0047854Y0130169D02*
X0105470Y0130169D01*
X0101977Y0133531D02*
X0104036Y0135590D01*
X0104036Y0141200D01*
X0104733Y0141897D01*
X0105315Y0142479D01*
X0105315Y0145015D01*
X0105673Y0145372D01*
X0105315Y0145730D01*
X0105315Y0150015D01*
X0105673Y0150372D01*
X0105315Y0150730D01*
X0105315Y0155015D01*
X0105673Y0155372D01*
X0105315Y0155730D01*
X0105315Y0160015D01*
X0105673Y0160372D01*
X0105315Y0160730D01*
X0105315Y0165015D01*
X0105673Y0165372D01*
X0105315Y0165730D01*
X0105315Y0170015D01*
X0105673Y0170372D01*
X0105315Y0170730D01*
X0105315Y0171701D01*
X0103259Y0171701D01*
X0101496Y0169938D01*
X0101496Y0141101D01*
X0103070Y0139527D01*
X0103070Y0136178D01*
X0102373Y0135481D01*
X0100995Y0134103D01*
X0097154Y0134103D01*
X0096457Y0134800D01*
X0095494Y0135763D01*
X0093945Y0135763D01*
X0092606Y0137102D01*
X0092606Y0138996D01*
X0093945Y0140335D01*
X0095839Y0140335D01*
X0096909Y0139264D01*
X0097835Y0140190D01*
X0097835Y0172007D01*
X0104134Y0178306D01*
X0104832Y0179004D01*
X0105315Y0179004D01*
X0105315Y0180015D01*
X0105673Y0180372D01*
X0105315Y0180730D01*
X0105315Y0185015D01*
X0105673Y0185372D01*
X0105315Y0185730D01*
X0105315Y0190015D01*
X0105390Y0190089D01*
X0105174Y0190305D01*
X0105004Y0190601D01*
X0104915Y0190930D01*
X0104915Y0192577D01*
X0108868Y0192577D01*
X0108868Y0193167D01*
X0104915Y0193167D01*
X0104915Y0194814D01*
X0105004Y0195144D01*
X0105174Y0195439D01*
X0105415Y0195680D01*
X0105473Y0195714D01*
X0041987Y0195714D01*
X0042045Y0195680D01*
X0042286Y0195439D01*
X0042457Y0195144D01*
X0042545Y0194814D01*
X0042545Y0193167D01*
X0038593Y0193167D01*
X0038593Y0192577D01*
X0042545Y0192577D01*
X0042545Y0190930D01*
X0042457Y0190601D01*
X0042286Y0190305D01*
X0042071Y0190089D01*
X0042145Y0190015D01*
X0042145Y0185730D01*
X0041788Y0185372D01*
X0042145Y0185015D01*
X0042145Y0184063D01*
X0043338Y0184063D01*
X0044035Y0183365D01*
X0048208Y0179192D01*
X0048208Y0162420D01*
X0054763Y0155865D01*
X0054763Y0152027D01*
X0072019Y0134771D01*
X0080756Y0134771D01*
X0080756Y0136181D01*
X0082095Y0137520D01*
X0083988Y0137520D01*
X0085327Y0136181D01*
X0085327Y0134288D01*
X0084571Y0133531D01*
X0101977Y0133531D01*
X0102150Y0133704D02*
X0084744Y0133704D01*
X0085327Y0134293D02*
X0096964Y0134293D01*
X0096375Y0134882D02*
X0085327Y0134882D01*
X0085327Y0135471D02*
X0095786Y0135471D01*
X0093648Y0136060D02*
X0085327Y0136060D01*
X0084859Y0136649D02*
X0093059Y0136649D01*
X0092606Y0137238D02*
X0084270Y0137238D01*
X0083041Y0135234D02*
X0081388Y0133581D01*
X0071526Y0133581D01*
X0053573Y0151534D01*
X0053573Y0155372D01*
X0054763Y0155499D02*
X0060624Y0155499D01*
X0060624Y0154910D02*
X0054763Y0154910D01*
X0054763Y0154321D02*
X0060624Y0154321D01*
X0060624Y0153732D02*
X0054763Y0153732D01*
X0054763Y0153143D02*
X0060624Y0153143D01*
X0060624Y0152554D02*
X0054763Y0152554D01*
X0054825Y0151965D02*
X0060624Y0151965D01*
X0060624Y0151376D02*
X0055414Y0151376D01*
X0056003Y0150787D02*
X0060624Y0150787D01*
X0060624Y0150576D02*
X0060712Y0150246D01*
X0060883Y0149951D01*
X0061124Y0149710D01*
X0061419Y0149539D01*
X0061749Y0149451D01*
X0073435Y0149451D01*
X0073435Y0162262D01*
X0060624Y0162262D01*
X0060624Y0150576D01*
X0060740Y0150198D02*
X0056592Y0150198D01*
X0057181Y0149609D02*
X0061299Y0149609D01*
X0059538Y0147252D02*
X0097835Y0147252D01*
X0097835Y0146663D02*
X0060127Y0146663D01*
X0060716Y0146074D02*
X0097835Y0146074D01*
X0097835Y0145485D02*
X0061305Y0145485D01*
X0061894Y0144896D02*
X0097835Y0144896D01*
X0097835Y0144307D02*
X0062483Y0144307D01*
X0063072Y0143718D02*
X0097835Y0143718D01*
X0097835Y0143129D02*
X0063661Y0143129D01*
X0064250Y0142540D02*
X0097835Y0142540D01*
X0097835Y0141951D02*
X0064839Y0141951D01*
X0065428Y0141362D02*
X0097835Y0141362D01*
X0097835Y0140773D02*
X0066017Y0140773D01*
X0066606Y0140184D02*
X0093793Y0140184D01*
X0093204Y0139594D02*
X0067196Y0139594D01*
X0067785Y0139005D02*
X0092615Y0139005D01*
X0092606Y0138416D02*
X0068374Y0138416D01*
X0068963Y0137827D02*
X0092606Y0137827D01*
X0094892Y0138049D02*
X0097648Y0135293D01*
X0100502Y0135293D01*
X0101880Y0136671D01*
X0101880Y0139034D01*
X0100305Y0140608D01*
X0100305Y0170431D01*
X0102766Y0172892D01*
X0109144Y0172892D01*
X0109163Y0172872D01*
X0105315Y0171404D02*
X0102961Y0171404D01*
X0102372Y0170815D02*
X0105315Y0170815D01*
X0105527Y0170226D02*
X0101783Y0170226D01*
X0101496Y0169637D02*
X0105315Y0169637D01*
X0105315Y0169048D02*
X0101496Y0169048D01*
X0101496Y0168459D02*
X0105315Y0168459D01*
X0105315Y0167869D02*
X0101496Y0167869D01*
X0101496Y0167280D02*
X0105315Y0167280D01*
X0105315Y0166691D02*
X0101496Y0166691D01*
X0101496Y0166102D02*
X0105315Y0166102D01*
X0105532Y0165513D02*
X0101496Y0165513D01*
X0101496Y0164924D02*
X0105315Y0164924D01*
X0105315Y0164335D02*
X0101496Y0164335D01*
X0101496Y0163746D02*
X0105315Y0163746D01*
X0105315Y0163157D02*
X0101496Y0163157D01*
X0101496Y0162568D02*
X0105315Y0162568D01*
X0105315Y0161979D02*
X0101496Y0161979D01*
X0101496Y0161390D02*
X0105315Y0161390D01*
X0105315Y0160801D02*
X0101496Y0160801D01*
X0101496Y0160212D02*
X0105512Y0160212D01*
X0105315Y0159623D02*
X0101496Y0159623D01*
X0101496Y0159034D02*
X0105315Y0159034D01*
X0105315Y0158444D02*
X0101496Y0158444D01*
X0101496Y0157855D02*
X0105315Y0157855D01*
X0105315Y0157266D02*
X0101496Y0157266D01*
X0101496Y0156677D02*
X0105315Y0156677D01*
X0105315Y0156088D02*
X0101496Y0156088D01*
X0101496Y0155499D02*
X0105546Y0155499D01*
X0105315Y0154910D02*
X0101496Y0154910D01*
X0101496Y0154321D02*
X0105315Y0154321D01*
X0105315Y0153732D02*
X0101496Y0153732D01*
X0101496Y0153143D02*
X0105315Y0153143D01*
X0105315Y0152554D02*
X0101496Y0152554D01*
X0101496Y0151965D02*
X0105315Y0151965D01*
X0105315Y0151376D02*
X0101496Y0151376D01*
X0101496Y0150787D02*
X0105315Y0150787D01*
X0105498Y0150198D02*
X0101496Y0150198D01*
X0101496Y0149609D02*
X0105315Y0149609D01*
X0105315Y0149019D02*
X0101496Y0149019D01*
X0101496Y0148430D02*
X0105315Y0148430D01*
X0105315Y0147841D02*
X0101496Y0147841D01*
X0101496Y0147252D02*
X0105315Y0147252D01*
X0105315Y0146663D02*
X0101496Y0146663D01*
X0101496Y0146074D02*
X0105315Y0146074D01*
X0105560Y0145485D02*
X0101496Y0145485D01*
X0101496Y0144896D02*
X0105315Y0144896D01*
X0105315Y0144307D02*
X0101496Y0144307D01*
X0101496Y0143718D02*
X0105315Y0143718D01*
X0105315Y0143129D02*
X0101496Y0143129D01*
X0101496Y0142540D02*
X0105315Y0142540D01*
X0104787Y0141951D02*
X0101496Y0141951D01*
X0101496Y0141362D02*
X0104198Y0141362D01*
X0104036Y0140773D02*
X0101825Y0140773D01*
X0102414Y0140184D02*
X0104036Y0140184D01*
X0104036Y0139594D02*
X0103003Y0139594D01*
X0103070Y0139005D02*
X0104036Y0139005D01*
X0104036Y0138416D02*
X0103070Y0138416D01*
X0103070Y0137827D02*
X0104036Y0137827D01*
X0104036Y0137238D02*
X0103070Y0137238D01*
X0103070Y0136649D02*
X0104036Y0136649D01*
X0104036Y0136060D02*
X0102952Y0136060D01*
X0102363Y0135471D02*
X0103917Y0135471D01*
X0103328Y0134882D02*
X0101774Y0134882D01*
X0101185Y0134293D02*
X0102739Y0134293D01*
X0105226Y0135097D02*
X0105226Y0140707D01*
X0107392Y0142872D01*
X0109163Y0142872D01*
X0113011Y0143129D02*
X0118858Y0143129D01*
X0118269Y0142540D02*
X0113011Y0142540D01*
X0113011Y0141951D02*
X0117680Y0141951D01*
X0117091Y0141362D02*
X0113011Y0141362D01*
X0113011Y0140773D02*
X0116502Y0140773D01*
X0115913Y0140184D02*
X0112842Y0140184D01*
X0113011Y0139594D02*
X0115324Y0139594D01*
X0115285Y0137872D02*
X0121959Y0144545D01*
X0121959Y0155011D01*
X0121998Y0155050D01*
X0117891Y0155050D01*
X0116959Y0155982D01*
X0119035Y0156677D02*
X0119903Y0156677D01*
X0119903Y0157266D02*
X0119035Y0157266D01*
X0118714Y0157855D02*
X0119903Y0157855D01*
X0119926Y0158444D02*
X0113011Y0158444D01*
X0113011Y0157855D02*
X0115203Y0157855D01*
X0114882Y0157266D02*
X0113011Y0157266D01*
X0113011Y0156677D02*
X0114882Y0156677D01*
X0114882Y0156088D02*
X0113011Y0156088D01*
X0112781Y0155499D02*
X0114882Y0155499D01*
X0114882Y0154910D02*
X0113011Y0154910D01*
X0113011Y0154321D02*
X0114687Y0154321D01*
X0114482Y0153732D02*
X0113011Y0153732D01*
X0113011Y0153143D02*
X0114482Y0153143D01*
X0114482Y0151965D02*
X0113011Y0151965D01*
X0113011Y0152554D02*
X0116663Y0152554D01*
X0116959Y0152439D02*
X0116959Y0149683D01*
X0116939Y0149663D01*
X0116663Y0150198D02*
X0117254Y0150198D01*
X0117254Y0150787D02*
X0116663Y0150787D01*
X0116663Y0151376D02*
X0117254Y0151376D01*
X0117254Y0151965D02*
X0116663Y0151965D01*
X0117254Y0152554D02*
X0119903Y0152554D01*
X0119903Y0153143D02*
X0119435Y0153143D01*
X0119435Y0153732D02*
X0119903Y0153732D01*
X0119903Y0151965D02*
X0119435Y0151965D01*
X0119435Y0151376D02*
X0120206Y0151376D01*
X0120768Y0150787D02*
X0119354Y0150787D01*
X0118894Y0150198D02*
X0120768Y0150198D01*
X0120768Y0149609D02*
X0113011Y0149609D01*
X0113011Y0149019D02*
X0120768Y0149019D01*
X0120768Y0148430D02*
X0113011Y0148430D01*
X0113011Y0147841D02*
X0120768Y0147841D01*
X0120768Y0147252D02*
X0113011Y0147252D01*
X0113011Y0146663D02*
X0120768Y0146663D01*
X0120768Y0146074D02*
X0113011Y0146074D01*
X0112767Y0145485D02*
X0120768Y0145485D01*
X0120626Y0144896D02*
X0113011Y0144896D01*
X0113011Y0144307D02*
X0120037Y0144307D01*
X0119448Y0143718D02*
X0113011Y0143718D01*
X0115285Y0137872D02*
X0109163Y0137872D01*
X0113011Y0136649D02*
X0119903Y0136649D01*
X0119903Y0136821D02*
X0119903Y0136156D01*
X0119120Y0135373D01*
X0118603Y0134125D01*
X0118603Y0132775D01*
X0119120Y0131527D01*
X0119903Y0130744D01*
X0119903Y0130079D01*
X0120427Y0129555D01*
X0123569Y0129555D01*
X0124069Y0130055D01*
X0124927Y0130055D01*
X0125427Y0129555D01*
X0128569Y0129555D01*
X0128879Y0129865D01*
X0128960Y0129831D01*
X0130151Y0129831D01*
X0130427Y0129555D01*
X0133569Y0129555D01*
X0134069Y0130055D01*
X0134927Y0130055D01*
X0135427Y0129555D01*
X0138569Y0129555D01*
X0139093Y0130079D01*
X0139093Y0130744D01*
X0139876Y0131527D01*
X0140393Y0132775D01*
X0140393Y0134125D01*
X0139876Y0135373D01*
X0139093Y0136156D01*
X0139093Y0136821D01*
X0138569Y0137345D01*
X0135427Y0137345D01*
X0134927Y0136845D01*
X0134069Y0136845D01*
X0133569Y0137345D01*
X0130427Y0137345D01*
X0129927Y0136845D01*
X0129069Y0136845D01*
X0128569Y0137345D01*
X0125427Y0137345D01*
X0124927Y0136845D01*
X0124069Y0136845D01*
X0123569Y0137345D01*
X0120427Y0137345D01*
X0119903Y0136821D01*
X0120320Y0137238D02*
X0116335Y0137238D01*
X0116924Y0137827D02*
X0141139Y0137827D01*
X0141139Y0137238D02*
X0138676Y0137238D01*
X0139093Y0136649D02*
X0141139Y0136649D01*
X0141139Y0136060D02*
X0139190Y0136060D01*
X0139779Y0135471D02*
X0141139Y0135471D01*
X0141139Y0134882D02*
X0140080Y0134882D01*
X0140324Y0134293D02*
X0141139Y0134293D01*
X0141139Y0133704D02*
X0140393Y0133704D01*
X0140393Y0133115D02*
X0141139Y0133115D01*
X0141139Y0132526D02*
X0140290Y0132526D01*
X0140046Y0131937D02*
X0141139Y0131937D01*
X0141139Y0131348D02*
X0139697Y0131348D01*
X0139108Y0130759D02*
X0141139Y0130759D01*
X0141139Y0130169D02*
X0139093Y0130169D01*
X0138594Y0129580D02*
X0141139Y0129580D01*
X0141139Y0128991D02*
X0113011Y0128991D01*
X0113011Y0128402D02*
X0141139Y0128402D01*
X0141139Y0127813D02*
X0126525Y0127813D01*
X0127947Y0127224D02*
X0141139Y0127224D01*
X0141139Y0126635D02*
X0128875Y0126635D01*
X0129464Y0126046D02*
X0141139Y0126046D01*
X0141139Y0125457D02*
X0130053Y0125457D01*
X0130374Y0124868D02*
X0141139Y0124868D01*
X0141139Y0124279D02*
X0130618Y0124279D01*
X0130862Y0123690D02*
X0141139Y0123690D01*
X0141139Y0123101D02*
X0131082Y0123101D01*
X0131082Y0122512D02*
X0141139Y0122512D01*
X0141139Y0121923D02*
X0131082Y0121923D01*
X0131082Y0121334D02*
X0141139Y0121334D01*
X0141139Y0120744D02*
X0131054Y0120744D01*
X0130810Y0120155D02*
X0141139Y0120155D01*
X0141139Y0119566D02*
X0130566Y0119566D01*
X0130322Y0118977D02*
X0133219Y0118977D01*
X0132864Y0118388D02*
X0129926Y0118388D01*
X0129337Y0117799D02*
X0132539Y0117799D01*
X0132199Y0117210D02*
X0128748Y0117210D01*
X0127639Y0116621D02*
X0131859Y0116621D01*
X0131382Y0116032D02*
X0114286Y0116032D01*
X0113948Y0116370D02*
X0112331Y0116370D01*
X0112127Y0116864D01*
X0111143Y0117847D01*
X0109859Y0118379D01*
X0108468Y0118379D01*
X0107183Y0117847D01*
X0106200Y0116864D01*
X0105668Y0115579D01*
X0105668Y0114189D01*
X0106200Y0112904D01*
X0107183Y0111921D01*
X0108468Y0111389D01*
X0109859Y0111389D01*
X0111143Y0111921D01*
X0112127Y0112904D01*
X0112331Y0113398D01*
X0112717Y0113398D01*
X0113189Y0112926D01*
X0113189Y0108249D01*
X0113714Y0107725D01*
X0121148Y0107725D01*
X0121673Y0108249D01*
X0121673Y0113322D01*
X0121148Y0113846D01*
X0116472Y0113846D01*
X0114818Y0115499D01*
X0113948Y0116370D01*
X0114875Y0115443D02*
X0130851Y0115443D01*
X0130321Y0114854D02*
X0115464Y0114854D01*
X0116053Y0114265D02*
X0129790Y0114265D01*
X0129260Y0113676D02*
X0121319Y0113676D01*
X0121673Y0113087D02*
X0128730Y0113087D01*
X0128199Y0112498D02*
X0121673Y0112498D01*
X0121673Y0111909D02*
X0127669Y0111909D01*
X0127138Y0111319D02*
X0121673Y0111319D01*
X0121673Y0110730D02*
X0126608Y0110730D01*
X0126078Y0110141D02*
X0121673Y0110141D01*
X0121673Y0109552D02*
X0125547Y0109552D01*
X0125017Y0108963D02*
X0121673Y0108963D01*
X0121673Y0108374D02*
X0124487Y0108374D01*
X0123956Y0107785D02*
X0121209Y0107785D01*
X0122365Y0106018D02*
X0113059Y0106018D01*
X0113059Y0106589D02*
X0109459Y0106589D01*
X0109459Y0107179D01*
X0113059Y0107179D01*
X0113059Y0108497D01*
X0110777Y0110779D01*
X0109459Y0110779D01*
X0109459Y0107179D01*
X0108868Y0107179D01*
X0108868Y0106589D01*
X0105268Y0106589D01*
X0105268Y0105270D01*
X0107550Y0102989D01*
X0108868Y0102989D01*
X0108868Y0106589D01*
X0109459Y0106589D01*
X0109459Y0102989D01*
X0110777Y0102989D01*
X0113059Y0105270D01*
X0113059Y0106589D01*
X0113059Y0107196D02*
X0123426Y0107196D01*
X0122895Y0106607D02*
X0109459Y0106607D01*
X0109459Y0107196D02*
X0108868Y0107196D01*
X0108868Y0107179D02*
X0108868Y0110779D01*
X0107550Y0110779D01*
X0105268Y0108497D01*
X0105268Y0107179D01*
X0108868Y0107179D01*
X0108868Y0106607D02*
X0097856Y0106607D01*
X0097892Y0106018D02*
X0105268Y0106018D01*
X0105268Y0105429D02*
X0097892Y0105429D01*
X0097739Y0104840D02*
X0105699Y0104840D01*
X0106288Y0104251D02*
X0097495Y0104251D01*
X0097054Y0103662D02*
X0106877Y0103662D01*
X0107466Y0103073D02*
X0096465Y0103073D01*
X0097913Y0101305D02*
X0116215Y0101305D01*
X0115404Y0100716D02*
X0098250Y0100716D01*
X0098292Y0100127D02*
X0114593Y0100127D01*
X0113783Y0099538D02*
X0098292Y0099538D01*
X0098292Y0098949D02*
X0112972Y0098949D01*
X0112161Y0098360D02*
X0098292Y0098360D01*
X0094892Y0098360D02*
X0094301Y0098360D01*
X0094301Y0098949D02*
X0094892Y0098949D01*
X0094892Y0099538D02*
X0094301Y0099538D01*
X0094301Y0100127D02*
X0094892Y0100127D01*
X0094892Y0100716D02*
X0094301Y0100716D01*
X0094301Y0101305D02*
X0094892Y0101305D01*
X0092728Y0103073D02*
X0091422Y0103073D01*
X0091948Y0103662D02*
X0092139Y0103662D01*
X0090833Y0102484D02*
X0117837Y0102484D01*
X0118647Y0103073D02*
X0110861Y0103073D01*
X0111450Y0103662D02*
X0119458Y0103662D01*
X0120269Y0104251D02*
X0112039Y0104251D01*
X0112628Y0104840D02*
X0121080Y0104840D01*
X0121835Y0105429D02*
X0113059Y0105429D01*
X0113059Y0107785D02*
X0113654Y0107785D01*
X0113189Y0108374D02*
X0113059Y0108374D01*
X0113189Y0108963D02*
X0112593Y0108963D01*
X0112004Y0109552D02*
X0113189Y0109552D01*
X0113189Y0110141D02*
X0111415Y0110141D01*
X0110826Y0110730D02*
X0113189Y0110730D01*
X0113189Y0111319D02*
X0099176Y0111319D01*
X0098587Y0110730D02*
X0107501Y0110730D01*
X0106912Y0110141D02*
X0097998Y0110141D01*
X0097409Y0109552D02*
X0106323Y0109552D01*
X0105734Y0108963D02*
X0096820Y0108963D01*
X0096747Y0108374D02*
X0105268Y0108374D01*
X0105268Y0107785D02*
X0097336Y0107785D01*
X0097612Y0107196D02*
X0105268Y0107196D01*
X0108868Y0107785D02*
X0109459Y0107785D01*
X0109459Y0108374D02*
X0108868Y0108374D01*
X0108868Y0108963D02*
X0109459Y0108963D01*
X0109459Y0109552D02*
X0108868Y0109552D01*
X0108868Y0110141D02*
X0109459Y0110141D01*
X0109459Y0110730D02*
X0108868Y0110730D01*
X0107213Y0111909D02*
X0099765Y0111909D01*
X0100354Y0112498D02*
X0106607Y0112498D01*
X0106125Y0113087D02*
X0103676Y0113087D01*
X0103858Y0113676D02*
X0105881Y0113676D01*
X0105668Y0114265D02*
X0103858Y0114265D01*
X0103858Y0114854D02*
X0105668Y0114854D01*
X0105668Y0115443D02*
X0103858Y0115443D01*
X0103858Y0116032D02*
X0105856Y0116032D01*
X0106100Y0116621D02*
X0103667Y0116621D01*
X0103858Y0117210D02*
X0106547Y0117210D01*
X0107136Y0117799D02*
X0103858Y0117799D01*
X0103858Y0118388D02*
X0120448Y0118388D01*
X0121037Y0117799D02*
X0111191Y0117799D01*
X0111780Y0117210D02*
X0121626Y0117210D01*
X0122735Y0116621D02*
X0112227Y0116621D01*
X0112202Y0113087D02*
X0113029Y0113087D01*
X0113189Y0112498D02*
X0111720Y0112498D01*
X0111114Y0111909D02*
X0113189Y0111909D01*
X0109459Y0106018D02*
X0108868Y0106018D01*
X0108868Y0105429D02*
X0109459Y0105429D01*
X0109459Y0104840D02*
X0108868Y0104840D01*
X0108868Y0104251D02*
X0109459Y0104251D01*
X0109459Y0103662D02*
X0108868Y0103662D01*
X0108868Y0103073D02*
X0109459Y0103073D01*
X0117026Y0101894D02*
X0090243Y0101894D01*
X0089654Y0101305D02*
X0091280Y0101305D01*
X0090943Y0100716D02*
X0089065Y0100716D01*
X0089246Y0100127D02*
X0090901Y0100127D01*
X0090901Y0099538D02*
X0089648Y0099538D01*
X0089892Y0098949D02*
X0090901Y0098949D01*
X0090901Y0098360D02*
X0090018Y0098360D01*
X0094301Y0096593D02*
X0094892Y0096593D01*
X0094892Y0096004D02*
X0094301Y0096004D01*
X0094301Y0095415D02*
X0094892Y0095415D01*
X0094892Y0094826D02*
X0094301Y0094826D01*
X0096581Y0090702D02*
X0076200Y0090702D01*
X0076200Y0090113D02*
X0094558Y0090113D01*
X0091787Y0089524D02*
X0076200Y0089524D01*
X0076200Y0088935D02*
X0089016Y0088935D01*
X0086245Y0088346D02*
X0076200Y0088346D01*
X0075885Y0087757D02*
X0083474Y0087757D01*
X0076639Y0091291D02*
X0097904Y0091291D01*
X0090758Y0107144D02*
X0093219Y0109604D01*
X0095778Y0109604D01*
X0100994Y0114821D01*
X0101781Y0114821D01*
X0098452Y0117210D02*
X0079880Y0117210D01*
X0079947Y0116621D02*
X0085071Y0116621D01*
X0084356Y0116032D02*
X0079947Y0116032D01*
X0079947Y0114854D02*
X0083618Y0114854D01*
X0083427Y0114265D02*
X0079947Y0114265D01*
X0079713Y0113676D02*
X0083427Y0113676D01*
X0083427Y0113087D02*
X0079621Y0113087D01*
X0079829Y0112498D02*
X0083670Y0112498D01*
X0083914Y0111909D02*
X0079829Y0111909D01*
X0079829Y0111319D02*
X0084481Y0111319D01*
X0085062Y0110730D02*
X0077057Y0110730D01*
X0077057Y0110215D02*
X0079829Y0110215D01*
X0079829Y0108469D01*
X0079740Y0108140D01*
X0079570Y0107845D01*
X0079329Y0107603D01*
X0079033Y0107433D01*
X0078704Y0107345D01*
X0077057Y0107345D01*
X0077057Y0110215D01*
X0077057Y0110141D02*
X0076467Y0110141D01*
X0076467Y0109552D02*
X0077057Y0109552D01*
X0077057Y0108963D02*
X0076467Y0108963D01*
X0076467Y0108374D02*
X0077057Y0108374D01*
X0077057Y0107785D02*
X0076467Y0107785D01*
X0076594Y0107196D02*
X0081528Y0107196D01*
X0080939Y0106607D02*
X0076594Y0106607D01*
X0076594Y0106018D02*
X0080350Y0106018D01*
X0079761Y0105429D02*
X0076594Y0105429D01*
X0076594Y0104840D02*
X0079172Y0104840D01*
X0079115Y0104251D02*
X0076594Y0104251D01*
X0076594Y0103662D02*
X0079115Y0103662D01*
X0078229Y0103073D02*
X0076031Y0103073D01*
X0076306Y0102484D02*
X0078229Y0102484D01*
X0078229Y0101894D02*
X0076325Y0101894D01*
X0076325Y0101305D02*
X0078229Y0101305D01*
X0078229Y0100716D02*
X0076325Y0100716D01*
X0075108Y0105471D02*
X0075108Y0107144D01*
X0073927Y0108325D01*
X0072943Y0107045D02*
X0072943Y0105667D01*
X0073140Y0105471D01*
X0079511Y0107785D02*
X0082117Y0107785D01*
X0082706Y0108374D02*
X0079803Y0108374D01*
X0079829Y0108963D02*
X0083295Y0108963D01*
X0083884Y0109552D02*
X0079829Y0109552D01*
X0079829Y0110141D02*
X0084473Y0110141D01*
X0086722Y0110707D02*
X0086722Y0113738D01*
X0086722Y0110707D02*
X0080305Y0104289D01*
X0080305Y0101573D01*
X0073140Y0093660D02*
X0073140Y0089723D01*
X0074026Y0089723D01*
X0077766Y0115443D02*
X0083862Y0115443D01*
X0083858Y0118388D02*
X0083603Y0118388D01*
X0078858Y0118388D02*
X0078603Y0118388D01*
X0077766Y0117799D02*
X0077175Y0117799D01*
X0077175Y0117210D02*
X0077766Y0117210D01*
X0077766Y0116621D02*
X0077175Y0116621D01*
X0077175Y0116032D02*
X0077766Y0116032D01*
X0075467Y0117799D02*
X0053326Y0117799D01*
X0051526Y0117799D02*
X0050935Y0117799D01*
X0050935Y0118388D02*
X0051526Y0118388D01*
X0051526Y0118977D02*
X0050935Y0118977D01*
X0050935Y0119566D02*
X0051526Y0119566D01*
X0051526Y0120155D02*
X0050935Y0120155D01*
X0050935Y0120744D02*
X0051526Y0120744D01*
X0051526Y0121334D02*
X0050935Y0121334D01*
X0050502Y0112065D02*
X0050600Y0110490D01*
X0058603Y0118388D02*
X0058858Y0118388D01*
X0063603Y0118388D02*
X0063858Y0118388D01*
X0073603Y0118388D02*
X0073858Y0118388D01*
X0071908Y0134882D02*
X0080756Y0134882D01*
X0080756Y0135471D02*
X0071319Y0135471D01*
X0070730Y0136060D02*
X0080756Y0136060D01*
X0081224Y0136649D02*
X0070141Y0136649D01*
X0069552Y0137238D02*
X0081813Y0137238D01*
X0085712Y0149451D02*
X0074026Y0149451D01*
X0074026Y0162262D01*
X0074026Y0162852D01*
X0086837Y0162852D01*
X0086837Y0174539D01*
X0086748Y0174868D01*
X0086578Y0175163D01*
X0086337Y0175405D01*
X0086041Y0175575D01*
X0085712Y0175663D01*
X0074026Y0175663D01*
X0074026Y0162852D01*
X0073435Y0162852D01*
X0073435Y0162262D01*
X0074026Y0162262D01*
X0086837Y0162262D01*
X0086837Y0150576D01*
X0086748Y0150246D01*
X0086578Y0149951D01*
X0086337Y0149710D01*
X0086041Y0149539D01*
X0085712Y0149451D01*
X0086162Y0149609D02*
X0097835Y0149609D01*
X0097835Y0150198D02*
X0086720Y0150198D01*
X0086837Y0150787D02*
X0097835Y0150787D01*
X0097835Y0151376D02*
X0086837Y0151376D01*
X0086837Y0151965D02*
X0097835Y0151965D01*
X0097835Y0152554D02*
X0086837Y0152554D01*
X0086837Y0153143D02*
X0097835Y0153143D01*
X0097835Y0153732D02*
X0086837Y0153732D01*
X0086837Y0154321D02*
X0097835Y0154321D01*
X0097835Y0154910D02*
X0086837Y0154910D01*
X0086837Y0155499D02*
X0097835Y0155499D01*
X0097835Y0156088D02*
X0086837Y0156088D01*
X0086837Y0156677D02*
X0097835Y0156677D01*
X0097835Y0157266D02*
X0086837Y0157266D01*
X0086837Y0157855D02*
X0097835Y0157855D01*
X0097835Y0158444D02*
X0086837Y0158444D01*
X0086837Y0159034D02*
X0097835Y0159034D01*
X0097835Y0159623D02*
X0086837Y0159623D01*
X0086837Y0160212D02*
X0097835Y0160212D01*
X0097835Y0160801D02*
X0086837Y0160801D01*
X0086837Y0161390D02*
X0097835Y0161390D01*
X0097835Y0161979D02*
X0086837Y0161979D01*
X0086837Y0163157D02*
X0097835Y0163157D01*
X0097835Y0163746D02*
X0086837Y0163746D01*
X0086837Y0164335D02*
X0097835Y0164335D01*
X0097835Y0164924D02*
X0086837Y0164924D01*
X0086837Y0165513D02*
X0097835Y0165513D01*
X0097835Y0166102D02*
X0086837Y0166102D01*
X0086837Y0166691D02*
X0097835Y0166691D01*
X0097835Y0167280D02*
X0086837Y0167280D01*
X0086837Y0167869D02*
X0097835Y0167869D01*
X0097835Y0168459D02*
X0086837Y0168459D01*
X0086837Y0169048D02*
X0097835Y0169048D01*
X0097835Y0169637D02*
X0086837Y0169637D01*
X0086837Y0170226D02*
X0097835Y0170226D01*
X0097835Y0170815D02*
X0086837Y0170815D01*
X0086837Y0171404D02*
X0097835Y0171404D01*
X0097835Y0171993D02*
X0086837Y0171993D01*
X0086837Y0172582D02*
X0098410Y0172582D01*
X0098999Y0173171D02*
X0086837Y0173171D01*
X0086837Y0173760D02*
X0099588Y0173760D01*
X0100177Y0174349D02*
X0086837Y0174349D01*
X0086708Y0174938D02*
X0100766Y0174938D01*
X0101355Y0175527D02*
X0086124Y0175527D01*
X0074026Y0175527D02*
X0073435Y0175527D01*
X0073435Y0175663D02*
X0061749Y0175663D01*
X0061419Y0175575D01*
X0061124Y0175405D01*
X0060883Y0175163D01*
X0060712Y0174868D01*
X0060624Y0174539D01*
X0060624Y0162852D01*
X0073435Y0162852D01*
X0073435Y0175663D01*
X0073435Y0174938D02*
X0074026Y0174938D01*
X0074026Y0174349D02*
X0073435Y0174349D01*
X0073435Y0173760D02*
X0074026Y0173760D01*
X0074026Y0173171D02*
X0073435Y0173171D01*
X0073435Y0172582D02*
X0074026Y0172582D01*
X0074026Y0171993D02*
X0073435Y0171993D01*
X0073435Y0171404D02*
X0074026Y0171404D01*
X0074026Y0170815D02*
X0073435Y0170815D01*
X0073435Y0170226D02*
X0074026Y0170226D01*
X0074026Y0169637D02*
X0073435Y0169637D01*
X0073435Y0169048D02*
X0074026Y0169048D01*
X0074026Y0168459D02*
X0073435Y0168459D01*
X0073435Y0167869D02*
X0074026Y0167869D01*
X0074026Y0167280D02*
X0073435Y0167280D01*
X0073435Y0166691D02*
X0074026Y0166691D01*
X0074026Y0166102D02*
X0073435Y0166102D01*
X0073435Y0165513D02*
X0074026Y0165513D01*
X0074026Y0164924D02*
X0073435Y0164924D01*
X0073435Y0164335D02*
X0074026Y0164335D01*
X0074026Y0163746D02*
X0073435Y0163746D01*
X0073435Y0163157D02*
X0074026Y0163157D01*
X0074026Y0162568D02*
X0097835Y0162568D01*
X0099026Y0171514D02*
X0105325Y0177813D01*
X0109104Y0177813D01*
X0109163Y0177872D01*
X0105315Y0179062D02*
X0048208Y0179062D01*
X0048208Y0178473D02*
X0104301Y0178473D01*
X0103712Y0177884D02*
X0048208Y0177884D01*
X0048208Y0177294D02*
X0103123Y0177294D01*
X0102533Y0176705D02*
X0048208Y0176705D01*
X0048208Y0176116D02*
X0101944Y0176116D01*
X0099026Y0171514D02*
X0099026Y0138148D01*
X0097240Y0139594D02*
X0096579Y0139594D01*
X0095990Y0140184D02*
X0097829Y0140184D01*
X0097835Y0147841D02*
X0058949Y0147841D01*
X0058360Y0148430D02*
X0097835Y0148430D01*
X0097835Y0149019D02*
X0057771Y0149019D01*
X0060624Y0156088D02*
X0054540Y0156088D01*
X0053951Y0156677D02*
X0060624Y0156677D01*
X0060624Y0157266D02*
X0053362Y0157266D01*
X0052773Y0157855D02*
X0060624Y0157855D01*
X0060624Y0158444D02*
X0052184Y0158444D01*
X0051595Y0159034D02*
X0060624Y0159034D01*
X0060624Y0159623D02*
X0051006Y0159623D01*
X0050417Y0160212D02*
X0060624Y0160212D01*
X0060624Y0160801D02*
X0049828Y0160801D01*
X0049239Y0161390D02*
X0060624Y0161390D01*
X0060624Y0161979D02*
X0048650Y0161979D01*
X0048208Y0162568D02*
X0073435Y0162568D01*
X0073435Y0161979D02*
X0074026Y0161979D01*
X0074026Y0161390D02*
X0073435Y0161390D01*
X0073435Y0160801D02*
X0074026Y0160801D01*
X0074026Y0160212D02*
X0073435Y0160212D01*
X0073435Y0159623D02*
X0074026Y0159623D01*
X0074026Y0159034D02*
X0073435Y0159034D01*
X0073435Y0158444D02*
X0074026Y0158444D01*
X0074026Y0157855D02*
X0073435Y0157855D01*
X0073435Y0157266D02*
X0074026Y0157266D01*
X0074026Y0156677D02*
X0073435Y0156677D01*
X0073435Y0156088D02*
X0074026Y0156088D01*
X0074026Y0155499D02*
X0073435Y0155499D01*
X0073435Y0154910D02*
X0074026Y0154910D01*
X0074026Y0154321D02*
X0073435Y0154321D01*
X0073435Y0153732D02*
X0074026Y0153732D01*
X0074026Y0153143D02*
X0073435Y0153143D01*
X0073435Y0152554D02*
X0074026Y0152554D01*
X0074026Y0151965D02*
X0073435Y0151965D01*
X0073435Y0151376D02*
X0074026Y0151376D01*
X0074026Y0150787D02*
X0073435Y0150787D01*
X0073435Y0150198D02*
X0074026Y0150198D01*
X0074026Y0149609D02*
X0073435Y0149609D01*
X0060624Y0163157D02*
X0048208Y0163157D01*
X0048208Y0163746D02*
X0060624Y0163746D01*
X0060624Y0164335D02*
X0048208Y0164335D01*
X0048208Y0164924D02*
X0060624Y0164924D01*
X0060624Y0165513D02*
X0048208Y0165513D01*
X0048208Y0166102D02*
X0060624Y0166102D01*
X0060624Y0166691D02*
X0048208Y0166691D01*
X0048208Y0167280D02*
X0060624Y0167280D01*
X0060624Y0167869D02*
X0048208Y0167869D01*
X0048208Y0168459D02*
X0060624Y0168459D01*
X0060624Y0169048D02*
X0048208Y0169048D01*
X0048208Y0169637D02*
X0060624Y0169637D01*
X0060624Y0170226D02*
X0048208Y0170226D01*
X0048208Y0170815D02*
X0060624Y0170815D01*
X0060624Y0171404D02*
X0048208Y0171404D01*
X0048208Y0171993D02*
X0060624Y0171993D01*
X0060624Y0172582D02*
X0048208Y0172582D01*
X0048208Y0173171D02*
X0060624Y0173171D01*
X0060624Y0173760D02*
X0048208Y0173760D01*
X0048208Y0174349D02*
X0060624Y0174349D01*
X0060753Y0174938D02*
X0048208Y0174938D01*
X0048208Y0175527D02*
X0061336Y0175527D01*
X0047750Y0179651D02*
X0105315Y0179651D01*
X0105541Y0180240D02*
X0047160Y0180240D01*
X0046571Y0180829D02*
X0105315Y0180829D01*
X0105315Y0181418D02*
X0045982Y0181418D01*
X0045393Y0182007D02*
X0105315Y0182007D01*
X0105315Y0182596D02*
X0044804Y0182596D01*
X0044215Y0183185D02*
X0105315Y0183185D01*
X0105315Y0183774D02*
X0043626Y0183774D01*
X0042145Y0184363D02*
X0105315Y0184363D01*
X0105315Y0184952D02*
X0042145Y0184952D01*
X0041957Y0185541D02*
X0105504Y0185541D01*
X0105315Y0186130D02*
X0042145Y0186130D01*
X0042145Y0186719D02*
X0105315Y0186719D01*
X0105315Y0187309D02*
X0042145Y0187309D01*
X0042145Y0187898D02*
X0105315Y0187898D01*
X0105315Y0188487D02*
X0042145Y0188487D01*
X0042145Y0189076D02*
X0105315Y0189076D01*
X0105315Y0189665D02*
X0042145Y0189665D01*
X0042235Y0190254D02*
X0105225Y0190254D01*
X0104939Y0190843D02*
X0042522Y0190843D01*
X0042545Y0191432D02*
X0104915Y0191432D01*
X0104915Y0192021D02*
X0042545Y0192021D01*
X0042545Y0193199D02*
X0104915Y0193199D01*
X0104915Y0193788D02*
X0042545Y0193788D01*
X0042545Y0194377D02*
X0104915Y0194377D01*
X0104956Y0194966D02*
X0042505Y0194966D01*
X0042170Y0195555D02*
X0105290Y0195555D01*
X0108868Y0192610D02*
X0038593Y0192610D01*
X0038002Y0192610D02*
X0035647Y0192610D01*
X0035614Y0192577D02*
X0038002Y0192577D01*
X0038002Y0193167D01*
X0036204Y0193167D01*
X0035614Y0192577D01*
X0042145Y0181418D02*
X0042615Y0181418D01*
X0042145Y0180829D02*
X0043204Y0180829D01*
X0043793Y0180240D02*
X0041920Y0180240D01*
X0042145Y0179651D02*
X0044382Y0179651D01*
X0044971Y0179062D02*
X0042145Y0179062D01*
X0042145Y0178473D02*
X0045560Y0178473D01*
X0045827Y0177884D02*
X0042145Y0177884D01*
X0042145Y0177294D02*
X0045827Y0177294D01*
X0045827Y0176705D02*
X0042145Y0176705D01*
X0042145Y0176116D02*
X0045827Y0176116D01*
X0045827Y0175527D02*
X0041943Y0175527D01*
X0042145Y0174938D02*
X0045827Y0174938D01*
X0045827Y0174349D02*
X0042145Y0174349D01*
X0042145Y0173760D02*
X0045827Y0173760D01*
X0045827Y0173171D02*
X0042145Y0173171D01*
X0042145Y0172582D02*
X0045827Y0172582D01*
X0045827Y0171993D02*
X0042145Y0171993D01*
X0042145Y0171404D02*
X0045827Y0171404D01*
X0045827Y0170815D02*
X0042145Y0170815D01*
X0041934Y0170226D02*
X0045827Y0170226D01*
X0045827Y0169637D02*
X0042145Y0169637D01*
X0042145Y0169048D02*
X0045827Y0169048D01*
X0045827Y0168459D02*
X0042145Y0168459D01*
X0042145Y0167869D02*
X0045827Y0167869D01*
X0045827Y0167280D02*
X0042145Y0167280D01*
X0042145Y0166691D02*
X0045827Y0166691D01*
X0045827Y0166102D02*
X0042145Y0166102D01*
X0041929Y0165513D02*
X0045827Y0165513D01*
X0045827Y0164924D02*
X0042145Y0164924D01*
X0042145Y0164335D02*
X0045827Y0164335D01*
X0045827Y0163746D02*
X0042145Y0163746D01*
X0042145Y0163157D02*
X0045827Y0163157D01*
X0045827Y0162568D02*
X0042145Y0162568D01*
X0042145Y0161979D02*
X0045827Y0161979D01*
X0045871Y0161390D02*
X0042145Y0161390D01*
X0042145Y0160801D02*
X0046461Y0160801D01*
X0047050Y0160212D02*
X0041948Y0160212D01*
X0034646Y0160212D02*
X0014205Y0160212D01*
X0014205Y0160801D02*
X0019403Y0160801D01*
X0017981Y0161390D02*
X0014205Y0161390D01*
X0014155Y0161979D02*
X0016953Y0161979D01*
X0016364Y0162568D02*
X0013566Y0162568D01*
X0012977Y0163157D02*
X0015775Y0163157D01*
X0015718Y0159623D02*
X0015128Y0159623D01*
X0015128Y0159034D02*
X0015718Y0159034D01*
X0015718Y0158444D02*
X0015128Y0158444D01*
X0015128Y0157855D02*
X0015718Y0157855D01*
X0015719Y0157266D02*
X0034449Y0157266D01*
X0034449Y0156677D02*
X0017900Y0156677D01*
X0018330Y0156088D02*
X0019170Y0156088D01*
X0019255Y0156173D02*
X0019014Y0155932D01*
X0018843Y0155637D01*
X0018755Y0155307D01*
X0018755Y0152432D01*
X0020955Y0152432D01*
X0020955Y0156432D01*
X0019879Y0156432D01*
X0019550Y0156344D01*
X0019255Y0156173D01*
X0018806Y0155499D02*
X0018694Y0155499D01*
X0018745Y0154910D02*
X0018755Y0154910D01*
X0018745Y0154321D02*
X0018755Y0154321D01*
X0018745Y0153732D02*
X0018755Y0153732D01*
X0018745Y0153143D02*
X0018755Y0153143D01*
X0018745Y0152554D02*
X0018755Y0152554D01*
X0018755Y0151841D02*
X0018755Y0148966D01*
X0018843Y0148637D01*
X0019014Y0148341D01*
X0019255Y0148100D01*
X0019550Y0147930D01*
X0019879Y0147841D01*
X0020955Y0147841D01*
X0020955Y0151841D01*
X0021545Y0151841D01*
X0021545Y0147841D01*
X0022621Y0147841D01*
X0022950Y0147930D01*
X0023245Y0148100D01*
X0023486Y0148341D01*
X0023657Y0148637D01*
X0023745Y0148966D01*
X0023745Y0151841D01*
X0021545Y0151841D01*
X0021545Y0152432D01*
X0020955Y0152432D01*
X0020955Y0151841D01*
X0018755Y0151841D01*
X0018745Y0151376D02*
X0018755Y0151376D01*
X0018745Y0150787D02*
X0018755Y0150787D01*
X0018745Y0150198D02*
X0018755Y0150198D01*
X0018745Y0149609D02*
X0018755Y0149609D01*
X0018745Y0149019D02*
X0018755Y0149019D01*
X0018962Y0148430D02*
X0018538Y0148430D01*
X0016545Y0148430D02*
X0015955Y0148430D01*
X0015955Y0147841D02*
X0015955Y0151841D01*
X0013755Y0151841D01*
X0013755Y0148966D01*
X0013843Y0148637D01*
X0014014Y0148341D01*
X0014255Y0148100D01*
X0014550Y0147930D01*
X0014879Y0147841D01*
X0015955Y0147841D01*
X0015955Y0149019D02*
X0016545Y0149019D01*
X0016545Y0149609D02*
X0015955Y0149609D01*
X0015955Y0150198D02*
X0016545Y0150198D01*
X0016545Y0150787D02*
X0015955Y0150787D01*
X0015955Y0151376D02*
X0016545Y0151376D01*
X0016545Y0151965D02*
X0020955Y0151965D01*
X0020955Y0152554D02*
X0021545Y0152554D01*
X0021545Y0152432D02*
X0021545Y0156432D01*
X0022621Y0156432D01*
X0022950Y0156344D01*
X0023245Y0156173D01*
X0023486Y0155932D01*
X0023657Y0155637D01*
X0023745Y0155307D01*
X0023745Y0152432D01*
X0021545Y0152432D01*
X0021545Y0151965D02*
X0025955Y0151965D01*
X0025955Y0151841D02*
X0023755Y0151841D01*
X0023755Y0148966D01*
X0023843Y0148637D01*
X0024014Y0148341D01*
X0024255Y0148100D01*
X0024550Y0147930D01*
X0024879Y0147841D01*
X0025955Y0147841D01*
X0025955Y0151841D01*
X0026545Y0151841D01*
X0026545Y0147841D01*
X0027621Y0147841D01*
X0027950Y0147930D01*
X0028245Y0148100D01*
X0028486Y0148341D01*
X0028657Y0148637D01*
X0028745Y0148966D01*
X0028745Y0151841D01*
X0026545Y0151841D01*
X0026545Y0152432D01*
X0025955Y0152432D01*
X0025955Y0156432D01*
X0024879Y0156432D01*
X0024550Y0156344D01*
X0024255Y0156173D01*
X0024014Y0155932D01*
X0023843Y0155637D01*
X0023755Y0155307D01*
X0023755Y0152432D01*
X0025955Y0152432D01*
X0025955Y0151841D01*
X0026250Y0152137D02*
X0026966Y0152137D01*
X0026978Y0152124D01*
X0026545Y0151965D02*
X0034449Y0151965D01*
X0034449Y0152554D02*
X0028745Y0152554D01*
X0028745Y0152432D02*
X0028745Y0155307D01*
X0028657Y0155637D01*
X0028486Y0155932D01*
X0028245Y0156173D01*
X0027950Y0156344D01*
X0027621Y0156432D01*
X0026545Y0156432D01*
X0026545Y0152432D01*
X0028745Y0152432D01*
X0028745Y0153143D02*
X0034449Y0153143D01*
X0034449Y0153732D02*
X0028745Y0153732D01*
X0028745Y0154321D02*
X0034449Y0154321D01*
X0034449Y0154910D02*
X0028745Y0154910D01*
X0028694Y0155499D02*
X0034680Y0155499D01*
X0034449Y0156088D02*
X0028330Y0156088D01*
X0026545Y0156088D02*
X0025955Y0156088D01*
X0025955Y0155499D02*
X0026545Y0155499D01*
X0026545Y0154910D02*
X0025955Y0154910D01*
X0025955Y0154321D02*
X0026545Y0154321D01*
X0026545Y0153732D02*
X0025955Y0153732D01*
X0025955Y0153143D02*
X0026545Y0153143D01*
X0026545Y0152554D02*
X0025955Y0152554D01*
X0025955Y0151376D02*
X0026545Y0151376D01*
X0026545Y0150787D02*
X0025955Y0150787D01*
X0025955Y0150198D02*
X0026545Y0150198D01*
X0026545Y0149609D02*
X0025955Y0149609D01*
X0025955Y0149019D02*
X0026545Y0149019D01*
X0026545Y0148430D02*
X0025955Y0148430D01*
X0023962Y0148430D02*
X0023538Y0148430D01*
X0023745Y0149019D02*
X0023755Y0149019D01*
X0023745Y0149609D02*
X0023755Y0149609D01*
X0023745Y0150198D02*
X0023755Y0150198D01*
X0023745Y0150787D02*
X0023755Y0150787D01*
X0023745Y0151376D02*
X0023755Y0151376D01*
X0023745Y0152554D02*
X0023755Y0152554D01*
X0023745Y0153143D02*
X0023755Y0153143D01*
X0023745Y0153732D02*
X0023755Y0153732D01*
X0023745Y0154321D02*
X0023755Y0154321D01*
X0023745Y0154910D02*
X0023755Y0154910D01*
X0023806Y0155499D02*
X0023694Y0155499D01*
X0023330Y0156088D02*
X0024170Y0156088D01*
X0021545Y0156088D02*
X0020955Y0156088D01*
X0020955Y0155499D02*
X0021545Y0155499D01*
X0021545Y0154910D02*
X0020955Y0154910D01*
X0020955Y0154321D02*
X0021545Y0154321D01*
X0021545Y0153732D02*
X0020955Y0153732D01*
X0020955Y0153143D02*
X0021545Y0153143D01*
X0021545Y0151376D02*
X0020955Y0151376D01*
X0020955Y0150787D02*
X0021545Y0150787D01*
X0021545Y0150198D02*
X0020955Y0150198D01*
X0020955Y0149609D02*
X0021545Y0149609D01*
X0021545Y0149019D02*
X0020955Y0149019D01*
X0020955Y0148430D02*
X0021545Y0148430D01*
X0017148Y0152137D02*
X0016250Y0152137D01*
X0016250Y0156337D01*
X0015423Y0157163D01*
X0016171Y0157163D01*
X0018514Y0159506D01*
X0017702Y0159034D02*
X0034449Y0159034D01*
X0034449Y0159623D02*
X0016839Y0159623D01*
X0017900Y0158444D02*
X0034449Y0158444D01*
X0034449Y0157855D02*
X0017900Y0157855D01*
X0014007Y0159623D02*
X0013792Y0159623D01*
X0011919Y0160982D02*
X0011919Y0157203D01*
X0011880Y0157163D01*
X0011880Y0152767D01*
X0011250Y0152137D01*
X0013345Y0151965D02*
X0015955Y0151965D01*
X0013755Y0152554D02*
X0013345Y0152554D01*
X0013345Y0153143D02*
X0013755Y0153143D01*
X0013755Y0153732D02*
X0013345Y0153732D01*
X0013345Y0154321D02*
X0013755Y0154321D01*
X0013509Y0154910D02*
X0013345Y0154910D01*
X0013345Y0151376D02*
X0013755Y0151376D01*
X0013755Y0150787D02*
X0013345Y0150787D01*
X0013345Y0150198D02*
X0013755Y0150198D01*
X0013755Y0149609D02*
X0013345Y0149609D01*
X0013345Y0149019D02*
X0013755Y0149019D01*
X0013962Y0148430D02*
X0013010Y0148430D01*
X0022546Y0160801D02*
X0034449Y0160801D01*
X0034449Y0161390D02*
X0023968Y0161390D01*
X0024996Y0161979D02*
X0034449Y0161979D01*
X0034449Y0162568D02*
X0025585Y0162568D01*
X0026174Y0163157D02*
X0034449Y0163157D01*
X0034449Y0163746D02*
X0026653Y0163746D01*
X0026897Y0164335D02*
X0034449Y0164335D01*
X0031152Y0164924D02*
X0030561Y0164924D01*
X0030561Y0165513D02*
X0031152Y0165513D01*
X0031152Y0166102D02*
X0030561Y0166102D01*
X0030561Y0166691D02*
X0031152Y0166691D01*
X0031152Y0167280D02*
X0030561Y0167280D01*
X0030561Y0167869D02*
X0027581Y0167869D01*
X0030561Y0168459D02*
X0031152Y0168459D01*
X0031152Y0169048D02*
X0030561Y0169048D01*
X0030561Y0169637D02*
X0031152Y0169637D01*
X0031152Y0170226D02*
X0030561Y0170226D01*
X0030561Y0170815D02*
X0031152Y0170815D01*
X0031152Y0171404D02*
X0030561Y0171404D01*
X0027556Y0171993D02*
X0025627Y0171993D01*
X0026216Y0171404D02*
X0027403Y0171404D01*
X0026830Y0170815D02*
X0026670Y0170815D01*
X0027107Y0172582D02*
X0025037Y0172582D01*
X0024069Y0173171D02*
X0027107Y0173171D01*
X0024511Y0173760D02*
X0022646Y0173760D01*
X0034157Y0171993D02*
X0034449Y0171993D01*
X0034449Y0171404D02*
X0034310Y0171404D01*
X0034449Y0151376D02*
X0028745Y0151376D01*
X0028745Y0150787D02*
X0034449Y0150787D01*
X0034632Y0150198D02*
X0028745Y0150198D01*
X0028745Y0149609D02*
X0034449Y0149609D01*
X0034449Y0149019D02*
X0028745Y0149019D01*
X0028538Y0148430D02*
X0034449Y0148430D01*
X0033793Y0104251D02*
X0027192Y0104251D01*
X0028003Y0103662D02*
X0033793Y0103662D01*
X0033793Y0103073D02*
X0028813Y0103073D01*
X0029624Y0102484D02*
X0034010Y0102484D01*
X0088374Y0116621D02*
X0092945Y0116621D01*
X0093603Y0118388D02*
X0093858Y0118388D01*
X0096248Y0116621D02*
X0097862Y0116621D01*
X0097273Y0116032D02*
X0096963Y0116032D01*
X0088858Y0118388D02*
X0088603Y0118388D01*
X0112739Y0125457D02*
X0120321Y0125457D01*
X0120910Y0126046D02*
X0113011Y0126046D01*
X0113011Y0126635D02*
X0121499Y0126635D01*
X0122427Y0127224D02*
X0113011Y0127224D01*
X0113011Y0127813D02*
X0123849Y0127813D01*
X0123594Y0129580D02*
X0125402Y0129580D01*
X0128594Y0129580D02*
X0130402Y0129580D01*
X0133594Y0129580D02*
X0135402Y0129580D01*
X0135320Y0137238D02*
X0133676Y0137238D01*
X0130320Y0137238D02*
X0128676Y0137238D01*
X0125320Y0137238D02*
X0123676Y0137238D01*
X0119870Y0140773D02*
X0141139Y0140773D01*
X0141139Y0141362D02*
X0120459Y0141362D01*
X0121048Y0141951D02*
X0141139Y0141951D01*
X0141139Y0142540D02*
X0121637Y0142540D01*
X0122226Y0143129D02*
X0141139Y0143129D01*
X0141139Y0143718D02*
X0122815Y0143718D01*
X0123149Y0144307D02*
X0141139Y0144307D01*
X0141139Y0144896D02*
X0123149Y0144896D01*
X0123149Y0145485D02*
X0141139Y0145485D01*
X0141139Y0146074D02*
X0123149Y0146074D01*
X0123149Y0146663D02*
X0141139Y0146663D01*
X0141139Y0147252D02*
X0123149Y0147252D01*
X0123149Y0147841D02*
X0141139Y0147841D01*
X0141139Y0148430D02*
X0123149Y0148430D01*
X0123149Y0149019D02*
X0141139Y0149019D01*
X0141139Y0149609D02*
X0123149Y0149609D01*
X0123149Y0150198D02*
X0141139Y0150198D01*
X0141139Y0150787D02*
X0138488Y0150787D01*
X0138369Y0150755D02*
X0138698Y0150843D01*
X0138993Y0151014D01*
X0139234Y0151255D01*
X0139405Y0151550D01*
X0139493Y0151880D01*
X0139493Y0154755D01*
X0137293Y0154755D01*
X0137293Y0150755D01*
X0138369Y0150755D01*
X0137293Y0150787D02*
X0136703Y0150787D01*
X0136703Y0150755D02*
X0136703Y0154755D01*
X0137293Y0154755D01*
X0137293Y0155345D01*
X0139493Y0155345D01*
X0139493Y0158221D01*
X0139405Y0158550D01*
X0139234Y0158845D01*
X0138993Y0159087D01*
X0138698Y0159257D01*
X0138369Y0159345D01*
X0137293Y0159345D01*
X0137293Y0155345D01*
X0136703Y0155345D01*
X0136703Y0154755D01*
X0134503Y0154755D01*
X0134503Y0151880D01*
X0134591Y0151550D01*
X0134762Y0151255D01*
X0135003Y0151014D01*
X0135298Y0150843D01*
X0135627Y0150755D01*
X0136703Y0150755D01*
X0136703Y0151376D02*
X0137293Y0151376D01*
X0137293Y0151965D02*
X0136703Y0151965D01*
X0136703Y0152554D02*
X0137293Y0152554D01*
X0137293Y0153143D02*
X0136703Y0153143D01*
X0136703Y0153732D02*
X0137293Y0153732D01*
X0137293Y0154321D02*
X0136703Y0154321D01*
X0136703Y0154910D02*
X0132293Y0154910D01*
X0132293Y0154755D02*
X0132293Y0155345D01*
X0134493Y0155345D01*
X0134493Y0158221D01*
X0134405Y0158550D01*
X0134234Y0158845D01*
X0133993Y0159087D01*
X0133698Y0159257D01*
X0133369Y0159345D01*
X0132293Y0159345D01*
X0132293Y0155345D01*
X0131703Y0155345D01*
X0131703Y0154755D01*
X0132293Y0154755D01*
X0132293Y0150755D01*
X0133369Y0150755D01*
X0133698Y0150843D01*
X0133993Y0151014D01*
X0134234Y0151255D01*
X0134405Y0151550D01*
X0134493Y0151880D01*
X0134493Y0154755D01*
X0132293Y0154755D01*
X0132293Y0154321D02*
X0131703Y0154321D01*
X0131703Y0154755D02*
X0131703Y0150755D01*
X0130627Y0150755D01*
X0130298Y0150843D01*
X0130003Y0151014D01*
X0129762Y0151255D01*
X0129591Y0151550D01*
X0129503Y0151880D01*
X0129503Y0154755D01*
X0131703Y0154755D01*
X0131703Y0154910D02*
X0127293Y0154910D01*
X0127293Y0154755D02*
X0127293Y0155345D01*
X0129493Y0155345D01*
X0129493Y0158221D01*
X0129405Y0158550D01*
X0129234Y0158845D01*
X0128993Y0159087D01*
X0128698Y0159257D01*
X0128369Y0159345D01*
X0127293Y0159345D01*
X0127293Y0155345D01*
X0126703Y0155345D01*
X0126703Y0154755D01*
X0127293Y0154755D01*
X0127293Y0150755D01*
X0128369Y0150755D01*
X0128698Y0150843D01*
X0128993Y0151014D01*
X0129234Y0151255D01*
X0129405Y0151550D01*
X0129493Y0151880D01*
X0129493Y0154755D01*
X0127293Y0154755D01*
X0126998Y0155050D02*
X0127025Y0155077D01*
X0127864Y0155077D01*
X0127293Y0155499D02*
X0126703Y0155499D01*
X0126703Y0155345D02*
X0126703Y0159345D01*
X0125627Y0159345D01*
X0125298Y0159257D01*
X0125003Y0159087D01*
X0124762Y0158845D01*
X0124591Y0158550D01*
X0124503Y0158221D01*
X0124503Y0155345D01*
X0126703Y0155345D01*
X0126703Y0154910D02*
X0124093Y0154910D01*
X0124503Y0154755D02*
X0124503Y0151880D01*
X0124591Y0151550D01*
X0124762Y0151255D01*
X0125003Y0151014D01*
X0125298Y0150843D01*
X0125627Y0150755D01*
X0126703Y0150755D01*
X0126703Y0154755D01*
X0124503Y0154755D01*
X0124503Y0154321D02*
X0124093Y0154321D01*
X0124093Y0153732D02*
X0124503Y0153732D01*
X0124503Y0153143D02*
X0124093Y0153143D01*
X0124093Y0152554D02*
X0124503Y0152554D01*
X0124503Y0151965D02*
X0124093Y0151965D01*
X0123790Y0151376D02*
X0124692Y0151376D01*
X0125509Y0150787D02*
X0123149Y0150787D01*
X0126703Y0150787D02*
X0127293Y0150787D01*
X0127293Y0151376D02*
X0126703Y0151376D01*
X0126703Y0151965D02*
X0127293Y0151965D01*
X0127293Y0152554D02*
X0126703Y0152554D01*
X0126703Y0153143D02*
X0127293Y0153143D01*
X0127293Y0153732D02*
X0126703Y0153732D01*
X0126703Y0154321D02*
X0127293Y0154321D01*
X0127293Y0156088D02*
X0126703Y0156088D01*
X0126703Y0156677D02*
X0127293Y0156677D01*
X0127293Y0157266D02*
X0126703Y0157266D01*
X0126703Y0157855D02*
X0127293Y0157855D01*
X0127293Y0158444D02*
X0126703Y0158444D01*
X0126703Y0159034D02*
X0127293Y0159034D01*
X0127820Y0160694D02*
X0130249Y0161700D01*
X0132107Y0163559D01*
X0133113Y0165987D01*
X0133113Y0168615D01*
X0132107Y0171044D01*
X0130249Y0172902D01*
X0127820Y0173908D01*
X0125192Y0173908D01*
X0122763Y0172902D01*
X0120905Y0171044D01*
X0119899Y0168615D01*
X0119899Y0165987D01*
X0120905Y0163559D01*
X0122763Y0161700D01*
X0125192Y0160694D01*
X0127820Y0160694D01*
X0128077Y0160801D02*
X0141139Y0160801D01*
X0141139Y0161390D02*
X0129500Y0161390D01*
X0130527Y0161979D02*
X0141139Y0161979D01*
X0141139Y0162568D02*
X0131116Y0162568D01*
X0131705Y0163157D02*
X0141139Y0163157D01*
X0140677Y0163746D02*
X0132185Y0163746D01*
X0132429Y0164335D02*
X0140088Y0164335D01*
X0139499Y0164924D02*
X0132673Y0164924D01*
X0132917Y0165513D02*
X0138910Y0165513D01*
X0138321Y0166102D02*
X0133113Y0166102D01*
X0133113Y0166691D02*
X0137732Y0166691D01*
X0137143Y0167280D02*
X0133113Y0167280D01*
X0133113Y0167869D02*
X0136554Y0167869D01*
X0135965Y0168459D02*
X0133113Y0168459D01*
X0132934Y0169048D02*
X0135376Y0169048D01*
X0134787Y0169637D02*
X0132690Y0169637D01*
X0132446Y0170226D02*
X0134198Y0170226D01*
X0133609Y0170815D02*
X0132202Y0170815D01*
X0131747Y0171404D02*
X0133020Y0171404D01*
X0132431Y0171993D02*
X0131158Y0171993D01*
X0130569Y0172582D02*
X0131842Y0172582D01*
X0131252Y0173171D02*
X0129600Y0173171D01*
X0130663Y0173760D02*
X0128178Y0173760D01*
X0129485Y0174938D02*
X0119301Y0174938D01*
X0119184Y0174349D02*
X0130074Y0174349D01*
X0128896Y0175527D02*
X0115817Y0175527D01*
X0115817Y0174938D02*
X0115226Y0174938D01*
X0115226Y0174349D02*
X0115817Y0174349D01*
X0115817Y0173760D02*
X0115226Y0173760D01*
X0115226Y0173171D02*
X0115817Y0173171D01*
X0115817Y0172582D02*
X0115226Y0172582D01*
X0115226Y0171993D02*
X0115817Y0171993D01*
X0117234Y0171993D02*
X0121854Y0171993D01*
X0122443Y0172582D02*
X0118079Y0172582D01*
X0118602Y0173171D02*
X0123412Y0173171D01*
X0124834Y0173760D02*
X0118954Y0173760D01*
X0119247Y0176116D02*
X0128307Y0176116D01*
X0127718Y0176705D02*
X0119086Y0176705D01*
X0118815Y0177294D02*
X0127129Y0177294D01*
X0126540Y0177884D02*
X0118397Y0177884D01*
X0117742Y0178473D02*
X0125951Y0178473D01*
X0125362Y0179062D02*
X0116526Y0179062D01*
X0116712Y0179651D02*
X0124773Y0179651D01*
X0124184Y0180240D02*
X0117730Y0180240D01*
X0118319Y0180829D02*
X0123595Y0180829D01*
X0123006Y0181418D02*
X0118611Y0181418D01*
X0118855Y0182007D02*
X0122417Y0182007D01*
X0121827Y0182596D02*
X0118917Y0182596D01*
X0118917Y0183185D02*
X0121238Y0183185D01*
X0120649Y0183774D02*
X0118807Y0183774D01*
X0118563Y0184363D02*
X0120060Y0184363D01*
X0119471Y0184952D02*
X0118204Y0184952D01*
X0117615Y0185541D02*
X0118882Y0185541D01*
X0118293Y0186130D02*
X0116433Y0186130D01*
X0117115Y0187309D02*
X0113011Y0187309D01*
X0113011Y0187898D02*
X0116526Y0187898D01*
X0115937Y0188487D02*
X0113011Y0188487D01*
X0113011Y0189076D02*
X0115348Y0189076D01*
X0114759Y0189665D02*
X0113011Y0189665D01*
X0113101Y0190254D02*
X0114170Y0190254D01*
X0113581Y0190843D02*
X0113388Y0190843D01*
X0111847Y0192577D02*
X0109459Y0192577D01*
X0109459Y0193167D01*
X0111256Y0193167D01*
X0111847Y0192577D01*
X0111813Y0192610D02*
X0109459Y0192610D01*
X0113011Y0186719D02*
X0117704Y0186719D01*
X0115522Y0182872D02*
X0115522Y0182833D01*
X0115522Y0182872D02*
X0109163Y0182872D01*
X0112786Y0180240D02*
X0113313Y0180240D01*
X0113011Y0179651D02*
X0114331Y0179651D01*
X0114517Y0179062D02*
X0113011Y0179062D01*
X0113011Y0178473D02*
X0113301Y0178473D01*
X0115226Y0178473D02*
X0115817Y0178473D01*
X0115817Y0179062D02*
X0115226Y0179062D01*
X0115226Y0177884D02*
X0115817Y0177884D01*
X0115817Y0177294D02*
X0115226Y0177294D01*
X0115226Y0176705D02*
X0115817Y0176705D01*
X0115817Y0176116D02*
X0115226Y0176116D01*
X0113810Y0171993D02*
X0113011Y0171993D01*
X0113011Y0171404D02*
X0121265Y0171404D01*
X0120810Y0170815D02*
X0117195Y0170815D01*
X0117930Y0170226D02*
X0120566Y0170226D01*
X0120322Y0169637D02*
X0118449Y0169637D01*
X0118693Y0169048D02*
X0120078Y0169048D01*
X0119899Y0168459D02*
X0118917Y0168459D01*
X0118917Y0167869D02*
X0119899Y0167869D01*
X0119899Y0167280D02*
X0118917Y0167280D01*
X0118724Y0166691D02*
X0119899Y0166691D01*
X0119899Y0166102D02*
X0118480Y0166102D01*
X0118004Y0165513D02*
X0120095Y0165513D01*
X0120339Y0164924D02*
X0117372Y0164924D01*
X0115522Y0167833D02*
X0115522Y0167872D01*
X0109163Y0167872D01*
X0112795Y0165513D02*
X0113040Y0165513D01*
X0113011Y0164924D02*
X0113671Y0164924D01*
X0113011Y0164335D02*
X0120583Y0164335D01*
X0120827Y0163746D02*
X0113011Y0163746D01*
X0113011Y0163157D02*
X0121306Y0163157D01*
X0121895Y0162568D02*
X0113011Y0162568D01*
X0113011Y0161979D02*
X0122484Y0161979D01*
X0123512Y0161390D02*
X0113011Y0161390D01*
X0113011Y0160801D02*
X0124934Y0160801D01*
X0124950Y0159034D02*
X0113011Y0159034D01*
X0113011Y0159623D02*
X0141139Y0159623D01*
X0141139Y0160212D02*
X0112814Y0160212D01*
X0113011Y0151376D02*
X0114482Y0151376D01*
X0114563Y0150787D02*
X0113011Y0150787D01*
X0112828Y0150198D02*
X0115024Y0150198D01*
X0119281Y0140184D02*
X0141139Y0140184D01*
X0141139Y0139594D02*
X0118691Y0139594D01*
X0118102Y0139005D02*
X0141139Y0139005D01*
X0141139Y0138416D02*
X0117513Y0138416D01*
X0119806Y0136060D02*
X0113011Y0136060D01*
X0112753Y0135471D02*
X0119217Y0135471D01*
X0118916Y0134882D02*
X0113011Y0134882D01*
X0113011Y0134293D02*
X0118672Y0134293D01*
X0118603Y0133704D02*
X0113011Y0133704D01*
X0113011Y0133115D02*
X0118603Y0133115D01*
X0118706Y0132526D02*
X0113011Y0132526D01*
X0113011Y0131937D02*
X0118950Y0131937D01*
X0119299Y0131348D02*
X0113011Y0131348D01*
X0113011Y0130759D02*
X0119888Y0130759D01*
X0119903Y0130169D02*
X0112857Y0130169D01*
X0113011Y0129580D02*
X0120402Y0129580D01*
X0125207Y0122006D02*
X0125187Y0121986D01*
X0128488Y0150787D02*
X0130509Y0150787D01*
X0129692Y0151376D02*
X0129304Y0151376D01*
X0129493Y0151965D02*
X0129503Y0151965D01*
X0129493Y0152554D02*
X0129503Y0152554D01*
X0129493Y0153143D02*
X0129503Y0153143D01*
X0129493Y0153732D02*
X0129503Y0153732D01*
X0129493Y0154321D02*
X0129503Y0154321D01*
X0129503Y0155345D02*
X0131703Y0155345D01*
X0131703Y0159345D01*
X0130627Y0159345D01*
X0130298Y0159257D01*
X0130003Y0159087D01*
X0129762Y0158845D01*
X0129591Y0158550D01*
X0129503Y0158221D01*
X0129503Y0155345D01*
X0129493Y0155499D02*
X0129503Y0155499D01*
X0129493Y0156088D02*
X0129503Y0156088D01*
X0129493Y0156677D02*
X0129503Y0156677D01*
X0129493Y0157266D02*
X0129503Y0157266D01*
X0129493Y0157855D02*
X0129503Y0157855D01*
X0129563Y0158444D02*
X0129433Y0158444D01*
X0129046Y0159034D02*
X0129950Y0159034D01*
X0131703Y0159034D02*
X0132293Y0159034D01*
X0132293Y0158444D02*
X0131703Y0158444D01*
X0131703Y0157855D02*
X0132293Y0157855D01*
X0132293Y0157266D02*
X0131703Y0157266D01*
X0131703Y0156677D02*
X0132293Y0156677D01*
X0132293Y0156088D02*
X0131703Y0156088D01*
X0131703Y0155499D02*
X0132293Y0155499D01*
X0132293Y0153732D02*
X0131703Y0153732D01*
X0131703Y0153143D02*
X0132293Y0153143D01*
X0132293Y0152554D02*
X0131703Y0152554D01*
X0131703Y0151965D02*
X0132293Y0151965D01*
X0132293Y0151376D02*
X0131703Y0151376D01*
X0131703Y0150787D02*
X0132293Y0150787D01*
X0133488Y0150787D02*
X0135509Y0150787D01*
X0134692Y0151376D02*
X0134304Y0151376D01*
X0134493Y0151965D02*
X0134503Y0151965D01*
X0134493Y0152554D02*
X0134503Y0152554D01*
X0134493Y0153143D02*
X0134503Y0153143D01*
X0134493Y0153732D02*
X0134503Y0153732D01*
X0134493Y0154321D02*
X0134503Y0154321D01*
X0134503Y0155345D02*
X0136703Y0155345D01*
X0136703Y0159345D01*
X0135627Y0159345D01*
X0135298Y0159257D01*
X0135003Y0159087D01*
X0134762Y0158845D01*
X0134591Y0158550D01*
X0134503Y0158221D01*
X0134503Y0155345D01*
X0134493Y0155499D02*
X0134503Y0155499D01*
X0134493Y0156088D02*
X0134503Y0156088D01*
X0134493Y0156677D02*
X0134503Y0156677D01*
X0134493Y0157266D02*
X0134503Y0157266D01*
X0134493Y0157855D02*
X0134503Y0157855D01*
X0134563Y0158444D02*
X0134433Y0158444D01*
X0134046Y0159034D02*
X0134950Y0159034D01*
X0136703Y0159034D02*
X0137293Y0159034D01*
X0137293Y0158444D02*
X0136703Y0158444D01*
X0136703Y0157855D02*
X0137293Y0157855D01*
X0137293Y0157266D02*
X0136703Y0157266D01*
X0136703Y0156677D02*
X0137293Y0156677D01*
X0137293Y0156088D02*
X0136703Y0156088D01*
X0136703Y0155499D02*
X0137293Y0155499D01*
X0136971Y0155077D02*
X0136998Y0155050D01*
X0136971Y0155077D02*
X0136132Y0155077D01*
X0137293Y0154910D02*
X0141139Y0154910D01*
X0141139Y0154321D02*
X0139493Y0154321D01*
X0139493Y0153732D02*
X0141139Y0153732D01*
X0141139Y0153143D02*
X0139493Y0153143D01*
X0139493Y0152554D02*
X0141139Y0152554D01*
X0141139Y0151965D02*
X0139493Y0151965D01*
X0139304Y0151376D02*
X0141139Y0151376D01*
X0141139Y0155499D02*
X0139493Y0155499D01*
X0139493Y0156088D02*
X0141139Y0156088D01*
X0141139Y0156677D02*
X0139493Y0156677D01*
X0139493Y0157266D02*
X0141139Y0157266D01*
X0141139Y0157855D02*
X0139493Y0157855D01*
X0139433Y0158444D02*
X0141139Y0158444D01*
X0141139Y0159034D02*
X0139046Y0159034D01*
X0124563Y0158444D02*
X0124070Y0158444D01*
X0124093Y0157855D02*
X0124503Y0157855D01*
X0124503Y0157266D02*
X0124093Y0157266D01*
X0124093Y0156677D02*
X0124503Y0156677D01*
X0124503Y0156088D02*
X0124093Y0156088D01*
X0124093Y0155499D02*
X0124503Y0155499D01*
X0113113Y0170226D02*
X0112800Y0170226D01*
X0113011Y0170815D02*
X0113849Y0170815D01*
X0113429Y0185541D02*
X0112823Y0185541D01*
X0113011Y0186130D02*
X0114611Y0186130D01*
D30*
X0055128Y0097990D02*
X0063396Y0089723D01*
X0070482Y0089723D01*
X0055128Y0097990D02*
X0050502Y0099467D01*
X0047195Y0107045D02*
X0038199Y0107065D01*
X0037943Y0105471D02*
X0028947Y0105490D01*
X0028907Y0118640D01*
X0020463Y0118660D01*
X0037844Y0113246D02*
X0037943Y0112557D01*
X0037844Y0113246D02*
X0050207Y0113246D01*
X0050502Y0112951D01*
X0050502Y0112065D01*
X0027175Y0159506D02*
X0030856Y0163187D01*
X0030856Y0167990D01*
X0030856Y0175077D02*
X0032707Y0176927D01*
X0032707Y0180746D01*
X0032707Y0184624D01*
X0035837Y0187754D01*
X0038179Y0187754D01*
X0038297Y0187872D01*
X0038297Y0192872D02*
X0036526Y0192872D01*
X0029163Y0185510D01*
X0029163Y0180746D01*
X0024596Y0180746D01*
X0013494Y0169644D01*
X0013494Y0164526D01*
X0018514Y0159506D01*
X0027175Y0159506D01*
D31*
X0030226Y0167872D02*
X0025108Y0172990D01*
X0025955Y0175549D02*
X0030837Y0175549D01*
X0030856Y0175077D01*
X0030915Y0167872D02*
X0030226Y0167872D01*
X0046368Y0156750D02*
X0046368Y0127616D01*
X0039478Y0120726D01*
X0039478Y0117793D01*
X0039478Y0114034D01*
X0037805Y0114034D01*
X0037805Y0114191D01*
X0037943Y0112557D01*
X0050502Y0112163D02*
X0050502Y0112065D01*
X0050502Y0112163D02*
X0051585Y0113246D01*
X0060443Y0113246D01*
X0060837Y0113541D01*
X0063494Y0110392D02*
X0063494Y0105352D01*
X0063533Y0105313D01*
X0063691Y0105471D01*
X0069203Y0105471D02*
X0071171Y0105471D01*
X0072156Y0099565D02*
X0069203Y0096612D01*
X0069203Y0093660D01*
X0071171Y0093660D02*
X0071171Y0090411D01*
X0070482Y0089723D01*
X0075108Y0093660D02*
X0075108Y0097104D01*
X0075354Y0097350D01*
X0073140Y0099565D01*
X0077963Y0104388D01*
X0077963Y0110589D01*
X0076762Y0110589D01*
X0076762Y0110510D01*
X0077963Y0110589D02*
X0077963Y0115707D01*
X0077470Y0115608D01*
X0073140Y0099565D02*
X0072156Y0099565D01*
X0075354Y0097350D02*
X0078848Y0093856D01*
X0090659Y0093856D01*
X0094596Y0097793D01*
X0094596Y0097990D01*
X0100270Y0097990D01*
X0109163Y0106884D01*
X0109163Y0114884D02*
X0113333Y0114884D01*
X0117431Y0110786D01*
X0117431Y0122203D02*
X0124813Y0122203D01*
X0125207Y0122006D01*
X0114281Y0189683D02*
X0111211Y0192754D01*
X0108789Y0192754D01*
D32*
X0073730Y0162557D03*
D33*
X0109163Y0192872D02*
X0038297Y0192872D01*
X0064183Y0099565D02*
X0063533Y0098226D01*
X0064183Y0099565D02*
X0072156Y0099565D01*
D34*
X0073927Y0099565D03*
X0070384Y0099565D03*
X0064577Y0093069D03*
X0054144Y0091258D03*
X0063494Y0110392D03*
X0060837Y0113541D03*
X0061427Y0116986D03*
X0051073Y0128167D03*
X0049951Y0148069D03*
X0051191Y0152124D03*
X0046368Y0156750D03*
X0052136Y0162597D03*
X0043514Y0149014D03*
X0031998Y0148423D03*
X0031939Y0155215D03*
X0032096Y0163246D03*
X0028356Y0163246D03*
X0025955Y0175549D03*
X0024852Y0179132D03*
X0011919Y0160982D03*
X0007923Y0162793D03*
X0020778Y0146022D03*
X0007549Y0139329D03*
X0008159Y0120667D03*
X0023829Y0124762D03*
X0025305Y0111179D03*
X0033376Y0101337D03*
X0072510Y0140746D03*
X0083041Y0135234D03*
X0089478Y0137262D03*
X0094892Y0138049D03*
X0099026Y0138148D03*
X0102667Y0128994D03*
X0115207Y0134368D03*
X0114675Y0141927D03*
X0125207Y0122006D03*
X0125659Y0111750D03*
X0114793Y0102006D03*
X0106112Y0100943D03*
X0102333Y0094959D03*
X0086762Y0090057D03*
X0080915Y0110490D03*
X0081486Y0116061D03*
X0115148Y0162715D03*
X0103652Y0168561D03*
X0114616Y0187636D03*
X0102864Y0194093D03*
X0087923Y0194093D03*
X0072982Y0193876D03*
X0058809Y0193876D03*
X0044813Y0194152D03*
X0043927Y0189585D03*
X0043691Y0177419D03*
X0126132Y0176002D03*
X0131801Y0160786D03*
X0139459Y0161711D03*
X0139459Y0141514D03*
X0139951Y0120667D03*
D35*
X0131998Y0146711D03*
X0028947Y0118660D03*
D36*
X0028907Y0118640D02*
X0028907Y0123443D01*
X0031703Y0126238D01*
X0031663Y0149506D01*
X0029045Y0152124D01*
X0026978Y0152124D01*
X0021263Y0152124D01*
X0021250Y0152137D01*
X0017148Y0152137D01*
X0018317Y0152124D01*
X0127864Y0155077D02*
X0131971Y0155077D01*
X0131998Y0155050D01*
X0132025Y0155077D01*
X0136132Y0155077D01*
X0131998Y0155050D02*
X0131998Y0146711D01*
D37*
X0069203Y0105471D02*
X0063691Y0105471D01*
X0055620Y0107045D02*
X0029636Y0107045D01*
D38*
X0026250Y0130537D02*
X0021250Y0130537D01*
X0018809Y0130537D01*
X0018782Y0130537D01*
X0018770Y0130549D01*
X0018782Y0130537D02*
X0016250Y0130537D01*
X0011250Y0130537D01*
X0121998Y0133450D02*
X0126998Y0133450D01*
X0129859Y0133450D01*
X0129636Y0133226D01*
X0129859Y0133450D02*
X0131998Y0133450D01*
X0136998Y0133450D01*
M02*
