G75*
%MOIN*%
%OFA0B0*%
%FSLAX25Y25*%
%IPPOS*%
%LPD*%
%AMOC8*
5,1,8,0,0,1.08239X$1,22.5*
%
%ADD10C,0.00000*%
%ADD11R,0.04528X0.05709*%
%ADD12R,0.02559X0.02559*%
%ADD13R,0.05709X0.04528*%
%ADD14R,0.06496X0.09370*%
%ADD15C,0.00295*%
%ADD16R,0.03937X0.05512*%
%ADD17C,0.05600*%
%ADD18R,0.01575X0.05512*%
%ADD19R,0.03937X0.04331*%
%ADD20C,0.03969*%
%ADD21C,0.04559*%
%ADD22R,0.04724X0.04724*%
%ADD23R,0.04724X0.03543*%
%ADD24R,0.02362X0.02362*%
%ADD25R,0.05512X0.04134*%
%ADD26R,0.07087X0.07874*%
%ADD27C,0.07087*%
%ADD28R,0.04800X0.04800*%
%ADD29C,0.04800*%
%ADD30R,0.05906X0.03543*%
%ADD31R,0.03543X0.05906*%
%ADD32R,0.23622X0.23622*%
%ADD33C,0.00787*%
%ADD34C,0.02362*%
%ADD35C,0.02781*%
%ADD36C,0.15811*%
%ADD37C,0.01575*%
%ADD38C,0.01181*%
D10*
X0041330Y0043060D02*
X0100385Y0043060D01*
X0104322Y0007627D01*
X0175188Y0007627D01*
X0179125Y0043060D01*
X0238180Y0043060D01*
X0238180Y0251722D01*
X0041330Y0251722D01*
X0041330Y0043060D01*
X0062983Y0145423D02*
X0062985Y0145576D01*
X0062991Y0145730D01*
X0063001Y0145883D01*
X0063015Y0146035D01*
X0063033Y0146188D01*
X0063055Y0146339D01*
X0063080Y0146490D01*
X0063110Y0146641D01*
X0063144Y0146791D01*
X0063181Y0146939D01*
X0063222Y0147087D01*
X0063267Y0147233D01*
X0063316Y0147379D01*
X0063369Y0147523D01*
X0063425Y0147665D01*
X0063485Y0147806D01*
X0063549Y0147946D01*
X0063616Y0148084D01*
X0063687Y0148220D01*
X0063762Y0148354D01*
X0063839Y0148486D01*
X0063921Y0148616D01*
X0064005Y0148744D01*
X0064093Y0148870D01*
X0064184Y0148993D01*
X0064278Y0149114D01*
X0064376Y0149232D01*
X0064476Y0149348D01*
X0064580Y0149461D01*
X0064686Y0149572D01*
X0064795Y0149680D01*
X0064907Y0149785D01*
X0065021Y0149886D01*
X0065139Y0149985D01*
X0065258Y0150081D01*
X0065380Y0150174D01*
X0065505Y0150263D01*
X0065632Y0150350D01*
X0065761Y0150432D01*
X0065892Y0150512D01*
X0066025Y0150588D01*
X0066160Y0150661D01*
X0066297Y0150730D01*
X0066436Y0150795D01*
X0066576Y0150857D01*
X0066718Y0150915D01*
X0066861Y0150970D01*
X0067006Y0151021D01*
X0067152Y0151068D01*
X0067299Y0151111D01*
X0067447Y0151150D01*
X0067596Y0151186D01*
X0067746Y0151217D01*
X0067897Y0151245D01*
X0068048Y0151269D01*
X0068201Y0151289D01*
X0068353Y0151305D01*
X0068506Y0151317D01*
X0068659Y0151325D01*
X0068812Y0151329D01*
X0068966Y0151329D01*
X0069119Y0151325D01*
X0069272Y0151317D01*
X0069425Y0151305D01*
X0069577Y0151289D01*
X0069730Y0151269D01*
X0069881Y0151245D01*
X0070032Y0151217D01*
X0070182Y0151186D01*
X0070331Y0151150D01*
X0070479Y0151111D01*
X0070626Y0151068D01*
X0070772Y0151021D01*
X0070917Y0150970D01*
X0071060Y0150915D01*
X0071202Y0150857D01*
X0071342Y0150795D01*
X0071481Y0150730D01*
X0071618Y0150661D01*
X0071753Y0150588D01*
X0071886Y0150512D01*
X0072017Y0150432D01*
X0072146Y0150350D01*
X0072273Y0150263D01*
X0072398Y0150174D01*
X0072520Y0150081D01*
X0072639Y0149985D01*
X0072757Y0149886D01*
X0072871Y0149785D01*
X0072983Y0149680D01*
X0073092Y0149572D01*
X0073198Y0149461D01*
X0073302Y0149348D01*
X0073402Y0149232D01*
X0073500Y0149114D01*
X0073594Y0148993D01*
X0073685Y0148870D01*
X0073773Y0148744D01*
X0073857Y0148616D01*
X0073939Y0148486D01*
X0074016Y0148354D01*
X0074091Y0148220D01*
X0074162Y0148084D01*
X0074229Y0147946D01*
X0074293Y0147806D01*
X0074353Y0147665D01*
X0074409Y0147523D01*
X0074462Y0147379D01*
X0074511Y0147233D01*
X0074556Y0147087D01*
X0074597Y0146939D01*
X0074634Y0146791D01*
X0074668Y0146641D01*
X0074698Y0146490D01*
X0074723Y0146339D01*
X0074745Y0146188D01*
X0074763Y0146035D01*
X0074777Y0145883D01*
X0074787Y0145730D01*
X0074793Y0145576D01*
X0074795Y0145423D01*
X0074793Y0145270D01*
X0074787Y0145116D01*
X0074777Y0144963D01*
X0074763Y0144811D01*
X0074745Y0144658D01*
X0074723Y0144507D01*
X0074698Y0144356D01*
X0074668Y0144205D01*
X0074634Y0144055D01*
X0074597Y0143907D01*
X0074556Y0143759D01*
X0074511Y0143613D01*
X0074462Y0143467D01*
X0074409Y0143323D01*
X0074353Y0143181D01*
X0074293Y0143040D01*
X0074229Y0142900D01*
X0074162Y0142762D01*
X0074091Y0142626D01*
X0074016Y0142492D01*
X0073939Y0142360D01*
X0073857Y0142230D01*
X0073773Y0142102D01*
X0073685Y0141976D01*
X0073594Y0141853D01*
X0073500Y0141732D01*
X0073402Y0141614D01*
X0073302Y0141498D01*
X0073198Y0141385D01*
X0073092Y0141274D01*
X0072983Y0141166D01*
X0072871Y0141061D01*
X0072757Y0140960D01*
X0072639Y0140861D01*
X0072520Y0140765D01*
X0072398Y0140672D01*
X0072273Y0140583D01*
X0072146Y0140496D01*
X0072017Y0140414D01*
X0071886Y0140334D01*
X0071753Y0140258D01*
X0071618Y0140185D01*
X0071481Y0140116D01*
X0071342Y0140051D01*
X0071202Y0139989D01*
X0071060Y0139931D01*
X0070917Y0139876D01*
X0070772Y0139825D01*
X0070626Y0139778D01*
X0070479Y0139735D01*
X0070331Y0139696D01*
X0070182Y0139660D01*
X0070032Y0139629D01*
X0069881Y0139601D01*
X0069730Y0139577D01*
X0069577Y0139557D01*
X0069425Y0139541D01*
X0069272Y0139529D01*
X0069119Y0139521D01*
X0068966Y0139517D01*
X0068812Y0139517D01*
X0068659Y0139521D01*
X0068506Y0139529D01*
X0068353Y0139541D01*
X0068201Y0139557D01*
X0068048Y0139577D01*
X0067897Y0139601D01*
X0067746Y0139629D01*
X0067596Y0139660D01*
X0067447Y0139696D01*
X0067299Y0139735D01*
X0067152Y0139778D01*
X0067006Y0139825D01*
X0066861Y0139876D01*
X0066718Y0139931D01*
X0066576Y0139989D01*
X0066436Y0140051D01*
X0066297Y0140116D01*
X0066160Y0140185D01*
X0066025Y0140258D01*
X0065892Y0140334D01*
X0065761Y0140414D01*
X0065632Y0140496D01*
X0065505Y0140583D01*
X0065380Y0140672D01*
X0065258Y0140765D01*
X0065139Y0140861D01*
X0065021Y0140960D01*
X0064907Y0141061D01*
X0064795Y0141166D01*
X0064686Y0141274D01*
X0064580Y0141385D01*
X0064476Y0141498D01*
X0064376Y0141614D01*
X0064278Y0141732D01*
X0064184Y0141853D01*
X0064093Y0141976D01*
X0064005Y0142102D01*
X0063921Y0142230D01*
X0063839Y0142360D01*
X0063762Y0142492D01*
X0063687Y0142626D01*
X0063616Y0142762D01*
X0063549Y0142900D01*
X0063485Y0143040D01*
X0063425Y0143181D01*
X0063369Y0143323D01*
X0063316Y0143467D01*
X0063267Y0143613D01*
X0063222Y0143759D01*
X0063181Y0143907D01*
X0063144Y0144055D01*
X0063110Y0144205D01*
X0063080Y0144356D01*
X0063055Y0144507D01*
X0063033Y0144658D01*
X0063015Y0144811D01*
X0063001Y0144963D01*
X0062991Y0145116D01*
X0062985Y0145270D01*
X0062983Y0145423D01*
X0130798Y0021407D02*
X0130800Y0021472D01*
X0130806Y0021538D01*
X0130816Y0021602D01*
X0130829Y0021666D01*
X0130847Y0021729D01*
X0130868Y0021791D01*
X0130893Y0021851D01*
X0130922Y0021910D01*
X0130954Y0021967D01*
X0130990Y0022022D01*
X0131028Y0022075D01*
X0131070Y0022125D01*
X0131115Y0022173D01*
X0131163Y0022218D01*
X0131213Y0022260D01*
X0131266Y0022298D01*
X0131321Y0022334D01*
X0131378Y0022366D01*
X0131437Y0022395D01*
X0131497Y0022420D01*
X0131559Y0022441D01*
X0131622Y0022459D01*
X0131686Y0022472D01*
X0131750Y0022482D01*
X0131816Y0022488D01*
X0131881Y0022490D01*
X0131946Y0022488D01*
X0132012Y0022482D01*
X0132076Y0022472D01*
X0132140Y0022459D01*
X0132203Y0022441D01*
X0132265Y0022420D01*
X0132325Y0022395D01*
X0132384Y0022366D01*
X0132441Y0022334D01*
X0132496Y0022298D01*
X0132549Y0022260D01*
X0132599Y0022218D01*
X0132647Y0022173D01*
X0132692Y0022125D01*
X0132734Y0022075D01*
X0132772Y0022022D01*
X0132808Y0021967D01*
X0132840Y0021910D01*
X0132869Y0021851D01*
X0132894Y0021791D01*
X0132915Y0021729D01*
X0132933Y0021666D01*
X0132946Y0021602D01*
X0132956Y0021538D01*
X0132962Y0021472D01*
X0132964Y0021407D01*
X0132962Y0021342D01*
X0132956Y0021276D01*
X0132946Y0021212D01*
X0132933Y0021148D01*
X0132915Y0021085D01*
X0132894Y0021023D01*
X0132869Y0020963D01*
X0132840Y0020904D01*
X0132808Y0020847D01*
X0132772Y0020792D01*
X0132734Y0020739D01*
X0132692Y0020689D01*
X0132647Y0020641D01*
X0132599Y0020596D01*
X0132549Y0020554D01*
X0132496Y0020516D01*
X0132441Y0020480D01*
X0132384Y0020448D01*
X0132325Y0020419D01*
X0132265Y0020394D01*
X0132203Y0020373D01*
X0132140Y0020355D01*
X0132076Y0020342D01*
X0132012Y0020332D01*
X0131946Y0020326D01*
X0131881Y0020324D01*
X0131816Y0020326D01*
X0131750Y0020332D01*
X0131686Y0020342D01*
X0131622Y0020355D01*
X0131559Y0020373D01*
X0131497Y0020394D01*
X0131437Y0020419D01*
X0131378Y0020448D01*
X0131321Y0020480D01*
X0131266Y0020516D01*
X0131213Y0020554D01*
X0131163Y0020596D01*
X0131115Y0020641D01*
X0131070Y0020689D01*
X0131028Y0020739D01*
X0130990Y0020792D01*
X0130954Y0020847D01*
X0130922Y0020904D01*
X0130893Y0020963D01*
X0130868Y0021023D01*
X0130847Y0021085D01*
X0130829Y0021148D01*
X0130816Y0021212D01*
X0130806Y0021276D01*
X0130800Y0021342D01*
X0130798Y0021407D01*
X0146546Y0021407D02*
X0146548Y0021472D01*
X0146554Y0021538D01*
X0146564Y0021602D01*
X0146577Y0021666D01*
X0146595Y0021729D01*
X0146616Y0021791D01*
X0146641Y0021851D01*
X0146670Y0021910D01*
X0146702Y0021967D01*
X0146738Y0022022D01*
X0146776Y0022075D01*
X0146818Y0022125D01*
X0146863Y0022173D01*
X0146911Y0022218D01*
X0146961Y0022260D01*
X0147014Y0022298D01*
X0147069Y0022334D01*
X0147126Y0022366D01*
X0147185Y0022395D01*
X0147245Y0022420D01*
X0147307Y0022441D01*
X0147370Y0022459D01*
X0147434Y0022472D01*
X0147498Y0022482D01*
X0147564Y0022488D01*
X0147629Y0022490D01*
X0147694Y0022488D01*
X0147760Y0022482D01*
X0147824Y0022472D01*
X0147888Y0022459D01*
X0147951Y0022441D01*
X0148013Y0022420D01*
X0148073Y0022395D01*
X0148132Y0022366D01*
X0148189Y0022334D01*
X0148244Y0022298D01*
X0148297Y0022260D01*
X0148347Y0022218D01*
X0148395Y0022173D01*
X0148440Y0022125D01*
X0148482Y0022075D01*
X0148520Y0022022D01*
X0148556Y0021967D01*
X0148588Y0021910D01*
X0148617Y0021851D01*
X0148642Y0021791D01*
X0148663Y0021729D01*
X0148681Y0021666D01*
X0148694Y0021602D01*
X0148704Y0021538D01*
X0148710Y0021472D01*
X0148712Y0021407D01*
X0148710Y0021342D01*
X0148704Y0021276D01*
X0148694Y0021212D01*
X0148681Y0021148D01*
X0148663Y0021085D01*
X0148642Y0021023D01*
X0148617Y0020963D01*
X0148588Y0020904D01*
X0148556Y0020847D01*
X0148520Y0020792D01*
X0148482Y0020739D01*
X0148440Y0020689D01*
X0148395Y0020641D01*
X0148347Y0020596D01*
X0148297Y0020554D01*
X0148244Y0020516D01*
X0148189Y0020480D01*
X0148132Y0020448D01*
X0148073Y0020419D01*
X0148013Y0020394D01*
X0147951Y0020373D01*
X0147888Y0020355D01*
X0147824Y0020342D01*
X0147760Y0020332D01*
X0147694Y0020326D01*
X0147629Y0020324D01*
X0147564Y0020326D01*
X0147498Y0020332D01*
X0147434Y0020342D01*
X0147370Y0020355D01*
X0147307Y0020373D01*
X0147245Y0020394D01*
X0147185Y0020419D01*
X0147126Y0020448D01*
X0147069Y0020480D01*
X0147014Y0020516D01*
X0146961Y0020554D01*
X0146911Y0020596D01*
X0146863Y0020641D01*
X0146818Y0020689D01*
X0146776Y0020739D01*
X0146738Y0020792D01*
X0146702Y0020847D01*
X0146670Y0020904D01*
X0146641Y0020963D01*
X0146616Y0021023D01*
X0146595Y0021085D01*
X0146577Y0021148D01*
X0146564Y0021212D01*
X0146554Y0021276D01*
X0146548Y0021342D01*
X0146546Y0021407D01*
X0204715Y0145423D02*
X0204717Y0145576D01*
X0204723Y0145730D01*
X0204733Y0145883D01*
X0204747Y0146035D01*
X0204765Y0146188D01*
X0204787Y0146339D01*
X0204812Y0146490D01*
X0204842Y0146641D01*
X0204876Y0146791D01*
X0204913Y0146939D01*
X0204954Y0147087D01*
X0204999Y0147233D01*
X0205048Y0147379D01*
X0205101Y0147523D01*
X0205157Y0147665D01*
X0205217Y0147806D01*
X0205281Y0147946D01*
X0205348Y0148084D01*
X0205419Y0148220D01*
X0205494Y0148354D01*
X0205571Y0148486D01*
X0205653Y0148616D01*
X0205737Y0148744D01*
X0205825Y0148870D01*
X0205916Y0148993D01*
X0206010Y0149114D01*
X0206108Y0149232D01*
X0206208Y0149348D01*
X0206312Y0149461D01*
X0206418Y0149572D01*
X0206527Y0149680D01*
X0206639Y0149785D01*
X0206753Y0149886D01*
X0206871Y0149985D01*
X0206990Y0150081D01*
X0207112Y0150174D01*
X0207237Y0150263D01*
X0207364Y0150350D01*
X0207493Y0150432D01*
X0207624Y0150512D01*
X0207757Y0150588D01*
X0207892Y0150661D01*
X0208029Y0150730D01*
X0208168Y0150795D01*
X0208308Y0150857D01*
X0208450Y0150915D01*
X0208593Y0150970D01*
X0208738Y0151021D01*
X0208884Y0151068D01*
X0209031Y0151111D01*
X0209179Y0151150D01*
X0209328Y0151186D01*
X0209478Y0151217D01*
X0209629Y0151245D01*
X0209780Y0151269D01*
X0209933Y0151289D01*
X0210085Y0151305D01*
X0210238Y0151317D01*
X0210391Y0151325D01*
X0210544Y0151329D01*
X0210698Y0151329D01*
X0210851Y0151325D01*
X0211004Y0151317D01*
X0211157Y0151305D01*
X0211309Y0151289D01*
X0211462Y0151269D01*
X0211613Y0151245D01*
X0211764Y0151217D01*
X0211914Y0151186D01*
X0212063Y0151150D01*
X0212211Y0151111D01*
X0212358Y0151068D01*
X0212504Y0151021D01*
X0212649Y0150970D01*
X0212792Y0150915D01*
X0212934Y0150857D01*
X0213074Y0150795D01*
X0213213Y0150730D01*
X0213350Y0150661D01*
X0213485Y0150588D01*
X0213618Y0150512D01*
X0213749Y0150432D01*
X0213878Y0150350D01*
X0214005Y0150263D01*
X0214130Y0150174D01*
X0214252Y0150081D01*
X0214371Y0149985D01*
X0214489Y0149886D01*
X0214603Y0149785D01*
X0214715Y0149680D01*
X0214824Y0149572D01*
X0214930Y0149461D01*
X0215034Y0149348D01*
X0215134Y0149232D01*
X0215232Y0149114D01*
X0215326Y0148993D01*
X0215417Y0148870D01*
X0215505Y0148744D01*
X0215589Y0148616D01*
X0215671Y0148486D01*
X0215748Y0148354D01*
X0215823Y0148220D01*
X0215894Y0148084D01*
X0215961Y0147946D01*
X0216025Y0147806D01*
X0216085Y0147665D01*
X0216141Y0147523D01*
X0216194Y0147379D01*
X0216243Y0147233D01*
X0216288Y0147087D01*
X0216329Y0146939D01*
X0216366Y0146791D01*
X0216400Y0146641D01*
X0216430Y0146490D01*
X0216455Y0146339D01*
X0216477Y0146188D01*
X0216495Y0146035D01*
X0216509Y0145883D01*
X0216519Y0145730D01*
X0216525Y0145576D01*
X0216527Y0145423D01*
X0216525Y0145270D01*
X0216519Y0145116D01*
X0216509Y0144963D01*
X0216495Y0144811D01*
X0216477Y0144658D01*
X0216455Y0144507D01*
X0216430Y0144356D01*
X0216400Y0144205D01*
X0216366Y0144055D01*
X0216329Y0143907D01*
X0216288Y0143759D01*
X0216243Y0143613D01*
X0216194Y0143467D01*
X0216141Y0143323D01*
X0216085Y0143181D01*
X0216025Y0143040D01*
X0215961Y0142900D01*
X0215894Y0142762D01*
X0215823Y0142626D01*
X0215748Y0142492D01*
X0215671Y0142360D01*
X0215589Y0142230D01*
X0215505Y0142102D01*
X0215417Y0141976D01*
X0215326Y0141853D01*
X0215232Y0141732D01*
X0215134Y0141614D01*
X0215034Y0141498D01*
X0214930Y0141385D01*
X0214824Y0141274D01*
X0214715Y0141166D01*
X0214603Y0141061D01*
X0214489Y0140960D01*
X0214371Y0140861D01*
X0214252Y0140765D01*
X0214130Y0140672D01*
X0214005Y0140583D01*
X0213878Y0140496D01*
X0213749Y0140414D01*
X0213618Y0140334D01*
X0213485Y0140258D01*
X0213350Y0140185D01*
X0213213Y0140116D01*
X0213074Y0140051D01*
X0212934Y0139989D01*
X0212792Y0139931D01*
X0212649Y0139876D01*
X0212504Y0139825D01*
X0212358Y0139778D01*
X0212211Y0139735D01*
X0212063Y0139696D01*
X0211914Y0139660D01*
X0211764Y0139629D01*
X0211613Y0139601D01*
X0211462Y0139577D01*
X0211309Y0139557D01*
X0211157Y0139541D01*
X0211004Y0139529D01*
X0210851Y0139521D01*
X0210698Y0139517D01*
X0210544Y0139517D01*
X0210391Y0139521D01*
X0210238Y0139529D01*
X0210085Y0139541D01*
X0209933Y0139557D01*
X0209780Y0139577D01*
X0209629Y0139601D01*
X0209478Y0139629D01*
X0209328Y0139660D01*
X0209179Y0139696D01*
X0209031Y0139735D01*
X0208884Y0139778D01*
X0208738Y0139825D01*
X0208593Y0139876D01*
X0208450Y0139931D01*
X0208308Y0139989D01*
X0208168Y0140051D01*
X0208029Y0140116D01*
X0207892Y0140185D01*
X0207757Y0140258D01*
X0207624Y0140334D01*
X0207493Y0140414D01*
X0207364Y0140496D01*
X0207237Y0140583D01*
X0207112Y0140672D01*
X0206990Y0140765D01*
X0206871Y0140861D01*
X0206753Y0140960D01*
X0206639Y0141061D01*
X0206527Y0141166D01*
X0206418Y0141274D01*
X0206312Y0141385D01*
X0206208Y0141498D01*
X0206108Y0141614D01*
X0206010Y0141732D01*
X0205916Y0141853D01*
X0205825Y0141976D01*
X0205737Y0142102D01*
X0205653Y0142230D01*
X0205571Y0142360D01*
X0205494Y0142492D01*
X0205419Y0142626D01*
X0205348Y0142762D01*
X0205281Y0142900D01*
X0205217Y0143040D01*
X0205157Y0143181D01*
X0205101Y0143323D01*
X0205048Y0143467D01*
X0204999Y0143613D01*
X0204954Y0143759D01*
X0204913Y0143907D01*
X0204876Y0144055D01*
X0204842Y0144205D01*
X0204812Y0144356D01*
X0204787Y0144507D01*
X0204765Y0144658D01*
X0204747Y0144811D01*
X0204733Y0144963D01*
X0204723Y0145116D01*
X0204717Y0145270D01*
X0204715Y0145423D01*
D11*
X0143318Y0035797D03*
X0136231Y0035797D03*
D12*
X0138042Y0041919D03*
X0141586Y0041919D03*
X0097786Y0231308D03*
X0097786Y0234852D03*
X0097786Y0242135D03*
X0097786Y0245678D03*
X0077806Y0246860D03*
X0077806Y0243316D03*
D13*
X0090247Y0246013D03*
X0090247Y0238927D03*
X0144617Y0059340D03*
X0144617Y0052253D03*
D14*
X0131428Y0050777D03*
D15*
X0139056Y0051220D02*
X0139056Y0050334D01*
X0136004Y0050334D01*
X0136004Y0051220D01*
X0139056Y0051220D01*
X0139056Y0050628D02*
X0136004Y0050628D01*
X0136004Y0050922D02*
X0139056Y0050922D01*
X0139056Y0051216D02*
X0136004Y0051216D01*
X0139056Y0052302D02*
X0139056Y0053188D01*
X0139056Y0052302D02*
X0136004Y0052302D01*
X0136004Y0053188D01*
X0139056Y0053188D01*
X0139056Y0052596D02*
X0136004Y0052596D01*
X0136004Y0052890D02*
X0139056Y0052890D01*
X0139056Y0053184D02*
X0136004Y0053184D01*
X0139056Y0054271D02*
X0139056Y0055157D01*
X0139056Y0054271D02*
X0136004Y0054271D01*
X0136004Y0055157D01*
X0139056Y0055157D01*
X0139056Y0054565D02*
X0136004Y0054565D01*
X0136004Y0054859D02*
X0139056Y0054859D01*
X0139056Y0055153D02*
X0136004Y0055153D01*
X0139056Y0049251D02*
X0139056Y0048365D01*
X0136004Y0048365D01*
X0136004Y0049251D01*
X0139056Y0049251D01*
X0139056Y0048659D02*
X0136004Y0048659D01*
X0136004Y0048953D02*
X0139056Y0048953D01*
X0139056Y0049247D02*
X0136004Y0049247D01*
X0139056Y0047283D02*
X0139056Y0046397D01*
X0136004Y0046397D01*
X0136004Y0047283D01*
X0139056Y0047283D01*
X0139056Y0046691D02*
X0136004Y0046691D01*
X0136004Y0046985D02*
X0139056Y0046985D01*
X0139056Y0047279D02*
X0136004Y0047279D01*
X0126852Y0047283D02*
X0126852Y0046397D01*
X0123800Y0046397D01*
X0123800Y0047283D01*
X0126852Y0047283D01*
X0126852Y0046691D02*
X0123800Y0046691D01*
X0123800Y0046985D02*
X0126852Y0046985D01*
X0126852Y0047279D02*
X0123800Y0047279D01*
X0126852Y0048365D02*
X0126852Y0049251D01*
X0126852Y0048365D02*
X0123800Y0048365D01*
X0123800Y0049251D01*
X0126852Y0049251D01*
X0126852Y0048659D02*
X0123800Y0048659D01*
X0123800Y0048953D02*
X0126852Y0048953D01*
X0126852Y0049247D02*
X0123800Y0049247D01*
X0126852Y0050334D02*
X0126852Y0051220D01*
X0126852Y0050334D02*
X0123800Y0050334D01*
X0123800Y0051220D01*
X0126852Y0051220D01*
X0126852Y0050628D02*
X0123800Y0050628D01*
X0123800Y0050922D02*
X0126852Y0050922D01*
X0126852Y0051216D02*
X0123800Y0051216D01*
X0126852Y0052302D02*
X0126852Y0053188D01*
X0126852Y0052302D02*
X0123800Y0052302D01*
X0123800Y0053188D01*
X0126852Y0053188D01*
X0126852Y0052596D02*
X0123800Y0052596D01*
X0123800Y0052890D02*
X0126852Y0052890D01*
X0126852Y0053184D02*
X0123800Y0053184D01*
X0126852Y0054271D02*
X0126852Y0055157D01*
X0126852Y0054271D02*
X0123800Y0054271D01*
X0123800Y0055157D01*
X0126852Y0055157D01*
X0126852Y0054565D02*
X0123800Y0054565D01*
X0123800Y0054859D02*
X0126852Y0054859D01*
X0126852Y0055153D02*
X0123800Y0055153D01*
D16*
X0068830Y0236801D03*
X0072570Y0245462D03*
X0065089Y0245462D03*
D17*
X0152565Y0062706D02*
X0158165Y0062706D01*
X0158165Y0052706D02*
X0152565Y0052706D01*
D18*
X0144873Y0023375D03*
X0142314Y0023375D03*
X0139755Y0023375D03*
X0137196Y0023375D03*
X0134637Y0023375D03*
D19*
X0134849Y0010415D03*
X0144660Y0010415D03*
D20*
X0153928Y0010958D02*
X0153928Y0014927D01*
X0153928Y0024344D02*
X0153928Y0028312D01*
X0125582Y0028312D02*
X0125582Y0024344D01*
X0125582Y0014927D02*
X0125582Y0010958D01*
D21*
X0139755Y0137645D03*
X0139755Y0142814D03*
X0139755Y0148032D03*
X0139755Y0153200D03*
D22*
X0119223Y0012667D03*
X0110956Y0012667D03*
D23*
X0099834Y0164202D03*
X0099834Y0171682D03*
X0090385Y0167942D03*
D24*
X0085759Y0167923D03*
X0082215Y0167923D03*
X0106546Y0171761D03*
X0110089Y0171761D03*
X0057215Y0117312D03*
X0053672Y0117312D03*
X0125326Y0041545D03*
X0128869Y0041545D03*
X0114479Y0018907D03*
X0110936Y0018907D03*
X0194971Y0118001D03*
X0198515Y0118001D03*
X0180188Y0170167D03*
X0176645Y0170167D03*
X0194597Y0244182D03*
X0198141Y0244182D03*
X0056763Y0242804D03*
X0053219Y0242804D03*
D25*
X0108554Y0156643D03*
X0108554Y0149163D03*
X0116034Y0149163D03*
X0116034Y0156643D03*
X0123515Y0156643D03*
X0123515Y0149163D03*
D26*
X0078731Y0180856D03*
X0059046Y0180856D03*
X0059046Y0235974D03*
X0078731Y0235974D03*
X0078731Y0109989D03*
X0059046Y0109989D03*
X0059046Y0054871D03*
X0078731Y0054871D03*
X0200778Y0054871D03*
X0220463Y0054871D03*
X0220463Y0109989D03*
X0200778Y0109989D03*
X0200778Y0180856D03*
X0220463Y0180856D03*
X0220463Y0235974D03*
X0200778Y0235974D03*
D27*
X0200778Y0233021D03*
X0220463Y0233021D03*
X0220463Y0183808D03*
X0200778Y0183808D03*
X0200778Y0107037D03*
X0220463Y0107037D03*
X0220463Y0057824D03*
X0200778Y0057824D03*
X0078731Y0057824D03*
X0059046Y0057824D03*
X0059046Y0107037D03*
X0078731Y0107037D03*
X0078731Y0183808D03*
X0059046Y0183808D03*
X0059046Y0233021D03*
X0078731Y0233021D03*
D28*
X0180011Y0146604D03*
D29*
X0180011Y0154478D03*
X0180011Y0162352D03*
X0172137Y0162352D03*
X0172137Y0154478D03*
X0172137Y0146604D03*
D30*
X0175188Y0181604D03*
X0175188Y0186604D03*
X0175188Y0191604D03*
X0175188Y0196604D03*
X0175188Y0201604D03*
X0175188Y0206604D03*
X0175188Y0211604D03*
X0175188Y0216604D03*
X0175188Y0221604D03*
X0175188Y0226604D03*
X0175188Y0231604D03*
X0175188Y0236604D03*
X0175188Y0241604D03*
X0175188Y0246604D03*
X0104322Y0246604D03*
X0104322Y0241604D03*
X0104322Y0236604D03*
X0104322Y0231604D03*
X0104322Y0226604D03*
X0104322Y0221604D03*
X0104322Y0216604D03*
X0104322Y0211604D03*
X0104322Y0206604D03*
X0104322Y0201604D03*
X0104322Y0196604D03*
X0104322Y0191604D03*
X0104322Y0186604D03*
X0104322Y0181604D03*
D31*
X0117255Y0175738D03*
X0122255Y0175738D03*
X0127255Y0175738D03*
X0132255Y0175738D03*
X0137255Y0175738D03*
X0142255Y0175738D03*
X0147255Y0175738D03*
X0152255Y0175738D03*
X0157255Y0175738D03*
X0162255Y0175738D03*
D32*
X0139755Y0216289D03*
D33*
X0140149Y0216680D02*
X0168486Y0216680D01*
X0168486Y0215894D02*
X0152960Y0215894D01*
X0152960Y0215895D02*
X0140149Y0215895D01*
X0140149Y0216682D01*
X0152960Y0216682D01*
X0152960Y0228283D01*
X0152865Y0228638D01*
X0152681Y0228955D01*
X0152422Y0229215D01*
X0152104Y0229398D01*
X0151749Y0229493D01*
X0140148Y0229493D01*
X0140148Y0216682D01*
X0139361Y0216682D01*
X0139361Y0215895D01*
X0126550Y0215895D01*
X0126550Y0204294D01*
X0126645Y0203940D01*
X0126829Y0203622D01*
X0127088Y0203362D01*
X0127406Y0203179D01*
X0127760Y0203084D01*
X0139361Y0203084D01*
X0139361Y0215895D01*
X0140148Y0215895D01*
X0140148Y0203084D01*
X0151749Y0203084D01*
X0152104Y0203179D01*
X0152422Y0203362D01*
X0152681Y0203622D01*
X0152865Y0203940D01*
X0152960Y0204294D01*
X0152960Y0215895D01*
X0152960Y0215108D02*
X0168486Y0215108D01*
X0168486Y0214322D02*
X0152960Y0214322D01*
X0152960Y0213536D02*
X0168486Y0213536D01*
X0168486Y0212751D02*
X0152960Y0212751D01*
X0152960Y0211965D02*
X0168486Y0211965D01*
X0168486Y0211179D02*
X0152960Y0211179D01*
X0152960Y0210393D02*
X0168486Y0210393D01*
X0168486Y0209607D02*
X0152960Y0209607D01*
X0152960Y0208821D02*
X0168486Y0208821D01*
X0168486Y0208035D02*
X0152960Y0208035D01*
X0152960Y0207249D02*
X0168486Y0207249D01*
X0168486Y0206463D02*
X0152960Y0206463D01*
X0152960Y0205677D02*
X0168486Y0205677D01*
X0168486Y0204891D02*
X0152960Y0204891D01*
X0152909Y0204106D02*
X0168486Y0204106D01*
X0168486Y0203320D02*
X0152347Y0203320D01*
X0140148Y0203320D02*
X0139361Y0203320D01*
X0139361Y0204106D02*
X0140148Y0204106D01*
X0140148Y0204891D02*
X0139361Y0204891D01*
X0139361Y0205677D02*
X0140148Y0205677D01*
X0140148Y0206463D02*
X0139361Y0206463D01*
X0139361Y0207249D02*
X0140148Y0207249D01*
X0140148Y0208035D02*
X0139361Y0208035D01*
X0139361Y0208821D02*
X0140148Y0208821D01*
X0140148Y0209607D02*
X0139361Y0209607D01*
X0139361Y0210393D02*
X0140148Y0210393D01*
X0140148Y0211179D02*
X0139361Y0211179D01*
X0139361Y0211965D02*
X0140148Y0211965D01*
X0140148Y0212751D02*
X0139361Y0212751D01*
X0139361Y0213536D02*
X0140148Y0213536D01*
X0140148Y0214322D02*
X0139361Y0214322D01*
X0139361Y0215108D02*
X0140148Y0215108D01*
X0140148Y0215894D02*
X0139361Y0215894D01*
X0139361Y0216680D02*
X0116339Y0216680D01*
X0116339Y0215894D02*
X0126550Y0215894D01*
X0126550Y0215108D02*
X0116339Y0215108D01*
X0116339Y0214631D02*
X0116339Y0234316D01*
X0117889Y0235866D01*
X0164247Y0235866D01*
X0165244Y0234869D01*
X0167219Y0234869D01*
X0168615Y0236266D01*
X0168615Y0238241D01*
X0167219Y0239638D01*
X0165244Y0239638D01*
X0164247Y0238641D01*
X0116739Y0238641D01*
X0115926Y0237828D01*
X0113564Y0235466D01*
X0113564Y0215781D01*
X0110775Y0212991D01*
X0108268Y0212991D01*
X0108268Y0213787D01*
X0107951Y0214104D01*
X0108268Y0214420D01*
X0108268Y0214581D01*
X0108649Y0214200D01*
X0110624Y0214200D01*
X0112021Y0215596D01*
X0112021Y0217572D01*
X0110624Y0218968D01*
X0108649Y0218968D01*
X0108268Y0218587D01*
X0108268Y0218787D01*
X0107951Y0219104D01*
X0108268Y0219420D01*
X0108268Y0219600D01*
X0108649Y0219219D01*
X0110624Y0219219D01*
X0112021Y0220616D01*
X0112021Y0222591D01*
X0110624Y0223988D01*
X0108649Y0223988D01*
X0108268Y0223607D01*
X0108268Y0223787D01*
X0107951Y0224104D01*
X0108268Y0224420D01*
X0108268Y0228787D01*
X0107951Y0229104D01*
X0108268Y0229420D01*
X0108268Y0233787D01*
X0107951Y0234104D01*
X0108268Y0234420D01*
X0108268Y0235053D01*
X0109043Y0234278D01*
X0111018Y0234278D01*
X0112415Y0235675D01*
X0112415Y0237650D01*
X0111018Y0239047D01*
X0109043Y0239047D01*
X0108268Y0238272D01*
X0108268Y0238787D01*
X0107951Y0239104D01*
X0108268Y0239420D01*
X0108268Y0243787D01*
X0108234Y0243821D01*
X0108390Y0243976D01*
X0108573Y0244294D01*
X0108668Y0244649D01*
X0108668Y0246210D01*
X0104715Y0246210D01*
X0104715Y0246997D01*
X0108668Y0246997D01*
X0108668Y0248559D01*
X0108573Y0248913D01*
X0108390Y0249231D01*
X0108293Y0249328D01*
X0171217Y0249328D01*
X0171120Y0249231D01*
X0170936Y0248913D01*
X0170841Y0248559D01*
X0170841Y0246997D01*
X0174794Y0246997D01*
X0174794Y0246210D01*
X0170841Y0246210D01*
X0170841Y0244649D01*
X0170936Y0244294D01*
X0171120Y0243976D01*
X0171275Y0243821D01*
X0171241Y0243787D01*
X0171241Y0239420D01*
X0171558Y0239104D01*
X0171241Y0238787D01*
X0171241Y0234420D01*
X0171558Y0234104D01*
X0171241Y0233787D01*
X0171241Y0229420D01*
X0171558Y0229104D01*
X0171241Y0228787D01*
X0171241Y0227991D01*
X0171149Y0227991D01*
X0169298Y0226141D01*
X0168486Y0225328D01*
X0168486Y0170308D01*
X0165853Y0167676D01*
X0165041Y0166863D01*
X0165041Y0159612D01*
X0168965Y0155688D01*
X0168743Y0155153D01*
X0168743Y0153803D01*
X0169260Y0152555D01*
X0170214Y0151601D01*
X0171462Y0151084D01*
X0172812Y0151084D01*
X0174059Y0151601D01*
X0174686Y0152228D01*
X0174686Y0151115D01*
X0173347Y0149776D01*
X0172812Y0149997D01*
X0171462Y0149997D01*
X0170214Y0149481D01*
X0169260Y0148526D01*
X0168743Y0147279D01*
X0168743Y0145929D01*
X0168802Y0145787D01*
X0167157Y0144143D01*
X0157373Y0134359D01*
X0148130Y0143601D01*
X0147087Y0144645D01*
X0142539Y0144645D01*
X0142530Y0144668D01*
X0141775Y0145423D01*
X0142530Y0146177D01*
X0143028Y0147381D01*
X0143028Y0148683D01*
X0142530Y0149886D01*
X0141800Y0150616D01*
X0142530Y0151346D01*
X0143028Y0152549D01*
X0143028Y0153851D01*
X0142530Y0155054D01*
X0141609Y0155975D01*
X0140406Y0156473D01*
X0139104Y0156473D01*
X0137901Y0155975D01*
X0136980Y0155054D01*
X0136950Y0154981D01*
X0130652Y0154981D01*
X0127264Y0151593D01*
X0127264Y0151641D01*
X0126682Y0152223D01*
X0120347Y0152223D01*
X0119774Y0151651D01*
X0119202Y0152223D01*
X0112867Y0152223D01*
X0112294Y0151651D01*
X0111722Y0152223D01*
X0105387Y0152223D01*
X0104804Y0151641D01*
X0104804Y0146684D01*
X0105387Y0146102D01*
X0108604Y0146102D01*
X0109391Y0145315D01*
X0118841Y0135864D01*
X0136950Y0135864D01*
X0136980Y0135791D01*
X0137901Y0134870D01*
X0139104Y0134372D01*
X0140406Y0134372D01*
X0141609Y0134870D01*
X0142530Y0135791D01*
X0143028Y0136994D01*
X0143028Y0138296D01*
X0142530Y0139500D01*
X0141800Y0140229D01*
X0142530Y0140959D01*
X0142581Y0141082D01*
X0145612Y0141082D01*
X0155986Y0130708D01*
X0155986Y0123483D01*
X0126679Y0123483D01*
X0112599Y0137564D01*
X0084415Y0165748D01*
X0087040Y0165748D01*
X0087611Y0165177D01*
X0093159Y0165177D01*
X0093741Y0165759D01*
X0093741Y0170126D01*
X0093159Y0170708D01*
X0087611Y0170708D01*
X0087029Y0170126D01*
X0087029Y0170097D01*
X0084166Y0170097D01*
X0083987Y0169918D01*
X0083808Y0170097D01*
X0080623Y0170097D01*
X0080611Y0170085D01*
X0080611Y0175925D01*
X0082686Y0175925D01*
X0083268Y0176507D01*
X0083268Y0185204D01*
X0082919Y0185553D01*
X0082577Y0186378D01*
X0081301Y0187655D01*
X0079634Y0188345D01*
X0077829Y0188345D01*
X0076161Y0187655D01*
X0074885Y0186378D01*
X0074543Y0185553D01*
X0074194Y0185204D01*
X0074194Y0176507D01*
X0074776Y0175925D01*
X0076261Y0175925D01*
X0076261Y0167652D01*
X0077535Y0166378D01*
X0077634Y0166378D01*
X0107905Y0136106D01*
X0083268Y0111469D01*
X0083268Y0114338D01*
X0082686Y0114920D01*
X0074776Y0114920D01*
X0074194Y0114338D01*
X0074194Y0105641D01*
X0074543Y0105292D01*
X0074885Y0104467D01*
X0076161Y0103190D01*
X0077829Y0102500D01*
X0079634Y0102500D01*
X0081301Y0103190D01*
X0082577Y0104467D01*
X0082919Y0105292D01*
X0083268Y0105641D01*
X0083268Y0108602D01*
X0084326Y0108602D01*
X0109867Y0134144D01*
X0124878Y0119134D01*
X0156866Y0119134D01*
X0167698Y0108301D01*
X0167698Y0056953D01*
X0165626Y0054881D01*
X0161355Y0054881D01*
X0160314Y0055922D01*
X0158920Y0056500D01*
X0151810Y0056500D01*
X0150416Y0055922D01*
X0149349Y0054855D01*
X0149172Y0054428D01*
X0148465Y0054428D01*
X0148465Y0054929D01*
X0147883Y0055511D01*
X0141351Y0055511D01*
X0140769Y0054929D01*
X0140769Y0053897D01*
X0140197Y0053897D01*
X0140197Y0055630D01*
X0139529Y0056298D01*
X0135803Y0056298D01*
X0135791Y0056318D01*
X0135532Y0056577D01*
X0135214Y0056761D01*
X0134860Y0056856D01*
X0131822Y0056856D01*
X0131822Y0051171D01*
X0131034Y0051171D01*
X0131034Y0056856D01*
X0127997Y0056856D01*
X0127642Y0056761D01*
X0127324Y0056577D01*
X0127065Y0056318D01*
X0127053Y0056298D01*
X0123327Y0056298D01*
X0122659Y0055630D01*
X0122659Y0054133D01*
X0117468Y0054133D01*
X0113905Y0050570D01*
X0113092Y0049757D01*
X0113092Y0021082D01*
X0112887Y0021082D01*
X0112708Y0020903D01*
X0112529Y0021082D01*
X0109343Y0021082D01*
X0108761Y0020500D01*
X0108761Y0017314D01*
X0109343Y0016732D01*
X0109568Y0016732D01*
X0109568Y0016023D01*
X0108182Y0016023D01*
X0107600Y0015440D01*
X0107600Y0010021D01*
X0106464Y0010021D01*
X0102778Y0043193D01*
X0102778Y0043536D01*
X0102726Y0043662D01*
X0102711Y0043798D01*
X0102545Y0044099D01*
X0102414Y0044416D01*
X0102318Y0044513D01*
X0102252Y0044632D01*
X0101984Y0044847D01*
X0101741Y0045090D01*
X0101615Y0045142D01*
X0101508Y0045227D01*
X0101178Y0045323D01*
X0100861Y0045454D01*
X0100725Y0045454D01*
X0100594Y0045492D01*
X0100252Y0045454D01*
X0043723Y0045454D01*
X0043723Y0249328D01*
X0069741Y0249328D01*
X0069486Y0249074D01*
X0069303Y0248756D01*
X0069208Y0248401D01*
X0069208Y0245856D01*
X0072176Y0245856D01*
X0072176Y0245068D01*
X0069208Y0245068D01*
X0069208Y0242523D01*
X0069303Y0242168D01*
X0069486Y0241850D01*
X0069746Y0241591D01*
X0070063Y0241407D01*
X0070418Y0241312D01*
X0071379Y0241312D01*
X0070617Y0240550D01*
X0067028Y0240550D01*
X0067028Y0241712D01*
X0067470Y0241712D01*
X0068052Y0242294D01*
X0068052Y0248629D01*
X0067470Y0249212D01*
X0062709Y0249212D01*
X0062127Y0248629D01*
X0062127Y0242294D01*
X0062709Y0241712D01*
X0064253Y0241712D01*
X0064253Y0232545D01*
X0065066Y0231732D01*
X0069568Y0227230D01*
X0070381Y0226417D01*
X0083833Y0226417D01*
X0091215Y0233799D01*
X0094168Y0233799D01*
X0095467Y0235098D01*
X0097540Y0235098D01*
X0097540Y0234606D01*
X0095113Y0234606D01*
X0095113Y0233389D01*
X0095208Y0233034D01*
X0095392Y0232716D01*
X0095513Y0232595D01*
X0095513Y0232041D01*
X0095356Y0231883D01*
X0095356Y0224080D01*
X0096168Y0223267D01*
X0096438Y0222997D01*
X0096438Y0173580D01*
X0096391Y0173523D01*
X0096438Y0173015D01*
X0096438Y0172564D01*
X0096383Y0172424D01*
X0096478Y0172207D01*
X0096478Y0169499D01*
X0097060Y0168917D01*
X0102607Y0168917D01*
X0103189Y0169499D01*
X0103189Y0170295D01*
X0104371Y0170295D01*
X0104371Y0170168D01*
X0104953Y0169586D01*
X0107931Y0169586D01*
X0108053Y0169465D01*
X0108370Y0169281D01*
X0108725Y0169186D01*
X0109893Y0169186D01*
X0109893Y0171564D01*
X0110286Y0171564D01*
X0110286Y0169186D01*
X0111454Y0169186D01*
X0111809Y0169281D01*
X0112126Y0169465D01*
X0112386Y0169724D01*
X0112569Y0170042D01*
X0112664Y0170397D01*
X0112664Y0171564D01*
X0110286Y0171564D01*
X0110286Y0171958D01*
X0109893Y0171958D01*
X0109893Y0174336D01*
X0108725Y0174336D01*
X0108370Y0174241D01*
X0102814Y0174241D01*
X0102607Y0174448D02*
X0099213Y0174448D01*
X0099213Y0224147D01*
X0098130Y0225230D01*
X0098130Y0229035D01*
X0099477Y0229035D01*
X0100060Y0229617D01*
X0100060Y0230216D01*
X0100375Y0230216D01*
X0100375Y0229420D01*
X0100692Y0229104D01*
X0100375Y0228787D01*
X0100375Y0224420D01*
X0100692Y0224104D01*
X0100375Y0223787D01*
X0100375Y0219420D01*
X0100692Y0219104D01*
X0100375Y0218787D01*
X0100375Y0214420D01*
X0100692Y0214104D01*
X0100375Y0213787D01*
X0100375Y0209420D01*
X0100692Y0209104D01*
X0100375Y0208787D01*
X0100375Y0204420D01*
X0100692Y0204104D01*
X0100375Y0203787D01*
X0100375Y0199420D01*
X0100692Y0199104D01*
X0100375Y0198787D01*
X0100375Y0194420D01*
X0100692Y0194104D01*
X0100375Y0193787D01*
X0100375Y0189420D01*
X0100692Y0189104D01*
X0100375Y0188787D01*
X0100375Y0184420D01*
X0100692Y0184104D01*
X0100375Y0183787D01*
X0100375Y0179420D01*
X0100957Y0178838D01*
X0107686Y0178838D01*
X0108268Y0179420D01*
X0108268Y0180033D01*
X0109141Y0179160D01*
X0111116Y0179160D01*
X0112513Y0180557D01*
X0112513Y0182532D01*
X0111116Y0183929D01*
X0109141Y0183929D01*
X0108268Y0183056D01*
X0108268Y0183787D01*
X0107951Y0184104D01*
X0108268Y0184420D01*
X0108268Y0185275D01*
X0108637Y0185275D01*
X0109633Y0184278D01*
X0111609Y0184278D01*
X0113005Y0185675D01*
X0113005Y0187650D01*
X0111609Y0189047D01*
X0109633Y0189047D01*
X0108637Y0188050D01*
X0108268Y0188050D01*
X0108268Y0188787D01*
X0107951Y0189104D01*
X0108268Y0189420D01*
X0108268Y0190197D01*
X0108637Y0190197D01*
X0109633Y0189200D01*
X0111609Y0189200D01*
X0113005Y0190596D01*
X0113005Y0192572D01*
X0111609Y0193968D01*
X0109633Y0193968D01*
X0108637Y0192971D01*
X0108268Y0192971D01*
X0108268Y0193787D01*
X0107951Y0194104D01*
X0108268Y0194420D01*
X0108268Y0198787D01*
X0107951Y0199104D01*
X0108268Y0199420D01*
X0108268Y0203787D01*
X0107951Y0204104D01*
X0108268Y0204420D01*
X0108268Y0205216D01*
X0116286Y0205216D01*
X0137469Y0184034D01*
X0137469Y0182624D01*
X0138866Y0181227D01*
X0140841Y0181227D01*
X0142237Y0182624D01*
X0142237Y0184599D01*
X0140841Y0185996D01*
X0139431Y0185996D01*
X0117436Y0207991D01*
X0108268Y0207991D01*
X0108268Y0208787D01*
X0107951Y0209104D01*
X0108268Y0209420D01*
X0108268Y0210216D01*
X0111924Y0210216D01*
X0115526Y0213819D01*
X0116339Y0214631D01*
X0116030Y0214322D02*
X0126550Y0214322D01*
X0126550Y0213536D02*
X0115244Y0213536D01*
X0114458Y0212751D02*
X0126550Y0212751D01*
X0126550Y0211965D02*
X0113672Y0211965D01*
X0112886Y0211179D02*
X0126550Y0211179D01*
X0126550Y0210393D02*
X0112101Y0210393D01*
X0111349Y0211604D02*
X0114952Y0215206D01*
X0114952Y0234891D01*
X0117314Y0237253D01*
X0166231Y0237253D01*
X0164571Y0235542D02*
X0117565Y0235542D01*
X0116779Y0234756D02*
X0171241Y0234756D01*
X0171241Y0235542D02*
X0167892Y0235542D01*
X0168615Y0236328D02*
X0171241Y0236328D01*
X0171241Y0237114D02*
X0168615Y0237114D01*
X0168615Y0237900D02*
X0171241Y0237900D01*
X0171241Y0238686D02*
X0168171Y0238686D01*
X0167385Y0239472D02*
X0171241Y0239472D01*
X0171241Y0240258D02*
X0108268Y0240258D01*
X0108268Y0241043D02*
X0171241Y0241043D01*
X0171241Y0241829D02*
X0108268Y0241829D01*
X0108268Y0242615D02*
X0171241Y0242615D01*
X0171241Y0243401D02*
X0108268Y0243401D01*
X0108511Y0244187D02*
X0170998Y0244187D01*
X0170841Y0244973D02*
X0108668Y0244973D01*
X0108668Y0245759D02*
X0170841Y0245759D01*
X0170841Y0247331D02*
X0108668Y0247331D01*
X0108668Y0248117D02*
X0170841Y0248117D01*
X0170934Y0248903D02*
X0108576Y0248903D01*
X0104715Y0246545D02*
X0174794Y0246545D01*
X0175582Y0246545D02*
X0192675Y0246545D01*
X0192560Y0246479D02*
X0192301Y0246219D01*
X0192118Y0245901D01*
X0192023Y0245547D01*
X0192023Y0244379D01*
X0194400Y0244379D01*
X0194400Y0243986D01*
X0192023Y0243986D01*
X0192023Y0242818D01*
X0192118Y0242463D01*
X0192301Y0242146D01*
X0192560Y0241886D01*
X0192878Y0241703D01*
X0193233Y0241608D01*
X0194400Y0241608D01*
X0194400Y0243985D01*
X0194794Y0243985D01*
X0194794Y0241608D01*
X0195962Y0241608D01*
X0196316Y0241703D01*
X0196634Y0241886D01*
X0196753Y0242005D01*
X0196753Y0240834D01*
X0196241Y0240322D01*
X0196241Y0231625D01*
X0196590Y0231276D01*
X0196932Y0230451D01*
X0198208Y0229175D01*
X0199876Y0228484D01*
X0201681Y0228484D01*
X0203348Y0229175D01*
X0204625Y0230451D01*
X0204967Y0231276D01*
X0205315Y0231625D01*
X0205315Y0240322D01*
X0204733Y0240904D01*
X0199528Y0240904D01*
X0199528Y0242008D01*
X0199733Y0242008D01*
X0200315Y0242590D01*
X0200315Y0245775D01*
X0199733Y0246357D01*
X0196756Y0246357D01*
X0196634Y0246479D01*
X0196316Y0246662D01*
X0195962Y0246757D01*
X0194794Y0246757D01*
X0194794Y0244379D01*
X0194400Y0244379D01*
X0194400Y0246757D01*
X0193233Y0246757D01*
X0192878Y0246662D01*
X0192560Y0246479D01*
X0192079Y0245759D02*
X0179534Y0245759D01*
X0179534Y0246210D02*
X0175582Y0246210D01*
X0175582Y0246997D01*
X0179534Y0246997D01*
X0179534Y0248559D01*
X0179439Y0248913D01*
X0179256Y0249231D01*
X0179159Y0249328D01*
X0235786Y0249328D01*
X0235786Y0045454D01*
X0179257Y0045454D01*
X0178916Y0045492D01*
X0178785Y0045454D01*
X0178649Y0045454D01*
X0178331Y0045323D01*
X0178001Y0045227D01*
X0177895Y0045142D01*
X0177769Y0045090D01*
X0177526Y0044847D01*
X0177258Y0044632D01*
X0177192Y0044513D01*
X0177096Y0044416D01*
X0176964Y0044099D01*
X0176798Y0043798D01*
X0176783Y0043662D01*
X0176731Y0043536D01*
X0176731Y0043193D01*
X0173045Y0010021D01*
X0157186Y0010021D01*
X0157306Y0010625D01*
X0157306Y0012844D01*
X0154027Y0012844D01*
X0154027Y0013041D01*
X0157306Y0013041D01*
X0157306Y0015259D01*
X0157176Y0015912D01*
X0156922Y0016527D01*
X0156552Y0017080D01*
X0156081Y0017550D01*
X0155528Y0017920D01*
X0154913Y0018175D01*
X0154261Y0018304D01*
X0154026Y0018304D01*
X0154026Y0013041D01*
X0153830Y0013041D01*
X0153830Y0018304D01*
X0153595Y0018304D01*
X0152943Y0018175D01*
X0152328Y0017920D01*
X0151775Y0017550D01*
X0151304Y0017080D01*
X0150935Y0016527D01*
X0150680Y0015912D01*
X0150550Y0015259D01*
X0150550Y0013041D01*
X0153830Y0013041D01*
X0153830Y0012844D01*
X0150550Y0012844D01*
X0150550Y0010625D01*
X0150670Y0010021D01*
X0148023Y0010021D01*
X0145054Y0010021D01*
X0145054Y0010808D01*
X0148023Y0010808D01*
X0148023Y0012764D01*
X0147928Y0013118D01*
X0147744Y0013436D01*
X0147485Y0013695D01*
X0147167Y0013879D01*
X0146812Y0013974D01*
X0145054Y0013974D01*
X0145054Y0010808D01*
X0144267Y0010808D01*
X0144267Y0010021D01*
X0141298Y0010021D01*
X0138211Y0010021D01*
X0135243Y0010021D01*
X0135243Y0010808D01*
X0138211Y0010808D01*
X0138211Y0012764D01*
X0138117Y0013118D01*
X0137933Y0013436D01*
X0137674Y0013695D01*
X0137356Y0013879D01*
X0137001Y0013974D01*
X0135243Y0013974D01*
X0135243Y0010808D01*
X0134456Y0010808D01*
X0134456Y0010021D01*
X0131487Y0010021D01*
X0128839Y0010021D01*
X0128960Y0010625D01*
X0128960Y0012844D01*
X0125680Y0012844D01*
X0125680Y0013041D01*
X0125483Y0013041D01*
X0125483Y0018304D01*
X0125249Y0018304D01*
X0124596Y0018175D01*
X0123982Y0017920D01*
X0123428Y0017550D01*
X0122958Y0017080D01*
X0122588Y0016527D01*
X0122333Y0015912D01*
X0122296Y0015724D01*
X0121997Y0016023D01*
X0121162Y0016023D01*
X0121162Y0029100D01*
X0123105Y0031043D01*
X0123588Y0031043D01*
X0123428Y0030936D01*
X0122958Y0030466D01*
X0122588Y0029912D01*
X0122333Y0029298D01*
X0122204Y0028645D01*
X0122204Y0026427D01*
X0125483Y0026427D01*
X0125483Y0026230D01*
X0122204Y0026230D01*
X0122204Y0024011D01*
X0122333Y0023359D01*
X0122588Y0022744D01*
X0122958Y0022191D01*
X0123428Y0021720D01*
X0123982Y0021350D01*
X0124596Y0021096D01*
X0125249Y0020966D01*
X0125483Y0020966D01*
X0125483Y0026230D01*
X0125680Y0026230D01*
X0125680Y0026427D01*
X0128960Y0026427D01*
X0128960Y0028645D01*
X0128830Y0029298D01*
X0128575Y0029912D01*
X0128205Y0030466D01*
X0127735Y0030936D01*
X0127575Y0031043D01*
X0133440Y0031043D01*
X0134056Y0031660D01*
X0134056Y0031579D01*
X0132068Y0029591D01*
X0132068Y0024883D01*
X0131189Y0024883D01*
X0129912Y0024354D01*
X0128934Y0023376D01*
X0128404Y0022098D01*
X0128404Y0020715D01*
X0128934Y0019438D01*
X0129912Y0018460D01*
X0131189Y0017930D01*
X0132572Y0017930D01*
X0133850Y0018460D01*
X0134828Y0019438D01*
X0134906Y0019626D01*
X0135836Y0019626D01*
X0135916Y0019706D01*
X0135997Y0019626D01*
X0138395Y0019626D01*
X0138475Y0019706D01*
X0138556Y0019626D01*
X0140954Y0019626D01*
X0141034Y0019706D01*
X0141115Y0019626D01*
X0143108Y0019626D01*
X0143230Y0019504D01*
X0143548Y0019321D01*
X0143902Y0019226D01*
X0144873Y0019226D01*
X0144894Y0019226D01*
X0145660Y0018460D01*
X0146937Y0017930D01*
X0148320Y0017930D01*
X0149598Y0018460D01*
X0150576Y0019438D01*
X0151105Y0020715D01*
X0151105Y0022098D01*
X0150576Y0023376D01*
X0149598Y0024354D01*
X0148320Y0024883D01*
X0147054Y0024883D01*
X0147054Y0026315D01*
X0146959Y0026669D01*
X0146776Y0026987D01*
X0146516Y0027246D01*
X0146198Y0027430D01*
X0145844Y0027525D01*
X0144873Y0027525D01*
X0144873Y0023567D01*
X0144873Y0027525D01*
X0143902Y0027525D01*
X0143548Y0027430D01*
X0143230Y0027246D01*
X0143108Y0027125D01*
X0141115Y0027125D01*
X0141034Y0027044D01*
X0140954Y0027125D01*
X0138556Y0027125D01*
X0138475Y0027044D01*
X0138395Y0027125D01*
X0136418Y0027125D01*
X0136418Y0027789D01*
X0137132Y0028504D01*
X0138406Y0029778D01*
X0138406Y0031949D01*
X0138907Y0031949D01*
X0139489Y0032531D01*
X0139489Y0039063D01*
X0138907Y0039645D01*
X0138844Y0039645D01*
X0138845Y0039645D01*
X0139329Y0039645D01*
X0139450Y0039524D01*
X0139768Y0039340D01*
X0139833Y0039323D01*
X0139755Y0039189D01*
X0139660Y0038834D01*
X0139660Y0036190D01*
X0142924Y0036190D01*
X0142924Y0035403D01*
X0139660Y0035403D01*
X0139660Y0032759D01*
X0139755Y0032404D01*
X0139939Y0032086D01*
X0140198Y0031827D01*
X0140516Y0031644D01*
X0140871Y0031549D01*
X0142924Y0031549D01*
X0142924Y0035403D01*
X0143711Y0035403D01*
X0143711Y0031549D01*
X0145765Y0031549D01*
X0146120Y0031644D01*
X0146437Y0031827D01*
X0146697Y0032086D01*
X0146880Y0032404D01*
X0146975Y0032759D01*
X0146975Y0035403D01*
X0143712Y0035403D01*
X0143712Y0036190D01*
X0146975Y0036190D01*
X0146975Y0038834D01*
X0146880Y0039189D01*
X0146697Y0039507D01*
X0146437Y0039766D01*
X0146120Y0039950D01*
X0145765Y0040045D01*
X0144131Y0040045D01*
X0144164Y0040101D01*
X0144259Y0040456D01*
X0144259Y0041673D01*
X0141832Y0041673D01*
X0141832Y0042165D01*
X0144259Y0042165D01*
X0144259Y0043382D01*
X0144164Y0043736D01*
X0143980Y0044054D01*
X0143721Y0044313D01*
X0143403Y0044497D01*
X0143049Y0044592D01*
X0141832Y0044592D01*
X0141832Y0042165D01*
X0141339Y0042165D01*
X0141339Y0044592D01*
X0140217Y0044592D01*
X0140217Y0047229D01*
X0140197Y0047249D01*
X0140197Y0047756D01*
X0140158Y0047795D01*
X0140158Y0047853D01*
X0140197Y0047893D01*
X0140197Y0049547D01*
X0140800Y0049547D01*
X0141351Y0048996D01*
X0147883Y0048996D01*
X0148465Y0049578D01*
X0148465Y0050078D01*
X0149828Y0050078D01*
X0150416Y0049490D01*
X0151810Y0048912D01*
X0158920Y0048912D01*
X0160314Y0049490D01*
X0161355Y0050531D01*
X0167427Y0050531D01*
X0170774Y0053878D01*
X0172048Y0055152D01*
X0172048Y0091673D01*
X0215920Y0091673D01*
X0216733Y0092486D01*
X0221851Y0097604D01*
X0221851Y0102701D01*
X0223033Y0103190D01*
X0224310Y0104467D01*
X0224652Y0105292D01*
X0225000Y0105641D01*
X0225000Y0114338D01*
X0224418Y0114920D01*
X0216509Y0114920D01*
X0215926Y0114338D01*
X0215926Y0105641D01*
X0216275Y0105292D01*
X0216617Y0104467D01*
X0217893Y0103190D01*
X0219076Y0102701D01*
X0219076Y0098753D01*
X0214771Y0094448D01*
X0172048Y0094448D01*
X0172048Y0110103D01*
X0159941Y0122209D01*
X0159548Y0122603D01*
X0159548Y0131496D01*
X0169216Y0141164D01*
X0173308Y0137072D01*
X0174121Y0136260D01*
X0186491Y0136260D01*
X0187304Y0137072D01*
X0190552Y0140320D01*
X0190552Y0164139D01*
X0197515Y0171102D01*
X0213263Y0171102D01*
X0214075Y0171915D01*
X0218085Y0175925D01*
X0224418Y0175925D01*
X0225000Y0176507D01*
X0225000Y0185204D01*
X0224652Y0185553D01*
X0224310Y0186378D01*
X0223033Y0187655D01*
X0221366Y0188345D01*
X0219561Y0188345D01*
X0217893Y0187655D01*
X0216617Y0186378D01*
X0216275Y0185553D01*
X0215926Y0185204D01*
X0215926Y0177690D01*
X0212113Y0173877D01*
X0196365Y0173877D01*
X0188590Y0166101D01*
X0187777Y0165289D01*
X0187777Y0141470D01*
X0185342Y0139034D01*
X0175270Y0139034D01*
X0171178Y0143126D01*
X0171320Y0143268D01*
X0171462Y0143210D01*
X0172812Y0143210D01*
X0174059Y0143727D01*
X0175014Y0144681D01*
X0175530Y0145929D01*
X0175530Y0147279D01*
X0175309Y0147814D01*
X0176217Y0148722D01*
X0176217Y0146910D01*
X0179704Y0146910D01*
X0179704Y0146297D01*
X0176217Y0146297D01*
X0176217Y0144020D01*
X0176312Y0143666D01*
X0176495Y0143348D01*
X0176755Y0143088D01*
X0177073Y0142905D01*
X0177427Y0142810D01*
X0179704Y0142810D01*
X0179704Y0146297D01*
X0180317Y0146297D01*
X0180317Y0142810D01*
X0182594Y0142810D01*
X0182949Y0142905D01*
X0183266Y0143088D01*
X0183526Y0143348D01*
X0183709Y0143666D01*
X0183804Y0144020D01*
X0183804Y0146297D01*
X0180317Y0146297D01*
X0180317Y0146910D01*
X0179704Y0146910D01*
X0179704Y0150397D01*
X0177461Y0150397D01*
X0177461Y0152228D01*
X0178088Y0151601D01*
X0179336Y0151084D01*
X0180686Y0151084D01*
X0181933Y0151601D01*
X0182888Y0152555D01*
X0183404Y0153803D01*
X0183404Y0155153D01*
X0183183Y0155688D01*
X0184916Y0157421D01*
X0185729Y0158234D01*
X0185729Y0175722D01*
X0182678Y0178773D01*
X0182678Y0229363D01*
X0179823Y0232218D01*
X0179134Y0232907D01*
X0179134Y0233787D01*
X0178818Y0234104D01*
X0179134Y0234420D01*
X0179134Y0238787D01*
X0178818Y0239104D01*
X0179134Y0239420D01*
X0179134Y0243787D01*
X0179100Y0243821D01*
X0179256Y0243976D01*
X0179439Y0244294D01*
X0179534Y0244649D01*
X0179534Y0246210D01*
X0179534Y0247331D02*
X0235786Y0247331D01*
X0235786Y0248117D02*
X0179534Y0248117D01*
X0179442Y0248903D02*
X0235786Y0248903D01*
X0235786Y0246545D02*
X0196520Y0246545D01*
X0194794Y0246545D02*
X0194400Y0246545D01*
X0194400Y0245759D02*
X0194794Y0245759D01*
X0194794Y0244973D02*
X0194400Y0244973D01*
X0194400Y0244187D02*
X0179378Y0244187D01*
X0179534Y0244973D02*
X0192023Y0244973D01*
X0192023Y0243401D02*
X0179134Y0243401D01*
X0179134Y0242615D02*
X0192077Y0242615D01*
X0192659Y0241829D02*
X0179134Y0241829D01*
X0179134Y0241043D02*
X0196753Y0241043D01*
X0196753Y0241829D02*
X0196536Y0241829D01*
X0196241Y0240258D02*
X0179134Y0240258D01*
X0179134Y0239472D02*
X0196241Y0239472D01*
X0196241Y0238686D02*
X0179134Y0238686D01*
X0179134Y0237900D02*
X0196241Y0237900D01*
X0196241Y0237114D02*
X0179134Y0237114D01*
X0179134Y0236328D02*
X0196241Y0236328D01*
X0196241Y0235542D02*
X0179134Y0235542D01*
X0179134Y0234756D02*
X0196241Y0234756D01*
X0196241Y0233970D02*
X0178951Y0233970D01*
X0179134Y0233184D02*
X0196241Y0233184D01*
X0196241Y0232398D02*
X0179643Y0232398D01*
X0180429Y0231612D02*
X0196254Y0231612D01*
X0196777Y0230827D02*
X0181214Y0230827D01*
X0182000Y0230041D02*
X0197342Y0230041D01*
X0198128Y0229255D02*
X0182678Y0229255D01*
X0182678Y0228469D02*
X0235786Y0228469D01*
X0235786Y0229255D02*
X0223114Y0229255D01*
X0223033Y0229175D02*
X0224310Y0230451D01*
X0224652Y0231276D01*
X0225000Y0231625D01*
X0225000Y0240322D01*
X0224418Y0240904D01*
X0216509Y0240904D01*
X0215926Y0240322D01*
X0215926Y0231625D01*
X0216275Y0231276D01*
X0216617Y0230451D01*
X0217893Y0229175D01*
X0219561Y0228484D01*
X0221366Y0228484D01*
X0223033Y0229175D01*
X0223899Y0230041D02*
X0235786Y0230041D01*
X0235786Y0230827D02*
X0224465Y0230827D01*
X0224988Y0231612D02*
X0235786Y0231612D01*
X0235786Y0232398D02*
X0225000Y0232398D01*
X0225000Y0233184D02*
X0235786Y0233184D01*
X0235786Y0233970D02*
X0225000Y0233970D01*
X0225000Y0234756D02*
X0235786Y0234756D01*
X0235786Y0235542D02*
X0225000Y0235542D01*
X0225000Y0236328D02*
X0235786Y0236328D01*
X0235786Y0237114D02*
X0225000Y0237114D01*
X0225000Y0237900D02*
X0235786Y0237900D01*
X0235786Y0238686D02*
X0225000Y0238686D01*
X0225000Y0239472D02*
X0235786Y0239472D01*
X0235786Y0240258D02*
X0225000Y0240258D01*
X0220463Y0235974D02*
X0220463Y0233021D01*
X0217028Y0230041D02*
X0204214Y0230041D01*
X0204780Y0230827D02*
X0216462Y0230827D01*
X0215939Y0231612D02*
X0205303Y0231612D01*
X0205315Y0232398D02*
X0215926Y0232398D01*
X0215926Y0233184D02*
X0205315Y0233184D01*
X0205315Y0233970D02*
X0215926Y0233970D01*
X0215926Y0234756D02*
X0205315Y0234756D01*
X0205315Y0235542D02*
X0215926Y0235542D01*
X0215926Y0236328D02*
X0205315Y0236328D01*
X0205315Y0237114D02*
X0215926Y0237114D01*
X0215926Y0237900D02*
X0205315Y0237900D01*
X0205315Y0238686D02*
X0215926Y0238686D01*
X0215926Y0239472D02*
X0205315Y0239472D01*
X0205315Y0240258D02*
X0215926Y0240258D01*
X0217813Y0229255D02*
X0203428Y0229255D01*
X0200778Y0233021D02*
X0198141Y0235659D01*
X0198141Y0238612D01*
X0200778Y0235974D01*
X0198141Y0238612D02*
X0198141Y0244182D01*
X0200315Y0244187D02*
X0235786Y0244187D01*
X0235786Y0243401D02*
X0200315Y0243401D01*
X0200315Y0242615D02*
X0235786Y0242615D01*
X0235786Y0241829D02*
X0199528Y0241829D01*
X0199528Y0241043D02*
X0235786Y0241043D01*
X0235786Y0244973D02*
X0200315Y0244973D01*
X0200315Y0245759D02*
X0235786Y0245759D01*
X0235786Y0227683D02*
X0182678Y0227683D01*
X0182678Y0226897D02*
X0235786Y0226897D01*
X0235786Y0226111D02*
X0182678Y0226111D01*
X0182678Y0225325D02*
X0235786Y0225325D01*
X0235786Y0224539D02*
X0182678Y0224539D01*
X0182678Y0223753D02*
X0235786Y0223753D01*
X0235786Y0222967D02*
X0182678Y0222967D01*
X0182678Y0222182D02*
X0235786Y0222182D01*
X0235786Y0221396D02*
X0182678Y0221396D01*
X0182678Y0220610D02*
X0235786Y0220610D01*
X0235786Y0219824D02*
X0182678Y0219824D01*
X0182678Y0219038D02*
X0235786Y0219038D01*
X0235786Y0218252D02*
X0182678Y0218252D01*
X0182678Y0217466D02*
X0235786Y0217466D01*
X0235786Y0216680D02*
X0182678Y0216680D01*
X0182678Y0215894D02*
X0235786Y0215894D01*
X0235786Y0215108D02*
X0182678Y0215108D01*
X0182678Y0214322D02*
X0235786Y0214322D01*
X0235786Y0213536D02*
X0182678Y0213536D01*
X0182678Y0212751D02*
X0235786Y0212751D01*
X0235786Y0211965D02*
X0182678Y0211965D01*
X0182678Y0211179D02*
X0235786Y0211179D01*
X0235786Y0210393D02*
X0182678Y0210393D01*
X0182678Y0209607D02*
X0235786Y0209607D01*
X0235786Y0208821D02*
X0182678Y0208821D01*
X0182678Y0208035D02*
X0235786Y0208035D01*
X0235786Y0207249D02*
X0182678Y0207249D01*
X0182678Y0206463D02*
X0235786Y0206463D01*
X0235786Y0205677D02*
X0182678Y0205677D01*
X0182678Y0204891D02*
X0235786Y0204891D01*
X0235786Y0204106D02*
X0182678Y0204106D01*
X0182678Y0203320D02*
X0235786Y0203320D01*
X0235786Y0202534D02*
X0182678Y0202534D01*
X0182678Y0201748D02*
X0235786Y0201748D01*
X0235786Y0200962D02*
X0182678Y0200962D01*
X0182678Y0200176D02*
X0235786Y0200176D01*
X0235786Y0199390D02*
X0182678Y0199390D01*
X0182678Y0198604D02*
X0235786Y0198604D01*
X0235786Y0197818D02*
X0182678Y0197818D01*
X0182678Y0197032D02*
X0235786Y0197032D01*
X0235786Y0196246D02*
X0182678Y0196246D01*
X0182678Y0195460D02*
X0235786Y0195460D01*
X0235786Y0194675D02*
X0182678Y0194675D01*
X0182678Y0193889D02*
X0235786Y0193889D01*
X0235786Y0193103D02*
X0182678Y0193103D01*
X0182678Y0192317D02*
X0235786Y0192317D01*
X0235786Y0191531D02*
X0182678Y0191531D01*
X0182678Y0190745D02*
X0235786Y0190745D01*
X0235786Y0189959D02*
X0182678Y0189959D01*
X0182678Y0189173D02*
X0235786Y0189173D01*
X0235786Y0188387D02*
X0182678Y0188387D01*
X0182678Y0187601D02*
X0198155Y0187601D01*
X0198208Y0187655D02*
X0196932Y0186378D01*
X0196590Y0185553D01*
X0196241Y0185204D01*
X0196241Y0176507D01*
X0196824Y0175925D01*
X0204733Y0175925D01*
X0205315Y0176507D01*
X0205315Y0185204D01*
X0204967Y0185553D01*
X0204625Y0186378D01*
X0203348Y0187655D01*
X0201681Y0188345D01*
X0199876Y0188345D01*
X0198208Y0187655D01*
X0197369Y0186815D02*
X0182678Y0186815D01*
X0182678Y0186030D02*
X0196788Y0186030D01*
X0196281Y0185244D02*
X0182678Y0185244D01*
X0182678Y0184458D02*
X0196241Y0184458D01*
X0196241Y0183672D02*
X0182678Y0183672D01*
X0182678Y0182886D02*
X0196241Y0182886D01*
X0196241Y0182100D02*
X0182678Y0182100D01*
X0182678Y0181314D02*
X0196241Y0181314D01*
X0196241Y0180528D02*
X0182678Y0180528D01*
X0182678Y0179742D02*
X0196241Y0179742D01*
X0196241Y0178956D02*
X0182678Y0178956D01*
X0183280Y0178170D02*
X0196241Y0178170D01*
X0196241Y0177384D02*
X0184066Y0177384D01*
X0184852Y0176599D02*
X0196241Y0176599D01*
X0195943Y0173455D02*
X0185729Y0173455D01*
X0185729Y0174241D02*
X0212477Y0174241D01*
X0213263Y0175027D02*
X0185729Y0175027D01*
X0185638Y0175813D02*
X0214049Y0175813D01*
X0214835Y0176599D02*
X0205315Y0176599D01*
X0205315Y0177384D02*
X0215621Y0177384D01*
X0215926Y0178170D02*
X0205315Y0178170D01*
X0205315Y0178956D02*
X0215926Y0178956D01*
X0215926Y0179742D02*
X0205315Y0179742D01*
X0205315Y0180528D02*
X0215926Y0180528D01*
X0215926Y0181314D02*
X0205315Y0181314D01*
X0205315Y0182100D02*
X0215926Y0182100D01*
X0215926Y0182886D02*
X0205315Y0182886D01*
X0205315Y0183672D02*
X0215926Y0183672D01*
X0215926Y0184458D02*
X0205315Y0184458D01*
X0205276Y0185244D02*
X0215966Y0185244D01*
X0216473Y0186030D02*
X0204769Y0186030D01*
X0204188Y0186815D02*
X0217054Y0186815D01*
X0217840Y0187601D02*
X0203402Y0187601D01*
X0200778Y0183808D02*
X0200778Y0180856D01*
X0195157Y0172669D02*
X0185729Y0172669D01*
X0185729Y0171883D02*
X0194371Y0171883D01*
X0193585Y0171097D02*
X0185729Y0171097D01*
X0185729Y0170311D02*
X0192800Y0170311D01*
X0192014Y0169525D02*
X0185729Y0169525D01*
X0185729Y0168739D02*
X0191228Y0168739D01*
X0190442Y0167954D02*
X0185729Y0167954D01*
X0185729Y0167168D02*
X0189656Y0167168D01*
X0188870Y0166382D02*
X0185729Y0166382D01*
X0185729Y0165596D02*
X0188084Y0165596D01*
X0187777Y0164810D02*
X0185729Y0164810D01*
X0185729Y0164024D02*
X0187777Y0164024D01*
X0187777Y0163238D02*
X0185729Y0163238D01*
X0185729Y0162452D02*
X0187777Y0162452D01*
X0187777Y0161666D02*
X0185729Y0161666D01*
X0185729Y0160880D02*
X0187777Y0160880D01*
X0187777Y0160094D02*
X0185729Y0160094D01*
X0185729Y0159308D02*
X0187777Y0159308D01*
X0187777Y0158523D02*
X0185729Y0158523D01*
X0185232Y0157737D02*
X0187777Y0157737D01*
X0187777Y0156951D02*
X0184446Y0156951D01*
X0183660Y0156165D02*
X0187777Y0156165D01*
X0187777Y0155379D02*
X0183311Y0155379D01*
X0183404Y0154593D02*
X0187777Y0154593D01*
X0187777Y0153807D02*
X0183404Y0153807D01*
X0183081Y0153021D02*
X0187777Y0153021D01*
X0187777Y0152235D02*
X0182568Y0152235D01*
X0181568Y0151449D02*
X0187777Y0151449D01*
X0187777Y0150663D02*
X0177461Y0150663D01*
X0177461Y0151449D02*
X0178454Y0151449D01*
X0179704Y0149878D02*
X0180317Y0149878D01*
X0180317Y0150397D02*
X0180317Y0146910D01*
X0183804Y0146910D01*
X0183804Y0149187D01*
X0183709Y0149542D01*
X0183526Y0149859D01*
X0183266Y0150119D01*
X0182949Y0150302D01*
X0182594Y0150397D01*
X0180317Y0150397D01*
X0180317Y0149092D02*
X0179704Y0149092D01*
X0179704Y0148306D02*
X0180317Y0148306D01*
X0180317Y0147520D02*
X0179704Y0147520D01*
X0179704Y0146734D02*
X0175530Y0146734D01*
X0175530Y0145948D02*
X0176217Y0145948D01*
X0176217Y0145162D02*
X0175213Y0145162D01*
X0174709Y0144376D02*
X0176217Y0144376D01*
X0176356Y0143590D02*
X0173730Y0143590D01*
X0172286Y0142018D02*
X0187777Y0142018D01*
X0187777Y0142804D02*
X0171500Y0142804D01*
X0173072Y0141232D02*
X0187540Y0141232D01*
X0186754Y0140447D02*
X0173858Y0140447D01*
X0174644Y0139661D02*
X0185968Y0139661D01*
X0185916Y0137647D02*
X0174696Y0137647D01*
X0168938Y0143405D01*
X0167390Y0144376D02*
X0147356Y0144376D01*
X0148141Y0143590D02*
X0166604Y0143590D01*
X0165818Y0142804D02*
X0148927Y0142804D01*
X0149713Y0142018D02*
X0165033Y0142018D01*
X0164247Y0141232D02*
X0150499Y0141232D01*
X0151285Y0140447D02*
X0163461Y0140447D01*
X0162675Y0139661D02*
X0152071Y0139661D01*
X0152857Y0138875D02*
X0161889Y0138875D01*
X0161103Y0138089D02*
X0153643Y0138089D01*
X0154429Y0137303D02*
X0160317Y0137303D01*
X0159531Y0136517D02*
X0155215Y0136517D01*
X0156001Y0135731D02*
X0158745Y0135731D01*
X0157959Y0134945D02*
X0156786Y0134945D01*
X0154107Y0132587D02*
X0117575Y0132587D01*
X0118361Y0131802D02*
X0154892Y0131802D01*
X0155678Y0131016D02*
X0119147Y0131016D01*
X0119933Y0130230D02*
X0155986Y0130230D01*
X0155986Y0129444D02*
X0120719Y0129444D01*
X0121505Y0128658D02*
X0155986Y0128658D01*
X0155986Y0127872D02*
X0122290Y0127872D01*
X0123076Y0127086D02*
X0155986Y0127086D01*
X0155986Y0126300D02*
X0123862Y0126300D01*
X0124648Y0125514D02*
X0155986Y0125514D01*
X0155986Y0124728D02*
X0125434Y0124728D01*
X0126220Y0123942D02*
X0155986Y0123942D01*
X0159548Y0123942D02*
X0181465Y0123942D01*
X0181465Y0123175D02*
X0181465Y0125150D01*
X0182862Y0126547D01*
X0184837Y0126547D01*
X0185834Y0125550D01*
X0197219Y0125550D01*
X0201353Y0121416D01*
X0202166Y0120604D01*
X0202166Y0114920D01*
X0204733Y0114920D01*
X0205315Y0114338D01*
X0205315Y0105641D01*
X0204967Y0105292D01*
X0204625Y0104467D01*
X0203348Y0103190D01*
X0201681Y0102500D01*
X0199876Y0102500D01*
X0198208Y0103190D01*
X0196932Y0104467D01*
X0196590Y0105292D01*
X0196241Y0105641D01*
X0196241Y0114338D01*
X0196824Y0114920D01*
X0199391Y0114920D01*
X0199391Y0115827D01*
X0197130Y0115827D01*
X0197008Y0115705D01*
X0196690Y0115521D01*
X0196336Y0115427D01*
X0195168Y0115427D01*
X0195168Y0117804D01*
X0194774Y0117804D01*
X0194774Y0115427D01*
X0193607Y0115427D01*
X0193252Y0115521D01*
X0192934Y0115705D01*
X0192675Y0115964D01*
X0192492Y0116282D01*
X0192397Y0116637D01*
X0192397Y0117804D01*
X0194774Y0117804D01*
X0194774Y0118198D01*
X0192397Y0118198D01*
X0192397Y0119366D01*
X0192492Y0119720D01*
X0192675Y0120038D01*
X0192934Y0120298D01*
X0193252Y0120481D01*
X0193607Y0120576D01*
X0194774Y0120576D01*
X0194774Y0118198D01*
X0195168Y0118198D01*
X0195168Y0120576D01*
X0196336Y0120576D01*
X0196690Y0120481D01*
X0197008Y0120298D01*
X0197130Y0120176D01*
X0198669Y0120176D01*
X0196070Y0122775D01*
X0185834Y0122775D01*
X0184837Y0121778D01*
X0182862Y0121778D01*
X0181465Y0123175D01*
X0181484Y0123156D02*
X0159548Y0123156D01*
X0159780Y0122371D02*
X0182270Y0122371D01*
X0183849Y0124163D02*
X0196645Y0124163D01*
X0200778Y0120029D01*
X0200778Y0118257D01*
X0200523Y0118001D01*
X0198515Y0118001D01*
X0200778Y0118257D02*
X0200778Y0109989D01*
X0200778Y0107037D01*
X0204453Y0104295D02*
X0216789Y0104295D01*
X0216363Y0105080D02*
X0204879Y0105080D01*
X0205315Y0105866D02*
X0215926Y0105866D01*
X0215926Y0106652D02*
X0205315Y0106652D01*
X0205315Y0107438D02*
X0215926Y0107438D01*
X0215926Y0108224D02*
X0205315Y0108224D01*
X0205315Y0109010D02*
X0215926Y0109010D01*
X0215926Y0109796D02*
X0205315Y0109796D01*
X0205315Y0110582D02*
X0215926Y0110582D01*
X0215926Y0111368D02*
X0205315Y0111368D01*
X0205315Y0112154D02*
X0215926Y0112154D01*
X0215926Y0112940D02*
X0205315Y0112940D01*
X0205315Y0113726D02*
X0215926Y0113726D01*
X0216100Y0114511D02*
X0205142Y0114511D01*
X0202166Y0115297D02*
X0235786Y0115297D01*
X0235786Y0114511D02*
X0224827Y0114511D01*
X0225000Y0113726D02*
X0235786Y0113726D01*
X0235786Y0112940D02*
X0225000Y0112940D01*
X0225000Y0112154D02*
X0235786Y0112154D01*
X0235786Y0111368D02*
X0225000Y0111368D01*
X0225000Y0110582D02*
X0235786Y0110582D01*
X0235786Y0109796D02*
X0225000Y0109796D01*
X0225000Y0109010D02*
X0235786Y0109010D01*
X0235786Y0108224D02*
X0225000Y0108224D01*
X0225000Y0107438D02*
X0235786Y0107438D01*
X0235786Y0106652D02*
X0225000Y0106652D01*
X0225000Y0105866D02*
X0235786Y0105866D01*
X0235786Y0105080D02*
X0224564Y0105080D01*
X0224138Y0104295D02*
X0235786Y0104295D01*
X0235786Y0103509D02*
X0223352Y0103509D01*
X0221904Y0102723D02*
X0235786Y0102723D01*
X0235786Y0101937D02*
X0221851Y0101937D01*
X0221851Y0101151D02*
X0235786Y0101151D01*
X0235786Y0100365D02*
X0221851Y0100365D01*
X0221851Y0099579D02*
X0235786Y0099579D01*
X0235786Y0098793D02*
X0221851Y0098793D01*
X0221851Y0098007D02*
X0235786Y0098007D01*
X0235786Y0097221D02*
X0221468Y0097221D01*
X0220683Y0096435D02*
X0235786Y0096435D01*
X0235786Y0095650D02*
X0219897Y0095650D01*
X0219111Y0094864D02*
X0235786Y0094864D01*
X0235786Y0094078D02*
X0218325Y0094078D01*
X0217539Y0093292D02*
X0235786Y0093292D01*
X0235786Y0092506D02*
X0216753Y0092506D01*
X0215967Y0091720D02*
X0235786Y0091720D01*
X0235786Y0090934D02*
X0172048Y0090934D01*
X0172048Y0090148D02*
X0235786Y0090148D01*
X0235786Y0089362D02*
X0172048Y0089362D01*
X0172048Y0088576D02*
X0235786Y0088576D01*
X0235786Y0087790D02*
X0172048Y0087790D01*
X0172048Y0087004D02*
X0235786Y0087004D01*
X0235786Y0086219D02*
X0172048Y0086219D01*
X0172048Y0085433D02*
X0235786Y0085433D01*
X0235786Y0084647D02*
X0172048Y0084647D01*
X0172048Y0083861D02*
X0235786Y0083861D01*
X0235786Y0083075D02*
X0172048Y0083075D01*
X0172048Y0082289D02*
X0235786Y0082289D01*
X0235786Y0081503D02*
X0172048Y0081503D01*
X0172048Y0080717D02*
X0235786Y0080717D01*
X0235786Y0079931D02*
X0172048Y0079931D01*
X0172048Y0079145D02*
X0235786Y0079145D01*
X0235786Y0078359D02*
X0172048Y0078359D01*
X0172048Y0077574D02*
X0235786Y0077574D01*
X0235786Y0076788D02*
X0172048Y0076788D01*
X0172048Y0076002D02*
X0235786Y0076002D01*
X0235786Y0075216D02*
X0172048Y0075216D01*
X0172048Y0074430D02*
X0235786Y0074430D01*
X0235786Y0073644D02*
X0172048Y0073644D01*
X0172048Y0072858D02*
X0235786Y0072858D01*
X0235786Y0072072D02*
X0172048Y0072072D01*
X0172048Y0071286D02*
X0235786Y0071286D01*
X0235786Y0070500D02*
X0172048Y0070500D01*
X0172048Y0069714D02*
X0235786Y0069714D01*
X0235786Y0068928D02*
X0172048Y0068928D01*
X0172048Y0068143D02*
X0235786Y0068143D01*
X0235786Y0067357D02*
X0172048Y0067357D01*
X0172048Y0066571D02*
X0235786Y0066571D01*
X0235786Y0065785D02*
X0172048Y0065785D01*
X0172048Y0064999D02*
X0235786Y0064999D01*
X0235786Y0064213D02*
X0172048Y0064213D01*
X0172048Y0063427D02*
X0235786Y0063427D01*
X0235786Y0062641D02*
X0172048Y0062641D01*
X0172048Y0061855D02*
X0198655Y0061855D01*
X0198208Y0061670D02*
X0196932Y0060394D01*
X0196590Y0059569D01*
X0196241Y0059220D01*
X0196241Y0050523D01*
X0196824Y0049941D01*
X0204733Y0049941D01*
X0205315Y0050523D01*
X0205315Y0059220D01*
X0204967Y0059569D01*
X0204625Y0060394D01*
X0203348Y0061670D01*
X0201681Y0062361D01*
X0199876Y0062361D01*
X0198208Y0061670D01*
X0197607Y0061069D02*
X0172048Y0061069D01*
X0172048Y0060283D02*
X0196886Y0060283D01*
X0196519Y0059498D02*
X0172048Y0059498D01*
X0172048Y0058712D02*
X0196241Y0058712D01*
X0196241Y0057926D02*
X0172048Y0057926D01*
X0172048Y0057140D02*
X0196241Y0057140D01*
X0196241Y0056354D02*
X0172048Y0056354D01*
X0172048Y0055568D02*
X0196241Y0055568D01*
X0196241Y0054782D02*
X0171678Y0054782D01*
X0170892Y0053996D02*
X0196241Y0053996D01*
X0196241Y0053210D02*
X0170106Y0053210D01*
X0169320Y0052424D02*
X0196241Y0052424D01*
X0196241Y0051638D02*
X0168534Y0051638D01*
X0167749Y0050852D02*
X0196241Y0050852D01*
X0196698Y0050067D02*
X0160891Y0050067D01*
X0159809Y0049281D02*
X0235786Y0049281D01*
X0235786Y0050067D02*
X0224544Y0050067D01*
X0224418Y0049941D02*
X0225000Y0050523D01*
X0225000Y0059220D01*
X0224652Y0059569D01*
X0224310Y0060394D01*
X0223033Y0061670D01*
X0221366Y0062361D01*
X0219561Y0062361D01*
X0217893Y0061670D01*
X0216617Y0060394D01*
X0216275Y0059569D01*
X0215926Y0059220D01*
X0215926Y0050523D01*
X0216509Y0049941D01*
X0224418Y0049941D01*
X0225000Y0050852D02*
X0235786Y0050852D01*
X0235786Y0051638D02*
X0225000Y0051638D01*
X0225000Y0052424D02*
X0235786Y0052424D01*
X0235786Y0053210D02*
X0225000Y0053210D01*
X0225000Y0053996D02*
X0235786Y0053996D01*
X0235786Y0054782D02*
X0225000Y0054782D01*
X0225000Y0055568D02*
X0235786Y0055568D01*
X0235786Y0056354D02*
X0225000Y0056354D01*
X0225000Y0057140D02*
X0235786Y0057140D01*
X0235786Y0057926D02*
X0225000Y0057926D01*
X0225000Y0058712D02*
X0235786Y0058712D01*
X0235786Y0059498D02*
X0224723Y0059498D01*
X0224356Y0060283D02*
X0235786Y0060283D01*
X0235786Y0061069D02*
X0223635Y0061069D01*
X0222587Y0061855D02*
X0235786Y0061855D01*
X0235786Y0048495D02*
X0140197Y0048495D01*
X0140197Y0049281D02*
X0141066Y0049281D01*
X0140197Y0047709D02*
X0235786Y0047709D01*
X0235786Y0046923D02*
X0140217Y0046923D01*
X0140217Y0046137D02*
X0235786Y0046137D01*
X0220463Y0054871D02*
X0220463Y0057824D01*
X0217292Y0061069D02*
X0203949Y0061069D01*
X0204671Y0060283D02*
X0216571Y0060283D01*
X0216204Y0059498D02*
X0205038Y0059498D01*
X0205315Y0058712D02*
X0215926Y0058712D01*
X0215926Y0057926D02*
X0205315Y0057926D01*
X0205315Y0057140D02*
X0215926Y0057140D01*
X0215926Y0056354D02*
X0205315Y0056354D01*
X0205315Y0055568D02*
X0215926Y0055568D01*
X0215926Y0054782D02*
X0205315Y0054782D01*
X0205315Y0053996D02*
X0215926Y0053996D01*
X0215926Y0053210D02*
X0205315Y0053210D01*
X0205315Y0052424D02*
X0215926Y0052424D01*
X0215926Y0051638D02*
X0205315Y0051638D01*
X0205315Y0050852D02*
X0215926Y0050852D01*
X0216383Y0050067D02*
X0204859Y0050067D01*
X0200778Y0054871D02*
X0200778Y0057824D01*
X0202902Y0061855D02*
X0218340Y0061855D01*
X0215345Y0093060D02*
X0169873Y0093060D01*
X0167698Y0093292D02*
X0043723Y0093292D01*
X0043723Y0094078D02*
X0167698Y0094078D01*
X0167698Y0094864D02*
X0043723Y0094864D01*
X0043723Y0095650D02*
X0167698Y0095650D01*
X0167698Y0096435D02*
X0043723Y0096435D01*
X0043723Y0097221D02*
X0167698Y0097221D01*
X0167698Y0098007D02*
X0043723Y0098007D01*
X0043723Y0098793D02*
X0167698Y0098793D01*
X0167698Y0099579D02*
X0043723Y0099579D01*
X0043723Y0100365D02*
X0167698Y0100365D01*
X0167698Y0101151D02*
X0043723Y0101151D01*
X0043723Y0101937D02*
X0167698Y0101937D01*
X0167698Y0102723D02*
X0080172Y0102723D01*
X0081619Y0103509D02*
X0167698Y0103509D01*
X0167698Y0104295D02*
X0082405Y0104295D01*
X0082832Y0105080D02*
X0167698Y0105080D01*
X0167698Y0105866D02*
X0083268Y0105866D01*
X0083268Y0106652D02*
X0167698Y0106652D01*
X0167698Y0107438D02*
X0083268Y0107438D01*
X0083268Y0108224D02*
X0167698Y0108224D01*
X0166989Y0109010D02*
X0084734Y0109010D01*
X0085519Y0109796D02*
X0166203Y0109796D01*
X0165417Y0110582D02*
X0086305Y0110582D01*
X0087091Y0111368D02*
X0164632Y0111368D01*
X0163846Y0112154D02*
X0087877Y0112154D01*
X0088663Y0112940D02*
X0163060Y0112940D01*
X0162274Y0113726D02*
X0089449Y0113726D01*
X0090235Y0114511D02*
X0161488Y0114511D01*
X0160702Y0115297D02*
X0091021Y0115297D01*
X0091807Y0116083D02*
X0159916Y0116083D01*
X0159130Y0116869D02*
X0092593Y0116869D01*
X0093379Y0117655D02*
X0158344Y0117655D01*
X0157558Y0118441D02*
X0094164Y0118441D01*
X0094950Y0119227D02*
X0124784Y0119227D01*
X0123998Y0120013D02*
X0095736Y0120013D01*
X0096522Y0120799D02*
X0123212Y0120799D01*
X0122427Y0121585D02*
X0097308Y0121585D01*
X0098094Y0122371D02*
X0121641Y0122371D01*
X0120855Y0123156D02*
X0098880Y0123156D01*
X0099666Y0123942D02*
X0120069Y0123942D01*
X0119283Y0124728D02*
X0100452Y0124728D01*
X0101238Y0125514D02*
X0118497Y0125514D01*
X0117711Y0126300D02*
X0102024Y0126300D01*
X0102809Y0127086D02*
X0116925Y0127086D01*
X0116139Y0127872D02*
X0103595Y0127872D01*
X0104381Y0128658D02*
X0115353Y0128658D01*
X0114567Y0129444D02*
X0105167Y0129444D01*
X0105953Y0130230D02*
X0113781Y0130230D01*
X0112996Y0131016D02*
X0106739Y0131016D01*
X0107525Y0131802D02*
X0112210Y0131802D01*
X0111424Y0132587D02*
X0108311Y0132587D01*
X0109097Y0133373D02*
X0110638Y0133373D01*
X0110424Y0136663D02*
X0083751Y0109989D01*
X0078731Y0109989D01*
X0078731Y0107037D01*
X0074631Y0105080D02*
X0063147Y0105080D01*
X0063234Y0105292D02*
X0063583Y0105641D01*
X0063583Y0114338D01*
X0063001Y0114920D01*
X0060434Y0114920D01*
X0060434Y0119718D01*
X0059621Y0120530D01*
X0048819Y0131332D01*
X0048819Y0209120D01*
X0054896Y0215197D01*
X0088066Y0215197D01*
X0089062Y0214200D01*
X0091038Y0214200D01*
X0092434Y0215596D01*
X0092434Y0217572D01*
X0091038Y0218968D01*
X0089062Y0218968D01*
X0088066Y0217971D01*
X0053747Y0217971D01*
X0046857Y0211082D01*
X0046045Y0210269D01*
X0046045Y0130183D01*
X0056740Y0119487D01*
X0055831Y0119487D01*
X0055709Y0119609D01*
X0055391Y0119792D01*
X0055037Y0119887D01*
X0053869Y0119887D01*
X0053869Y0117509D01*
X0053475Y0117509D01*
X0053475Y0117115D01*
X0053869Y0117115D01*
X0053869Y0114738D01*
X0054909Y0114738D01*
X0054509Y0114338D01*
X0054509Y0105641D01*
X0054858Y0105292D01*
X0055200Y0104467D01*
X0056476Y0103190D01*
X0058144Y0102500D01*
X0059949Y0102500D01*
X0061616Y0103190D01*
X0062892Y0104467D01*
X0063234Y0105292D01*
X0063583Y0105866D02*
X0074194Y0105866D01*
X0074194Y0106652D02*
X0063583Y0106652D01*
X0063583Y0107438D02*
X0074194Y0107438D01*
X0074194Y0108224D02*
X0063583Y0108224D01*
X0063583Y0109010D02*
X0074194Y0109010D01*
X0074194Y0109796D02*
X0063583Y0109796D01*
X0063583Y0110582D02*
X0074194Y0110582D01*
X0074194Y0111368D02*
X0063583Y0111368D01*
X0063583Y0112154D02*
X0074194Y0112154D01*
X0074194Y0112940D02*
X0063583Y0112940D01*
X0063583Y0113726D02*
X0074194Y0113726D01*
X0074368Y0114511D02*
X0063410Y0114511D01*
X0060434Y0115297D02*
X0087097Y0115297D01*
X0086311Y0114511D02*
X0083095Y0114511D01*
X0083268Y0113726D02*
X0085525Y0113726D01*
X0084739Y0112940D02*
X0083268Y0112940D01*
X0083268Y0112154D02*
X0083953Y0112154D01*
X0087883Y0116083D02*
X0060434Y0116083D01*
X0060434Y0116869D02*
X0088668Y0116869D01*
X0089454Y0117655D02*
X0060434Y0117655D01*
X0060434Y0118441D02*
X0090240Y0118441D01*
X0091026Y0119227D02*
X0060434Y0119227D01*
X0060138Y0120013D02*
X0091812Y0120013D01*
X0092598Y0120799D02*
X0059353Y0120799D01*
X0058567Y0121585D02*
X0093384Y0121585D01*
X0094170Y0122371D02*
X0057781Y0122371D01*
X0056995Y0123156D02*
X0094956Y0123156D01*
X0095742Y0123942D02*
X0056209Y0123942D01*
X0055423Y0124728D02*
X0096528Y0124728D01*
X0097314Y0125514D02*
X0054637Y0125514D01*
X0053851Y0126300D02*
X0098099Y0126300D01*
X0098885Y0127086D02*
X0053065Y0127086D01*
X0052279Y0127872D02*
X0099671Y0127872D01*
X0100457Y0128658D02*
X0051493Y0128658D01*
X0050707Y0129444D02*
X0101243Y0129444D01*
X0102029Y0130230D02*
X0049922Y0130230D01*
X0049136Y0131016D02*
X0102815Y0131016D01*
X0103601Y0131802D02*
X0048819Y0131802D01*
X0048819Y0132587D02*
X0104387Y0132587D01*
X0105173Y0133373D02*
X0048819Y0133373D01*
X0048819Y0134159D02*
X0105959Y0134159D01*
X0106744Y0134945D02*
X0048819Y0134945D01*
X0048819Y0135731D02*
X0107530Y0135731D01*
X0107494Y0136517D02*
X0048819Y0136517D01*
X0048819Y0137303D02*
X0066804Y0137303D01*
X0067238Y0137123D02*
X0070539Y0137123D01*
X0073590Y0138387D01*
X0075924Y0140721D01*
X0077188Y0143772D01*
X0077188Y0147073D01*
X0075924Y0150124D01*
X0073590Y0152458D01*
X0070539Y0153722D01*
X0067238Y0153722D01*
X0064188Y0152458D01*
X0061853Y0150124D01*
X0060589Y0147073D01*
X0060589Y0143772D01*
X0061853Y0140721D01*
X0064188Y0138387D01*
X0067238Y0137123D01*
X0064907Y0138089D02*
X0048819Y0138089D01*
X0048819Y0138875D02*
X0063700Y0138875D01*
X0062914Y0139661D02*
X0048819Y0139661D01*
X0048819Y0140447D02*
X0062128Y0140447D01*
X0061641Y0141232D02*
X0048819Y0141232D01*
X0048819Y0142018D02*
X0061316Y0142018D01*
X0060990Y0142804D02*
X0048819Y0142804D01*
X0048819Y0143590D02*
X0060665Y0143590D01*
X0060589Y0144376D02*
X0048819Y0144376D01*
X0048819Y0145162D02*
X0060589Y0145162D01*
X0060589Y0145948D02*
X0048819Y0145948D01*
X0048819Y0146734D02*
X0060589Y0146734D01*
X0060774Y0147520D02*
X0048819Y0147520D01*
X0048819Y0148306D02*
X0061100Y0148306D01*
X0061425Y0149092D02*
X0048819Y0149092D01*
X0048819Y0149878D02*
X0061751Y0149878D01*
X0062393Y0150663D02*
X0048819Y0150663D01*
X0048819Y0151449D02*
X0063179Y0151449D01*
X0063965Y0152235D02*
X0048819Y0152235D01*
X0048819Y0153021D02*
X0065546Y0153021D01*
X0072231Y0153021D02*
X0090990Y0153021D01*
X0091776Y0152235D02*
X0073813Y0152235D01*
X0074599Y0151449D02*
X0092562Y0151449D01*
X0093348Y0150663D02*
X0075385Y0150663D01*
X0076026Y0149878D02*
X0094134Y0149878D01*
X0094920Y0149092D02*
X0076352Y0149092D01*
X0076677Y0148306D02*
X0095705Y0148306D01*
X0096491Y0147520D02*
X0077003Y0147520D01*
X0077188Y0146734D02*
X0097277Y0146734D01*
X0098063Y0145948D02*
X0077188Y0145948D01*
X0077188Y0145162D02*
X0098849Y0145162D01*
X0099635Y0144376D02*
X0077188Y0144376D01*
X0077113Y0143590D02*
X0100421Y0143590D01*
X0101207Y0142804D02*
X0076787Y0142804D01*
X0076462Y0142018D02*
X0101993Y0142018D01*
X0102779Y0141232D02*
X0076136Y0141232D01*
X0075650Y0140447D02*
X0103565Y0140447D01*
X0104351Y0139661D02*
X0074864Y0139661D01*
X0074078Y0138875D02*
X0105136Y0138875D01*
X0105922Y0138089D02*
X0072870Y0138089D01*
X0070973Y0137303D02*
X0106708Y0137303D01*
X0109716Y0140447D02*
X0114259Y0140447D01*
X0113473Y0141232D02*
X0108930Y0141232D01*
X0108144Y0142018D02*
X0112687Y0142018D01*
X0111901Y0142804D02*
X0107358Y0142804D01*
X0106572Y0143590D02*
X0111116Y0143590D01*
X0110330Y0144376D02*
X0105786Y0144376D01*
X0105000Y0145162D02*
X0109544Y0145162D01*
X0108758Y0145948D02*
X0104214Y0145948D01*
X0104804Y0146734D02*
X0103429Y0146734D01*
X0102643Y0147520D02*
X0104804Y0147520D01*
X0104804Y0148306D02*
X0101857Y0148306D01*
X0101071Y0149092D02*
X0104804Y0149092D01*
X0104804Y0149878D02*
X0100285Y0149878D01*
X0099499Y0150663D02*
X0104804Y0150663D01*
X0104804Y0151449D02*
X0098713Y0151449D01*
X0097927Y0152235D02*
X0127907Y0152235D01*
X0128693Y0153021D02*
X0097141Y0153021D01*
X0096355Y0153807D02*
X0105162Y0153807D01*
X0105387Y0153582D02*
X0111722Y0153582D01*
X0112294Y0154155D01*
X0112867Y0153582D01*
X0119202Y0153582D01*
X0119774Y0154155D01*
X0120347Y0153582D01*
X0126682Y0153582D01*
X0127264Y0154164D01*
X0127264Y0159122D01*
X0126682Y0159704D01*
X0125616Y0159704D01*
X0125899Y0159986D01*
X0125899Y0161961D01*
X0124502Y0163358D01*
X0122527Y0163358D01*
X0121130Y0161961D01*
X0121130Y0159986D01*
X0121413Y0159704D01*
X0120347Y0159704D01*
X0119774Y0159131D01*
X0119202Y0159704D01*
X0118136Y0159704D01*
X0118419Y0159986D01*
X0118419Y0161961D01*
X0117520Y0162860D01*
X0122908Y0168248D01*
X0123721Y0169060D01*
X0123721Y0171791D01*
X0124438Y0171791D01*
X0124755Y0172108D01*
X0125072Y0171791D01*
X0129438Y0171791D01*
X0129755Y0172108D01*
X0130072Y0171791D01*
X0134438Y0171791D01*
X0134755Y0172108D01*
X0135072Y0171791D01*
X0139438Y0171791D01*
X0139755Y0172108D01*
X0140072Y0171791D01*
X0144438Y0171791D01*
X0144755Y0172108D01*
X0145072Y0171791D01*
X0149438Y0171791D01*
X0149755Y0172108D01*
X0150072Y0171791D01*
X0154438Y0171791D01*
X0154755Y0172108D01*
X0155072Y0171791D01*
X0159438Y0171791D01*
X0159755Y0172108D01*
X0160072Y0171791D01*
X0164438Y0171791D01*
X0165020Y0172373D01*
X0165020Y0179102D01*
X0164438Y0179684D01*
X0160072Y0179684D01*
X0159755Y0179367D01*
X0159438Y0179684D01*
X0155072Y0179684D01*
X0154755Y0179367D01*
X0154438Y0179684D01*
X0150072Y0179684D01*
X0149755Y0179367D01*
X0149438Y0179684D01*
X0145072Y0179684D01*
X0144755Y0179367D01*
X0144438Y0179684D01*
X0140072Y0179684D01*
X0139755Y0179367D01*
X0139438Y0179684D01*
X0135072Y0179684D01*
X0134755Y0179367D01*
X0134438Y0179684D01*
X0130072Y0179684D01*
X0129755Y0179367D01*
X0129438Y0179684D01*
X0125072Y0179684D01*
X0124755Y0179367D01*
X0124438Y0179684D01*
X0120072Y0179684D01*
X0120038Y0179650D01*
X0119882Y0179806D01*
X0119564Y0179989D01*
X0119210Y0180084D01*
X0117648Y0180084D01*
X0117648Y0176131D01*
X0116861Y0176131D01*
X0116861Y0175344D01*
X0114089Y0175344D01*
X0114089Y0172601D01*
X0114184Y0172247D01*
X0114368Y0171929D01*
X0114627Y0171670D01*
X0114945Y0171486D01*
X0115300Y0171391D01*
X0116861Y0171391D01*
X0116861Y0175344D01*
X0117648Y0175344D01*
X0117648Y0171391D01*
X0119210Y0171391D01*
X0119564Y0171486D01*
X0119882Y0171670D01*
X0120038Y0171825D01*
X0120072Y0171791D01*
X0120946Y0171791D01*
X0120946Y0170210D01*
X0116326Y0165589D01*
X0103189Y0165589D01*
X0103189Y0166385D01*
X0102607Y0166967D01*
X0097060Y0166967D01*
X0096478Y0166385D01*
X0096478Y0162019D01*
X0097060Y0161437D01*
X0102607Y0161437D01*
X0103189Y0162019D01*
X0103189Y0162815D01*
X0107417Y0162815D01*
X0106563Y0161961D01*
X0106563Y0159986D01*
X0106846Y0159704D01*
X0105387Y0159704D01*
X0104804Y0159122D01*
X0104804Y0154164D01*
X0105387Y0153582D01*
X0104804Y0154593D02*
X0095569Y0154593D01*
X0094784Y0155379D02*
X0104804Y0155379D01*
X0104804Y0156165D02*
X0093998Y0156165D01*
X0093212Y0156951D02*
X0104804Y0156951D01*
X0104804Y0157737D02*
X0092426Y0157737D01*
X0091640Y0158523D02*
X0104804Y0158523D01*
X0104991Y0159308D02*
X0090854Y0159308D01*
X0090068Y0160094D02*
X0106563Y0160094D01*
X0106563Y0160880D02*
X0089282Y0160880D01*
X0088496Y0161666D02*
X0096830Y0161666D01*
X0096478Y0162452D02*
X0087710Y0162452D01*
X0086924Y0163238D02*
X0096478Y0163238D01*
X0096478Y0164024D02*
X0086138Y0164024D01*
X0085353Y0164810D02*
X0096478Y0164810D01*
X0096478Y0165596D02*
X0093577Y0165596D01*
X0093741Y0166382D02*
X0096478Y0166382D01*
X0093741Y0167168D02*
X0117904Y0167168D01*
X0118690Y0167954D02*
X0093741Y0167954D01*
X0093741Y0168739D02*
X0119476Y0168739D01*
X0120262Y0169525D02*
X0112187Y0169525D01*
X0112641Y0170311D02*
X0120946Y0170311D01*
X0120946Y0171097D02*
X0112664Y0171097D01*
X0112664Y0171958D02*
X0112664Y0173126D01*
X0112569Y0173480D01*
X0112386Y0173798D01*
X0112126Y0174057D01*
X0111809Y0174241D01*
X0114089Y0174241D01*
X0114089Y0175027D02*
X0099213Y0175027D01*
X0099213Y0175813D02*
X0116861Y0175813D01*
X0116861Y0176131D02*
X0114089Y0176131D01*
X0114089Y0178874D01*
X0114184Y0179228D01*
X0114368Y0179546D01*
X0114627Y0179806D01*
X0114945Y0179989D01*
X0115300Y0180084D01*
X0116861Y0180084D01*
X0116861Y0176131D01*
X0116861Y0176599D02*
X0117648Y0176599D01*
X0117648Y0177384D02*
X0116861Y0177384D01*
X0116861Y0178170D02*
X0117648Y0178170D01*
X0117648Y0178956D02*
X0116861Y0178956D01*
X0116861Y0179742D02*
X0117648Y0179742D01*
X0119946Y0179742D02*
X0168486Y0179742D01*
X0168486Y0178956D02*
X0165020Y0178956D01*
X0165020Y0178170D02*
X0168486Y0178170D01*
X0168486Y0177384D02*
X0165020Y0177384D01*
X0165020Y0176599D02*
X0168486Y0176599D01*
X0168486Y0175813D02*
X0165020Y0175813D01*
X0165020Y0175027D02*
X0168486Y0175027D01*
X0168486Y0174241D02*
X0165020Y0174241D01*
X0165020Y0173455D02*
X0168486Y0173455D01*
X0168486Y0172669D02*
X0165020Y0172669D01*
X0164530Y0171883D02*
X0168486Y0171883D01*
X0168486Y0171097D02*
X0123721Y0171097D01*
X0123721Y0170311D02*
X0168486Y0170311D01*
X0167703Y0169525D02*
X0123721Y0169525D01*
X0123400Y0168739D02*
X0166917Y0168739D01*
X0166131Y0167954D02*
X0122614Y0167954D01*
X0121828Y0167168D02*
X0165345Y0167168D01*
X0165041Y0166382D02*
X0121042Y0166382D01*
X0120256Y0165596D02*
X0165041Y0165596D01*
X0165041Y0164810D02*
X0119470Y0164810D01*
X0118684Y0164024D02*
X0165041Y0164024D01*
X0165041Y0163238D02*
X0124622Y0163238D01*
X0125408Y0162452D02*
X0165041Y0162452D01*
X0165041Y0161666D02*
X0125899Y0161666D01*
X0125899Y0160880D02*
X0165041Y0160880D01*
X0165041Y0160094D02*
X0125899Y0160094D01*
X0127077Y0159308D02*
X0165344Y0159308D01*
X0166130Y0158523D02*
X0127264Y0158523D01*
X0127264Y0157737D02*
X0166916Y0157737D01*
X0167702Y0156951D02*
X0127264Y0156951D01*
X0127264Y0156165D02*
X0138360Y0156165D01*
X0137305Y0155379D02*
X0127264Y0155379D01*
X0127264Y0154593D02*
X0130265Y0154593D01*
X0129479Y0153807D02*
X0126907Y0153807D01*
X0123515Y0156643D02*
X0123515Y0160974D01*
X0121130Y0160880D02*
X0118419Y0160880D01*
X0118419Y0160094D02*
X0121130Y0160094D01*
X0119952Y0159308D02*
X0119597Y0159308D01*
X0118419Y0161666D02*
X0121130Y0161666D01*
X0121621Y0162452D02*
X0117928Y0162452D01*
X0117898Y0163238D02*
X0122407Y0163238D01*
X0116900Y0164202D02*
X0122334Y0169635D01*
X0122334Y0175659D01*
X0122255Y0175738D01*
X0124530Y0171883D02*
X0124980Y0171883D01*
X0129530Y0171883D02*
X0129980Y0171883D01*
X0134530Y0171883D02*
X0134980Y0171883D01*
X0139530Y0171883D02*
X0139980Y0171883D01*
X0144530Y0171883D02*
X0144980Y0171883D01*
X0149530Y0171883D02*
X0149980Y0171883D01*
X0154530Y0171883D02*
X0154980Y0171883D01*
X0159530Y0171883D02*
X0159980Y0171883D01*
X0166428Y0166289D02*
X0166428Y0160186D01*
X0172137Y0154478D01*
X0168743Y0154593D02*
X0142721Y0154593D01*
X0143028Y0153807D02*
X0168743Y0153807D01*
X0169067Y0153021D02*
X0143028Y0153021D01*
X0142898Y0152235D02*
X0169580Y0152235D01*
X0170580Y0151449D02*
X0142573Y0151449D01*
X0141848Y0150663D02*
X0174234Y0150663D01*
X0174686Y0151449D02*
X0173694Y0151449D01*
X0173448Y0149878D02*
X0173101Y0149878D01*
X0171172Y0149878D02*
X0142533Y0149878D01*
X0142859Y0149092D02*
X0169825Y0149092D01*
X0169168Y0148306D02*
X0143028Y0148306D01*
X0143028Y0147520D02*
X0168843Y0147520D01*
X0168743Y0146734D02*
X0142760Y0146734D01*
X0142300Y0145948D02*
X0168743Y0145948D01*
X0168176Y0145162D02*
X0142035Y0145162D01*
X0142017Y0140447D02*
X0146247Y0140447D01*
X0147033Y0139661D02*
X0142369Y0139661D01*
X0142789Y0138875D02*
X0147819Y0138875D01*
X0148605Y0138089D02*
X0143028Y0138089D01*
X0143028Y0137303D02*
X0149391Y0137303D01*
X0150177Y0136517D02*
X0142830Y0136517D01*
X0142470Y0135731D02*
X0150963Y0135731D01*
X0151749Y0134945D02*
X0141684Y0134945D01*
X0137826Y0134945D02*
X0115217Y0134945D01*
X0114431Y0135731D02*
X0137040Y0135731D01*
X0152535Y0134159D02*
X0116003Y0134159D01*
X0116789Y0133373D02*
X0153321Y0133373D01*
X0159548Y0131016D02*
X0235786Y0131016D01*
X0235786Y0131802D02*
X0159853Y0131802D01*
X0160639Y0132587D02*
X0235786Y0132587D01*
X0235786Y0133373D02*
X0161425Y0133373D01*
X0162211Y0134159D02*
X0235786Y0134159D01*
X0235786Y0134945D02*
X0162997Y0134945D01*
X0163783Y0135731D02*
X0235786Y0135731D01*
X0235786Y0136517D02*
X0186748Y0136517D01*
X0187534Y0137303D02*
X0208537Y0137303D01*
X0208970Y0137123D02*
X0212272Y0137123D01*
X0215322Y0138387D01*
X0217657Y0140721D01*
X0218920Y0143772D01*
X0218920Y0147073D01*
X0217657Y0150124D01*
X0215322Y0152458D01*
X0212272Y0153722D01*
X0208970Y0153722D01*
X0205920Y0152458D01*
X0203585Y0150124D01*
X0202322Y0147073D01*
X0202322Y0143772D01*
X0203585Y0140721D01*
X0205920Y0138387D01*
X0208970Y0137123D01*
X0206639Y0138089D02*
X0188320Y0138089D01*
X0189106Y0138875D02*
X0205432Y0138875D01*
X0204646Y0139661D02*
X0189892Y0139661D01*
X0190552Y0140447D02*
X0203860Y0140447D01*
X0203374Y0141232D02*
X0190552Y0141232D01*
X0190552Y0142018D02*
X0203048Y0142018D01*
X0202722Y0142804D02*
X0190552Y0142804D01*
X0190552Y0143590D02*
X0202397Y0143590D01*
X0202322Y0144376D02*
X0190552Y0144376D01*
X0190552Y0145162D02*
X0202322Y0145162D01*
X0202322Y0145948D02*
X0190552Y0145948D01*
X0190552Y0146734D02*
X0202322Y0146734D01*
X0202507Y0147520D02*
X0190552Y0147520D01*
X0190552Y0148306D02*
X0202832Y0148306D01*
X0203158Y0149092D02*
X0190552Y0149092D01*
X0190552Y0149878D02*
X0203483Y0149878D01*
X0204125Y0150663D02*
X0190552Y0150663D01*
X0190552Y0151449D02*
X0204911Y0151449D01*
X0205697Y0152235D02*
X0190552Y0152235D01*
X0190552Y0153021D02*
X0207279Y0153021D01*
X0213963Y0153021D02*
X0235786Y0153021D01*
X0235786Y0152235D02*
X0215545Y0152235D01*
X0216331Y0151449D02*
X0235786Y0151449D01*
X0235786Y0150663D02*
X0217117Y0150663D01*
X0217759Y0149878D02*
X0235786Y0149878D01*
X0235786Y0149092D02*
X0218084Y0149092D01*
X0218410Y0148306D02*
X0235786Y0148306D01*
X0235786Y0147520D02*
X0218735Y0147520D01*
X0218920Y0146734D02*
X0235786Y0146734D01*
X0235786Y0145948D02*
X0218920Y0145948D01*
X0218920Y0145162D02*
X0235786Y0145162D01*
X0235786Y0144376D02*
X0218920Y0144376D01*
X0218845Y0143590D02*
X0235786Y0143590D01*
X0235786Y0142804D02*
X0218519Y0142804D01*
X0218194Y0142018D02*
X0235786Y0142018D01*
X0235786Y0141232D02*
X0217868Y0141232D01*
X0217382Y0140447D02*
X0235786Y0140447D01*
X0235786Y0139661D02*
X0216596Y0139661D01*
X0215810Y0138875D02*
X0235786Y0138875D01*
X0235786Y0138089D02*
X0214603Y0138089D01*
X0212705Y0137303D02*
X0235786Y0137303D01*
X0235786Y0130230D02*
X0159548Y0130230D01*
X0159548Y0129444D02*
X0235786Y0129444D01*
X0235786Y0128658D02*
X0159548Y0128658D01*
X0159548Y0127872D02*
X0235786Y0127872D01*
X0235786Y0127086D02*
X0159548Y0127086D01*
X0159548Y0126300D02*
X0182615Y0126300D01*
X0181829Y0125514D02*
X0159548Y0125514D01*
X0159548Y0124728D02*
X0181465Y0124728D01*
X0185084Y0126300D02*
X0235786Y0126300D01*
X0235786Y0125514D02*
X0197255Y0125514D01*
X0198041Y0124728D02*
X0235786Y0124728D01*
X0235786Y0123942D02*
X0198827Y0123942D01*
X0199613Y0123156D02*
X0235786Y0123156D01*
X0235786Y0122371D02*
X0200399Y0122371D01*
X0201185Y0121585D02*
X0235786Y0121585D01*
X0235786Y0120799D02*
X0201971Y0120799D01*
X0202166Y0120013D02*
X0235786Y0120013D01*
X0235786Y0119227D02*
X0202166Y0119227D01*
X0202166Y0118441D02*
X0235786Y0118441D01*
X0235786Y0117655D02*
X0202166Y0117655D01*
X0202166Y0116869D02*
X0235786Y0116869D01*
X0235786Y0116083D02*
X0202166Y0116083D01*
X0199391Y0115297D02*
X0166853Y0115297D01*
X0167639Y0114511D02*
X0196415Y0114511D01*
X0196241Y0113726D02*
X0168425Y0113726D01*
X0169211Y0112940D02*
X0196241Y0112940D01*
X0196241Y0112154D02*
X0169997Y0112154D01*
X0170783Y0111368D02*
X0196241Y0111368D01*
X0196241Y0110582D02*
X0171569Y0110582D01*
X0172048Y0109796D02*
X0196241Y0109796D01*
X0196241Y0109010D02*
X0172048Y0109010D01*
X0172048Y0108224D02*
X0196241Y0108224D01*
X0196241Y0107438D02*
X0172048Y0107438D01*
X0172048Y0106652D02*
X0196241Y0106652D01*
X0196241Y0105866D02*
X0172048Y0105866D01*
X0172048Y0105080D02*
X0196678Y0105080D01*
X0197104Y0104295D02*
X0172048Y0104295D01*
X0172048Y0103509D02*
X0197890Y0103509D01*
X0199338Y0102723D02*
X0172048Y0102723D01*
X0172048Y0101937D02*
X0219076Y0101937D01*
X0219076Y0101151D02*
X0172048Y0101151D01*
X0172048Y0100365D02*
X0219076Y0100365D01*
X0219076Y0099579D02*
X0172048Y0099579D01*
X0172048Y0098793D02*
X0219076Y0098793D01*
X0218330Y0098007D02*
X0172048Y0098007D01*
X0172048Y0097221D02*
X0217544Y0097221D01*
X0216758Y0096435D02*
X0172048Y0096435D01*
X0172048Y0095650D02*
X0215972Y0095650D01*
X0215187Y0094864D02*
X0172048Y0094864D01*
X0167698Y0092506D02*
X0043723Y0092506D01*
X0043723Y0091720D02*
X0167698Y0091720D01*
X0167698Y0090934D02*
X0043723Y0090934D01*
X0043723Y0090148D02*
X0167698Y0090148D01*
X0167698Y0089362D02*
X0043723Y0089362D01*
X0043723Y0088576D02*
X0167698Y0088576D01*
X0167698Y0087790D02*
X0043723Y0087790D01*
X0043723Y0087004D02*
X0167698Y0087004D01*
X0167698Y0086219D02*
X0043723Y0086219D01*
X0043723Y0085433D02*
X0167698Y0085433D01*
X0167698Y0084647D02*
X0043723Y0084647D01*
X0043723Y0083861D02*
X0167698Y0083861D01*
X0167698Y0083075D02*
X0043723Y0083075D01*
X0043723Y0082289D02*
X0167698Y0082289D01*
X0167698Y0081503D02*
X0043723Y0081503D01*
X0043723Y0080717D02*
X0167698Y0080717D01*
X0167698Y0079931D02*
X0043723Y0079931D01*
X0043723Y0079145D02*
X0167698Y0079145D01*
X0167698Y0078359D02*
X0043723Y0078359D01*
X0043723Y0077574D02*
X0167698Y0077574D01*
X0167698Y0076788D02*
X0043723Y0076788D01*
X0043723Y0076002D02*
X0167698Y0076002D01*
X0167698Y0075216D02*
X0043723Y0075216D01*
X0043723Y0074430D02*
X0167698Y0074430D01*
X0167698Y0073644D02*
X0043723Y0073644D01*
X0043723Y0072858D02*
X0167698Y0072858D01*
X0167698Y0072072D02*
X0043723Y0072072D01*
X0043723Y0071286D02*
X0167698Y0071286D01*
X0167698Y0070500D02*
X0043723Y0070500D01*
X0043723Y0069714D02*
X0167698Y0069714D01*
X0167698Y0068928D02*
X0043723Y0068928D01*
X0043723Y0068143D02*
X0167698Y0068143D01*
X0167698Y0067357D02*
X0043723Y0067357D01*
X0043723Y0066571D02*
X0150913Y0066571D01*
X0150955Y0066592D02*
X0150367Y0066293D01*
X0149833Y0065905D01*
X0149366Y0065438D01*
X0148978Y0064904D01*
X0148679Y0064316D01*
X0148475Y0063688D01*
X0148381Y0063100D01*
X0154971Y0063100D01*
X0154971Y0062312D01*
X0155759Y0062312D01*
X0155759Y0058512D01*
X0158495Y0058512D01*
X0159147Y0058616D01*
X0159775Y0058820D01*
X0160363Y0059119D01*
X0160897Y0059507D01*
X0161364Y0059974D01*
X0161752Y0060508D01*
X0162051Y0061096D01*
X0162255Y0061724D01*
X0162349Y0062312D01*
X0155759Y0062312D01*
X0155759Y0063100D01*
X0154971Y0063100D01*
X0154971Y0066900D01*
X0152235Y0066900D01*
X0151583Y0066796D01*
X0150955Y0066592D01*
X0149713Y0065785D02*
X0043723Y0065785D01*
X0043723Y0064999D02*
X0149047Y0064999D01*
X0148645Y0064213D02*
X0043723Y0064213D01*
X0043723Y0063427D02*
X0148433Y0063427D01*
X0148009Y0062902D02*
X0147655Y0062997D01*
X0145011Y0062997D01*
X0145011Y0059734D01*
X0144223Y0059734D01*
X0144223Y0062997D01*
X0141579Y0062997D01*
X0141225Y0062902D01*
X0140907Y0062719D01*
X0140647Y0062459D01*
X0140464Y0062142D01*
X0140369Y0061787D01*
X0140369Y0059734D01*
X0144223Y0059734D01*
X0144223Y0058946D01*
X0140369Y0058946D01*
X0140369Y0056893D01*
X0140464Y0056538D01*
X0140647Y0056220D01*
X0140907Y0055961D01*
X0141225Y0055777D01*
X0141579Y0055682D01*
X0144223Y0055682D01*
X0144223Y0058946D01*
X0145011Y0058946D01*
X0145011Y0059734D01*
X0148865Y0059734D01*
X0148865Y0060730D01*
X0148978Y0060508D01*
X0149366Y0059974D01*
X0149833Y0059507D01*
X0150367Y0059119D01*
X0150955Y0058820D01*
X0151583Y0058616D01*
X0152235Y0058512D01*
X0154971Y0058512D01*
X0154971Y0062312D01*
X0148671Y0062312D01*
X0148587Y0062459D01*
X0148327Y0062719D01*
X0148009Y0062902D01*
X0148405Y0062641D02*
X0154971Y0062641D01*
X0154971Y0061855D02*
X0155759Y0061855D01*
X0155759Y0061069D02*
X0154971Y0061069D01*
X0154971Y0060283D02*
X0155759Y0060283D01*
X0155759Y0059498D02*
X0154971Y0059498D01*
X0154971Y0058712D02*
X0155759Y0058712D01*
X0159443Y0058712D02*
X0167698Y0058712D01*
X0167698Y0059498D02*
X0160884Y0059498D01*
X0161589Y0060283D02*
X0167698Y0060283D01*
X0167698Y0061069D02*
X0162038Y0061069D01*
X0162276Y0061855D02*
X0167698Y0061855D01*
X0167698Y0062641D02*
X0155759Y0062641D01*
X0155759Y0063100D02*
X0162349Y0063100D01*
X0162255Y0063688D01*
X0162051Y0064316D01*
X0161752Y0064904D01*
X0161364Y0065438D01*
X0160897Y0065905D01*
X0160363Y0066293D01*
X0159775Y0066592D01*
X0159147Y0066796D01*
X0158495Y0066900D01*
X0155759Y0066900D01*
X0155759Y0063100D01*
X0155759Y0063427D02*
X0154971Y0063427D01*
X0154971Y0064213D02*
X0155759Y0064213D01*
X0155759Y0064999D02*
X0154971Y0064999D01*
X0154971Y0065785D02*
X0155759Y0065785D01*
X0155759Y0066571D02*
X0154971Y0066571D01*
X0159817Y0066571D02*
X0167698Y0066571D01*
X0167698Y0065785D02*
X0161017Y0065785D01*
X0161683Y0064999D02*
X0167698Y0064999D01*
X0167698Y0064213D02*
X0162085Y0064213D01*
X0162297Y0063427D02*
X0167698Y0063427D01*
X0167698Y0057926D02*
X0148865Y0057926D01*
X0148865Y0058712D02*
X0151287Y0058712D01*
X0149846Y0059498D02*
X0145011Y0059498D01*
X0145011Y0058946D02*
X0148865Y0058946D01*
X0148865Y0056893D01*
X0148770Y0056538D01*
X0148587Y0056220D01*
X0148327Y0055961D01*
X0148009Y0055777D01*
X0147655Y0055682D01*
X0145011Y0055682D01*
X0145011Y0058946D01*
X0145011Y0058712D02*
X0144223Y0058712D01*
X0144223Y0059498D02*
X0082991Y0059498D01*
X0082919Y0059569D02*
X0082577Y0060394D01*
X0081301Y0061670D01*
X0079634Y0062361D01*
X0077829Y0062361D01*
X0076161Y0061670D01*
X0074885Y0060394D01*
X0074543Y0059569D01*
X0074194Y0059220D01*
X0074194Y0050523D01*
X0074776Y0049941D01*
X0082686Y0049941D01*
X0083268Y0050523D01*
X0083268Y0059220D01*
X0082919Y0059569D01*
X0082623Y0060283D02*
X0140369Y0060283D01*
X0140369Y0061069D02*
X0081902Y0061069D01*
X0080855Y0061855D02*
X0140387Y0061855D01*
X0140829Y0062641D02*
X0043723Y0062641D01*
X0043723Y0061855D02*
X0056922Y0061855D01*
X0056476Y0061670D02*
X0058144Y0062361D01*
X0059949Y0062361D01*
X0061616Y0061670D01*
X0062892Y0060394D01*
X0063234Y0059569D01*
X0063583Y0059220D01*
X0063583Y0050523D01*
X0063001Y0049941D01*
X0055091Y0049941D01*
X0054509Y0050523D01*
X0054509Y0059220D01*
X0054858Y0059569D01*
X0055200Y0060394D01*
X0056476Y0061670D01*
X0055875Y0061069D02*
X0043723Y0061069D01*
X0043723Y0060283D02*
X0055154Y0060283D01*
X0054787Y0059498D02*
X0043723Y0059498D01*
X0043723Y0058712D02*
X0054509Y0058712D01*
X0054509Y0057926D02*
X0043723Y0057926D01*
X0043723Y0057140D02*
X0054509Y0057140D01*
X0054509Y0056354D02*
X0043723Y0056354D01*
X0043723Y0055568D02*
X0054509Y0055568D01*
X0054509Y0054782D02*
X0043723Y0054782D01*
X0043723Y0053996D02*
X0054509Y0053996D01*
X0054509Y0053210D02*
X0043723Y0053210D01*
X0043723Y0052424D02*
X0054509Y0052424D01*
X0054509Y0051638D02*
X0043723Y0051638D01*
X0043723Y0050852D02*
X0054509Y0050852D01*
X0054965Y0050067D02*
X0043723Y0050067D01*
X0043723Y0049281D02*
X0113092Y0049281D01*
X0113092Y0048495D02*
X0043723Y0048495D01*
X0043723Y0047709D02*
X0113092Y0047709D01*
X0113092Y0046923D02*
X0043723Y0046923D01*
X0043723Y0046137D02*
X0113092Y0046137D01*
X0113092Y0045351D02*
X0101109Y0045351D01*
X0102289Y0044565D02*
X0113092Y0044565D01*
X0113092Y0043779D02*
X0102713Y0043779D01*
X0102801Y0042993D02*
X0113092Y0042993D01*
X0113092Y0042207D02*
X0102888Y0042207D01*
X0102975Y0041422D02*
X0113092Y0041422D01*
X0113092Y0040636D02*
X0103063Y0040636D01*
X0103150Y0039850D02*
X0113092Y0039850D01*
X0113092Y0039064D02*
X0103237Y0039064D01*
X0103325Y0038278D02*
X0113092Y0038278D01*
X0113092Y0037492D02*
X0103412Y0037492D01*
X0103499Y0036706D02*
X0113092Y0036706D01*
X0113092Y0035920D02*
X0103587Y0035920D01*
X0103674Y0035134D02*
X0113092Y0035134D01*
X0113092Y0034348D02*
X0103761Y0034348D01*
X0103848Y0033562D02*
X0113092Y0033562D01*
X0113092Y0032777D02*
X0103936Y0032777D01*
X0104023Y0031991D02*
X0113092Y0031991D01*
X0113092Y0031205D02*
X0104110Y0031205D01*
X0104198Y0030419D02*
X0113092Y0030419D01*
X0113092Y0029633D02*
X0104285Y0029633D01*
X0104372Y0028847D02*
X0113092Y0028847D01*
X0113092Y0028061D02*
X0104460Y0028061D01*
X0104547Y0027275D02*
X0113092Y0027275D01*
X0113092Y0026489D02*
X0104634Y0026489D01*
X0104722Y0025703D02*
X0113092Y0025703D01*
X0113092Y0024917D02*
X0104809Y0024917D01*
X0104896Y0024131D02*
X0113092Y0024131D01*
X0113092Y0023346D02*
X0104984Y0023346D01*
X0105071Y0022560D02*
X0113092Y0022560D01*
X0113092Y0021774D02*
X0105158Y0021774D01*
X0105246Y0020988D02*
X0109249Y0020988D01*
X0108761Y0020202D02*
X0105333Y0020202D01*
X0105420Y0019416D02*
X0108761Y0019416D01*
X0108761Y0018630D02*
X0105508Y0018630D01*
X0105595Y0017844D02*
X0108761Y0017844D01*
X0109017Y0017058D02*
X0105682Y0017058D01*
X0105770Y0016272D02*
X0109568Y0016272D01*
X0107646Y0015486D02*
X0105857Y0015486D01*
X0105944Y0014701D02*
X0107600Y0014701D01*
X0107600Y0013915D02*
X0106032Y0013915D01*
X0106119Y0013129D02*
X0107600Y0013129D01*
X0107600Y0012343D02*
X0106206Y0012343D01*
X0106294Y0011557D02*
X0107600Y0011557D01*
X0107600Y0010771D02*
X0106381Y0010771D01*
X0110956Y0012667D02*
X0110956Y0018887D01*
X0110936Y0018907D01*
X0112343Y0016732D02*
X0112529Y0016732D01*
X0112708Y0016911D01*
X0112887Y0016732D01*
X0116072Y0016732D01*
X0116654Y0017314D01*
X0116654Y0020500D01*
X0116072Y0021082D01*
X0115867Y0021082D01*
X0115867Y0048608D01*
X0118617Y0051358D01*
X0122259Y0051358D01*
X0122259Y0050777D01*
X0123539Y0050777D01*
X0123538Y0050777D01*
X0122259Y0050777D01*
X0122259Y0050131D01*
X0122349Y0049793D01*
X0122259Y0049454D01*
X0122259Y0048808D01*
X0122259Y0048163D01*
X0122364Y0047771D01*
X0122567Y0047419D01*
X0122659Y0047327D01*
X0122659Y0045924D01*
X0123327Y0045256D01*
X0123938Y0045256D01*
X0123938Y0043719D01*
X0123733Y0043719D01*
X0123151Y0043137D01*
X0123151Y0039952D01*
X0123733Y0039370D01*
X0126711Y0039370D01*
X0126832Y0039248D01*
X0127150Y0039065D01*
X0127504Y0038970D01*
X0128672Y0038970D01*
X0128672Y0041348D01*
X0129066Y0041348D01*
X0129066Y0041741D01*
X0131444Y0041741D01*
X0131444Y0042909D01*
X0131349Y0043264D01*
X0131165Y0043581D01*
X0130906Y0043841D01*
X0130588Y0044024D01*
X0130234Y0044119D01*
X0129066Y0044119D01*
X0129066Y0041742D01*
X0128672Y0041742D01*
X0128672Y0044119D01*
X0127504Y0044119D01*
X0127150Y0044024D01*
X0126832Y0043841D01*
X0126713Y0043722D01*
X0126713Y0045256D01*
X0127053Y0045256D01*
X0127065Y0045236D01*
X0127324Y0044977D01*
X0127642Y0044793D01*
X0127997Y0044698D01*
X0131034Y0044698D01*
X0131034Y0050383D01*
X0128393Y0050383D01*
X0128393Y0050777D01*
X0127113Y0050777D01*
X0127113Y0050777D01*
X0128393Y0050777D01*
X0128393Y0051171D01*
X0131034Y0051171D01*
X0131034Y0050383D01*
X0131822Y0050383D01*
X0134863Y0050383D01*
X0134863Y0051171D01*
X0131822Y0051171D01*
X0131822Y0050383D01*
X0131822Y0044698D01*
X0134860Y0044698D01*
X0135214Y0044793D01*
X0135532Y0044977D01*
X0135791Y0045236D01*
X0135803Y0045256D01*
X0135867Y0045256D01*
X0135867Y0043708D01*
X0135769Y0043610D01*
X0135769Y0042721D01*
X0134056Y0041008D01*
X0134056Y0039645D01*
X0133556Y0039645D01*
X0132974Y0039063D01*
X0132974Y0034501D01*
X0132290Y0033818D01*
X0121956Y0033818D01*
X0121143Y0033005D01*
X0118387Y0030249D01*
X0118387Y0016023D01*
X0116449Y0016023D01*
X0115867Y0015440D01*
X0115867Y0010021D01*
X0114311Y0010021D01*
X0114311Y0015440D01*
X0113729Y0016023D01*
X0112343Y0016023D01*
X0112343Y0016732D01*
X0112343Y0016272D02*
X0118387Y0016272D01*
X0118387Y0017058D02*
X0116398Y0017058D01*
X0116654Y0017844D02*
X0118387Y0017844D01*
X0118387Y0018630D02*
X0116654Y0018630D01*
X0116654Y0019416D02*
X0118387Y0019416D01*
X0118387Y0020202D02*
X0116654Y0020202D01*
X0116166Y0020988D02*
X0118387Y0020988D01*
X0118387Y0021774D02*
X0115867Y0021774D01*
X0115867Y0022560D02*
X0118387Y0022560D01*
X0118387Y0023346D02*
X0115867Y0023346D01*
X0115867Y0024131D02*
X0118387Y0024131D01*
X0118387Y0024917D02*
X0115867Y0024917D01*
X0115867Y0025703D02*
X0118387Y0025703D01*
X0118387Y0026489D02*
X0115867Y0026489D01*
X0115867Y0027275D02*
X0118387Y0027275D01*
X0118387Y0028061D02*
X0115867Y0028061D01*
X0115867Y0028847D02*
X0118387Y0028847D01*
X0118387Y0029633D02*
X0115867Y0029633D01*
X0115867Y0030419D02*
X0118557Y0030419D01*
X0119343Y0031205D02*
X0115867Y0031205D01*
X0115867Y0031991D02*
X0120128Y0031991D01*
X0120914Y0032777D02*
X0115867Y0032777D01*
X0115867Y0033562D02*
X0121700Y0033562D01*
X0122530Y0032430D02*
X0132865Y0032430D01*
X0136231Y0035797D01*
X0139489Y0035920D02*
X0142924Y0035920D01*
X0142924Y0035134D02*
X0143711Y0035134D01*
X0143711Y0034348D02*
X0142924Y0034348D01*
X0142924Y0033562D02*
X0143711Y0033562D01*
X0143711Y0032777D02*
X0142924Y0032777D01*
X0142924Y0031991D02*
X0143711Y0031991D01*
X0146601Y0031991D02*
X0175486Y0031991D01*
X0175574Y0032777D02*
X0146975Y0032777D01*
X0146975Y0033562D02*
X0175661Y0033562D01*
X0175748Y0034348D02*
X0146975Y0034348D01*
X0146975Y0035134D02*
X0175836Y0035134D01*
X0175923Y0035920D02*
X0143712Y0035920D01*
X0146975Y0036706D02*
X0176010Y0036706D01*
X0176098Y0037492D02*
X0146975Y0037492D01*
X0146975Y0038278D02*
X0176185Y0038278D01*
X0176272Y0039064D02*
X0146914Y0039064D01*
X0146293Y0039850D02*
X0176360Y0039850D01*
X0176447Y0040636D02*
X0144259Y0040636D01*
X0144259Y0041422D02*
X0176534Y0041422D01*
X0176622Y0042207D02*
X0144259Y0042207D01*
X0144259Y0042993D02*
X0176709Y0042993D01*
X0176796Y0043779D02*
X0144139Y0043779D01*
X0143148Y0044565D02*
X0177221Y0044565D01*
X0178400Y0045351D02*
X0140217Y0045351D01*
X0141339Y0044565D02*
X0141832Y0044565D01*
X0141832Y0043779D02*
X0141339Y0043779D01*
X0141339Y0042993D02*
X0141832Y0042993D01*
X0141832Y0042207D02*
X0141339Y0042207D01*
X0139722Y0039064D02*
X0139487Y0039064D01*
X0139489Y0038278D02*
X0139660Y0038278D01*
X0139660Y0037492D02*
X0139489Y0037492D01*
X0139489Y0036706D02*
X0139660Y0036706D01*
X0139660Y0035134D02*
X0139489Y0035134D01*
X0139489Y0034348D02*
X0139660Y0034348D01*
X0139660Y0033562D02*
X0139489Y0033562D01*
X0139489Y0032777D02*
X0139660Y0032777D01*
X0140035Y0031991D02*
X0138949Y0031991D01*
X0138406Y0031205D02*
X0152177Y0031205D01*
X0152328Y0031306D02*
X0151775Y0030936D01*
X0151304Y0030466D01*
X0150935Y0029912D01*
X0150680Y0029298D01*
X0150550Y0028645D01*
X0150550Y0026427D01*
X0153830Y0026427D01*
X0153830Y0031690D01*
X0153595Y0031690D01*
X0152943Y0031560D01*
X0152328Y0031306D01*
X0151273Y0030419D02*
X0138406Y0030419D01*
X0138261Y0029633D02*
X0150819Y0029633D01*
X0150590Y0028847D02*
X0137475Y0028847D01*
X0137132Y0028504D02*
X0137132Y0028504D01*
X0136689Y0028061D02*
X0150550Y0028061D01*
X0150550Y0027275D02*
X0146466Y0027275D01*
X0147007Y0026489D02*
X0150550Y0026489D01*
X0150550Y0026230D02*
X0150550Y0024011D01*
X0150680Y0023359D01*
X0150935Y0022744D01*
X0151304Y0022191D01*
X0151775Y0021720D01*
X0152328Y0021350D01*
X0152943Y0021096D01*
X0153595Y0020966D01*
X0153830Y0020966D01*
X0153830Y0026230D01*
X0154026Y0026230D01*
X0154026Y0020966D01*
X0154261Y0020966D01*
X0154913Y0021096D01*
X0155528Y0021350D01*
X0156081Y0021720D01*
X0156552Y0022191D01*
X0156922Y0022744D01*
X0157176Y0023359D01*
X0157306Y0024011D01*
X0157306Y0026230D01*
X0154027Y0026230D01*
X0154027Y0026427D01*
X0157306Y0026427D01*
X0157306Y0028645D01*
X0157176Y0029298D01*
X0156922Y0029912D01*
X0156552Y0030466D01*
X0156081Y0030936D01*
X0155528Y0031306D01*
X0154913Y0031560D01*
X0154261Y0031690D01*
X0154026Y0031690D01*
X0154026Y0026427D01*
X0153830Y0026427D01*
X0153830Y0026230D01*
X0150550Y0026230D01*
X0150550Y0025703D02*
X0147054Y0025703D01*
X0147054Y0024917D02*
X0150550Y0024917D01*
X0150550Y0024131D02*
X0149821Y0024131D01*
X0150589Y0023346D02*
X0150685Y0023346D01*
X0150914Y0022560D02*
X0151058Y0022560D01*
X0151105Y0021774D02*
X0151721Y0021774D01*
X0151105Y0020988D02*
X0153485Y0020988D01*
X0153830Y0020988D02*
X0154026Y0020988D01*
X0154371Y0020988D02*
X0174264Y0020988D01*
X0174351Y0021774D02*
X0156135Y0021774D01*
X0156798Y0022560D02*
X0174439Y0022560D01*
X0174526Y0023346D02*
X0157171Y0023346D01*
X0157306Y0024131D02*
X0174613Y0024131D01*
X0174701Y0024917D02*
X0157306Y0024917D01*
X0157306Y0025703D02*
X0174788Y0025703D01*
X0174875Y0026489D02*
X0157306Y0026489D01*
X0157306Y0027275D02*
X0174963Y0027275D01*
X0175050Y0028061D02*
X0157306Y0028061D01*
X0157266Y0028847D02*
X0175137Y0028847D01*
X0175225Y0029633D02*
X0157037Y0029633D01*
X0156583Y0030419D02*
X0175312Y0030419D01*
X0175399Y0031205D02*
X0155679Y0031205D01*
X0154026Y0031205D02*
X0153830Y0031205D01*
X0153830Y0030419D02*
X0154026Y0030419D01*
X0154026Y0029633D02*
X0153830Y0029633D01*
X0153830Y0028847D02*
X0154026Y0028847D01*
X0154026Y0028061D02*
X0153830Y0028061D01*
X0153830Y0027275D02*
X0154026Y0027275D01*
X0154026Y0026489D02*
X0153830Y0026489D01*
X0153830Y0025703D02*
X0154026Y0025703D01*
X0154026Y0024917D02*
X0153830Y0024917D01*
X0153830Y0024131D02*
X0154026Y0024131D01*
X0154026Y0023346D02*
X0153830Y0023346D01*
X0153830Y0022560D02*
X0154026Y0022560D01*
X0154026Y0021774D02*
X0153830Y0021774D01*
X0150893Y0020202D02*
X0174177Y0020202D01*
X0174089Y0019416D02*
X0150554Y0019416D01*
X0149768Y0018630D02*
X0174002Y0018630D01*
X0173915Y0017844D02*
X0155642Y0017844D01*
X0156566Y0017058D02*
X0173827Y0017058D01*
X0173740Y0016272D02*
X0157027Y0016272D01*
X0157261Y0015486D02*
X0173653Y0015486D01*
X0173565Y0014701D02*
X0157306Y0014701D01*
X0157306Y0013915D02*
X0173478Y0013915D01*
X0173391Y0013129D02*
X0157306Y0013129D01*
X0157306Y0012343D02*
X0173303Y0012343D01*
X0173216Y0011557D02*
X0157306Y0011557D01*
X0157306Y0010771D02*
X0173129Y0010771D01*
X0154026Y0013129D02*
X0153830Y0013129D01*
X0153830Y0013915D02*
X0154026Y0013915D01*
X0154026Y0014701D02*
X0153830Y0014701D01*
X0153830Y0015486D02*
X0154026Y0015486D01*
X0154026Y0016272D02*
X0153830Y0016272D01*
X0153830Y0017058D02*
X0154026Y0017058D01*
X0154026Y0017844D02*
X0153830Y0017844D01*
X0152214Y0017844D02*
X0127295Y0017844D01*
X0127182Y0017920D02*
X0126567Y0018175D01*
X0125914Y0018304D01*
X0125680Y0018304D01*
X0125680Y0013041D01*
X0128960Y0013041D01*
X0128960Y0015259D01*
X0128830Y0015912D01*
X0128575Y0016527D01*
X0128205Y0017080D01*
X0127735Y0017550D01*
X0127182Y0017920D01*
X0128220Y0017058D02*
X0151290Y0017058D01*
X0150829Y0016272D02*
X0128680Y0016272D01*
X0128914Y0015486D02*
X0150595Y0015486D01*
X0150550Y0014701D02*
X0128960Y0014701D01*
X0128960Y0013915D02*
X0132477Y0013915D01*
X0132343Y0013879D02*
X0132025Y0013695D01*
X0131766Y0013436D01*
X0131582Y0013118D01*
X0131487Y0012764D01*
X0131487Y0010808D01*
X0134456Y0010808D01*
X0134456Y0013974D01*
X0132697Y0013974D01*
X0132343Y0013879D01*
X0131588Y0013129D02*
X0128960Y0013129D01*
X0128960Y0012343D02*
X0131487Y0012343D01*
X0131487Y0011557D02*
X0128960Y0011557D01*
X0128960Y0010771D02*
X0134456Y0010771D01*
X0134456Y0011557D02*
X0135243Y0011557D01*
X0135243Y0012343D02*
X0134456Y0012343D01*
X0134456Y0013129D02*
X0135243Y0013129D01*
X0135243Y0013915D02*
X0134456Y0013915D01*
X0137222Y0013915D02*
X0142288Y0013915D01*
X0142154Y0013879D02*
X0141836Y0013695D01*
X0141577Y0013436D01*
X0141393Y0013118D01*
X0141298Y0012764D01*
X0141298Y0010808D01*
X0144267Y0010808D01*
X0144267Y0013974D01*
X0142508Y0013974D01*
X0142154Y0013879D01*
X0141399Y0013129D02*
X0138110Y0013129D01*
X0138211Y0012343D02*
X0141298Y0012343D01*
X0141298Y0011557D02*
X0138211Y0011557D01*
X0138211Y0010021D02*
X0138211Y0010021D01*
X0141298Y0010021D02*
X0141298Y0010021D01*
X0144267Y0010771D02*
X0135243Y0010771D01*
X0131487Y0010021D02*
X0131487Y0010021D01*
X0125680Y0013129D02*
X0125483Y0013129D01*
X0125483Y0013915D02*
X0125680Y0013915D01*
X0125680Y0014701D02*
X0125483Y0014701D01*
X0125483Y0015486D02*
X0125680Y0015486D01*
X0125680Y0016272D02*
X0125483Y0016272D01*
X0125483Y0017058D02*
X0125680Y0017058D01*
X0125680Y0017844D02*
X0125483Y0017844D01*
X0123868Y0017844D02*
X0121162Y0017844D01*
X0121162Y0017058D02*
X0122943Y0017058D01*
X0122483Y0016272D02*
X0121162Y0016272D01*
X0121162Y0018630D02*
X0129741Y0018630D01*
X0128955Y0019416D02*
X0121162Y0019416D01*
X0121162Y0020202D02*
X0128617Y0020202D01*
X0128404Y0020988D02*
X0126025Y0020988D01*
X0125914Y0020966D02*
X0126567Y0021096D01*
X0127182Y0021350D01*
X0127735Y0021720D01*
X0128205Y0022191D01*
X0128575Y0022744D01*
X0128830Y0023359D01*
X0128960Y0024011D01*
X0128960Y0026230D01*
X0125680Y0026230D01*
X0125680Y0020966D01*
X0125914Y0020966D01*
X0125680Y0020988D02*
X0125483Y0020988D01*
X0125139Y0020988D02*
X0121162Y0020988D01*
X0121162Y0021774D02*
X0123375Y0021774D01*
X0122711Y0022560D02*
X0121162Y0022560D01*
X0121162Y0023346D02*
X0122339Y0023346D01*
X0122204Y0024131D02*
X0121162Y0024131D01*
X0121162Y0024917D02*
X0122204Y0024917D01*
X0122204Y0025703D02*
X0121162Y0025703D01*
X0121162Y0026489D02*
X0122204Y0026489D01*
X0122204Y0027275D02*
X0121162Y0027275D01*
X0121162Y0028061D02*
X0122204Y0028061D01*
X0122244Y0028847D02*
X0121162Y0028847D01*
X0121695Y0029633D02*
X0122472Y0029633D01*
X0122481Y0030419D02*
X0122926Y0030419D01*
X0122530Y0032430D02*
X0119774Y0029675D01*
X0119774Y0012745D01*
X0119223Y0012667D01*
X0115867Y0012343D02*
X0114311Y0012343D01*
X0114311Y0013129D02*
X0115867Y0013129D01*
X0115867Y0013915D02*
X0114311Y0013915D01*
X0114311Y0014701D02*
X0115867Y0014701D01*
X0115913Y0015486D02*
X0114266Y0015486D01*
X0114479Y0018907D02*
X0114479Y0049182D01*
X0118042Y0052745D01*
X0125326Y0052745D01*
X0125385Y0050836D02*
X0129715Y0050836D01*
X0131034Y0050852D02*
X0128393Y0050852D01*
X0128495Y0048808D02*
X0125326Y0048808D01*
X0125326Y0050777D01*
X0125385Y0050836D01*
X0125326Y0050777D02*
X0125326Y0050777D01*
X0125326Y0048809D01*
X0125326Y0048809D01*
X0125326Y0050777D01*
X0125326Y0050067D02*
X0125326Y0050067D01*
X0125326Y0049281D02*
X0125326Y0049281D01*
X0123539Y0048808D02*
X0122259Y0048808D01*
X0123538Y0048808D01*
X0123539Y0048808D01*
X0122259Y0048495D02*
X0115867Y0048495D01*
X0115867Y0047709D02*
X0122399Y0047709D01*
X0122659Y0046923D02*
X0115867Y0046923D01*
X0115867Y0046137D02*
X0122659Y0046137D01*
X0123232Y0045351D02*
X0115867Y0045351D01*
X0115867Y0044565D02*
X0123938Y0044565D01*
X0123938Y0043779D02*
X0115867Y0043779D01*
X0115867Y0042993D02*
X0123151Y0042993D01*
X0123151Y0042207D02*
X0115867Y0042207D01*
X0115867Y0041422D02*
X0123151Y0041422D01*
X0123151Y0040636D02*
X0115867Y0040636D01*
X0115867Y0039850D02*
X0123253Y0039850D01*
X0125326Y0041545D02*
X0125326Y0046840D01*
X0126713Y0044565D02*
X0135867Y0044565D01*
X0135867Y0043779D02*
X0130967Y0043779D01*
X0131421Y0042993D02*
X0135769Y0042993D01*
X0135255Y0042207D02*
X0131444Y0042207D01*
X0131444Y0041348D02*
X0129066Y0041348D01*
X0129066Y0038970D01*
X0130234Y0038970D01*
X0130588Y0039065D01*
X0130906Y0039248D01*
X0131165Y0039508D01*
X0131349Y0039826D01*
X0131444Y0040180D01*
X0131444Y0041348D01*
X0131444Y0040636D02*
X0134056Y0040636D01*
X0134056Y0039850D02*
X0131355Y0039850D01*
X0130584Y0039064D02*
X0132975Y0039064D01*
X0132974Y0038278D02*
X0115867Y0038278D01*
X0115867Y0039064D02*
X0127154Y0039064D01*
X0128672Y0039064D02*
X0129066Y0039064D01*
X0129066Y0039850D02*
X0128672Y0039850D01*
X0128672Y0040636D02*
X0129066Y0040636D01*
X0129066Y0041422D02*
X0134470Y0041422D01*
X0132974Y0037492D02*
X0115867Y0037492D01*
X0115867Y0036706D02*
X0132974Y0036706D01*
X0132974Y0035920D02*
X0115867Y0035920D01*
X0115867Y0035134D02*
X0132974Y0035134D01*
X0132821Y0034348D02*
X0115867Y0034348D01*
X0125483Y0025703D02*
X0125680Y0025703D01*
X0125680Y0024917D02*
X0125483Y0024917D01*
X0125483Y0024131D02*
X0125680Y0024131D01*
X0125680Y0023346D02*
X0125483Y0023346D01*
X0125483Y0022560D02*
X0125680Y0022560D01*
X0125680Y0021774D02*
X0125483Y0021774D01*
X0127789Y0021774D02*
X0128404Y0021774D01*
X0128452Y0022560D02*
X0128596Y0022560D01*
X0128824Y0023346D02*
X0128921Y0023346D01*
X0128960Y0024131D02*
X0129689Y0024131D01*
X0128960Y0024917D02*
X0132068Y0024917D01*
X0132068Y0025703D02*
X0128960Y0025703D01*
X0128960Y0026489D02*
X0132068Y0026489D01*
X0132068Y0027275D02*
X0128960Y0027275D01*
X0128960Y0028061D02*
X0132068Y0028061D01*
X0132068Y0028847D02*
X0128919Y0028847D01*
X0128691Y0029633D02*
X0132110Y0029633D01*
X0132896Y0030419D02*
X0128237Y0030419D01*
X0133601Y0031205D02*
X0133682Y0031205D01*
X0136418Y0027275D02*
X0143279Y0027275D01*
X0144873Y0027275D02*
X0144873Y0027275D01*
X0144873Y0026489D02*
X0144873Y0026489D01*
X0144873Y0025703D02*
X0144873Y0025703D01*
X0145267Y0025049D02*
X0145267Y0023769D01*
X0144873Y0023375D01*
X0144873Y0023567D02*
X0144873Y0023567D01*
X0144873Y0024131D02*
X0144873Y0024131D01*
X0144873Y0024917D02*
X0144873Y0024917D01*
X0144873Y0019246D02*
X0144873Y0019246D01*
X0144873Y0019226D01*
X0144873Y0019246D01*
X0145489Y0018630D02*
X0134020Y0018630D01*
X0134806Y0019416D02*
X0143383Y0019416D01*
X0144267Y0013915D02*
X0145054Y0013915D01*
X0145054Y0013129D02*
X0144267Y0013129D01*
X0144267Y0012343D02*
X0145054Y0012343D01*
X0145054Y0011557D02*
X0144267Y0011557D01*
X0145054Y0010771D02*
X0150550Y0010771D01*
X0150550Y0011557D02*
X0148023Y0011557D01*
X0148023Y0012343D02*
X0150550Y0012343D01*
X0150550Y0013129D02*
X0147921Y0013129D01*
X0147033Y0013915D02*
X0150550Y0013915D01*
X0148023Y0010021D02*
X0148023Y0010021D01*
X0134637Y0023375D02*
X0134243Y0023375D01*
X0134243Y0025442D01*
X0128869Y0041545D02*
X0129715Y0042391D01*
X0129715Y0047588D01*
X0128495Y0048808D01*
X0131034Y0048495D02*
X0131822Y0048495D01*
X0131822Y0049281D02*
X0131034Y0049281D01*
X0131034Y0050067D02*
X0131822Y0050067D01*
X0131822Y0050852D02*
X0134863Y0050852D01*
X0136310Y0048966D02*
X0136310Y0046702D01*
X0138771Y0046702D01*
X0138771Y0048966D01*
X0136310Y0048966D01*
X0136310Y0048495D02*
X0138771Y0048495D01*
X0138771Y0047709D02*
X0136310Y0047709D01*
X0136310Y0046923D02*
X0138771Y0046923D01*
X0140197Y0053996D02*
X0140769Y0053996D01*
X0140769Y0054782D02*
X0140197Y0054782D01*
X0140197Y0055568D02*
X0150062Y0055568D01*
X0149319Y0054782D02*
X0148465Y0054782D01*
X0148664Y0056354D02*
X0151458Y0056354D01*
X0148865Y0057140D02*
X0167698Y0057140D01*
X0167099Y0056354D02*
X0159272Y0056354D01*
X0160668Y0055568D02*
X0166313Y0055568D01*
X0150921Y0049281D02*
X0148168Y0049281D01*
X0148465Y0050067D02*
X0149839Y0050067D01*
X0145011Y0056354D02*
X0144223Y0056354D01*
X0144223Y0057140D02*
X0145011Y0057140D01*
X0145011Y0057926D02*
X0144223Y0057926D01*
X0144223Y0060283D02*
X0145011Y0060283D01*
X0145011Y0061069D02*
X0144223Y0061069D01*
X0144223Y0061855D02*
X0145011Y0061855D01*
X0145011Y0062641D02*
X0144223Y0062641D01*
X0148865Y0060283D02*
X0149141Y0060283D01*
X0140570Y0056354D02*
X0135755Y0056354D01*
X0140369Y0057140D02*
X0083268Y0057140D01*
X0083268Y0057926D02*
X0140369Y0057926D01*
X0140369Y0058712D02*
X0083268Y0058712D01*
X0083268Y0056354D02*
X0127101Y0056354D01*
X0131034Y0056354D02*
X0131822Y0056354D01*
X0131822Y0055568D02*
X0131034Y0055568D01*
X0131034Y0054782D02*
X0131822Y0054782D01*
X0131822Y0053996D02*
X0131034Y0053996D01*
X0131034Y0053210D02*
X0131822Y0053210D01*
X0131822Y0052424D02*
X0131034Y0052424D01*
X0131034Y0051638D02*
X0131822Y0051638D01*
X0131822Y0047709D02*
X0131034Y0047709D01*
X0131034Y0046923D02*
X0131822Y0046923D01*
X0131822Y0046137D02*
X0131034Y0046137D01*
X0131034Y0045351D02*
X0131822Y0045351D01*
X0129066Y0043779D02*
X0128672Y0043779D01*
X0128672Y0042993D02*
X0129066Y0042993D01*
X0129066Y0042207D02*
X0128672Y0042207D01*
X0126770Y0043779D02*
X0126713Y0043779D01*
X0122259Y0049281D02*
X0116540Y0049281D01*
X0117325Y0050067D02*
X0122276Y0050067D01*
X0122259Y0050852D02*
X0118111Y0050852D01*
X0115759Y0052424D02*
X0083268Y0052424D01*
X0083268Y0051638D02*
X0114973Y0051638D01*
X0114187Y0050852D02*
X0083268Y0050852D01*
X0082812Y0050067D02*
X0113401Y0050067D01*
X0116545Y0053210D02*
X0083268Y0053210D01*
X0083268Y0053996D02*
X0117331Y0053996D01*
X0122659Y0054782D02*
X0083268Y0054782D01*
X0083268Y0055568D02*
X0122659Y0055568D01*
X0112793Y0020988D02*
X0112622Y0020988D01*
X0114311Y0011557D02*
X0115867Y0011557D01*
X0115867Y0010771D02*
X0114311Y0010771D01*
X0074650Y0050067D02*
X0063127Y0050067D01*
X0063583Y0050852D02*
X0074194Y0050852D01*
X0074194Y0051638D02*
X0063583Y0051638D01*
X0063583Y0052424D02*
X0074194Y0052424D01*
X0074194Y0053210D02*
X0063583Y0053210D01*
X0063583Y0053996D02*
X0074194Y0053996D01*
X0074194Y0054782D02*
X0063583Y0054782D01*
X0063583Y0055568D02*
X0074194Y0055568D01*
X0074194Y0056354D02*
X0063583Y0056354D01*
X0063583Y0057140D02*
X0074194Y0057140D01*
X0074194Y0057926D02*
X0063583Y0057926D01*
X0063583Y0058712D02*
X0074194Y0058712D01*
X0074472Y0059498D02*
X0063306Y0059498D01*
X0062938Y0060283D02*
X0074839Y0060283D01*
X0075560Y0061069D02*
X0062217Y0061069D01*
X0061170Y0061855D02*
X0076607Y0061855D01*
X0078731Y0057824D02*
X0078731Y0054871D01*
X0059046Y0054871D02*
X0059046Y0057824D01*
X0057605Y0102723D02*
X0043723Y0102723D01*
X0043723Y0103509D02*
X0056158Y0103509D01*
X0055372Y0104295D02*
X0043723Y0104295D01*
X0043723Y0105080D02*
X0054946Y0105080D01*
X0054509Y0105866D02*
X0043723Y0105866D01*
X0043723Y0106652D02*
X0054509Y0106652D01*
X0054509Y0107438D02*
X0043723Y0107438D01*
X0043723Y0108224D02*
X0054509Y0108224D01*
X0054509Y0109010D02*
X0043723Y0109010D01*
X0043723Y0109796D02*
X0054509Y0109796D01*
X0054509Y0110582D02*
X0043723Y0110582D01*
X0043723Y0111368D02*
X0054509Y0111368D01*
X0054509Y0112154D02*
X0043723Y0112154D01*
X0043723Y0112940D02*
X0054509Y0112940D01*
X0054509Y0113726D02*
X0043723Y0113726D01*
X0043723Y0114511D02*
X0054682Y0114511D01*
X0053869Y0115297D02*
X0053475Y0115297D01*
X0053475Y0114738D02*
X0053475Y0117115D01*
X0051097Y0117115D01*
X0051097Y0115948D01*
X0051192Y0115593D01*
X0051376Y0115275D01*
X0051635Y0115016D01*
X0051953Y0114833D01*
X0052308Y0114738D01*
X0053475Y0114738D01*
X0053475Y0116083D02*
X0053869Y0116083D01*
X0053869Y0116869D02*
X0053475Y0116869D01*
X0053475Y0117509D02*
X0051097Y0117509D01*
X0051097Y0118677D01*
X0051192Y0119031D01*
X0051376Y0119349D01*
X0051635Y0119609D01*
X0051953Y0119792D01*
X0052308Y0119887D01*
X0053475Y0119887D01*
X0053475Y0117509D01*
X0053475Y0117655D02*
X0053869Y0117655D01*
X0053869Y0118441D02*
X0053475Y0118441D01*
X0053475Y0119227D02*
X0053869Y0119227D01*
X0055428Y0120799D02*
X0043723Y0120799D01*
X0043723Y0121585D02*
X0054642Y0121585D01*
X0053857Y0122371D02*
X0043723Y0122371D01*
X0043723Y0123156D02*
X0053071Y0123156D01*
X0052285Y0123942D02*
X0043723Y0123942D01*
X0043723Y0124728D02*
X0051499Y0124728D01*
X0050713Y0125514D02*
X0043723Y0125514D01*
X0043723Y0126300D02*
X0049927Y0126300D01*
X0049141Y0127086D02*
X0043723Y0127086D01*
X0043723Y0127872D02*
X0048355Y0127872D01*
X0047569Y0128658D02*
X0043723Y0128658D01*
X0043723Y0129444D02*
X0046783Y0129444D01*
X0046045Y0130230D02*
X0043723Y0130230D01*
X0043723Y0131016D02*
X0046045Y0131016D01*
X0046045Y0131802D02*
X0043723Y0131802D01*
X0043723Y0132587D02*
X0046045Y0132587D01*
X0046045Y0133373D02*
X0043723Y0133373D01*
X0043723Y0134159D02*
X0046045Y0134159D01*
X0046045Y0134945D02*
X0043723Y0134945D01*
X0043723Y0135731D02*
X0046045Y0135731D01*
X0046045Y0136517D02*
X0043723Y0136517D01*
X0043723Y0137303D02*
X0046045Y0137303D01*
X0046045Y0138089D02*
X0043723Y0138089D01*
X0043723Y0138875D02*
X0046045Y0138875D01*
X0046045Y0139661D02*
X0043723Y0139661D01*
X0043723Y0140447D02*
X0046045Y0140447D01*
X0046045Y0141232D02*
X0043723Y0141232D01*
X0043723Y0142018D02*
X0046045Y0142018D01*
X0046045Y0142804D02*
X0043723Y0142804D01*
X0043723Y0143590D02*
X0046045Y0143590D01*
X0046045Y0144376D02*
X0043723Y0144376D01*
X0043723Y0145162D02*
X0046045Y0145162D01*
X0046045Y0145948D02*
X0043723Y0145948D01*
X0043723Y0146734D02*
X0046045Y0146734D01*
X0046045Y0147520D02*
X0043723Y0147520D01*
X0043723Y0148306D02*
X0046045Y0148306D01*
X0046045Y0149092D02*
X0043723Y0149092D01*
X0043723Y0149878D02*
X0046045Y0149878D01*
X0046045Y0150663D02*
X0043723Y0150663D01*
X0043723Y0151449D02*
X0046045Y0151449D01*
X0046045Y0152235D02*
X0043723Y0152235D01*
X0043723Y0153021D02*
X0046045Y0153021D01*
X0046045Y0153807D02*
X0043723Y0153807D01*
X0043723Y0154593D02*
X0046045Y0154593D01*
X0046045Y0155379D02*
X0043723Y0155379D01*
X0043723Y0156165D02*
X0046045Y0156165D01*
X0046045Y0156951D02*
X0043723Y0156951D01*
X0043723Y0157737D02*
X0046045Y0157737D01*
X0046045Y0158523D02*
X0043723Y0158523D01*
X0043723Y0159308D02*
X0046045Y0159308D01*
X0046045Y0160094D02*
X0043723Y0160094D01*
X0043723Y0160880D02*
X0046045Y0160880D01*
X0046045Y0161666D02*
X0043723Y0161666D01*
X0043723Y0162452D02*
X0046045Y0162452D01*
X0046045Y0163238D02*
X0043723Y0163238D01*
X0043723Y0164024D02*
X0046045Y0164024D01*
X0046045Y0164810D02*
X0043723Y0164810D01*
X0043723Y0165596D02*
X0046045Y0165596D01*
X0046045Y0166382D02*
X0043723Y0166382D01*
X0043723Y0167168D02*
X0046045Y0167168D01*
X0046045Y0167954D02*
X0043723Y0167954D01*
X0043723Y0168739D02*
X0046045Y0168739D01*
X0046045Y0169525D02*
X0043723Y0169525D01*
X0043723Y0170311D02*
X0046045Y0170311D01*
X0046045Y0171097D02*
X0043723Y0171097D01*
X0043723Y0171883D02*
X0046045Y0171883D01*
X0046045Y0172669D02*
X0043723Y0172669D01*
X0043723Y0173455D02*
X0046045Y0173455D01*
X0046045Y0174241D02*
X0043723Y0174241D01*
X0043723Y0175027D02*
X0046045Y0175027D01*
X0046045Y0175813D02*
X0043723Y0175813D01*
X0043723Y0176599D02*
X0046045Y0176599D01*
X0046045Y0177384D02*
X0043723Y0177384D01*
X0043723Y0178170D02*
X0046045Y0178170D01*
X0046045Y0178956D02*
X0043723Y0178956D01*
X0043723Y0179742D02*
X0046045Y0179742D01*
X0046045Y0180528D02*
X0043723Y0180528D01*
X0043723Y0181314D02*
X0046045Y0181314D01*
X0046045Y0182100D02*
X0043723Y0182100D01*
X0043723Y0182886D02*
X0046045Y0182886D01*
X0046045Y0183672D02*
X0043723Y0183672D01*
X0043723Y0184458D02*
X0046045Y0184458D01*
X0046045Y0185244D02*
X0043723Y0185244D01*
X0043723Y0186030D02*
X0046045Y0186030D01*
X0046045Y0186815D02*
X0043723Y0186815D01*
X0043723Y0187601D02*
X0046045Y0187601D01*
X0046045Y0188387D02*
X0043723Y0188387D01*
X0043723Y0189173D02*
X0046045Y0189173D01*
X0046045Y0189959D02*
X0043723Y0189959D01*
X0043723Y0190745D02*
X0046045Y0190745D01*
X0046045Y0191531D02*
X0043723Y0191531D01*
X0043723Y0192317D02*
X0046045Y0192317D01*
X0046045Y0193103D02*
X0043723Y0193103D01*
X0043723Y0193889D02*
X0046045Y0193889D01*
X0046045Y0194675D02*
X0043723Y0194675D01*
X0043723Y0195460D02*
X0046045Y0195460D01*
X0046045Y0196246D02*
X0043723Y0196246D01*
X0043723Y0197032D02*
X0046045Y0197032D01*
X0046045Y0197818D02*
X0043723Y0197818D01*
X0043723Y0198604D02*
X0046045Y0198604D01*
X0046045Y0199390D02*
X0043723Y0199390D01*
X0043723Y0200176D02*
X0046045Y0200176D01*
X0046045Y0200962D02*
X0043723Y0200962D01*
X0043723Y0201748D02*
X0046045Y0201748D01*
X0046045Y0202534D02*
X0043723Y0202534D01*
X0043723Y0203320D02*
X0046045Y0203320D01*
X0046045Y0204106D02*
X0043723Y0204106D01*
X0043723Y0204891D02*
X0046045Y0204891D01*
X0046045Y0205677D02*
X0043723Y0205677D01*
X0043723Y0206463D02*
X0046045Y0206463D01*
X0046045Y0207249D02*
X0043723Y0207249D01*
X0043723Y0208035D02*
X0046045Y0208035D01*
X0046045Y0208821D02*
X0043723Y0208821D01*
X0043723Y0209607D02*
X0046045Y0209607D01*
X0046168Y0210393D02*
X0043723Y0210393D01*
X0043723Y0211179D02*
X0046954Y0211179D01*
X0047740Y0211965D02*
X0043723Y0211965D01*
X0043723Y0212751D02*
X0048526Y0212751D01*
X0049312Y0213536D02*
X0043723Y0213536D01*
X0043723Y0214322D02*
X0050098Y0214322D01*
X0050884Y0215108D02*
X0043723Y0215108D01*
X0043723Y0215894D02*
X0051670Y0215894D01*
X0052456Y0216680D02*
X0043723Y0216680D01*
X0043723Y0217466D02*
X0053242Y0217466D01*
X0054322Y0216584D02*
X0047432Y0209694D01*
X0047432Y0130757D01*
X0059046Y0119143D01*
X0059046Y0117175D01*
X0058908Y0117312D01*
X0057215Y0117312D01*
X0059046Y0117175D02*
X0059046Y0109989D01*
X0059046Y0107037D01*
X0060487Y0102723D02*
X0077290Y0102723D01*
X0075843Y0103509D02*
X0061934Y0103509D01*
X0062720Y0104295D02*
X0075057Y0104295D01*
X0056214Y0120013D02*
X0043723Y0120013D01*
X0043723Y0119227D02*
X0051305Y0119227D01*
X0051097Y0118441D02*
X0043723Y0118441D01*
X0043723Y0117655D02*
X0051097Y0117655D01*
X0051097Y0116869D02*
X0043723Y0116869D01*
X0043723Y0116083D02*
X0051097Y0116083D01*
X0051363Y0115297D02*
X0043723Y0115297D01*
X0048819Y0153807D02*
X0090204Y0153807D01*
X0089418Y0154593D02*
X0048819Y0154593D01*
X0048819Y0155379D02*
X0088632Y0155379D01*
X0087846Y0156165D02*
X0048819Y0156165D01*
X0048819Y0156951D02*
X0087060Y0156951D01*
X0086275Y0157737D02*
X0048819Y0157737D01*
X0048819Y0158523D02*
X0085489Y0158523D01*
X0084703Y0159308D02*
X0048819Y0159308D01*
X0048819Y0160094D02*
X0083917Y0160094D01*
X0083131Y0160880D02*
X0048819Y0160880D01*
X0048819Y0161666D02*
X0082345Y0161666D01*
X0081559Y0162452D02*
X0048819Y0162452D01*
X0048819Y0163238D02*
X0080773Y0163238D01*
X0079987Y0164024D02*
X0048819Y0164024D01*
X0048819Y0164810D02*
X0079201Y0164810D01*
X0078415Y0165596D02*
X0048819Y0165596D01*
X0048819Y0166382D02*
X0077531Y0166382D01*
X0076745Y0167168D02*
X0048819Y0167168D01*
X0048819Y0167954D02*
X0076261Y0167954D01*
X0076261Y0168739D02*
X0048819Y0168739D01*
X0048819Y0169525D02*
X0076261Y0169525D01*
X0076261Y0170311D02*
X0048819Y0170311D01*
X0048819Y0171097D02*
X0076261Y0171097D01*
X0076261Y0171883D02*
X0048819Y0171883D01*
X0048819Y0172669D02*
X0076261Y0172669D01*
X0076261Y0173455D02*
X0048819Y0173455D01*
X0048819Y0174241D02*
X0076261Y0174241D01*
X0076261Y0175027D02*
X0048819Y0175027D01*
X0048819Y0175813D02*
X0076261Y0175813D01*
X0074194Y0176599D02*
X0063583Y0176599D01*
X0063583Y0176507D02*
X0063583Y0185204D01*
X0063234Y0185553D01*
X0062892Y0186378D01*
X0061616Y0187655D01*
X0059949Y0188345D01*
X0058144Y0188345D01*
X0056476Y0187655D01*
X0055200Y0186378D01*
X0054858Y0185553D01*
X0054509Y0185204D01*
X0054509Y0176507D01*
X0055091Y0175925D01*
X0063001Y0175925D01*
X0063583Y0176507D01*
X0063583Y0177384D02*
X0074194Y0177384D01*
X0074194Y0178170D02*
X0063583Y0178170D01*
X0063583Y0178956D02*
X0074194Y0178956D01*
X0074194Y0179742D02*
X0063583Y0179742D01*
X0063583Y0180528D02*
X0074194Y0180528D01*
X0074194Y0181314D02*
X0063583Y0181314D01*
X0063583Y0182100D02*
X0074194Y0182100D01*
X0074194Y0182886D02*
X0063583Y0182886D01*
X0063583Y0183672D02*
X0074194Y0183672D01*
X0074194Y0184458D02*
X0063583Y0184458D01*
X0063544Y0185244D02*
X0074234Y0185244D01*
X0074740Y0186030D02*
X0063037Y0186030D01*
X0062455Y0186815D02*
X0075322Y0186815D01*
X0076108Y0187601D02*
X0061669Y0187601D01*
X0059046Y0183808D02*
X0059046Y0180856D01*
X0054509Y0180528D02*
X0048819Y0180528D01*
X0048819Y0179742D02*
X0054509Y0179742D01*
X0054509Y0178956D02*
X0048819Y0178956D01*
X0048819Y0178170D02*
X0054509Y0178170D01*
X0054509Y0177384D02*
X0048819Y0177384D01*
X0048819Y0176599D02*
X0054509Y0176599D01*
X0054509Y0181314D02*
X0048819Y0181314D01*
X0048819Y0182100D02*
X0054509Y0182100D01*
X0054509Y0182886D02*
X0048819Y0182886D01*
X0048819Y0183672D02*
X0054509Y0183672D01*
X0054509Y0184458D02*
X0048819Y0184458D01*
X0048819Y0185244D02*
X0054548Y0185244D01*
X0055055Y0186030D02*
X0048819Y0186030D01*
X0048819Y0186815D02*
X0055637Y0186815D01*
X0056423Y0187601D02*
X0048819Y0187601D01*
X0048819Y0188387D02*
X0096438Y0188387D01*
X0096438Y0187601D02*
X0081355Y0187601D01*
X0082140Y0186815D02*
X0096438Y0186815D01*
X0096438Y0186030D02*
X0082722Y0186030D01*
X0083229Y0185244D02*
X0096438Y0185244D01*
X0096438Y0184458D02*
X0083268Y0184458D01*
X0083268Y0183672D02*
X0096438Y0183672D01*
X0096438Y0182886D02*
X0083268Y0182886D01*
X0083268Y0182100D02*
X0096438Y0182100D01*
X0096438Y0181314D02*
X0083268Y0181314D01*
X0083268Y0180528D02*
X0096438Y0180528D01*
X0096438Y0179742D02*
X0083268Y0179742D01*
X0083268Y0178956D02*
X0096438Y0178956D01*
X0096438Y0178170D02*
X0083268Y0178170D01*
X0083268Y0177384D02*
X0096438Y0177384D01*
X0096438Y0176599D02*
X0083268Y0176599D01*
X0080611Y0175813D02*
X0096438Y0175813D01*
X0096438Y0175027D02*
X0080611Y0175027D01*
X0080611Y0174241D02*
X0096438Y0174241D01*
X0096397Y0173455D02*
X0080611Y0173455D01*
X0080611Y0172669D02*
X0096438Y0172669D01*
X0096478Y0171883D02*
X0080611Y0171883D01*
X0080611Y0171097D02*
X0096478Y0171097D01*
X0096478Y0170311D02*
X0093555Y0170311D01*
X0093741Y0169525D02*
X0096478Y0169525D01*
X0097885Y0172450D02*
X0097826Y0173080D01*
X0097826Y0223572D01*
X0096743Y0224655D01*
X0096743Y0231308D01*
X0097786Y0231308D01*
X0098082Y0231604D01*
X0104322Y0231604D01*
X0108268Y0231612D02*
X0113564Y0231612D01*
X0113564Y0230827D02*
X0108268Y0230827D01*
X0108268Y0230041D02*
X0113564Y0230041D01*
X0113564Y0229255D02*
X0108102Y0229255D01*
X0108268Y0228469D02*
X0113564Y0228469D01*
X0113564Y0227683D02*
X0108268Y0227683D01*
X0108268Y0226897D02*
X0113564Y0226897D01*
X0113564Y0226111D02*
X0108268Y0226111D01*
X0108268Y0225325D02*
X0113564Y0225325D01*
X0113564Y0224539D02*
X0108268Y0224539D01*
X0108268Y0223753D02*
X0108415Y0223753D01*
X0110859Y0223753D02*
X0113564Y0223753D01*
X0113564Y0222967D02*
X0111645Y0222967D01*
X0112021Y0222182D02*
X0113564Y0222182D01*
X0113564Y0221396D02*
X0112021Y0221396D01*
X0112015Y0220610D02*
X0113564Y0220610D01*
X0113564Y0219824D02*
X0111229Y0219824D01*
X0111341Y0218252D02*
X0113564Y0218252D01*
X0113564Y0219038D02*
X0108017Y0219038D01*
X0109617Y0216604D02*
X0104322Y0216604D01*
X0108170Y0214322D02*
X0108526Y0214322D01*
X0108268Y0213536D02*
X0111320Y0213536D01*
X0110747Y0214322D02*
X0112106Y0214322D01*
X0111533Y0215108D02*
X0112892Y0215108D01*
X0113564Y0215894D02*
X0112021Y0215894D01*
X0112021Y0216680D02*
X0113564Y0216680D01*
X0113564Y0217466D02*
X0112021Y0217466D01*
X0109637Y0216584D02*
X0109617Y0216604D01*
X0109637Y0221604D02*
X0104322Y0221604D01*
X0100375Y0221396D02*
X0099213Y0221396D01*
X0099213Y0222182D02*
X0100375Y0222182D01*
X0100375Y0222967D02*
X0099213Y0222967D01*
X0099213Y0223753D02*
X0100375Y0223753D01*
X0100375Y0224539D02*
X0098821Y0224539D01*
X0098130Y0225325D02*
X0100375Y0225325D01*
X0100375Y0226111D02*
X0098130Y0226111D01*
X0098130Y0226897D02*
X0100375Y0226897D01*
X0100375Y0227683D02*
X0098130Y0227683D01*
X0098130Y0228469D02*
X0100375Y0228469D01*
X0100541Y0229255D02*
X0099697Y0229255D01*
X0100060Y0230041D02*
X0100375Y0230041D01*
X0097727Y0234793D02*
X0095956Y0234793D01*
X0093200Y0232037D01*
X0092215Y0232037D01*
X0090601Y0233184D02*
X0095168Y0233184D01*
X0095113Y0233970D02*
X0094339Y0233970D01*
X0095125Y0234756D02*
X0097540Y0234756D01*
X0097727Y0234793D02*
X0097786Y0234852D01*
X0096152Y0237745D02*
X0103180Y0237745D01*
X0104322Y0236604D01*
X0109971Y0236604D01*
X0110030Y0236663D01*
X0108565Y0234756D02*
X0108268Y0234756D01*
X0108085Y0233970D02*
X0113564Y0233970D01*
X0113564Y0233184D02*
X0108268Y0233184D01*
X0108268Y0232398D02*
X0113564Y0232398D01*
X0113564Y0234756D02*
X0111496Y0234756D01*
X0112282Y0235542D02*
X0113641Y0235542D01*
X0114426Y0236328D02*
X0112415Y0236328D01*
X0112415Y0237114D02*
X0115212Y0237114D01*
X0115998Y0237900D02*
X0112165Y0237900D01*
X0111379Y0238686D02*
X0164292Y0238686D01*
X0165078Y0239472D02*
X0108268Y0239472D01*
X0108268Y0238686D02*
X0108682Y0238686D01*
X0116339Y0233970D02*
X0171425Y0233970D01*
X0171241Y0233184D02*
X0116339Y0233184D01*
X0116339Y0232398D02*
X0171241Y0232398D01*
X0171241Y0231612D02*
X0116339Y0231612D01*
X0116339Y0230827D02*
X0171241Y0230827D01*
X0171241Y0230041D02*
X0116339Y0230041D01*
X0116339Y0229255D02*
X0127157Y0229255D01*
X0127088Y0229215D02*
X0126829Y0228955D01*
X0126645Y0228638D01*
X0126550Y0228283D01*
X0126550Y0216682D01*
X0139361Y0216682D01*
X0139361Y0229493D01*
X0127760Y0229493D01*
X0127406Y0229398D01*
X0127088Y0229215D01*
X0126600Y0228469D02*
X0116339Y0228469D01*
X0116339Y0227683D02*
X0126550Y0227683D01*
X0126550Y0226897D02*
X0116339Y0226897D01*
X0116339Y0226111D02*
X0126550Y0226111D01*
X0126550Y0225325D02*
X0116339Y0225325D01*
X0116339Y0224539D02*
X0126550Y0224539D01*
X0126550Y0223753D02*
X0116339Y0223753D01*
X0116339Y0222967D02*
X0126550Y0222967D01*
X0126550Y0222182D02*
X0116339Y0222182D01*
X0116339Y0221396D02*
X0126550Y0221396D01*
X0126550Y0220610D02*
X0116339Y0220610D01*
X0116339Y0219824D02*
X0126550Y0219824D01*
X0126550Y0219038D02*
X0116339Y0219038D01*
X0116339Y0218252D02*
X0126550Y0218252D01*
X0126550Y0217466D02*
X0116339Y0217466D01*
X0111349Y0211604D02*
X0104322Y0211604D01*
X0108268Y0209607D02*
X0126550Y0209607D01*
X0126550Y0208821D02*
X0108234Y0208821D01*
X0108268Y0208035D02*
X0126550Y0208035D01*
X0126550Y0207249D02*
X0118178Y0207249D01*
X0118964Y0206463D02*
X0126550Y0206463D01*
X0126550Y0205677D02*
X0119750Y0205677D01*
X0120535Y0204891D02*
X0126550Y0204891D01*
X0126601Y0204106D02*
X0121321Y0204106D01*
X0122107Y0203320D02*
X0127162Y0203320D01*
X0124465Y0200962D02*
X0168486Y0200962D01*
X0168486Y0201748D02*
X0123679Y0201748D01*
X0122893Y0202534D02*
X0168486Y0202534D01*
X0168486Y0200176D02*
X0125251Y0200176D01*
X0126037Y0199390D02*
X0168486Y0199390D01*
X0168486Y0198604D02*
X0126823Y0198604D01*
X0127609Y0197818D02*
X0168486Y0197818D01*
X0168486Y0197032D02*
X0128395Y0197032D01*
X0129180Y0196246D02*
X0168486Y0196246D01*
X0168486Y0195460D02*
X0129966Y0195460D01*
X0130752Y0194675D02*
X0168486Y0194675D01*
X0168486Y0193889D02*
X0131538Y0193889D01*
X0132324Y0193103D02*
X0168486Y0193103D01*
X0168486Y0192317D02*
X0133110Y0192317D01*
X0133896Y0191531D02*
X0168486Y0191531D01*
X0168486Y0190745D02*
X0134682Y0190745D01*
X0135468Y0189959D02*
X0168486Y0189959D01*
X0168486Y0189173D02*
X0136254Y0189173D01*
X0137040Y0188387D02*
X0168486Y0188387D01*
X0168486Y0187601D02*
X0137826Y0187601D01*
X0138611Y0186815D02*
X0168486Y0186815D01*
X0168486Y0186030D02*
X0139397Y0186030D01*
X0141593Y0185244D02*
X0168486Y0185244D01*
X0168486Y0184458D02*
X0142237Y0184458D01*
X0142237Y0183672D02*
X0168486Y0183672D01*
X0168486Y0182886D02*
X0142237Y0182886D01*
X0141713Y0182100D02*
X0168486Y0182100D01*
X0168486Y0181314D02*
X0140928Y0181314D01*
X0138779Y0181314D02*
X0112513Y0181314D01*
X0112513Y0182100D02*
X0137993Y0182100D01*
X0137469Y0182886D02*
X0112159Y0182886D01*
X0111373Y0183672D02*
X0137469Y0183672D01*
X0137045Y0184458D02*
X0111788Y0184458D01*
X0112574Y0185244D02*
X0136259Y0185244D01*
X0135473Y0186030D02*
X0113005Y0186030D01*
X0113005Y0186815D02*
X0134687Y0186815D01*
X0133901Y0187601D02*
X0113005Y0187601D01*
X0112268Y0188387D02*
X0133115Y0188387D01*
X0132330Y0189173D02*
X0108021Y0189173D01*
X0108268Y0188387D02*
X0108974Y0188387D01*
X0108874Y0189959D02*
X0108268Y0189959D01*
X0110621Y0191584D02*
X0104341Y0191584D01*
X0104322Y0191604D01*
X0108268Y0193103D02*
X0108768Y0193103D01*
X0108166Y0193889D02*
X0109554Y0193889D01*
X0108268Y0194675D02*
X0126828Y0194675D01*
X0126042Y0195460D02*
X0108268Y0195460D01*
X0108268Y0196246D02*
X0125256Y0196246D01*
X0124470Y0197032D02*
X0108268Y0197032D01*
X0108268Y0197818D02*
X0123684Y0197818D01*
X0122899Y0198604D02*
X0108268Y0198604D01*
X0108238Y0199390D02*
X0122113Y0199390D01*
X0121327Y0200176D02*
X0108268Y0200176D01*
X0108268Y0200962D02*
X0120541Y0200962D01*
X0119755Y0201748D02*
X0108268Y0201748D01*
X0108268Y0202534D02*
X0118969Y0202534D01*
X0118183Y0203320D02*
X0108268Y0203320D01*
X0107953Y0204106D02*
X0117397Y0204106D01*
X0116611Y0204891D02*
X0108268Y0204891D01*
X0104322Y0206604D02*
X0116861Y0206604D01*
X0139853Y0183612D01*
X0131544Y0189959D02*
X0112368Y0189959D01*
X0113005Y0190745D02*
X0130758Y0190745D01*
X0129972Y0191531D02*
X0113005Y0191531D01*
X0113005Y0192317D02*
X0129186Y0192317D01*
X0128400Y0193103D02*
X0112474Y0193103D01*
X0111688Y0193889D02*
X0127614Y0193889D01*
X0114564Y0179742D02*
X0111698Y0179742D01*
X0112484Y0180528D02*
X0168486Y0180528D01*
X0175188Y0181604D02*
X0175188Y0178493D01*
X0180208Y0173474D01*
X0180208Y0170186D01*
X0180188Y0170167D01*
X0180188Y0162529D01*
X0180011Y0162352D01*
X0184341Y0158808D02*
X0184341Y0175147D01*
X0181290Y0178198D01*
X0181290Y0228789D01*
X0178436Y0231643D01*
X0175227Y0231643D01*
X0175188Y0231604D01*
X0171407Y0229255D02*
X0152353Y0229255D01*
X0152910Y0228469D02*
X0171241Y0228469D01*
X0170840Y0227683D02*
X0152960Y0227683D01*
X0152960Y0226897D02*
X0170055Y0226897D01*
X0169269Y0226111D02*
X0152960Y0226111D01*
X0152960Y0225325D02*
X0168486Y0225325D01*
X0168486Y0224539D02*
X0152960Y0224539D01*
X0152960Y0223753D02*
X0168486Y0223753D01*
X0168486Y0222967D02*
X0152960Y0222967D01*
X0152960Y0222182D02*
X0168486Y0222182D01*
X0168486Y0221396D02*
X0152960Y0221396D01*
X0152960Y0220610D02*
X0168486Y0220610D01*
X0168486Y0219824D02*
X0152960Y0219824D01*
X0152960Y0219038D02*
X0168486Y0219038D01*
X0168486Y0218252D02*
X0152960Y0218252D01*
X0152960Y0217466D02*
X0168486Y0217466D01*
X0169873Y0224753D02*
X0169873Y0169734D01*
X0166428Y0166289D01*
X0168487Y0156165D02*
X0141150Y0156165D01*
X0142205Y0155379D02*
X0168837Y0155379D01*
X0176074Y0150541D02*
X0172137Y0146604D01*
X0175431Y0147520D02*
X0176217Y0147520D01*
X0176217Y0148306D02*
X0175801Y0148306D01*
X0176074Y0150541D02*
X0176074Y0169596D01*
X0176645Y0170167D01*
X0184341Y0158808D02*
X0180011Y0154478D01*
X0183508Y0149878D02*
X0187777Y0149878D01*
X0187777Y0149092D02*
X0183804Y0149092D01*
X0183804Y0148306D02*
X0187777Y0148306D01*
X0187777Y0147520D02*
X0183804Y0147520D01*
X0183804Y0145948D02*
X0187777Y0145948D01*
X0187777Y0146734D02*
X0180317Y0146734D01*
X0180317Y0145948D02*
X0179704Y0145948D01*
X0179704Y0145162D02*
X0180317Y0145162D01*
X0180317Y0144376D02*
X0179704Y0144376D01*
X0179704Y0143590D02*
X0180317Y0143590D01*
X0183666Y0143590D02*
X0187777Y0143590D01*
X0187777Y0144376D02*
X0183804Y0144376D01*
X0183804Y0145162D02*
X0187777Y0145162D01*
X0189164Y0140895D02*
X0185916Y0137647D01*
X0189164Y0140895D02*
X0189164Y0164714D01*
X0196940Y0172489D01*
X0212688Y0172489D01*
X0220463Y0180265D01*
X0220463Y0180856D01*
X0220463Y0183808D01*
X0223873Y0186815D02*
X0235786Y0186815D01*
X0235786Y0186030D02*
X0224454Y0186030D01*
X0224961Y0185244D02*
X0235786Y0185244D01*
X0235786Y0184458D02*
X0225000Y0184458D01*
X0225000Y0183672D02*
X0235786Y0183672D01*
X0235786Y0182886D02*
X0225000Y0182886D01*
X0225000Y0182100D02*
X0235786Y0182100D01*
X0235786Y0181314D02*
X0225000Y0181314D01*
X0225000Y0180528D02*
X0235786Y0180528D01*
X0235786Y0179742D02*
X0225000Y0179742D01*
X0225000Y0178956D02*
X0235786Y0178956D01*
X0235786Y0178170D02*
X0225000Y0178170D01*
X0225000Y0177384D02*
X0235786Y0177384D01*
X0235786Y0176599D02*
X0225000Y0176599D01*
X0217973Y0175813D02*
X0235786Y0175813D01*
X0235786Y0175027D02*
X0217187Y0175027D01*
X0216401Y0174241D02*
X0235786Y0174241D01*
X0235786Y0173455D02*
X0215615Y0173455D01*
X0214829Y0172669D02*
X0235786Y0172669D01*
X0235786Y0171883D02*
X0214044Y0171883D01*
X0197510Y0171097D02*
X0235786Y0171097D01*
X0235786Y0170311D02*
X0196724Y0170311D01*
X0195938Y0169525D02*
X0235786Y0169525D01*
X0235786Y0168739D02*
X0195152Y0168739D01*
X0194366Y0167954D02*
X0235786Y0167954D01*
X0235786Y0167168D02*
X0193580Y0167168D01*
X0192794Y0166382D02*
X0235786Y0166382D01*
X0235786Y0165596D02*
X0192008Y0165596D01*
X0191222Y0164810D02*
X0235786Y0164810D01*
X0235786Y0164024D02*
X0190552Y0164024D01*
X0190552Y0163238D02*
X0235786Y0163238D01*
X0235786Y0162452D02*
X0190552Y0162452D01*
X0190552Y0161666D02*
X0235786Y0161666D01*
X0235786Y0160880D02*
X0190552Y0160880D01*
X0190552Y0160094D02*
X0235786Y0160094D01*
X0235786Y0159308D02*
X0190552Y0159308D01*
X0190552Y0158523D02*
X0235786Y0158523D01*
X0235786Y0157737D02*
X0190552Y0157737D01*
X0190552Y0156951D02*
X0235786Y0156951D01*
X0235786Y0156165D02*
X0190552Y0156165D01*
X0190552Y0155379D02*
X0235786Y0155379D01*
X0235786Y0154593D02*
X0190552Y0154593D01*
X0190552Y0153807D02*
X0235786Y0153807D01*
X0235786Y0187601D02*
X0223087Y0187601D01*
X0194794Y0241829D02*
X0194400Y0241829D01*
X0194400Y0242615D02*
X0194794Y0242615D01*
X0194794Y0243401D02*
X0194400Y0243401D01*
X0194597Y0244182D02*
X0184499Y0244182D01*
X0182078Y0246604D01*
X0175188Y0226604D02*
X0171723Y0226604D01*
X0169873Y0224753D01*
X0140148Y0224539D02*
X0139361Y0224539D01*
X0139361Y0223753D02*
X0140148Y0223753D01*
X0140148Y0222967D02*
X0139361Y0222967D01*
X0139361Y0222182D02*
X0140148Y0222182D01*
X0140148Y0221396D02*
X0139361Y0221396D01*
X0139361Y0220610D02*
X0140148Y0220610D01*
X0140148Y0219824D02*
X0139361Y0219824D01*
X0139361Y0219038D02*
X0140148Y0219038D01*
X0140148Y0218252D02*
X0139361Y0218252D01*
X0139361Y0217466D02*
X0140148Y0217466D01*
X0140148Y0225325D02*
X0139361Y0225325D01*
X0139361Y0226111D02*
X0140148Y0226111D01*
X0140148Y0226897D02*
X0139361Y0226897D01*
X0139361Y0227683D02*
X0140148Y0227683D01*
X0140148Y0228469D02*
X0139361Y0228469D01*
X0139361Y0229255D02*
X0140148Y0229255D01*
X0110621Y0186663D02*
X0104381Y0186663D01*
X0104322Y0186604D01*
X0108268Y0185244D02*
X0108668Y0185244D01*
X0108268Y0184458D02*
X0109454Y0184458D01*
X0108884Y0183672D02*
X0108268Y0183672D01*
X0110129Y0181545D02*
X0104381Y0181545D01*
X0104322Y0181604D01*
X0108268Y0179742D02*
X0108559Y0179742D01*
X0107804Y0178956D02*
X0114112Y0178956D01*
X0114089Y0178170D02*
X0099213Y0178170D01*
X0099213Y0177384D02*
X0114089Y0177384D01*
X0114089Y0176599D02*
X0099213Y0176599D01*
X0099213Y0178956D02*
X0100839Y0178956D01*
X0100375Y0179742D02*
X0099213Y0179742D01*
X0099213Y0180528D02*
X0100375Y0180528D01*
X0100375Y0181314D02*
X0099213Y0181314D01*
X0099213Y0182100D02*
X0100375Y0182100D01*
X0100375Y0182886D02*
X0099213Y0182886D01*
X0099213Y0183672D02*
X0100375Y0183672D01*
X0100375Y0184458D02*
X0099213Y0184458D01*
X0099213Y0185244D02*
X0100375Y0185244D01*
X0100375Y0186030D02*
X0099213Y0186030D01*
X0099213Y0186815D02*
X0100375Y0186815D01*
X0100375Y0187601D02*
X0099213Y0187601D01*
X0099213Y0188387D02*
X0100375Y0188387D01*
X0100623Y0189173D02*
X0099213Y0189173D01*
X0099213Y0189959D02*
X0100375Y0189959D01*
X0100375Y0190745D02*
X0099213Y0190745D01*
X0099213Y0191531D02*
X0100375Y0191531D01*
X0100375Y0192317D02*
X0099213Y0192317D01*
X0099213Y0193103D02*
X0100375Y0193103D01*
X0100477Y0193889D02*
X0099213Y0193889D01*
X0099213Y0194675D02*
X0100375Y0194675D01*
X0100375Y0195460D02*
X0099213Y0195460D01*
X0099213Y0196246D02*
X0100375Y0196246D01*
X0100375Y0197032D02*
X0099213Y0197032D01*
X0099213Y0197818D02*
X0100375Y0197818D01*
X0100375Y0198604D02*
X0099213Y0198604D01*
X0099213Y0199390D02*
X0100406Y0199390D01*
X0100375Y0200176D02*
X0099213Y0200176D01*
X0099213Y0200962D02*
X0100375Y0200962D01*
X0100375Y0201748D02*
X0099213Y0201748D01*
X0099213Y0202534D02*
X0100375Y0202534D01*
X0100375Y0203320D02*
X0099213Y0203320D01*
X0099213Y0204106D02*
X0100690Y0204106D01*
X0100375Y0204891D02*
X0099213Y0204891D01*
X0099213Y0205677D02*
X0100375Y0205677D01*
X0100375Y0206463D02*
X0099213Y0206463D01*
X0099213Y0207249D02*
X0100375Y0207249D01*
X0100375Y0208035D02*
X0099213Y0208035D01*
X0099213Y0208821D02*
X0100409Y0208821D01*
X0100375Y0209607D02*
X0099213Y0209607D01*
X0099213Y0210393D02*
X0100375Y0210393D01*
X0100375Y0211179D02*
X0099213Y0211179D01*
X0099213Y0211965D02*
X0100375Y0211965D01*
X0100375Y0212751D02*
X0099213Y0212751D01*
X0099213Y0213536D02*
X0100375Y0213536D01*
X0100473Y0214322D02*
X0099213Y0214322D01*
X0099213Y0215108D02*
X0100375Y0215108D01*
X0100375Y0215894D02*
X0099213Y0215894D01*
X0099213Y0216680D02*
X0100375Y0216680D01*
X0100375Y0217466D02*
X0099213Y0217466D01*
X0099213Y0218252D02*
X0100375Y0218252D01*
X0100626Y0219038D02*
X0099213Y0219038D01*
X0099213Y0219824D02*
X0100375Y0219824D01*
X0100375Y0220610D02*
X0099213Y0220610D01*
X0096438Y0220610D02*
X0092428Y0220610D01*
X0092434Y0220616D02*
X0092434Y0222591D01*
X0091038Y0223988D01*
X0089062Y0223988D01*
X0088066Y0222991D01*
X0071038Y0222991D01*
X0063093Y0230936D01*
X0063234Y0231276D01*
X0063583Y0231625D01*
X0063583Y0240322D01*
X0063001Y0240904D01*
X0058630Y0240904D01*
X0058937Y0241212D01*
X0058937Y0244397D01*
X0058355Y0244979D01*
X0055378Y0244979D01*
X0055256Y0245101D01*
X0054938Y0245284D01*
X0054584Y0245379D01*
X0053416Y0245379D01*
X0053416Y0243001D01*
X0053023Y0243001D01*
X0053023Y0245379D01*
X0051855Y0245379D01*
X0051500Y0245284D01*
X0051183Y0245101D01*
X0050923Y0244841D01*
X0050740Y0244523D01*
X0050645Y0244169D01*
X0050645Y0243001D01*
X0053022Y0243001D01*
X0053022Y0242608D01*
X0050645Y0242608D01*
X0050645Y0241440D01*
X0050740Y0241085D01*
X0050923Y0240768D01*
X0051183Y0240508D01*
X0051500Y0240325D01*
X0051855Y0240230D01*
X0053023Y0240230D01*
X0053023Y0242608D01*
X0053416Y0242608D01*
X0053416Y0240230D01*
X0054509Y0240230D01*
X0054509Y0231625D01*
X0054858Y0231276D01*
X0055200Y0230451D01*
X0056476Y0229175D01*
X0058144Y0228484D01*
X0059949Y0228484D01*
X0061131Y0228974D01*
X0069889Y0220216D01*
X0088066Y0220216D01*
X0089062Y0219219D01*
X0091038Y0219219D01*
X0092434Y0220616D01*
X0092434Y0221396D02*
X0096438Y0221396D01*
X0096438Y0222182D02*
X0092434Y0222182D01*
X0092058Y0222967D02*
X0096438Y0222967D01*
X0095682Y0223753D02*
X0091272Y0223753D01*
X0088828Y0223753D02*
X0070276Y0223753D01*
X0069490Y0224539D02*
X0095356Y0224539D01*
X0095356Y0225325D02*
X0068704Y0225325D01*
X0067918Y0226111D02*
X0095356Y0226111D01*
X0095356Y0226897D02*
X0084313Y0226897D01*
X0085099Y0227683D02*
X0095356Y0227683D01*
X0095356Y0228469D02*
X0085885Y0228469D01*
X0086671Y0229255D02*
X0095356Y0229255D01*
X0095356Y0230041D02*
X0087457Y0230041D01*
X0088243Y0230827D02*
X0095356Y0230827D01*
X0095356Y0231612D02*
X0089029Y0231612D01*
X0089815Y0232398D02*
X0095513Y0232398D01*
X0093593Y0235186D02*
X0096152Y0237745D01*
X0093593Y0235186D02*
X0090641Y0235186D01*
X0083259Y0227804D01*
X0070956Y0227804D01*
X0065641Y0233119D01*
X0065641Y0244911D01*
X0065089Y0245462D01*
X0062127Y0245759D02*
X0043723Y0245759D01*
X0043723Y0246545D02*
X0062127Y0246545D01*
X0062127Y0247331D02*
X0043723Y0247331D01*
X0043723Y0248117D02*
X0062127Y0248117D01*
X0062400Y0248903D02*
X0043723Y0248903D01*
X0043723Y0244973D02*
X0051055Y0244973D01*
X0050649Y0244187D02*
X0043723Y0244187D01*
X0043723Y0243401D02*
X0050645Y0243401D01*
X0050645Y0241829D02*
X0043723Y0241829D01*
X0043723Y0241043D02*
X0050764Y0241043D01*
X0051751Y0240258D02*
X0043723Y0240258D01*
X0043723Y0239472D02*
X0054509Y0239472D01*
X0054509Y0238686D02*
X0043723Y0238686D01*
X0043723Y0237900D02*
X0054509Y0237900D01*
X0054509Y0237114D02*
X0043723Y0237114D01*
X0043723Y0236328D02*
X0054509Y0236328D01*
X0054509Y0235542D02*
X0043723Y0235542D01*
X0043723Y0234756D02*
X0054509Y0234756D01*
X0054509Y0233970D02*
X0043723Y0233970D01*
X0043723Y0233184D02*
X0054509Y0233184D01*
X0054509Y0232398D02*
X0043723Y0232398D01*
X0043723Y0231612D02*
X0054522Y0231612D01*
X0055044Y0230827D02*
X0043723Y0230827D01*
X0043723Y0230041D02*
X0055610Y0230041D01*
X0056396Y0229255D02*
X0043723Y0229255D01*
X0043723Y0228469D02*
X0061636Y0228469D01*
X0062422Y0227683D02*
X0043723Y0227683D01*
X0043723Y0226897D02*
X0063208Y0226897D01*
X0063994Y0226111D02*
X0043723Y0226111D01*
X0043723Y0225325D02*
X0064780Y0225325D01*
X0065566Y0224539D02*
X0043723Y0224539D01*
X0043723Y0223753D02*
X0066352Y0223753D01*
X0067138Y0222967D02*
X0043723Y0222967D01*
X0043723Y0222182D02*
X0067924Y0222182D01*
X0068709Y0221396D02*
X0043723Y0221396D01*
X0043723Y0220610D02*
X0069495Y0220610D01*
X0070463Y0221604D02*
X0059046Y0233021D01*
X0059046Y0235974D01*
X0056763Y0238257D01*
X0056763Y0242804D01*
X0058937Y0242615D02*
X0062127Y0242615D01*
X0062127Y0243401D02*
X0058937Y0243401D01*
X0058937Y0244187D02*
X0062127Y0244187D01*
X0062127Y0244973D02*
X0058362Y0244973D01*
X0058937Y0241829D02*
X0062592Y0241829D01*
X0064253Y0241043D02*
X0058769Y0241043D01*
X0063583Y0240258D02*
X0064253Y0240258D01*
X0064253Y0239472D02*
X0063583Y0239472D01*
X0063583Y0238686D02*
X0064253Y0238686D01*
X0064253Y0237900D02*
X0063583Y0237900D01*
X0063583Y0237114D02*
X0064253Y0237114D01*
X0064253Y0236328D02*
X0063583Y0236328D01*
X0063583Y0235542D02*
X0064253Y0235542D01*
X0064253Y0234756D02*
X0063583Y0234756D01*
X0063583Y0233970D02*
X0064253Y0233970D01*
X0064253Y0233184D02*
X0063583Y0233184D01*
X0063583Y0232398D02*
X0064400Y0232398D01*
X0065066Y0231732D02*
X0065066Y0231732D01*
X0065186Y0231612D02*
X0063570Y0231612D01*
X0063203Y0230827D02*
X0065971Y0230827D01*
X0066757Y0230041D02*
X0063989Y0230041D01*
X0064774Y0229255D02*
X0067543Y0229255D01*
X0068329Y0228469D02*
X0065560Y0228469D01*
X0066346Y0227683D02*
X0069115Y0227683D01*
X0069568Y0227230D02*
X0069568Y0227230D01*
X0069901Y0226897D02*
X0067132Y0226897D01*
X0070463Y0221604D02*
X0090050Y0221604D01*
X0088458Y0219824D02*
X0043723Y0219824D01*
X0043723Y0219038D02*
X0096438Y0219038D01*
X0096438Y0219824D02*
X0091642Y0219824D01*
X0091754Y0218252D02*
X0096438Y0218252D01*
X0096438Y0217466D02*
X0092434Y0217466D01*
X0092434Y0216680D02*
X0096438Y0216680D01*
X0096438Y0215894D02*
X0092434Y0215894D01*
X0091946Y0215108D02*
X0096438Y0215108D01*
X0096438Y0214322D02*
X0091160Y0214322D01*
X0088940Y0214322D02*
X0054022Y0214322D01*
X0053236Y0213536D02*
X0096438Y0213536D01*
X0096438Y0212751D02*
X0052450Y0212751D01*
X0051664Y0211965D02*
X0096438Y0211965D01*
X0096438Y0211179D02*
X0050879Y0211179D01*
X0050093Y0210393D02*
X0096438Y0210393D01*
X0096438Y0209607D02*
X0049307Y0209607D01*
X0048819Y0208821D02*
X0096438Y0208821D01*
X0096438Y0208035D02*
X0048819Y0208035D01*
X0048819Y0207249D02*
X0096438Y0207249D01*
X0096438Y0206463D02*
X0048819Y0206463D01*
X0048819Y0205677D02*
X0096438Y0205677D01*
X0096438Y0204891D02*
X0048819Y0204891D01*
X0048819Y0204106D02*
X0096438Y0204106D01*
X0096438Y0203320D02*
X0048819Y0203320D01*
X0048819Y0202534D02*
X0096438Y0202534D01*
X0096438Y0201748D02*
X0048819Y0201748D01*
X0048819Y0200962D02*
X0096438Y0200962D01*
X0096438Y0200176D02*
X0048819Y0200176D01*
X0048819Y0199390D02*
X0096438Y0199390D01*
X0096438Y0198604D02*
X0048819Y0198604D01*
X0048819Y0197818D02*
X0096438Y0197818D01*
X0096438Y0197032D02*
X0048819Y0197032D01*
X0048819Y0196246D02*
X0096438Y0196246D01*
X0096438Y0195460D02*
X0048819Y0195460D01*
X0048819Y0194675D02*
X0096438Y0194675D01*
X0096438Y0193889D02*
X0048819Y0193889D01*
X0048819Y0193103D02*
X0096438Y0193103D01*
X0096438Y0192317D02*
X0048819Y0192317D01*
X0048819Y0191531D02*
X0096438Y0191531D01*
X0096438Y0190745D02*
X0048819Y0190745D01*
X0048819Y0189959D02*
X0096438Y0189959D01*
X0096438Y0189173D02*
X0048819Y0189173D01*
X0054808Y0215108D02*
X0088154Y0215108D01*
X0090050Y0216584D02*
X0054322Y0216584D01*
X0043723Y0218252D02*
X0088346Y0218252D01*
X0078731Y0233021D02*
X0078731Y0235974D01*
X0080601Y0237844D01*
X0080601Y0237942D01*
X0078731Y0239812D01*
X0078731Y0242489D01*
X0077806Y0243316D01*
X0076723Y0242824D01*
X0075089Y0241190D01*
X0073219Y0241190D01*
X0068830Y0236801D01*
X0067028Y0241043D02*
X0071110Y0241043D01*
X0069507Y0241829D02*
X0067587Y0241829D01*
X0068052Y0242615D02*
X0069208Y0242615D01*
X0069208Y0243401D02*
X0068052Y0243401D01*
X0068052Y0244187D02*
X0069208Y0244187D01*
X0069208Y0244973D02*
X0068052Y0244973D01*
X0068052Y0245759D02*
X0072176Y0245759D01*
X0069208Y0246545D02*
X0068052Y0246545D01*
X0068052Y0247331D02*
X0069208Y0247331D01*
X0069208Y0248117D02*
X0068052Y0248117D01*
X0067779Y0248903D02*
X0069387Y0248903D01*
X0063574Y0249261D02*
X0100089Y0249261D01*
X0100254Y0249231D02*
X0100070Y0248913D01*
X0099975Y0248559D01*
X0099975Y0248020D01*
X0099922Y0248073D01*
X0099604Y0248257D01*
X0099249Y0248352D01*
X0098032Y0248352D01*
X0098032Y0245925D01*
X0097540Y0245925D01*
X0097540Y0248352D01*
X0096323Y0248352D01*
X0095969Y0248257D01*
X0095651Y0248073D01*
X0095392Y0247814D01*
X0095208Y0247496D01*
X0095113Y0247141D01*
X0095113Y0245925D01*
X0097540Y0245925D01*
X0097540Y0245432D01*
X0095113Y0245432D01*
X0095113Y0244215D01*
X0095208Y0243861D01*
X0095256Y0243778D01*
X0094495Y0243778D01*
X0094495Y0245619D01*
X0090641Y0245619D01*
X0090641Y0242396D01*
X0090429Y0242184D01*
X0086981Y0242184D01*
X0086399Y0241602D01*
X0086399Y0241101D01*
X0080783Y0241101D01*
X0080586Y0240904D01*
X0080119Y0240904D01*
X0080119Y0241960D01*
X0080149Y0241994D01*
X0080119Y0242528D01*
X0080119Y0243064D01*
X0080087Y0243096D01*
X0080084Y0243141D01*
X0080079Y0243145D01*
X0080079Y0244603D01*
X0080201Y0244724D01*
X0080384Y0245042D01*
X0080479Y0245397D01*
X0080479Y0246613D01*
X0078052Y0246613D01*
X0078052Y0247106D01*
X0080479Y0247106D01*
X0080479Y0248323D01*
X0080384Y0248677D01*
X0080201Y0248995D01*
X0079941Y0249254D01*
X0079814Y0249328D01*
X0086473Y0249328D01*
X0086277Y0249133D01*
X0086094Y0248815D01*
X0085999Y0248460D01*
X0085999Y0246407D01*
X0089853Y0246407D01*
X0089853Y0245619D01*
X0090641Y0245619D01*
X0090641Y0246407D01*
X0094495Y0246407D01*
X0094495Y0248460D01*
X0094400Y0248815D01*
X0094216Y0249133D01*
X0094021Y0249328D01*
X0100351Y0249328D01*
X0100254Y0249231D01*
X0100067Y0248903D02*
X0094349Y0248903D01*
X0094495Y0248117D02*
X0095726Y0248117D01*
X0095164Y0247331D02*
X0094495Y0247331D01*
X0094495Y0246545D02*
X0095113Y0246545D01*
X0095113Y0244973D02*
X0094495Y0244973D01*
X0094495Y0244187D02*
X0095121Y0244187D01*
X0097540Y0245759D02*
X0090641Y0245759D01*
X0090247Y0246013D02*
X0078160Y0246013D01*
X0077806Y0246860D01*
X0080479Y0246545D02*
X0085999Y0246545D01*
X0085999Y0247331D02*
X0080479Y0247331D01*
X0080479Y0248117D02*
X0085999Y0248117D01*
X0086145Y0248903D02*
X0080254Y0248903D01*
X0080479Y0245759D02*
X0089853Y0245759D01*
X0089853Y0245619D02*
X0085999Y0245619D01*
X0085999Y0243566D01*
X0086094Y0243211D01*
X0086277Y0242894D01*
X0086537Y0242634D01*
X0086855Y0242451D01*
X0087209Y0242356D01*
X0089853Y0242356D01*
X0089853Y0245619D01*
X0089853Y0244973D02*
X0090641Y0244973D01*
X0090641Y0244187D02*
X0089853Y0244187D01*
X0089853Y0243401D02*
X0090641Y0243401D01*
X0090641Y0242615D02*
X0089853Y0242615D01*
X0086569Y0242615D02*
X0080119Y0242615D01*
X0080119Y0241829D02*
X0086626Y0241829D01*
X0086043Y0243401D02*
X0080079Y0243401D01*
X0080079Y0244187D02*
X0085999Y0244187D01*
X0085999Y0244973D02*
X0080344Y0244973D01*
X0080119Y0241043D02*
X0080725Y0241043D01*
X0081684Y0238927D02*
X0080601Y0237844D01*
X0097540Y0246545D02*
X0098032Y0246545D01*
X0098032Y0247331D02*
X0097540Y0247331D01*
X0097540Y0248117D02*
X0098032Y0248117D01*
X0099846Y0248117D02*
X0099975Y0248117D01*
X0053416Y0244973D02*
X0053023Y0244973D01*
X0053023Y0244187D02*
X0053416Y0244187D01*
X0053416Y0243401D02*
X0053023Y0243401D01*
X0053022Y0242615D02*
X0043723Y0242615D01*
X0053023Y0241829D02*
X0053416Y0241829D01*
X0053416Y0241043D02*
X0053023Y0241043D01*
X0053023Y0240258D02*
X0053416Y0240258D01*
X0078731Y0183808D02*
X0078731Y0180856D01*
X0080611Y0170311D02*
X0087215Y0170311D01*
X0085759Y0167923D02*
X0090365Y0167923D01*
X0090385Y0167942D01*
X0087192Y0165596D02*
X0084567Y0165596D01*
X0082215Y0167923D02*
X0079066Y0167923D01*
X0078436Y0168552D01*
X0097885Y0172450D02*
X0099834Y0171682D01*
X0106467Y0171682D01*
X0106546Y0171761D01*
X0104371Y0173070D02*
X0103189Y0173070D01*
X0103189Y0173866D01*
X0102607Y0174448D01*
X0103189Y0173455D02*
X0104472Y0173455D01*
X0104371Y0173354D02*
X0104371Y0173070D01*
X0104371Y0173354D02*
X0104953Y0173936D01*
X0107931Y0173936D01*
X0108053Y0174057D01*
X0108370Y0174241D01*
X0109893Y0174241D02*
X0110286Y0174241D01*
X0110286Y0174336D02*
X0110286Y0171958D01*
X0112664Y0171958D01*
X0113278Y0171761D02*
X0117255Y0175738D01*
X0116861Y0175027D02*
X0117648Y0175027D01*
X0117648Y0174241D02*
X0116861Y0174241D01*
X0116861Y0173455D02*
X0117648Y0173455D01*
X0117648Y0172669D02*
X0116861Y0172669D01*
X0116861Y0171883D02*
X0117648Y0171883D01*
X0114414Y0171883D02*
X0110286Y0171883D01*
X0110089Y0171761D02*
X0113278Y0171761D01*
X0112664Y0172669D02*
X0114089Y0172669D01*
X0114089Y0173455D02*
X0112576Y0173455D01*
X0111809Y0174241D02*
X0111454Y0174336D01*
X0110286Y0174336D01*
X0110286Y0173455D02*
X0109893Y0173455D01*
X0109893Y0172669D02*
X0110286Y0172669D01*
X0110286Y0171097D02*
X0109893Y0171097D01*
X0109893Y0170311D02*
X0110286Y0170311D01*
X0110286Y0169525D02*
X0109893Y0169525D01*
X0107992Y0169525D02*
X0103189Y0169525D01*
X0103189Y0166382D02*
X0117118Y0166382D01*
X0116332Y0165596D02*
X0103189Y0165596D01*
X0103189Y0162452D02*
X0107054Y0162452D01*
X0106563Y0161666D02*
X0102837Y0161666D01*
X0099834Y0164202D02*
X0116900Y0164202D01*
X0116034Y0160974D02*
X0116034Y0156643D01*
X0119427Y0153807D02*
X0120122Y0153807D01*
X0112642Y0153807D02*
X0111946Y0153807D01*
X0108554Y0156643D02*
X0108554Y0160580D01*
X0108948Y0160974D01*
X0110502Y0139661D02*
X0115045Y0139661D01*
X0115831Y0138875D02*
X0111288Y0138875D01*
X0112074Y0138089D02*
X0116617Y0138089D01*
X0117403Y0137303D02*
X0112860Y0137303D01*
X0113645Y0136517D02*
X0118189Y0136517D01*
X0160566Y0121585D02*
X0197261Y0121585D01*
X0198046Y0120799D02*
X0161352Y0120799D01*
X0162138Y0120013D02*
X0192660Y0120013D01*
X0192397Y0119227D02*
X0162924Y0119227D01*
X0163710Y0118441D02*
X0192397Y0118441D01*
X0192397Y0117655D02*
X0164496Y0117655D01*
X0165281Y0116869D02*
X0192397Y0116869D01*
X0192606Y0116083D02*
X0166067Y0116083D01*
X0164569Y0136517D02*
X0173864Y0136517D01*
X0173308Y0137072D02*
X0173308Y0137072D01*
X0173078Y0137303D02*
X0165355Y0137303D01*
X0166141Y0138089D02*
X0172292Y0138089D01*
X0171506Y0138875D02*
X0166927Y0138875D01*
X0167713Y0139661D02*
X0170720Y0139661D01*
X0169934Y0140447D02*
X0168498Y0140447D01*
X0185429Y0122371D02*
X0196475Y0122371D01*
X0195168Y0120013D02*
X0194774Y0120013D01*
X0194774Y0119227D02*
X0195168Y0119227D01*
X0195168Y0118441D02*
X0194774Y0118441D01*
X0194774Y0117655D02*
X0195168Y0117655D01*
X0195168Y0116869D02*
X0194774Y0116869D01*
X0194774Y0116083D02*
X0195168Y0116083D01*
X0202219Y0102723D02*
X0219023Y0102723D01*
X0217575Y0103509D02*
X0203667Y0103509D01*
X0215345Y0093060D02*
X0220463Y0098178D01*
X0220463Y0107037D01*
X0220463Y0109989D01*
D34*
X0169873Y0109202D02*
X0169873Y0093060D01*
X0169873Y0056052D01*
X0166526Y0052706D01*
X0155365Y0052706D01*
X0151881Y0052253D01*
X0144617Y0052253D01*
X0144086Y0051722D01*
X0137530Y0051722D01*
X0137530Y0046840D02*
X0138042Y0046328D01*
X0138042Y0041919D01*
X0136231Y0040108D01*
X0136231Y0035797D01*
X0136231Y0030678D01*
X0134243Y0028690D01*
X0134243Y0025442D01*
X0125582Y0026328D02*
X0125582Y0012942D01*
X0132322Y0012942D01*
X0134849Y0010415D01*
X0144660Y0010415D01*
X0147188Y0012942D01*
X0153928Y0012942D01*
X0153928Y0026328D01*
X0145267Y0026328D01*
X0145267Y0029281D01*
X0143318Y0031230D01*
X0143318Y0035797D01*
X0143318Y0040186D01*
X0141586Y0041919D01*
X0131487Y0050836D02*
X0131428Y0050777D01*
X0131487Y0050836D02*
X0131487Y0056938D01*
X0133889Y0059340D01*
X0144617Y0059340D01*
X0145188Y0058769D01*
X0145188Y0062745D01*
X0147629Y0062745D01*
X0155365Y0062706D01*
X0164223Y0062706D01*
X0164263Y0062745D01*
X0145267Y0026328D02*
X0145267Y0025049D01*
X0129715Y0049852D02*
X0120463Y0049852D01*
X0169873Y0109202D02*
X0157767Y0121308D01*
X0125778Y0121308D01*
X0110424Y0136663D01*
X0078436Y0168651D01*
X0078436Y0183513D01*
X0078731Y0183808D01*
X0078436Y0168651D02*
X0078436Y0168552D01*
X0117255Y0169930D02*
X0117255Y0175738D01*
X0117314Y0175738D01*
X0117314Y0181348D01*
X0117314Y0169930D02*
X0117255Y0169930D01*
X0090247Y0238927D02*
X0081684Y0238927D01*
X0090247Y0238927D02*
X0092924Y0241604D01*
X0097629Y0241604D01*
X0097786Y0241761D01*
X0097786Y0242135D01*
X0097629Y0241604D02*
X0104322Y0241604D01*
X0104322Y0246604D02*
X0110523Y0246604D01*
X0111113Y0247194D01*
X0104322Y0246604D02*
X0098318Y0246604D01*
X0097786Y0246072D01*
X0097786Y0245678D01*
X0098318Y0246604D02*
X0090837Y0246604D01*
X0090247Y0246013D01*
X0169479Y0246604D02*
X0169479Y0244143D01*
X0169479Y0246604D02*
X0175188Y0246604D01*
X0182078Y0246604D01*
D35*
X0181881Y0246505D03*
X0181881Y0233415D03*
X0168790Y0231446D03*
X0166231Y0237253D03*
X0169479Y0244143D03*
X0169479Y0248080D03*
X0136310Y0247588D03*
X0118397Y0233710D03*
X0111212Y0243552D03*
X0111113Y0247194D03*
X0110030Y0236663D03*
X0109341Y0225442D03*
X0109637Y0221604D03*
X0109637Y0216584D03*
X0109440Y0209104D03*
X0123613Y0210678D03*
X0125089Y0218454D03*
X0110621Y0191584D03*
X0110621Y0186663D03*
X0110129Y0181545D03*
X0117314Y0181348D03*
X0117314Y0169930D03*
X0116034Y0160974D03*
X0108948Y0160974D03*
X0107471Y0167470D03*
X0123515Y0160974D03*
X0129814Y0157430D03*
X0113180Y0139320D03*
X0105306Y0136171D03*
X0110129Y0131052D03*
X0089263Y0163730D03*
X0082471Y0171997D03*
X0050680Y0177903D03*
X0044873Y0178001D03*
X0045070Y0212155D03*
X0055503Y0212450D03*
X0072432Y0219143D03*
X0086015Y0219045D03*
X0090050Y0216584D03*
X0090050Y0221604D03*
X0092215Y0232037D03*
X0099302Y0226525D03*
X0085030Y0244143D03*
X0081979Y0246013D03*
X0081979Y0242175D03*
X0068790Y0241584D03*
X0060719Y0248080D03*
X0044971Y0247883D03*
X0139853Y0183612D03*
X0149499Y0181938D03*
X0163377Y0168848D03*
X0166526Y0181249D03*
X0185129Y0179773D03*
X0195956Y0165895D03*
X0168495Y0150639D03*
X0157471Y0137450D03*
X0153534Y0126033D03*
X0161900Y0123867D03*
X0155798Y0116486D03*
X0173908Y0096702D03*
X0174302Y0089714D03*
X0164460Y0092273D03*
X0190149Y0117962D03*
X0183849Y0124163D03*
X0177944Y0134891D03*
X0233849Y0145718D03*
X0234046Y0174261D03*
X0234243Y0211958D03*
X0233849Y0247489D03*
X0208948Y0247588D03*
X0233751Y0108119D03*
X0234145Y0080364D03*
X0233849Y0047194D03*
X0175680Y0046210D03*
X0147629Y0037745D03*
X0145562Y0041879D03*
X0147629Y0034104D03*
X0147530Y0029970D03*
X0143495Y0029871D03*
X0139460Y0015993D03*
X0117215Y0021899D03*
X0107274Y0017273D03*
X0103141Y0046112D03*
X0120857Y0049852D03*
X0129715Y0050836D03*
X0129715Y0053986D03*
X0133160Y0053986D03*
X0133160Y0050836D03*
X0133160Y0047588D03*
X0129715Y0047588D03*
X0110030Y0086860D03*
X0049893Y0117273D03*
X0045168Y0111860D03*
X0045267Y0128198D03*
X0045168Y0082726D03*
X0045463Y0047194D03*
X0171251Y0011860D03*
D36*
X0139853Y0216289D03*
D37*
X0139755Y0153200D02*
X0131390Y0153200D01*
X0127353Y0149163D01*
X0123515Y0149163D01*
X0128141Y0144635D02*
X0118495Y0144635D01*
X0116034Y0147096D01*
X0116034Y0149163D01*
X0110129Y0147588D02*
X0108554Y0149163D01*
X0110129Y0147588D02*
X0110129Y0147096D01*
X0119579Y0137645D01*
X0139755Y0137645D01*
X0139755Y0142814D02*
X0139805Y0142864D01*
X0146349Y0142864D01*
X0157767Y0131446D01*
X0157767Y0132234D01*
X0168938Y0143405D01*
X0172137Y0146604D01*
X0157767Y0131446D02*
X0157767Y0121308D01*
X0139755Y0148032D02*
X0131537Y0148032D01*
X0128141Y0144635D01*
X0077806Y0246860D02*
X0073967Y0246860D01*
X0072570Y0245462D01*
D38*
X0137530Y0052745D02*
X0137530Y0050777D01*
X0137530Y0051722D02*
X0137530Y0052745D01*
X0137530Y0048808D02*
X0137530Y0046840D01*
M02*
