%
M48
M72
T01C0.01181
T02C0.01969
T03C0.02165
T04C0.02559
T05C0.02800
T06C0.03600
T07C0.04724
T08C0.11811
%
T01
X45463Y47194
X45168Y82726
X45168Y111860
X49893Y117273
X45267Y128198
X82471Y171997
X89263Y163730
X107471Y167470
X108948Y160974
X116034Y160974
X123515Y160974
X129814Y157430
X117314Y169930
X117314Y181348
X110129Y181545
X110621Y186663
X110621Y191584
X109440Y209104
X109637Y216584
X109637Y221604
X109341Y225442
X99302Y226525
X92215Y232037
X90050Y221604
X86015Y219045
X90050Y216584
X72432Y219143
X55503Y212450
X45070Y212155
X68790Y241584
X60719Y248080
X44971Y247883
X81979Y246013
X85030Y244143
X81979Y242175
X110030Y236663
X111212Y243552
X111113Y247194
X118397Y233710
X125089Y218454
X123613Y210678
X139853Y183612
X149499Y181938
X163377Y168848
X166526Y181249
X185129Y179773
X195956Y165895
X168495Y150639
X157471Y137450
X153534Y126033
X161900Y123867
X155798Y116486
X173908Y96702
X174302Y89714
X164460Y92273
X190149Y117962
X183849Y124163
X177944Y134891
X233849Y145718
X234046Y174261
X234243Y211958
X233849Y247489
X208948Y247588
X181881Y246505
X181881Y233415
X168790Y231446
X166231Y237253
X169479Y244143
X169479Y248080
X136310Y247588
X50680Y177903
X44873Y178001
X105306Y136171
X110129Y131052
X113180Y139320
X110030Y86860
X129715Y53986
X129715Y50836
X129715Y47588
X133160Y47588
X133160Y50836
X133160Y53986
X120857Y49852
X103141Y46112
X117215Y21899
X107274Y17273
X139460Y15993
X143495Y29871
X147530Y29970
X147629Y34104
X147629Y37745
X145562Y41879
X171251Y11860
X175680Y46210
X233849Y47194
X234145Y80364
X233751Y108119
T02
X153928Y26328
X153928Y12942
X125582Y12942
X125582Y26328
T03
X131881Y21407
X147629Y21407
T04
X139755Y137645
X139755Y142814
X139755Y148032
X139755Y153200
T05
X172137Y154478
X172137Y162352
X180011Y162352
X180011Y154478
X180011Y146604
X172137Y146604
T06
X155365Y62706
X155365Y52706
T07
X200778Y57824
X220463Y57824
X220463Y107037
X200778Y107037
X200778Y183808
X220463Y183808
X220463Y233021
X200778Y233021
X78731Y233021
X59046Y233021
X59046Y183808
X78731Y183808
X78731Y107037
X59046Y107037
X59046Y57824
X78731Y57824
T08
X68889Y145423
X139853Y216289
X210621Y145423
M30
