G75*
%MOIN*%
%OFA0B0*%
%FSLAX25Y25*%
%IPPOS*%
%LPD*%
%AMOC8*
5,1,8,0,0,1.08239X$1,22.5*
%
%ADD10C,0.00000*%
%ADD11C,0.00500*%
%ADD12R,0.01890X0.04921*%
%ADD13R,0.02067X0.01004*%
%ADD14R,0.04921X0.01890*%
%ADD15R,0.01004X0.02067*%
%ADD16C,0.00800*%
%ADD17C,0.02165*%
%ADD18C,0.00600*%
%ADD19R,0.01800X0.02300*%
%ADD20R,0.02400X0.02400*%
%ADD21C,0.00394*%
%ADD22C,0.00400*%
%ADD23R,0.01969X0.01280*%
%ADD24R,0.00984X0.00591*%
%ADD25R,0.00689X0.01575*%
%ADD26R,0.01181X0.01181*%
%ADD27R,0.00295X0.01280*%
%ADD28C,0.01000*%
%ADD29R,0.02300X0.01800*%
%ADD30R,0.00984X0.01969*%
%ADD31R,0.04921X0.01575*%
D10*
X0041330Y0043060D02*
X0100385Y0043060D01*
X0104322Y0007627D01*
X0175188Y0007627D01*
X0179125Y0043060D01*
X0238180Y0043060D01*
X0238180Y0251722D01*
X0041330Y0251722D01*
X0041330Y0043060D01*
X0062983Y0145423D02*
X0062985Y0145576D01*
X0062991Y0145730D01*
X0063001Y0145883D01*
X0063015Y0146035D01*
X0063033Y0146188D01*
X0063055Y0146339D01*
X0063080Y0146490D01*
X0063110Y0146641D01*
X0063144Y0146791D01*
X0063181Y0146939D01*
X0063222Y0147087D01*
X0063267Y0147233D01*
X0063316Y0147379D01*
X0063369Y0147523D01*
X0063425Y0147665D01*
X0063485Y0147806D01*
X0063549Y0147946D01*
X0063616Y0148084D01*
X0063687Y0148220D01*
X0063762Y0148354D01*
X0063839Y0148486D01*
X0063921Y0148616D01*
X0064005Y0148744D01*
X0064093Y0148870D01*
X0064184Y0148993D01*
X0064278Y0149114D01*
X0064376Y0149232D01*
X0064476Y0149348D01*
X0064580Y0149461D01*
X0064686Y0149572D01*
X0064795Y0149680D01*
X0064907Y0149785D01*
X0065021Y0149886D01*
X0065139Y0149985D01*
X0065258Y0150081D01*
X0065380Y0150174D01*
X0065505Y0150263D01*
X0065632Y0150350D01*
X0065761Y0150432D01*
X0065892Y0150512D01*
X0066025Y0150588D01*
X0066160Y0150661D01*
X0066297Y0150730D01*
X0066436Y0150795D01*
X0066576Y0150857D01*
X0066718Y0150915D01*
X0066861Y0150970D01*
X0067006Y0151021D01*
X0067152Y0151068D01*
X0067299Y0151111D01*
X0067447Y0151150D01*
X0067596Y0151186D01*
X0067746Y0151217D01*
X0067897Y0151245D01*
X0068048Y0151269D01*
X0068201Y0151289D01*
X0068353Y0151305D01*
X0068506Y0151317D01*
X0068659Y0151325D01*
X0068812Y0151329D01*
X0068966Y0151329D01*
X0069119Y0151325D01*
X0069272Y0151317D01*
X0069425Y0151305D01*
X0069577Y0151289D01*
X0069730Y0151269D01*
X0069881Y0151245D01*
X0070032Y0151217D01*
X0070182Y0151186D01*
X0070331Y0151150D01*
X0070479Y0151111D01*
X0070626Y0151068D01*
X0070772Y0151021D01*
X0070917Y0150970D01*
X0071060Y0150915D01*
X0071202Y0150857D01*
X0071342Y0150795D01*
X0071481Y0150730D01*
X0071618Y0150661D01*
X0071753Y0150588D01*
X0071886Y0150512D01*
X0072017Y0150432D01*
X0072146Y0150350D01*
X0072273Y0150263D01*
X0072398Y0150174D01*
X0072520Y0150081D01*
X0072639Y0149985D01*
X0072757Y0149886D01*
X0072871Y0149785D01*
X0072983Y0149680D01*
X0073092Y0149572D01*
X0073198Y0149461D01*
X0073302Y0149348D01*
X0073402Y0149232D01*
X0073500Y0149114D01*
X0073594Y0148993D01*
X0073685Y0148870D01*
X0073773Y0148744D01*
X0073857Y0148616D01*
X0073939Y0148486D01*
X0074016Y0148354D01*
X0074091Y0148220D01*
X0074162Y0148084D01*
X0074229Y0147946D01*
X0074293Y0147806D01*
X0074353Y0147665D01*
X0074409Y0147523D01*
X0074462Y0147379D01*
X0074511Y0147233D01*
X0074556Y0147087D01*
X0074597Y0146939D01*
X0074634Y0146791D01*
X0074668Y0146641D01*
X0074698Y0146490D01*
X0074723Y0146339D01*
X0074745Y0146188D01*
X0074763Y0146035D01*
X0074777Y0145883D01*
X0074787Y0145730D01*
X0074793Y0145576D01*
X0074795Y0145423D01*
X0074793Y0145270D01*
X0074787Y0145116D01*
X0074777Y0144963D01*
X0074763Y0144811D01*
X0074745Y0144658D01*
X0074723Y0144507D01*
X0074698Y0144356D01*
X0074668Y0144205D01*
X0074634Y0144055D01*
X0074597Y0143907D01*
X0074556Y0143759D01*
X0074511Y0143613D01*
X0074462Y0143467D01*
X0074409Y0143323D01*
X0074353Y0143181D01*
X0074293Y0143040D01*
X0074229Y0142900D01*
X0074162Y0142762D01*
X0074091Y0142626D01*
X0074016Y0142492D01*
X0073939Y0142360D01*
X0073857Y0142230D01*
X0073773Y0142102D01*
X0073685Y0141976D01*
X0073594Y0141853D01*
X0073500Y0141732D01*
X0073402Y0141614D01*
X0073302Y0141498D01*
X0073198Y0141385D01*
X0073092Y0141274D01*
X0072983Y0141166D01*
X0072871Y0141061D01*
X0072757Y0140960D01*
X0072639Y0140861D01*
X0072520Y0140765D01*
X0072398Y0140672D01*
X0072273Y0140583D01*
X0072146Y0140496D01*
X0072017Y0140414D01*
X0071886Y0140334D01*
X0071753Y0140258D01*
X0071618Y0140185D01*
X0071481Y0140116D01*
X0071342Y0140051D01*
X0071202Y0139989D01*
X0071060Y0139931D01*
X0070917Y0139876D01*
X0070772Y0139825D01*
X0070626Y0139778D01*
X0070479Y0139735D01*
X0070331Y0139696D01*
X0070182Y0139660D01*
X0070032Y0139629D01*
X0069881Y0139601D01*
X0069730Y0139577D01*
X0069577Y0139557D01*
X0069425Y0139541D01*
X0069272Y0139529D01*
X0069119Y0139521D01*
X0068966Y0139517D01*
X0068812Y0139517D01*
X0068659Y0139521D01*
X0068506Y0139529D01*
X0068353Y0139541D01*
X0068201Y0139557D01*
X0068048Y0139577D01*
X0067897Y0139601D01*
X0067746Y0139629D01*
X0067596Y0139660D01*
X0067447Y0139696D01*
X0067299Y0139735D01*
X0067152Y0139778D01*
X0067006Y0139825D01*
X0066861Y0139876D01*
X0066718Y0139931D01*
X0066576Y0139989D01*
X0066436Y0140051D01*
X0066297Y0140116D01*
X0066160Y0140185D01*
X0066025Y0140258D01*
X0065892Y0140334D01*
X0065761Y0140414D01*
X0065632Y0140496D01*
X0065505Y0140583D01*
X0065380Y0140672D01*
X0065258Y0140765D01*
X0065139Y0140861D01*
X0065021Y0140960D01*
X0064907Y0141061D01*
X0064795Y0141166D01*
X0064686Y0141274D01*
X0064580Y0141385D01*
X0064476Y0141498D01*
X0064376Y0141614D01*
X0064278Y0141732D01*
X0064184Y0141853D01*
X0064093Y0141976D01*
X0064005Y0142102D01*
X0063921Y0142230D01*
X0063839Y0142360D01*
X0063762Y0142492D01*
X0063687Y0142626D01*
X0063616Y0142762D01*
X0063549Y0142900D01*
X0063485Y0143040D01*
X0063425Y0143181D01*
X0063369Y0143323D01*
X0063316Y0143467D01*
X0063267Y0143613D01*
X0063222Y0143759D01*
X0063181Y0143907D01*
X0063144Y0144055D01*
X0063110Y0144205D01*
X0063080Y0144356D01*
X0063055Y0144507D01*
X0063033Y0144658D01*
X0063015Y0144811D01*
X0063001Y0144963D01*
X0062991Y0145116D01*
X0062985Y0145270D01*
X0062983Y0145423D01*
X0130798Y0021407D02*
X0130800Y0021472D01*
X0130806Y0021538D01*
X0130816Y0021602D01*
X0130829Y0021666D01*
X0130847Y0021729D01*
X0130868Y0021791D01*
X0130893Y0021851D01*
X0130922Y0021910D01*
X0130954Y0021967D01*
X0130990Y0022022D01*
X0131028Y0022075D01*
X0131070Y0022125D01*
X0131115Y0022173D01*
X0131163Y0022218D01*
X0131213Y0022260D01*
X0131266Y0022298D01*
X0131321Y0022334D01*
X0131378Y0022366D01*
X0131437Y0022395D01*
X0131497Y0022420D01*
X0131559Y0022441D01*
X0131622Y0022459D01*
X0131686Y0022472D01*
X0131750Y0022482D01*
X0131816Y0022488D01*
X0131881Y0022490D01*
X0131946Y0022488D01*
X0132012Y0022482D01*
X0132076Y0022472D01*
X0132140Y0022459D01*
X0132203Y0022441D01*
X0132265Y0022420D01*
X0132325Y0022395D01*
X0132384Y0022366D01*
X0132441Y0022334D01*
X0132496Y0022298D01*
X0132549Y0022260D01*
X0132599Y0022218D01*
X0132647Y0022173D01*
X0132692Y0022125D01*
X0132734Y0022075D01*
X0132772Y0022022D01*
X0132808Y0021967D01*
X0132840Y0021910D01*
X0132869Y0021851D01*
X0132894Y0021791D01*
X0132915Y0021729D01*
X0132933Y0021666D01*
X0132946Y0021602D01*
X0132956Y0021538D01*
X0132962Y0021472D01*
X0132964Y0021407D01*
X0132962Y0021342D01*
X0132956Y0021276D01*
X0132946Y0021212D01*
X0132933Y0021148D01*
X0132915Y0021085D01*
X0132894Y0021023D01*
X0132869Y0020963D01*
X0132840Y0020904D01*
X0132808Y0020847D01*
X0132772Y0020792D01*
X0132734Y0020739D01*
X0132692Y0020689D01*
X0132647Y0020641D01*
X0132599Y0020596D01*
X0132549Y0020554D01*
X0132496Y0020516D01*
X0132441Y0020480D01*
X0132384Y0020448D01*
X0132325Y0020419D01*
X0132265Y0020394D01*
X0132203Y0020373D01*
X0132140Y0020355D01*
X0132076Y0020342D01*
X0132012Y0020332D01*
X0131946Y0020326D01*
X0131881Y0020324D01*
X0131816Y0020326D01*
X0131750Y0020332D01*
X0131686Y0020342D01*
X0131622Y0020355D01*
X0131559Y0020373D01*
X0131497Y0020394D01*
X0131437Y0020419D01*
X0131378Y0020448D01*
X0131321Y0020480D01*
X0131266Y0020516D01*
X0131213Y0020554D01*
X0131163Y0020596D01*
X0131115Y0020641D01*
X0131070Y0020689D01*
X0131028Y0020739D01*
X0130990Y0020792D01*
X0130954Y0020847D01*
X0130922Y0020904D01*
X0130893Y0020963D01*
X0130868Y0021023D01*
X0130847Y0021085D01*
X0130829Y0021148D01*
X0130816Y0021212D01*
X0130806Y0021276D01*
X0130800Y0021342D01*
X0130798Y0021407D01*
X0146546Y0021407D02*
X0146548Y0021472D01*
X0146554Y0021538D01*
X0146564Y0021602D01*
X0146577Y0021666D01*
X0146595Y0021729D01*
X0146616Y0021791D01*
X0146641Y0021851D01*
X0146670Y0021910D01*
X0146702Y0021967D01*
X0146738Y0022022D01*
X0146776Y0022075D01*
X0146818Y0022125D01*
X0146863Y0022173D01*
X0146911Y0022218D01*
X0146961Y0022260D01*
X0147014Y0022298D01*
X0147069Y0022334D01*
X0147126Y0022366D01*
X0147185Y0022395D01*
X0147245Y0022420D01*
X0147307Y0022441D01*
X0147370Y0022459D01*
X0147434Y0022472D01*
X0147498Y0022482D01*
X0147564Y0022488D01*
X0147629Y0022490D01*
X0147694Y0022488D01*
X0147760Y0022482D01*
X0147824Y0022472D01*
X0147888Y0022459D01*
X0147951Y0022441D01*
X0148013Y0022420D01*
X0148073Y0022395D01*
X0148132Y0022366D01*
X0148189Y0022334D01*
X0148244Y0022298D01*
X0148297Y0022260D01*
X0148347Y0022218D01*
X0148395Y0022173D01*
X0148440Y0022125D01*
X0148482Y0022075D01*
X0148520Y0022022D01*
X0148556Y0021967D01*
X0148588Y0021910D01*
X0148617Y0021851D01*
X0148642Y0021791D01*
X0148663Y0021729D01*
X0148681Y0021666D01*
X0148694Y0021602D01*
X0148704Y0021538D01*
X0148710Y0021472D01*
X0148712Y0021407D01*
X0148710Y0021342D01*
X0148704Y0021276D01*
X0148694Y0021212D01*
X0148681Y0021148D01*
X0148663Y0021085D01*
X0148642Y0021023D01*
X0148617Y0020963D01*
X0148588Y0020904D01*
X0148556Y0020847D01*
X0148520Y0020792D01*
X0148482Y0020739D01*
X0148440Y0020689D01*
X0148395Y0020641D01*
X0148347Y0020596D01*
X0148297Y0020554D01*
X0148244Y0020516D01*
X0148189Y0020480D01*
X0148132Y0020448D01*
X0148073Y0020419D01*
X0148013Y0020394D01*
X0147951Y0020373D01*
X0147888Y0020355D01*
X0147824Y0020342D01*
X0147760Y0020332D01*
X0147694Y0020326D01*
X0147629Y0020324D01*
X0147564Y0020326D01*
X0147498Y0020332D01*
X0147434Y0020342D01*
X0147370Y0020355D01*
X0147307Y0020373D01*
X0147245Y0020394D01*
X0147185Y0020419D01*
X0147126Y0020448D01*
X0147069Y0020480D01*
X0147014Y0020516D01*
X0146961Y0020554D01*
X0146911Y0020596D01*
X0146863Y0020641D01*
X0146818Y0020689D01*
X0146776Y0020739D01*
X0146738Y0020792D01*
X0146702Y0020847D01*
X0146670Y0020904D01*
X0146641Y0020963D01*
X0146616Y0021023D01*
X0146595Y0021085D01*
X0146577Y0021148D01*
X0146564Y0021212D01*
X0146554Y0021276D01*
X0146548Y0021342D01*
X0146546Y0021407D01*
X0204715Y0145423D02*
X0204717Y0145576D01*
X0204723Y0145730D01*
X0204733Y0145883D01*
X0204747Y0146035D01*
X0204765Y0146188D01*
X0204787Y0146339D01*
X0204812Y0146490D01*
X0204842Y0146641D01*
X0204876Y0146791D01*
X0204913Y0146939D01*
X0204954Y0147087D01*
X0204999Y0147233D01*
X0205048Y0147379D01*
X0205101Y0147523D01*
X0205157Y0147665D01*
X0205217Y0147806D01*
X0205281Y0147946D01*
X0205348Y0148084D01*
X0205419Y0148220D01*
X0205494Y0148354D01*
X0205571Y0148486D01*
X0205653Y0148616D01*
X0205737Y0148744D01*
X0205825Y0148870D01*
X0205916Y0148993D01*
X0206010Y0149114D01*
X0206108Y0149232D01*
X0206208Y0149348D01*
X0206312Y0149461D01*
X0206418Y0149572D01*
X0206527Y0149680D01*
X0206639Y0149785D01*
X0206753Y0149886D01*
X0206871Y0149985D01*
X0206990Y0150081D01*
X0207112Y0150174D01*
X0207237Y0150263D01*
X0207364Y0150350D01*
X0207493Y0150432D01*
X0207624Y0150512D01*
X0207757Y0150588D01*
X0207892Y0150661D01*
X0208029Y0150730D01*
X0208168Y0150795D01*
X0208308Y0150857D01*
X0208450Y0150915D01*
X0208593Y0150970D01*
X0208738Y0151021D01*
X0208884Y0151068D01*
X0209031Y0151111D01*
X0209179Y0151150D01*
X0209328Y0151186D01*
X0209478Y0151217D01*
X0209629Y0151245D01*
X0209780Y0151269D01*
X0209933Y0151289D01*
X0210085Y0151305D01*
X0210238Y0151317D01*
X0210391Y0151325D01*
X0210544Y0151329D01*
X0210698Y0151329D01*
X0210851Y0151325D01*
X0211004Y0151317D01*
X0211157Y0151305D01*
X0211309Y0151289D01*
X0211462Y0151269D01*
X0211613Y0151245D01*
X0211764Y0151217D01*
X0211914Y0151186D01*
X0212063Y0151150D01*
X0212211Y0151111D01*
X0212358Y0151068D01*
X0212504Y0151021D01*
X0212649Y0150970D01*
X0212792Y0150915D01*
X0212934Y0150857D01*
X0213074Y0150795D01*
X0213213Y0150730D01*
X0213350Y0150661D01*
X0213485Y0150588D01*
X0213618Y0150512D01*
X0213749Y0150432D01*
X0213878Y0150350D01*
X0214005Y0150263D01*
X0214130Y0150174D01*
X0214252Y0150081D01*
X0214371Y0149985D01*
X0214489Y0149886D01*
X0214603Y0149785D01*
X0214715Y0149680D01*
X0214824Y0149572D01*
X0214930Y0149461D01*
X0215034Y0149348D01*
X0215134Y0149232D01*
X0215232Y0149114D01*
X0215326Y0148993D01*
X0215417Y0148870D01*
X0215505Y0148744D01*
X0215589Y0148616D01*
X0215671Y0148486D01*
X0215748Y0148354D01*
X0215823Y0148220D01*
X0215894Y0148084D01*
X0215961Y0147946D01*
X0216025Y0147806D01*
X0216085Y0147665D01*
X0216141Y0147523D01*
X0216194Y0147379D01*
X0216243Y0147233D01*
X0216288Y0147087D01*
X0216329Y0146939D01*
X0216366Y0146791D01*
X0216400Y0146641D01*
X0216430Y0146490D01*
X0216455Y0146339D01*
X0216477Y0146188D01*
X0216495Y0146035D01*
X0216509Y0145883D01*
X0216519Y0145730D01*
X0216525Y0145576D01*
X0216527Y0145423D01*
X0216525Y0145270D01*
X0216519Y0145116D01*
X0216509Y0144963D01*
X0216495Y0144811D01*
X0216477Y0144658D01*
X0216455Y0144507D01*
X0216430Y0144356D01*
X0216400Y0144205D01*
X0216366Y0144055D01*
X0216329Y0143907D01*
X0216288Y0143759D01*
X0216243Y0143613D01*
X0216194Y0143467D01*
X0216141Y0143323D01*
X0216085Y0143181D01*
X0216025Y0143040D01*
X0215961Y0142900D01*
X0215894Y0142762D01*
X0215823Y0142626D01*
X0215748Y0142492D01*
X0215671Y0142360D01*
X0215589Y0142230D01*
X0215505Y0142102D01*
X0215417Y0141976D01*
X0215326Y0141853D01*
X0215232Y0141732D01*
X0215134Y0141614D01*
X0215034Y0141498D01*
X0214930Y0141385D01*
X0214824Y0141274D01*
X0214715Y0141166D01*
X0214603Y0141061D01*
X0214489Y0140960D01*
X0214371Y0140861D01*
X0214252Y0140765D01*
X0214130Y0140672D01*
X0214005Y0140583D01*
X0213878Y0140496D01*
X0213749Y0140414D01*
X0213618Y0140334D01*
X0213485Y0140258D01*
X0213350Y0140185D01*
X0213213Y0140116D01*
X0213074Y0140051D01*
X0212934Y0139989D01*
X0212792Y0139931D01*
X0212649Y0139876D01*
X0212504Y0139825D01*
X0212358Y0139778D01*
X0212211Y0139735D01*
X0212063Y0139696D01*
X0211914Y0139660D01*
X0211764Y0139629D01*
X0211613Y0139601D01*
X0211462Y0139577D01*
X0211309Y0139557D01*
X0211157Y0139541D01*
X0211004Y0139529D01*
X0210851Y0139521D01*
X0210698Y0139517D01*
X0210544Y0139517D01*
X0210391Y0139521D01*
X0210238Y0139529D01*
X0210085Y0139541D01*
X0209933Y0139557D01*
X0209780Y0139577D01*
X0209629Y0139601D01*
X0209478Y0139629D01*
X0209328Y0139660D01*
X0209179Y0139696D01*
X0209031Y0139735D01*
X0208884Y0139778D01*
X0208738Y0139825D01*
X0208593Y0139876D01*
X0208450Y0139931D01*
X0208308Y0139989D01*
X0208168Y0140051D01*
X0208029Y0140116D01*
X0207892Y0140185D01*
X0207757Y0140258D01*
X0207624Y0140334D01*
X0207493Y0140414D01*
X0207364Y0140496D01*
X0207237Y0140583D01*
X0207112Y0140672D01*
X0206990Y0140765D01*
X0206871Y0140861D01*
X0206753Y0140960D01*
X0206639Y0141061D01*
X0206527Y0141166D01*
X0206418Y0141274D01*
X0206312Y0141385D01*
X0206208Y0141498D01*
X0206108Y0141614D01*
X0206010Y0141732D01*
X0205916Y0141853D01*
X0205825Y0141976D01*
X0205737Y0142102D01*
X0205653Y0142230D01*
X0205571Y0142360D01*
X0205494Y0142492D01*
X0205419Y0142626D01*
X0205348Y0142762D01*
X0205281Y0142900D01*
X0205217Y0143040D01*
X0205157Y0143181D01*
X0205101Y0143323D01*
X0205048Y0143467D01*
X0204999Y0143613D01*
X0204954Y0143759D01*
X0204913Y0143907D01*
X0204876Y0144055D01*
X0204842Y0144205D01*
X0204812Y0144356D01*
X0204787Y0144507D01*
X0204765Y0144658D01*
X0204747Y0144811D01*
X0204733Y0144963D01*
X0204723Y0145116D01*
X0204717Y0145270D01*
X0204715Y0145423D01*
D11*
X0198712Y0118986D02*
X0194774Y0118986D01*
X0194774Y0117017D01*
X0198712Y0117017D01*
X0198712Y0118986D01*
X0186999Y0106052D02*
X0234243Y0106052D01*
X0234243Y0058808D01*
X0186999Y0058808D01*
X0234243Y0058808D01*
X0234243Y0106052D02*
X0186999Y0106052D01*
X0186999Y0058808D01*
X0147078Y0059734D02*
X0147078Y0051860D01*
X0142156Y0051860D01*
X0142156Y0059734D01*
X0147078Y0059734D01*
X0141832Y0042952D02*
X0137796Y0042952D01*
X0137796Y0040885D01*
X0141832Y0040885D01*
X0141832Y0042952D01*
X0143712Y0038257D02*
X0135837Y0038257D01*
X0135837Y0033336D01*
X0143712Y0033336D01*
X0143712Y0038257D01*
X0129066Y0040560D02*
X0125129Y0040560D01*
X0125129Y0042529D01*
X0129066Y0042529D01*
X0129066Y0040560D01*
X0114676Y0019891D02*
X0110739Y0019891D01*
X0110739Y0017923D01*
X0114676Y0017923D01*
X0114676Y0019891D01*
X0092511Y0058808D02*
X0045267Y0058808D01*
X0092511Y0058808D01*
X0092511Y0106052D01*
X0045267Y0106052D01*
X0092511Y0106052D01*
X0057412Y0116328D02*
X0053475Y0116328D01*
X0053475Y0118297D01*
X0057412Y0118297D01*
X0057412Y0116328D01*
X0045267Y0106052D02*
X0045267Y0058808D01*
X0106093Y0148966D02*
X0106093Y0156840D01*
X0111015Y0156840D01*
X0111015Y0148966D01*
X0106093Y0148966D01*
X0113574Y0148966D02*
X0113574Y0156840D01*
X0118495Y0156840D01*
X0118495Y0148966D01*
X0113574Y0148966D01*
X0121054Y0148966D02*
X0121054Y0156840D01*
X0125975Y0156840D01*
X0125975Y0148966D01*
X0121054Y0148966D01*
X0110286Y0170777D02*
X0106349Y0170777D01*
X0106349Y0172745D01*
X0110286Y0172745D01*
X0110286Y0170777D01*
X0092511Y0184793D02*
X0045267Y0184793D01*
X0092511Y0184793D01*
X0092511Y0232037D01*
X0045267Y0232037D01*
X0092511Y0232037D01*
X0096753Y0231062D02*
X0096753Y0235098D01*
X0098820Y0235098D01*
X0098820Y0231062D01*
X0096753Y0231062D01*
X0092708Y0238533D02*
X0087786Y0238533D01*
X0087786Y0246407D01*
X0092708Y0246407D01*
X0092708Y0238533D01*
X0096753Y0241889D02*
X0096753Y0245925D01*
X0098820Y0245925D01*
X0098820Y0241889D01*
X0096753Y0241889D01*
X0078839Y0243070D02*
X0076773Y0243070D01*
X0076773Y0247106D01*
X0078839Y0247106D01*
X0078839Y0243070D01*
X0056960Y0243789D02*
X0053023Y0243789D01*
X0053023Y0241820D01*
X0056960Y0241820D01*
X0056960Y0243789D01*
X0045267Y0232037D02*
X0045267Y0184793D01*
X0082019Y0168907D02*
X0085956Y0168907D01*
X0085956Y0166938D01*
X0082019Y0166938D01*
X0082019Y0168907D01*
X0176448Y0169182D02*
X0176448Y0171151D01*
X0180385Y0171151D01*
X0180385Y0169182D01*
X0176448Y0169182D01*
X0186999Y0184793D02*
X0234243Y0184793D01*
X0186999Y0184793D01*
X0186999Y0232037D01*
X0234243Y0232037D01*
X0234243Y0184793D01*
X0234243Y0232037D02*
X0186999Y0232037D01*
X0194400Y0243198D02*
X0194400Y0245167D01*
X0198337Y0245167D01*
X0198337Y0243198D01*
X0194400Y0243198D01*
D12*
X0142767Y0035797D03*
X0136782Y0035797D03*
D13*
X0097786Y0231564D03*
X0097786Y0234596D03*
X0097786Y0242391D03*
X0097786Y0245423D03*
X0077806Y0246604D03*
X0077806Y0243572D03*
D14*
X0090247Y0245462D03*
X0090247Y0239478D03*
X0144617Y0058789D03*
X0144617Y0052804D03*
D15*
X0141330Y0041919D03*
X0138298Y0041919D03*
D16*
X0136940Y0045265D02*
X0136940Y0056289D01*
X0125916Y0056289D02*
X0125916Y0045265D01*
D17*
X0134479Y0047824D03*
D18*
X0074430Y0238531D02*
X0063230Y0238531D01*
X0063230Y0243731D01*
X0074430Y0243731D01*
X0074430Y0238531D01*
D19*
X0068830Y0237181D03*
X0072530Y0245081D03*
X0065130Y0245081D03*
D20*
X0155365Y0062706D03*
X0155365Y0052706D03*
D21*
X0153928Y0004478D02*
X0125582Y0004478D01*
D22*
X0117058Y0010403D02*
X0111448Y0010403D01*
X0111337Y0010895D02*
X0111339Y0010935D01*
X0111345Y0010974D01*
X0111354Y0011013D01*
X0111368Y0011050D01*
X0111385Y0011086D01*
X0111405Y0011121D01*
X0111429Y0011153D01*
X0111456Y0011182D01*
X0111485Y0011209D01*
X0111517Y0011233D01*
X0111552Y0011253D01*
X0111588Y0011270D01*
X0111625Y0011284D01*
X0111664Y0011293D01*
X0111703Y0011299D01*
X0111743Y0011301D01*
X0111783Y0011299D01*
X0111822Y0011293D01*
X0111861Y0011284D01*
X0111898Y0011270D01*
X0111934Y0011253D01*
X0111969Y0011233D01*
X0112001Y0011209D01*
X0112030Y0011182D01*
X0112057Y0011153D01*
X0112081Y0011121D01*
X0112101Y0011086D01*
X0112118Y0011050D01*
X0112132Y0011013D01*
X0112141Y0010974D01*
X0112147Y0010935D01*
X0112149Y0010895D01*
X0112147Y0010855D01*
X0112141Y0010816D01*
X0112132Y0010777D01*
X0112118Y0010740D01*
X0112101Y0010704D01*
X0112081Y0010669D01*
X0112057Y0010637D01*
X0112030Y0010608D01*
X0112001Y0010581D01*
X0111969Y0010557D01*
X0111934Y0010537D01*
X0111898Y0010520D01*
X0111861Y0010506D01*
X0111822Y0010497D01*
X0111783Y0010491D01*
X0111743Y0010489D01*
X0111703Y0010491D01*
X0111664Y0010497D01*
X0111625Y0010506D01*
X0111588Y0010520D01*
X0111552Y0010537D01*
X0111517Y0010557D01*
X0111485Y0010581D01*
X0111456Y0010608D01*
X0111429Y0010637D01*
X0111405Y0010669D01*
X0111385Y0010704D01*
X0111368Y0010740D01*
X0111354Y0010777D01*
X0111345Y0010816D01*
X0111339Y0010855D01*
X0111337Y0010895D01*
X0111447Y0011289D02*
X0111519Y0011303D01*
X0111590Y0011319D01*
X0111661Y0011340D01*
X0111730Y0011364D01*
X0111797Y0011392D01*
X0111864Y0011423D01*
X0111928Y0011458D01*
X0111990Y0011496D01*
X0112051Y0011537D01*
X0112109Y0011582D01*
X0112165Y0011629D01*
X0112218Y0011679D01*
X0112268Y0011732D01*
X0112316Y0011788D01*
X0112361Y0011846D01*
X0112402Y0011906D01*
X0112440Y0011968D01*
X0112475Y0012033D01*
X0112507Y0012099D01*
X0112535Y0012166D01*
X0112559Y0012235D01*
X0112580Y0012305D01*
X0112597Y0012376D01*
X0112611Y0012448D01*
X0112620Y0012521D01*
X0112626Y0012594D01*
X0112628Y0012667D01*
X0112626Y0012740D01*
X0112620Y0012813D01*
X0112611Y0012886D01*
X0112597Y0012958D01*
X0112580Y0013029D01*
X0112559Y0013099D01*
X0112535Y0013168D01*
X0112507Y0013235D01*
X0112475Y0013301D01*
X0112440Y0013366D01*
X0112402Y0013428D01*
X0112361Y0013488D01*
X0112316Y0013546D01*
X0112268Y0013602D01*
X0112218Y0013655D01*
X0112165Y0013705D01*
X0112109Y0013752D01*
X0112051Y0013797D01*
X0111990Y0013838D01*
X0111928Y0013876D01*
X0111864Y0013911D01*
X0111797Y0013942D01*
X0111730Y0013970D01*
X0111661Y0013994D01*
X0111590Y0014015D01*
X0111519Y0014031D01*
X0111447Y0014045D01*
X0113023Y0014930D02*
X0117156Y0014930D01*
X0118732Y0014045D02*
X0118660Y0014031D01*
X0118589Y0014015D01*
X0118518Y0013994D01*
X0118449Y0013970D01*
X0118382Y0013942D01*
X0118315Y0013911D01*
X0118251Y0013876D01*
X0118189Y0013838D01*
X0118128Y0013797D01*
X0118070Y0013752D01*
X0118014Y0013705D01*
X0117961Y0013655D01*
X0117911Y0013602D01*
X0117863Y0013546D01*
X0117818Y0013488D01*
X0117777Y0013428D01*
X0117739Y0013366D01*
X0117704Y0013301D01*
X0117672Y0013235D01*
X0117644Y0013168D01*
X0117620Y0013099D01*
X0117599Y0013029D01*
X0117582Y0012958D01*
X0117568Y0012886D01*
X0117559Y0012813D01*
X0117553Y0012740D01*
X0117551Y0012667D01*
X0117553Y0012594D01*
X0117559Y0012521D01*
X0117568Y0012448D01*
X0117582Y0012376D01*
X0117599Y0012305D01*
X0117620Y0012235D01*
X0117644Y0012166D01*
X0117672Y0012099D01*
X0117704Y0012033D01*
X0117739Y0011968D01*
X0117777Y0011906D01*
X0117818Y0011846D01*
X0117863Y0011788D01*
X0117911Y0011732D01*
X0117961Y0011679D01*
X0118014Y0011629D01*
X0118070Y0011582D01*
X0118128Y0011537D01*
X0118189Y0011496D01*
X0118251Y0011458D01*
X0118315Y0011423D01*
X0118382Y0011392D01*
X0118449Y0011364D01*
X0118518Y0011340D01*
X0118589Y0011319D01*
X0118660Y0011303D01*
X0118732Y0011289D01*
X0079732Y0062945D02*
X0080500Y0063713D01*
X0080500Y0065247D01*
X0079732Y0066015D01*
X0078965Y0066015D01*
X0078198Y0065247D01*
X0078198Y0064480D01*
X0078198Y0065247D02*
X0077430Y0066015D01*
X0076663Y0066015D01*
X0075896Y0065247D01*
X0075896Y0063713D01*
X0076663Y0062945D01*
X0060815Y0062945D02*
X0060815Y0066015D01*
X0060815Y0064480D02*
X0056211Y0064480D01*
X0057745Y0062945D01*
X0056978Y0098378D02*
X0056211Y0099146D01*
X0056211Y0100680D01*
X0056978Y0101448D01*
X0057745Y0101448D01*
X0060815Y0098378D01*
X0060815Y0101448D01*
X0075896Y0100680D02*
X0078198Y0098378D01*
X0078198Y0101448D01*
X0080500Y0100680D02*
X0075896Y0100680D01*
X0076663Y0188930D02*
X0075896Y0189697D01*
X0075896Y0191232D01*
X0076663Y0191999D01*
X0077430Y0191999D01*
X0078198Y0191232D01*
X0078965Y0191999D01*
X0079732Y0191999D01*
X0080500Y0191232D01*
X0080500Y0189697D01*
X0079732Y0188930D01*
X0078198Y0190464D02*
X0078198Y0191232D01*
X0060815Y0191999D02*
X0060815Y0188930D01*
X0060815Y0190464D02*
X0056211Y0190464D01*
X0057745Y0188930D01*
X0056978Y0224363D02*
X0056211Y0225130D01*
X0056211Y0226665D01*
X0056978Y0227432D01*
X0057745Y0227432D01*
X0060815Y0224363D01*
X0060815Y0227432D01*
X0075896Y0226665D02*
X0078198Y0224363D01*
X0078198Y0227432D01*
X0080500Y0226665D02*
X0075896Y0226665D01*
X0197943Y0226665D02*
X0197943Y0225130D01*
X0198710Y0224363D01*
X0197943Y0226665D02*
X0198710Y0227432D01*
X0199478Y0227432D01*
X0202547Y0224363D01*
X0202547Y0227432D01*
X0217628Y0226665D02*
X0219930Y0224363D01*
X0219930Y0227432D01*
X0222232Y0226665D02*
X0217628Y0226665D01*
X0218395Y0191999D02*
X0219163Y0191999D01*
X0219930Y0191232D01*
X0220697Y0191999D01*
X0221465Y0191999D01*
X0222232Y0191232D01*
X0222232Y0189697D01*
X0221465Y0188930D01*
X0219930Y0190464D02*
X0219930Y0191232D01*
X0218395Y0191999D02*
X0217628Y0191232D01*
X0217628Y0189697D01*
X0218395Y0188930D01*
X0202547Y0188930D02*
X0202547Y0191999D01*
X0202547Y0190464D02*
X0197943Y0190464D01*
X0199478Y0188930D01*
X0199478Y0101448D02*
X0198710Y0101448D01*
X0197943Y0100680D01*
X0197943Y0099146D01*
X0198710Y0098378D01*
X0199478Y0101448D02*
X0202547Y0098378D01*
X0202547Y0101448D01*
X0217628Y0100680D02*
X0219930Y0098378D01*
X0219930Y0101448D01*
X0222232Y0100680D02*
X0217628Y0100680D01*
X0218395Y0066015D02*
X0219163Y0066015D01*
X0219930Y0065247D01*
X0220697Y0066015D01*
X0221465Y0066015D01*
X0222232Y0065247D01*
X0222232Y0063713D01*
X0221465Y0062945D01*
X0219930Y0064480D02*
X0219930Y0065247D01*
X0218395Y0066015D02*
X0217628Y0065247D01*
X0217628Y0063713D01*
X0218395Y0062945D01*
X0202547Y0062945D02*
X0202547Y0066015D01*
X0202547Y0064480D02*
X0197943Y0064480D01*
X0199478Y0062945D01*
D23*
X0118042Y0014488D03*
X0118042Y0010846D03*
X0112137Y0014488D03*
D24*
X0112629Y0013651D03*
X0112629Y0011682D03*
X0117550Y0011682D03*
X0117550Y0013651D03*
D25*
X0117402Y0012667D03*
X0112776Y0012667D03*
D26*
X0112530Y0010895D03*
D27*
X0111300Y0010846D03*
D28*
X0097709Y0162342D02*
X0092509Y0162342D01*
X0092509Y0173542D01*
X0097709Y0173542D01*
X0097709Y0162342D01*
D29*
X0099059Y0164242D03*
X0099059Y0171642D03*
X0091159Y0167942D03*
D30*
X0085463Y0167923D03*
X0082511Y0167923D03*
X0106841Y0171761D03*
X0109794Y0171761D03*
X0056920Y0117312D03*
X0053967Y0117312D03*
X0125621Y0041545D03*
X0128574Y0041545D03*
X0114184Y0018907D03*
X0111231Y0018907D03*
X0195267Y0118001D03*
X0198219Y0118001D03*
X0179893Y0170167D03*
X0176940Y0170167D03*
X0194893Y0244182D03*
X0197845Y0244182D03*
X0056467Y0242804D03*
X0053515Y0242804D03*
D31*
X0108554Y0156052D03*
X0108554Y0149753D03*
X0116034Y0149753D03*
X0116034Y0156052D03*
X0123515Y0156052D03*
X0123515Y0149753D03*
M02*
