G75*
%MOIN*%
%OFA0B0*%
%FSLAX25Y25*%
%IPPOS*%
%LPD*%
%AMOC8*
5,1,8,0,0,1.08239X$1,22.5*
%
%ADD10C,0.00000*%
%ADD11C,0.12611*%
%ADD12R,0.05328X0.06509*%
%ADD13R,0.03359X0.03359*%
%ADD14R,0.06509X0.05328*%
%ADD15R,0.03543X0.01378*%
%ADD16R,0.07087X0.09843*%
%ADD17R,0.04737X0.06312*%
%ADD18C,0.06400*%
%ADD19R,0.02375X0.06312*%
%ADD20C,0.02965*%
%ADD21R,0.04737X0.05131*%
%ADD22C,0.04769*%
%ADD23C,0.05359*%
%ADD24R,0.05524X0.05524*%
%ADD25R,0.05524X0.04343*%
%ADD26R,0.03162X0.03162*%
%ADD27R,0.06312X0.04934*%
%ADD28R,0.07887X0.08674*%
%ADD29C,0.07887*%
%ADD30R,0.05600X0.05600*%
%ADD31C,0.05600*%
%ADD32R,0.06706X0.04343*%
%ADD33R,0.04343X0.06706*%
%ADD34R,0.24422X0.24422*%
%ADD35C,0.16611*%
D10*
X0041330Y0043060D02*
X0100385Y0043060D01*
X0104322Y0007627D01*
X0175188Y0007627D01*
X0179125Y0043060D01*
X0238180Y0043060D01*
X0238180Y0251722D01*
X0041330Y0251722D01*
X0041330Y0043060D01*
X0062983Y0145423D02*
X0062985Y0145576D01*
X0062991Y0145730D01*
X0063001Y0145883D01*
X0063015Y0146035D01*
X0063033Y0146188D01*
X0063055Y0146339D01*
X0063080Y0146490D01*
X0063110Y0146641D01*
X0063144Y0146791D01*
X0063181Y0146939D01*
X0063222Y0147087D01*
X0063267Y0147233D01*
X0063316Y0147379D01*
X0063369Y0147523D01*
X0063425Y0147665D01*
X0063485Y0147806D01*
X0063549Y0147946D01*
X0063616Y0148084D01*
X0063687Y0148220D01*
X0063762Y0148354D01*
X0063839Y0148486D01*
X0063921Y0148616D01*
X0064005Y0148744D01*
X0064093Y0148870D01*
X0064184Y0148993D01*
X0064278Y0149114D01*
X0064376Y0149232D01*
X0064476Y0149348D01*
X0064580Y0149461D01*
X0064686Y0149572D01*
X0064795Y0149680D01*
X0064907Y0149785D01*
X0065021Y0149886D01*
X0065139Y0149985D01*
X0065258Y0150081D01*
X0065380Y0150174D01*
X0065505Y0150263D01*
X0065632Y0150350D01*
X0065761Y0150432D01*
X0065892Y0150512D01*
X0066025Y0150588D01*
X0066160Y0150661D01*
X0066297Y0150730D01*
X0066436Y0150795D01*
X0066576Y0150857D01*
X0066718Y0150915D01*
X0066861Y0150970D01*
X0067006Y0151021D01*
X0067152Y0151068D01*
X0067299Y0151111D01*
X0067447Y0151150D01*
X0067596Y0151186D01*
X0067746Y0151217D01*
X0067897Y0151245D01*
X0068048Y0151269D01*
X0068201Y0151289D01*
X0068353Y0151305D01*
X0068506Y0151317D01*
X0068659Y0151325D01*
X0068812Y0151329D01*
X0068966Y0151329D01*
X0069119Y0151325D01*
X0069272Y0151317D01*
X0069425Y0151305D01*
X0069577Y0151289D01*
X0069730Y0151269D01*
X0069881Y0151245D01*
X0070032Y0151217D01*
X0070182Y0151186D01*
X0070331Y0151150D01*
X0070479Y0151111D01*
X0070626Y0151068D01*
X0070772Y0151021D01*
X0070917Y0150970D01*
X0071060Y0150915D01*
X0071202Y0150857D01*
X0071342Y0150795D01*
X0071481Y0150730D01*
X0071618Y0150661D01*
X0071753Y0150588D01*
X0071886Y0150512D01*
X0072017Y0150432D01*
X0072146Y0150350D01*
X0072273Y0150263D01*
X0072398Y0150174D01*
X0072520Y0150081D01*
X0072639Y0149985D01*
X0072757Y0149886D01*
X0072871Y0149785D01*
X0072983Y0149680D01*
X0073092Y0149572D01*
X0073198Y0149461D01*
X0073302Y0149348D01*
X0073402Y0149232D01*
X0073500Y0149114D01*
X0073594Y0148993D01*
X0073685Y0148870D01*
X0073773Y0148744D01*
X0073857Y0148616D01*
X0073939Y0148486D01*
X0074016Y0148354D01*
X0074091Y0148220D01*
X0074162Y0148084D01*
X0074229Y0147946D01*
X0074293Y0147806D01*
X0074353Y0147665D01*
X0074409Y0147523D01*
X0074462Y0147379D01*
X0074511Y0147233D01*
X0074556Y0147087D01*
X0074597Y0146939D01*
X0074634Y0146791D01*
X0074668Y0146641D01*
X0074698Y0146490D01*
X0074723Y0146339D01*
X0074745Y0146188D01*
X0074763Y0146035D01*
X0074777Y0145883D01*
X0074787Y0145730D01*
X0074793Y0145576D01*
X0074795Y0145423D01*
X0074793Y0145270D01*
X0074787Y0145116D01*
X0074777Y0144963D01*
X0074763Y0144811D01*
X0074745Y0144658D01*
X0074723Y0144507D01*
X0074698Y0144356D01*
X0074668Y0144205D01*
X0074634Y0144055D01*
X0074597Y0143907D01*
X0074556Y0143759D01*
X0074511Y0143613D01*
X0074462Y0143467D01*
X0074409Y0143323D01*
X0074353Y0143181D01*
X0074293Y0143040D01*
X0074229Y0142900D01*
X0074162Y0142762D01*
X0074091Y0142626D01*
X0074016Y0142492D01*
X0073939Y0142360D01*
X0073857Y0142230D01*
X0073773Y0142102D01*
X0073685Y0141976D01*
X0073594Y0141853D01*
X0073500Y0141732D01*
X0073402Y0141614D01*
X0073302Y0141498D01*
X0073198Y0141385D01*
X0073092Y0141274D01*
X0072983Y0141166D01*
X0072871Y0141061D01*
X0072757Y0140960D01*
X0072639Y0140861D01*
X0072520Y0140765D01*
X0072398Y0140672D01*
X0072273Y0140583D01*
X0072146Y0140496D01*
X0072017Y0140414D01*
X0071886Y0140334D01*
X0071753Y0140258D01*
X0071618Y0140185D01*
X0071481Y0140116D01*
X0071342Y0140051D01*
X0071202Y0139989D01*
X0071060Y0139931D01*
X0070917Y0139876D01*
X0070772Y0139825D01*
X0070626Y0139778D01*
X0070479Y0139735D01*
X0070331Y0139696D01*
X0070182Y0139660D01*
X0070032Y0139629D01*
X0069881Y0139601D01*
X0069730Y0139577D01*
X0069577Y0139557D01*
X0069425Y0139541D01*
X0069272Y0139529D01*
X0069119Y0139521D01*
X0068966Y0139517D01*
X0068812Y0139517D01*
X0068659Y0139521D01*
X0068506Y0139529D01*
X0068353Y0139541D01*
X0068201Y0139557D01*
X0068048Y0139577D01*
X0067897Y0139601D01*
X0067746Y0139629D01*
X0067596Y0139660D01*
X0067447Y0139696D01*
X0067299Y0139735D01*
X0067152Y0139778D01*
X0067006Y0139825D01*
X0066861Y0139876D01*
X0066718Y0139931D01*
X0066576Y0139989D01*
X0066436Y0140051D01*
X0066297Y0140116D01*
X0066160Y0140185D01*
X0066025Y0140258D01*
X0065892Y0140334D01*
X0065761Y0140414D01*
X0065632Y0140496D01*
X0065505Y0140583D01*
X0065380Y0140672D01*
X0065258Y0140765D01*
X0065139Y0140861D01*
X0065021Y0140960D01*
X0064907Y0141061D01*
X0064795Y0141166D01*
X0064686Y0141274D01*
X0064580Y0141385D01*
X0064476Y0141498D01*
X0064376Y0141614D01*
X0064278Y0141732D01*
X0064184Y0141853D01*
X0064093Y0141976D01*
X0064005Y0142102D01*
X0063921Y0142230D01*
X0063839Y0142360D01*
X0063762Y0142492D01*
X0063687Y0142626D01*
X0063616Y0142762D01*
X0063549Y0142900D01*
X0063485Y0143040D01*
X0063425Y0143181D01*
X0063369Y0143323D01*
X0063316Y0143467D01*
X0063267Y0143613D01*
X0063222Y0143759D01*
X0063181Y0143907D01*
X0063144Y0144055D01*
X0063110Y0144205D01*
X0063080Y0144356D01*
X0063055Y0144507D01*
X0063033Y0144658D01*
X0063015Y0144811D01*
X0063001Y0144963D01*
X0062991Y0145116D01*
X0062985Y0145270D01*
X0062983Y0145423D01*
X0130798Y0021407D02*
X0130800Y0021472D01*
X0130806Y0021538D01*
X0130816Y0021602D01*
X0130829Y0021666D01*
X0130847Y0021729D01*
X0130868Y0021791D01*
X0130893Y0021851D01*
X0130922Y0021910D01*
X0130954Y0021967D01*
X0130990Y0022022D01*
X0131028Y0022075D01*
X0131070Y0022125D01*
X0131115Y0022173D01*
X0131163Y0022218D01*
X0131213Y0022260D01*
X0131266Y0022298D01*
X0131321Y0022334D01*
X0131378Y0022366D01*
X0131437Y0022395D01*
X0131497Y0022420D01*
X0131559Y0022441D01*
X0131622Y0022459D01*
X0131686Y0022472D01*
X0131750Y0022482D01*
X0131816Y0022488D01*
X0131881Y0022490D01*
X0131946Y0022488D01*
X0132012Y0022482D01*
X0132076Y0022472D01*
X0132140Y0022459D01*
X0132203Y0022441D01*
X0132265Y0022420D01*
X0132325Y0022395D01*
X0132384Y0022366D01*
X0132441Y0022334D01*
X0132496Y0022298D01*
X0132549Y0022260D01*
X0132599Y0022218D01*
X0132647Y0022173D01*
X0132692Y0022125D01*
X0132734Y0022075D01*
X0132772Y0022022D01*
X0132808Y0021967D01*
X0132840Y0021910D01*
X0132869Y0021851D01*
X0132894Y0021791D01*
X0132915Y0021729D01*
X0132933Y0021666D01*
X0132946Y0021602D01*
X0132956Y0021538D01*
X0132962Y0021472D01*
X0132964Y0021407D01*
X0132962Y0021342D01*
X0132956Y0021276D01*
X0132946Y0021212D01*
X0132933Y0021148D01*
X0132915Y0021085D01*
X0132894Y0021023D01*
X0132869Y0020963D01*
X0132840Y0020904D01*
X0132808Y0020847D01*
X0132772Y0020792D01*
X0132734Y0020739D01*
X0132692Y0020689D01*
X0132647Y0020641D01*
X0132599Y0020596D01*
X0132549Y0020554D01*
X0132496Y0020516D01*
X0132441Y0020480D01*
X0132384Y0020448D01*
X0132325Y0020419D01*
X0132265Y0020394D01*
X0132203Y0020373D01*
X0132140Y0020355D01*
X0132076Y0020342D01*
X0132012Y0020332D01*
X0131946Y0020326D01*
X0131881Y0020324D01*
X0131816Y0020326D01*
X0131750Y0020332D01*
X0131686Y0020342D01*
X0131622Y0020355D01*
X0131559Y0020373D01*
X0131497Y0020394D01*
X0131437Y0020419D01*
X0131378Y0020448D01*
X0131321Y0020480D01*
X0131266Y0020516D01*
X0131213Y0020554D01*
X0131163Y0020596D01*
X0131115Y0020641D01*
X0131070Y0020689D01*
X0131028Y0020739D01*
X0130990Y0020792D01*
X0130954Y0020847D01*
X0130922Y0020904D01*
X0130893Y0020963D01*
X0130868Y0021023D01*
X0130847Y0021085D01*
X0130829Y0021148D01*
X0130816Y0021212D01*
X0130806Y0021276D01*
X0130800Y0021342D01*
X0130798Y0021407D01*
X0146546Y0021407D02*
X0146548Y0021472D01*
X0146554Y0021538D01*
X0146564Y0021602D01*
X0146577Y0021666D01*
X0146595Y0021729D01*
X0146616Y0021791D01*
X0146641Y0021851D01*
X0146670Y0021910D01*
X0146702Y0021967D01*
X0146738Y0022022D01*
X0146776Y0022075D01*
X0146818Y0022125D01*
X0146863Y0022173D01*
X0146911Y0022218D01*
X0146961Y0022260D01*
X0147014Y0022298D01*
X0147069Y0022334D01*
X0147126Y0022366D01*
X0147185Y0022395D01*
X0147245Y0022420D01*
X0147307Y0022441D01*
X0147370Y0022459D01*
X0147434Y0022472D01*
X0147498Y0022482D01*
X0147564Y0022488D01*
X0147629Y0022490D01*
X0147694Y0022488D01*
X0147760Y0022482D01*
X0147824Y0022472D01*
X0147888Y0022459D01*
X0147951Y0022441D01*
X0148013Y0022420D01*
X0148073Y0022395D01*
X0148132Y0022366D01*
X0148189Y0022334D01*
X0148244Y0022298D01*
X0148297Y0022260D01*
X0148347Y0022218D01*
X0148395Y0022173D01*
X0148440Y0022125D01*
X0148482Y0022075D01*
X0148520Y0022022D01*
X0148556Y0021967D01*
X0148588Y0021910D01*
X0148617Y0021851D01*
X0148642Y0021791D01*
X0148663Y0021729D01*
X0148681Y0021666D01*
X0148694Y0021602D01*
X0148704Y0021538D01*
X0148710Y0021472D01*
X0148712Y0021407D01*
X0148710Y0021342D01*
X0148704Y0021276D01*
X0148694Y0021212D01*
X0148681Y0021148D01*
X0148663Y0021085D01*
X0148642Y0021023D01*
X0148617Y0020963D01*
X0148588Y0020904D01*
X0148556Y0020847D01*
X0148520Y0020792D01*
X0148482Y0020739D01*
X0148440Y0020689D01*
X0148395Y0020641D01*
X0148347Y0020596D01*
X0148297Y0020554D01*
X0148244Y0020516D01*
X0148189Y0020480D01*
X0148132Y0020448D01*
X0148073Y0020419D01*
X0148013Y0020394D01*
X0147951Y0020373D01*
X0147888Y0020355D01*
X0147824Y0020342D01*
X0147760Y0020332D01*
X0147694Y0020326D01*
X0147629Y0020324D01*
X0147564Y0020326D01*
X0147498Y0020332D01*
X0147434Y0020342D01*
X0147370Y0020355D01*
X0147307Y0020373D01*
X0147245Y0020394D01*
X0147185Y0020419D01*
X0147126Y0020448D01*
X0147069Y0020480D01*
X0147014Y0020516D01*
X0146961Y0020554D01*
X0146911Y0020596D01*
X0146863Y0020641D01*
X0146818Y0020689D01*
X0146776Y0020739D01*
X0146738Y0020792D01*
X0146702Y0020847D01*
X0146670Y0020904D01*
X0146641Y0020963D01*
X0146616Y0021023D01*
X0146595Y0021085D01*
X0146577Y0021148D01*
X0146564Y0021212D01*
X0146554Y0021276D01*
X0146548Y0021342D01*
X0146546Y0021407D01*
X0204715Y0145423D02*
X0204717Y0145576D01*
X0204723Y0145730D01*
X0204733Y0145883D01*
X0204747Y0146035D01*
X0204765Y0146188D01*
X0204787Y0146339D01*
X0204812Y0146490D01*
X0204842Y0146641D01*
X0204876Y0146791D01*
X0204913Y0146939D01*
X0204954Y0147087D01*
X0204999Y0147233D01*
X0205048Y0147379D01*
X0205101Y0147523D01*
X0205157Y0147665D01*
X0205217Y0147806D01*
X0205281Y0147946D01*
X0205348Y0148084D01*
X0205419Y0148220D01*
X0205494Y0148354D01*
X0205571Y0148486D01*
X0205653Y0148616D01*
X0205737Y0148744D01*
X0205825Y0148870D01*
X0205916Y0148993D01*
X0206010Y0149114D01*
X0206108Y0149232D01*
X0206208Y0149348D01*
X0206312Y0149461D01*
X0206418Y0149572D01*
X0206527Y0149680D01*
X0206639Y0149785D01*
X0206753Y0149886D01*
X0206871Y0149985D01*
X0206990Y0150081D01*
X0207112Y0150174D01*
X0207237Y0150263D01*
X0207364Y0150350D01*
X0207493Y0150432D01*
X0207624Y0150512D01*
X0207757Y0150588D01*
X0207892Y0150661D01*
X0208029Y0150730D01*
X0208168Y0150795D01*
X0208308Y0150857D01*
X0208450Y0150915D01*
X0208593Y0150970D01*
X0208738Y0151021D01*
X0208884Y0151068D01*
X0209031Y0151111D01*
X0209179Y0151150D01*
X0209328Y0151186D01*
X0209478Y0151217D01*
X0209629Y0151245D01*
X0209780Y0151269D01*
X0209933Y0151289D01*
X0210085Y0151305D01*
X0210238Y0151317D01*
X0210391Y0151325D01*
X0210544Y0151329D01*
X0210698Y0151329D01*
X0210851Y0151325D01*
X0211004Y0151317D01*
X0211157Y0151305D01*
X0211309Y0151289D01*
X0211462Y0151269D01*
X0211613Y0151245D01*
X0211764Y0151217D01*
X0211914Y0151186D01*
X0212063Y0151150D01*
X0212211Y0151111D01*
X0212358Y0151068D01*
X0212504Y0151021D01*
X0212649Y0150970D01*
X0212792Y0150915D01*
X0212934Y0150857D01*
X0213074Y0150795D01*
X0213213Y0150730D01*
X0213350Y0150661D01*
X0213485Y0150588D01*
X0213618Y0150512D01*
X0213749Y0150432D01*
X0213878Y0150350D01*
X0214005Y0150263D01*
X0214130Y0150174D01*
X0214252Y0150081D01*
X0214371Y0149985D01*
X0214489Y0149886D01*
X0214603Y0149785D01*
X0214715Y0149680D01*
X0214824Y0149572D01*
X0214930Y0149461D01*
X0215034Y0149348D01*
X0215134Y0149232D01*
X0215232Y0149114D01*
X0215326Y0148993D01*
X0215417Y0148870D01*
X0215505Y0148744D01*
X0215589Y0148616D01*
X0215671Y0148486D01*
X0215748Y0148354D01*
X0215823Y0148220D01*
X0215894Y0148084D01*
X0215961Y0147946D01*
X0216025Y0147806D01*
X0216085Y0147665D01*
X0216141Y0147523D01*
X0216194Y0147379D01*
X0216243Y0147233D01*
X0216288Y0147087D01*
X0216329Y0146939D01*
X0216366Y0146791D01*
X0216400Y0146641D01*
X0216430Y0146490D01*
X0216455Y0146339D01*
X0216477Y0146188D01*
X0216495Y0146035D01*
X0216509Y0145883D01*
X0216519Y0145730D01*
X0216525Y0145576D01*
X0216527Y0145423D01*
X0216525Y0145270D01*
X0216519Y0145116D01*
X0216509Y0144963D01*
X0216495Y0144811D01*
X0216477Y0144658D01*
X0216455Y0144507D01*
X0216430Y0144356D01*
X0216400Y0144205D01*
X0216366Y0144055D01*
X0216329Y0143907D01*
X0216288Y0143759D01*
X0216243Y0143613D01*
X0216194Y0143467D01*
X0216141Y0143323D01*
X0216085Y0143181D01*
X0216025Y0143040D01*
X0215961Y0142900D01*
X0215894Y0142762D01*
X0215823Y0142626D01*
X0215748Y0142492D01*
X0215671Y0142360D01*
X0215589Y0142230D01*
X0215505Y0142102D01*
X0215417Y0141976D01*
X0215326Y0141853D01*
X0215232Y0141732D01*
X0215134Y0141614D01*
X0215034Y0141498D01*
X0214930Y0141385D01*
X0214824Y0141274D01*
X0214715Y0141166D01*
X0214603Y0141061D01*
X0214489Y0140960D01*
X0214371Y0140861D01*
X0214252Y0140765D01*
X0214130Y0140672D01*
X0214005Y0140583D01*
X0213878Y0140496D01*
X0213749Y0140414D01*
X0213618Y0140334D01*
X0213485Y0140258D01*
X0213350Y0140185D01*
X0213213Y0140116D01*
X0213074Y0140051D01*
X0212934Y0139989D01*
X0212792Y0139931D01*
X0212649Y0139876D01*
X0212504Y0139825D01*
X0212358Y0139778D01*
X0212211Y0139735D01*
X0212063Y0139696D01*
X0211914Y0139660D01*
X0211764Y0139629D01*
X0211613Y0139601D01*
X0211462Y0139577D01*
X0211309Y0139557D01*
X0211157Y0139541D01*
X0211004Y0139529D01*
X0210851Y0139521D01*
X0210698Y0139517D01*
X0210544Y0139517D01*
X0210391Y0139521D01*
X0210238Y0139529D01*
X0210085Y0139541D01*
X0209933Y0139557D01*
X0209780Y0139577D01*
X0209629Y0139601D01*
X0209478Y0139629D01*
X0209328Y0139660D01*
X0209179Y0139696D01*
X0209031Y0139735D01*
X0208884Y0139778D01*
X0208738Y0139825D01*
X0208593Y0139876D01*
X0208450Y0139931D01*
X0208308Y0139989D01*
X0208168Y0140051D01*
X0208029Y0140116D01*
X0207892Y0140185D01*
X0207757Y0140258D01*
X0207624Y0140334D01*
X0207493Y0140414D01*
X0207364Y0140496D01*
X0207237Y0140583D01*
X0207112Y0140672D01*
X0206990Y0140765D01*
X0206871Y0140861D01*
X0206753Y0140960D01*
X0206639Y0141061D01*
X0206527Y0141166D01*
X0206418Y0141274D01*
X0206312Y0141385D01*
X0206208Y0141498D01*
X0206108Y0141614D01*
X0206010Y0141732D01*
X0205916Y0141853D01*
X0205825Y0141976D01*
X0205737Y0142102D01*
X0205653Y0142230D01*
X0205571Y0142360D01*
X0205494Y0142492D01*
X0205419Y0142626D01*
X0205348Y0142762D01*
X0205281Y0142900D01*
X0205217Y0143040D01*
X0205157Y0143181D01*
X0205101Y0143323D01*
X0205048Y0143467D01*
X0204999Y0143613D01*
X0204954Y0143759D01*
X0204913Y0143907D01*
X0204876Y0144055D01*
X0204842Y0144205D01*
X0204812Y0144356D01*
X0204787Y0144507D01*
X0204765Y0144658D01*
X0204747Y0144811D01*
X0204733Y0144963D01*
X0204723Y0145116D01*
X0204717Y0145270D01*
X0204715Y0145423D01*
D11*
X0210621Y0145423D03*
X0068889Y0145423D03*
D12*
X0136231Y0035797D03*
X0143318Y0035797D03*
D13*
X0141586Y0041919D03*
X0138042Y0041919D03*
X0097786Y0231308D03*
X0097786Y0234852D03*
X0097786Y0242135D03*
X0097786Y0245678D03*
X0077806Y0246860D03*
X0077806Y0243316D03*
D14*
X0090247Y0246013D03*
X0090247Y0238927D03*
X0144617Y0059340D03*
X0144617Y0052253D03*
D15*
X0137530Y0052745D03*
X0137530Y0050777D03*
X0137530Y0048808D03*
X0137530Y0046840D03*
X0137530Y0054714D03*
X0125326Y0054714D03*
X0125326Y0052745D03*
X0125326Y0050777D03*
X0125326Y0048808D03*
X0125326Y0046840D03*
D16*
X0131428Y0050777D03*
D17*
X0068830Y0236801D03*
X0072570Y0245462D03*
X0065089Y0245462D03*
D18*
X0152565Y0062706D02*
X0158165Y0062706D01*
X0158165Y0052706D02*
X0152565Y0052706D01*
D19*
X0144873Y0023375D03*
X0142314Y0023375D03*
X0139755Y0023375D03*
X0137196Y0023375D03*
X0134637Y0023375D03*
D20*
X0131881Y0021407D03*
X0147629Y0021407D03*
D21*
X0144660Y0010415D03*
X0134849Y0010415D03*
D22*
X0125582Y0010958D02*
X0125582Y0014927D01*
X0125582Y0024344D02*
X0125582Y0028312D01*
X0153928Y0028312D02*
X0153928Y0024344D01*
X0153928Y0014927D02*
X0153928Y0010958D01*
D23*
X0139755Y0137645D03*
X0139755Y0142814D03*
X0139755Y0148032D03*
X0139755Y0153200D03*
D24*
X0119223Y0012667D03*
X0110956Y0012667D03*
D25*
X0099834Y0164202D03*
X0099834Y0171682D03*
X0090385Y0167942D03*
D26*
X0085759Y0167923D03*
X0082215Y0167923D03*
X0106546Y0171761D03*
X0110089Y0171761D03*
X0057215Y0117312D03*
X0053672Y0117312D03*
X0125326Y0041545D03*
X0128869Y0041545D03*
X0114479Y0018907D03*
X0110936Y0018907D03*
X0194971Y0118001D03*
X0198515Y0118001D03*
X0180188Y0170167D03*
X0176645Y0170167D03*
X0194597Y0244182D03*
X0198141Y0244182D03*
X0056763Y0242804D03*
X0053219Y0242804D03*
D27*
X0108554Y0156643D03*
X0108554Y0149163D03*
X0116034Y0149163D03*
X0116034Y0156643D03*
X0123515Y0156643D03*
X0123515Y0149163D03*
D28*
X0078731Y0180856D03*
X0059046Y0180856D03*
X0059046Y0235974D03*
X0078731Y0235974D03*
X0078731Y0109989D03*
X0059046Y0109989D03*
X0059046Y0054871D03*
X0078731Y0054871D03*
X0200778Y0054871D03*
X0220463Y0054871D03*
X0220463Y0109989D03*
X0200778Y0109989D03*
X0200778Y0180856D03*
X0220463Y0180856D03*
X0220463Y0235974D03*
X0200778Y0235974D03*
D29*
X0200778Y0233021D03*
X0220463Y0233021D03*
X0220463Y0183808D03*
X0200778Y0183808D03*
X0200778Y0107037D03*
X0220463Y0107037D03*
X0220463Y0057824D03*
X0200778Y0057824D03*
X0078731Y0057824D03*
X0059046Y0057824D03*
X0059046Y0107037D03*
X0078731Y0107037D03*
X0078731Y0183808D03*
X0059046Y0183808D03*
X0059046Y0233021D03*
X0078731Y0233021D03*
D30*
X0180011Y0146604D03*
D31*
X0180011Y0154478D03*
X0180011Y0162352D03*
X0172137Y0162352D03*
X0172137Y0154478D03*
X0172137Y0146604D03*
D32*
X0175188Y0181604D03*
X0175188Y0186604D03*
X0175188Y0191604D03*
X0175188Y0196604D03*
X0175188Y0201604D03*
X0175188Y0206604D03*
X0175188Y0211604D03*
X0175188Y0216604D03*
X0175188Y0221604D03*
X0175188Y0226604D03*
X0175188Y0231604D03*
X0175188Y0236604D03*
X0175188Y0241604D03*
X0175188Y0246604D03*
X0104322Y0246604D03*
X0104322Y0241604D03*
X0104322Y0236604D03*
X0104322Y0231604D03*
X0104322Y0226604D03*
X0104322Y0221604D03*
X0104322Y0216604D03*
X0104322Y0211604D03*
X0104322Y0206604D03*
X0104322Y0201604D03*
X0104322Y0196604D03*
X0104322Y0191604D03*
X0104322Y0186604D03*
X0104322Y0181604D03*
D33*
X0117255Y0175738D03*
X0122255Y0175738D03*
X0127255Y0175738D03*
X0132255Y0175738D03*
X0137255Y0175738D03*
X0142255Y0175738D03*
X0147255Y0175738D03*
X0152255Y0175738D03*
X0157255Y0175738D03*
X0162255Y0175738D03*
D34*
X0139755Y0216289D03*
D35*
X0139853Y0216289D03*
M02*
